<svg width="1512" height="600" viewBox="0 0 1512 600" fill="none" xmlns="http://www.w3.org/2000/svg">
<path d="M-103 560H757.721C833.654 560 895.909 499.789 898.443 423.898L903.1 284.4V209.2C903.1 115.754 978.853 40 1072.3 40V40C1165.75 40 1241.5 115.753 1241.5 209.2V419.2C1241.5 496.962 1304.54 560 1382.3 560H1631" stroke="#F9BA04" stroke-width="80"/>
<path d="M-103 560H757.721C833.654 560 895.909 499.789 898.443 423.898L903.1 284.4V209.2C903.1 115.754 978.853 40 1072.3 40V40C1165.75 40 1241.5 115.753 1241.5 209.2V419.2C1241.5 496.962 1304.54 560 1382.3 560H1631" stroke="#0E0E0E" stroke-width="2" stroke-dasharray="16 16"/>
</svg>
