<svg width="1512" height="605" viewBox="0 0 1512 605" fill="none" xmlns="http://www.w3.org/2000/svg">
<path d="M998.29 253C1020.38 253 1038.29 235.091 1038.29 213C1038.29 190.909 1020.38 173 998.29 173V253ZM-83 604.5H388.931V524.5H-83V604.5ZM679.731 253H998.29V173H679.731V253ZM489.731 363V423.7H569.731V363H489.731ZM679.731 173C574.797 173 489.731 258.066 489.731 363H569.731C569.731 302.249 618.979 253 679.731 253V173ZM388.931 604.5C488.784 604.5 569.731 523.553 569.731 423.7H489.731C489.731 479.37 444.601 524.5 388.931 524.5V604.5Z" fill="#F9BA04"/>
<path d="M998.29 214C998.842 214 999.29 213.552 999.29 213C999.29 212.448 998.842 212 998.29 212V214ZM-83 565.5H-75.1345V563.5H-83V565.5ZM-59.4035 565.5H-43.6724V563.5H-59.4035V565.5ZM-27.9414 565.5H-12.2104V563.5H-27.9414V565.5ZM3.52063 565.5H19.2517V563.5H3.52063V565.5ZM34.9827 565.5H50.7137V563.5H34.9827V565.5ZM66.4447 565.5H82.1757V563.5H66.4447V565.5ZM97.9067 565.5H113.638V563.5H97.9067V565.5ZM129.369 565.5H145.1V563.5H129.369V565.5ZM160.831 565.5H176.562V563.5H160.831V565.5ZM192.293 565.5H208.024V563.5H192.293V565.5ZM223.755 565.5H239.486V563.5H223.755V565.5ZM255.217 565.5H270.948V563.5H255.217V565.5ZM286.679 565.5H302.41V563.5H286.679V565.5ZM318.141 565.5H333.872V563.5H318.141V565.5ZM349.603 565.5H365.334V563.5H349.603V565.5ZM381.065 565.5H388.931V563.5H381.065V565.5ZM388.931 565.5C391.6 565.5 394.252 565.426 396.885 565.281L396.775 563.284C394.178 563.427 391.563 563.5 388.931 563.5V565.5ZM412.694 563.517C417.967 562.628 423.142 561.447 428.201 559.992L427.649 558.069C422.661 559.504 417.56 560.668 412.361 561.545L412.694 563.517ZM443.21 554.74C448.131 552.699 452.912 550.39 457.534 547.83L456.565 546.08C452.008 548.604 447.295 550.881 442.444 552.892L443.21 554.74ZM470.993 539.356C475.321 536.279 479.47 532.965 483.419 529.433L482.086 527.943C478.192 531.425 474.102 534.692 469.834 537.726L470.993 539.356ZM494.664 518.189C498.196 514.239 501.51 510.091 504.587 505.762L502.957 504.603C499.923 508.871 496.656 512.961 493.173 516.855L494.664 518.189ZM513.06 492.303C515.62 487.681 517.93 482.9 519.97 477.98L518.123 477.213C516.111 482.064 513.835 486.777 511.311 491.334L513.06 492.303ZM525.222 462.971C526.677 457.912 527.858 452.737 528.748 447.463L526.776 447.13C525.899 452.329 524.735 457.431 523.3 462.418L525.222 462.971ZM530.511 431.654C530.657 429.021 530.731 426.369 530.731 423.7H528.731C528.731 426.332 528.658 428.948 528.514 431.544L530.511 431.654ZM530.731 423.7V416.112H528.731V423.7H530.731ZM530.731 400.937V385.762H528.731V400.937H530.731ZM530.731 370.587V363H528.731V370.587H530.731ZM530.731 363C530.731 360.194 530.808 357.407 530.961 354.64L528.964 354.53C528.809 357.333 528.731 360.158 528.731 363H530.731ZM532.814 338.028C533.749 332.487 534.99 327.05 536.519 321.734L534.597 321.181C533.047 326.569 531.789 332.079 530.842 337.695L532.814 338.028ZM542.037 305.965C544.18 300.795 546.607 295.772 549.297 290.915L547.548 289.946C544.821 294.868 542.362 299.959 540.189 305.199L542.037 305.965ZM558.201 276.773C561.434 272.224 564.917 267.865 568.628 263.714L567.137 262.381C563.376 266.587 559.848 271.004 556.571 275.614L558.201 276.773ZM580.445 251.897C584.595 248.186 588.955 244.704 593.504 241.47L592.345 239.84C587.735 243.117 583.317 246.646 579.112 250.407L580.445 251.897ZM607.645 232.566C612.502 229.876 617.526 227.45 622.696 225.306L621.929 223.458C616.69 225.631 611.599 228.091 606.676 230.817L607.645 232.566ZM638.465 219.788C643.78 218.259 649.218 217.018 654.759 216.083L654.426 214.111C648.81 215.059 643.299 216.316 637.912 217.866L638.465 219.788ZM671.371 214.231C674.138 214.078 676.925 214 679.731 214V212C676.888 212 674.064 212.079 671.26 212.234L671.371 214.231ZM679.731 214H687.695V212H679.731V214ZM703.623 214H719.551V212H703.623V214ZM735.479 214H751.406V212H735.479V214ZM767.334 214H783.262V212H767.334V214ZM799.19 214H815.118V212H799.19V214ZM831.046 214H846.974V212H831.046V214ZM862.902 214H878.83V212H862.902V214ZM894.758 214H910.686V212H894.758V214ZM926.614 214H942.542V212H926.614V214ZM958.47 214H974.398V212H958.47V214ZM990.326 214H998.29V212H990.326V214Z" fill="#0E0E0E"/>
</svg>
