<svg width="1017" height="432" viewBox="0 0 1017 432" fill="none" xmlns="http://www.w3.org/2000/svg">
<path d="M977 80.5C999.091 80.5 1017 62.5914 1017 40.5C1017 18.4086 999.091 0.5 977 0.5V80.5ZM-103 432H368.2V352H-103V432ZM659 80.5H977V0.5H659V80.5ZM469 190.5V251.2H549V190.5H469ZM659 0.5C554.066 0.5 469 85.5659 469 190.5H549C549 129.749 598.249 80.5 659 80.5V0.5ZM368.2 432C468.053 432 549 351.053 549 251.2H469C469 306.87 423.87 352 368.2 352V432Z" fill="#F9BA04"/>
<path d="M977 41.5C977.552 41.5 978 41.0523 978 40.5C978 39.9477 977.552 39.5 977 39.5V41.5ZM-103 393H-95.1467V391H-103V393ZM-79.44 393H-63.7333V391H-79.44V393ZM-48.0267 393H-32.32V391H-48.0267V393ZM-16.6133 393H-0.90667V391H-16.6133V393ZM14.8 393H30.5067V391H14.8V393ZM46.2133 393H61.92V391H46.2133V393ZM77.6267 393H93.3333V391H77.6267V393ZM109.04 393H124.747V391H109.04V393ZM140.453 393H156.16V391H140.453V393ZM171.867 393H187.573V391H171.867V393ZM203.28 393H218.987V391H203.28V393ZM234.693 393H250.4V391H234.693V393ZM266.107 393H281.813V391H266.107V393ZM297.52 393H313.227V391H297.52V393ZM328.933 393H344.64V391H328.933V393ZM360.347 393H368.2V391H360.347V393ZM368.2 393C370.869 393 373.521 392.926 376.154 392.781L376.044 390.784C373.448 390.927 370.832 391 368.2 391V393ZM391.963 391.017C397.237 390.128 402.412 388.947 407.471 387.492L406.918 385.569C401.931 387.004 396.829 388.168 391.63 389.045L391.963 391.017ZM422.48 382.24C427.4 380.199 432.181 377.89 436.803 375.33L435.834 373.58C431.277 376.104 426.564 378.381 421.714 380.392L422.48 382.24ZM450.262 366.856C454.591 363.779 458.739 360.465 462.689 356.933L461.355 355.443C457.461 358.925 453.371 362.192 449.103 365.226L450.262 366.856ZM473.933 345.689C477.465 341.739 480.779 337.591 483.856 333.262L482.226 332.103C479.192 336.371 475.925 340.461 472.443 344.355L473.933 345.689ZM492.33 319.803C494.89 315.181 497.199 310.4 499.24 305.48L497.392 304.713C495.381 309.564 493.104 314.277 490.58 318.834L492.33 319.803ZM504.492 290.471C505.947 285.412 507.128 280.237 508.017 274.963L506.045 274.63C505.168 279.829 504.004 284.931 502.569 289.918L504.492 290.471ZM509.781 259.154C509.926 256.521 510 253.869 510 251.2H508C508 253.832 507.927 256.448 507.784 259.044L509.781 259.154ZM510 251.2V243.612H508V251.2H510ZM510 228.437V213.262H508V228.437H510ZM510 198.087V190.5H508V198.087H510ZM510 190.5C510 187.694 510.078 184.907 510.231 182.14L508.234 182.03C508.079 184.833 508 187.658 508 190.5H510ZM512.083 165.528C513.018 159.987 514.259 154.55 515.788 149.234L513.866 148.681C512.316 154.069 511.059 159.579 510.111 165.195L512.083 165.528ZM521.306 133.465C523.45 128.295 525.876 123.272 528.566 118.415L526.817 117.446C524.091 122.368 521.631 127.459 519.458 132.699L521.306 133.465ZM537.47 104.273C540.704 99.724 544.186 95.3646 547.897 91.2142L546.407 89.8811C542.646 94.0867 539.117 98.5044 535.84 103.114L537.47 104.273ZM559.714 79.3975C563.865 75.686 568.224 72.2037 572.773 68.9704L571.614 67.3403C567.004 70.6168 562.587 74.1457 558.381 77.9066L559.714 79.3975ZM586.915 60.0665C591.772 57.3763 596.795 54.9497 601.965 52.8058L601.199 50.9584C595.959 53.1312 590.868 55.5906 585.946 58.3169L586.915 60.0665ZM617.734 47.2879C623.05 45.7592 628.487 44.5183 634.028 43.5833L633.695 41.6112C628.079 42.5588 622.569 43.8164 617.181 45.3659L617.734 47.2879ZM650.64 41.7305C653.407 41.5775 656.194 41.5 659 41.5V39.5C656.158 39.5 653.333 39.5785 650.53 39.7336L650.64 41.7305ZM659 41.5H666.95V39.5H659V41.5ZM682.85 41.5H698.75V39.5H682.85V41.5ZM714.65 41.5H730.55V39.5H714.65V41.5ZM746.45 41.5H762.35V39.5H746.45V41.5ZM778.25 41.5H794.15V39.5H778.25V41.5ZM810.05 41.5H825.95V39.5H810.05V41.5ZM841.85 41.5H857.75V39.5H841.85V41.5ZM873.65 41.5H889.55V39.5H873.65V41.5ZM905.45 41.5H921.35V39.5H905.45V41.5ZM937.25 41.5H953.15V39.5H937.25V41.5ZM969.05 41.5H977V39.5H969.05V41.5Z" fill="#0E0E0E"/>
</svg>
