<svg width="1512" height="814" viewBox="0 0 1512 814" fill="none" xmlns="http://www.w3.org/2000/svg">
<g clip-path="url(#clip0_814_975)">
<rect width="1512" height="814" fill="#4C25EF"/>
<path d="M139.72 92H137.352V71.168H129.64V69.024H147.432V71.168H139.72V92ZM152.891 92H150.651V75.136H152.891V92ZM153.563 71.232C153.563 71.7227 153.392 72.128 153.051 72.448C152.731 72.768 152.293 72.928 151.739 72.928C151.227 72.928 150.8 72.768 150.459 72.448C150.117 72.128 149.947 71.7227 149.947 71.232C149.947 70.7413 150.117 70.3467 150.459 70.048C150.8 69.728 151.227 69.568 151.739 69.568C152.293 69.568 152.731 69.728 153.051 70.048C153.392 70.3467 153.563 70.7413 153.563 71.232ZM159.985 92H157.745V75.136H159.825V78.304C160.401 77.216 161.158 76.3627 162.097 75.744C163.057 75.1253 164.134 74.816 165.329 74.816C166.651 74.816 167.771 75.1573 168.689 75.84C169.627 76.5227 170.267 77.4827 170.609 78.72C171.121 77.5253 171.889 76.576 172.913 75.872C173.937 75.168 175.11 74.816 176.433 74.816C178.182 74.816 179.558 75.3707 180.561 76.48C181.585 77.568 182.097 79.0933 182.097 81.056V92H179.889V81.792C179.889 80.1707 179.526 78.9333 178.801 78.08C178.097 77.2053 177.062 76.768 175.697 76.768C174.843 76.768 174.065 77.0027 173.361 77.472C172.657 77.92 172.091 78.5493 171.665 79.36C171.259 80.1493 171.057 81.0667 171.057 82.112V92H168.817V81.792C168.817 80.1707 168.465 78.9333 167.761 78.08C167.057 77.2053 166.011 76.768 164.625 76.768C163.771 76.768 162.982 77.0027 162.257 77.472C161.553 77.92 160.998 78.5493 160.593 79.36C160.187 80.1493 159.985 81.0667 159.985 82.112V92ZM193.431 92.32C191.852 92.32 190.466 91.9573 189.271 91.232C188.098 90.4853 187.18 89.44 186.519 88.096C185.879 86.752 185.559 85.1947 185.559 83.424C185.559 81.7813 185.89 80.32 186.551 79.04C187.234 77.7387 188.151 76.7147 189.303 75.968C190.476 75.2 191.81 74.816 193.303 74.816C194.498 74.816 195.575 75.0507 196.535 75.52C197.516 75.968 198.338 76.608 198.999 77.44C199.682 78.272 200.183 79.2533 200.503 80.384C200.844 81.4933 200.962 82.7307 200.855 84.096H186.775V82.56H198.519C198.434 80.6613 197.922 79.1893 196.983 78.144C196.066 77.0773 194.828 76.544 193.271 76.544C192.183 76.544 191.223 76.832 190.391 77.408C189.58 77.9627 188.94 78.752 188.471 79.776C188.002 80.8 187.767 82.016 187.767 83.424C187.767 84.8747 187.991 86.144 188.439 87.232C188.887 88.2987 189.527 89.12 190.359 89.696C191.212 90.272 192.226 90.56 193.399 90.56C194.807 90.56 195.97 90.1867 196.887 89.44C197.826 88.672 198.434 87.6267 198.711 86.304H200.919C200.535 88.16 199.671 89.632 198.327 90.72C197.004 91.7867 195.372 92.32 193.431 92.32ZM206.797 92H204.557V69.024H206.797V92ZM213.891 92H211.651V75.136H213.891V92ZM214.563 71.232C214.563 71.7227 214.392 72.128 214.051 72.448C213.731 72.768 213.293 72.928 212.739 72.928C212.227 72.928 211.8 72.768 211.459 72.448C211.117 72.128 210.947 71.7227 210.947 71.232C210.947 70.7413 211.117 70.3467 211.459 70.048C211.8 69.728 212.227 69.568 212.739 69.568C213.293 69.568 213.731 69.728 214.051 70.048C214.392 70.3467 214.563 70.7413 214.563 71.232ZM220.985 82.176V92H218.745V75.136H220.825V78.304C221.379 77.28 222.137 76.448 223.097 75.808C224.078 75.1467 225.177 74.816 226.393 74.816C228.142 74.816 229.539 75.36 230.585 76.448C231.651 77.536 232.185 79.072 232.185 81.056V92H229.945V81.824C229.945 80.2027 229.582 78.9547 228.857 78.08C228.153 77.2053 227.107 76.768 225.72 76.768C224.846 76.768 224.046 77.0027 223.321 77.472C222.595 77.92 222.019 78.5493 221.593 79.36C221.187 80.1707 220.985 81.1093 220.985 82.176ZM243.525 92.32C241.946 92.32 240.559 91.9573 239.365 91.232C238.191 90.4853 237.274 89.44 236.613 88.096C235.973 86.752 235.653 85.1947 235.653 83.424C235.653 81.7813 235.983 80.32 236.645 79.04C237.327 77.7387 238.245 76.7147 239.397 75.968C240.57 75.2 241.903 74.816 243.397 74.816C244.591 74.816 245.669 75.0507 246.629 75.52C247.61 75.968 248.431 76.608 249.093 77.44C249.775 78.272 250.277 79.2533 250.597 80.384C250.938 81.4933 251.055 82.7307 250.949 84.096H236.869V82.56H248.613C248.527 80.6613 248.015 79.1893 247.077 78.144C246.159 77.0773 244.922 76.544 243.365 76.544C242.277 76.544 241.317 76.832 240.485 77.408C239.674 77.9627 239.034 78.752 238.565 79.776C238.095 80.8 237.861 82.016 237.861 83.424C237.861 84.8747 238.085 86.144 238.533 87.232C238.981 88.2987 239.621 89.12 240.453 89.696C241.306 90.272 242.319 90.56 243.493 90.56C244.901 90.56 246.063 90.1867 246.981 89.44C247.919 88.672 248.527 87.6267 248.805 86.304H251.013C250.629 88.16 249.765 89.632 248.421 90.72C247.098 91.7867 245.466 92.32 243.525 92.32Z" fill="white"/>
<path d="M977 355.5C999.091 355.5 1017 337.591 1017 315.5C1017 293.409 999.091 275.5 977 275.5V355.5ZM-103 707H368.2V627H-103V707ZM659 355.5H977V275.5H659V355.5ZM469 465.5V526.2H549V465.5H469ZM659 275.5C554.066 275.5 469 360.566 469 465.5H549C549 404.749 598.249 355.5 659 355.5V275.5ZM368.2 707C468.053 707 549 626.053 549 526.2H469C469 581.87 423.87 627 368.2 627V707Z" fill="#F9BA04"/>
<path d="M977 316.5C977.552 316.5 978 316.052 978 315.5C978 314.948 977.552 314.5 977 314.5V316.5ZM-103 668H-95.1467V666H-103V668ZM-79.44 668H-63.7333V666H-79.44V668ZM-48.0267 668H-32.32V666H-48.0267V668ZM-16.6133 668H-0.90667V666H-16.6133V668ZM14.8 668H30.5067V666H14.8V668ZM46.2133 668H61.92V666H46.2133V668ZM77.6267 668H93.3333V666H77.6267V668ZM109.04 668H124.747V666H109.04V668ZM140.453 668H156.16V666H140.453V668ZM171.867 668H187.573V666H171.867V668ZM203.28 668H218.987V666H203.28V668ZM234.693 668H250.4V666H234.693V668ZM266.107 668H281.813V666H266.107V668ZM297.52 668H313.227V666H297.52V668ZM328.933 668H344.64V666H328.933V668ZM360.347 668H368.2V666H360.347V668ZM368.2 668C370.869 668 373.521 667.926 376.154 667.781L376.044 665.784C373.448 665.927 370.832 666 368.2 666V668ZM391.963 666.017C397.237 665.128 402.412 663.947 407.471 662.492L406.918 660.569C401.931 662.004 396.829 663.168 391.63 664.045L391.963 666.017ZM422.48 657.24C427.4 655.199 432.181 652.89 436.803 650.33L435.834 648.58C431.277 651.104 426.564 653.381 421.714 655.392L422.48 657.24ZM450.262 641.856C454.591 638.779 458.739 635.465 462.689 631.933L461.355 630.443C457.461 633.925 453.371 637.192 449.103 640.226L450.262 641.856ZM473.933 620.689C477.465 616.739 480.779 612.591 483.856 608.262L482.226 607.103C479.192 611.371 475.925 615.461 472.443 619.355L473.933 620.689ZM492.33 594.803C494.89 590.181 497.199 585.4 499.24 580.48L497.392 579.713C495.381 584.564 493.104 589.277 490.58 593.834L492.33 594.803ZM504.492 565.471C505.947 560.412 507.128 555.237 508.017 549.963L506.045 549.63C505.168 554.829 504.004 559.931 502.569 564.918L504.492 565.471ZM509.781 534.154C509.926 531.521 510 528.869 510 526.2H508C508 528.832 507.927 531.448 507.784 534.044L509.781 534.154ZM510 526.2V518.612H508V526.2H510ZM510 503.437V488.262H508V503.437H510ZM510 473.087V465.5H508V473.087H510ZM510 465.5C510 462.694 510.078 459.907 510.231 457.14L508.234 457.03C508.079 459.833 508 462.658 508 465.5H510ZM512.083 440.528C513.018 434.987 514.259 429.55 515.788 424.234L513.866 423.681C512.316 429.069 511.059 434.579 510.111 440.195L512.083 440.528ZM521.306 408.465C523.45 403.295 525.876 398.272 528.566 393.415L526.817 392.446C524.091 397.368 521.631 402.459 519.458 407.699L521.306 408.465ZM537.47 379.273C540.704 374.724 544.186 370.365 547.897 366.214L546.407 364.881C542.646 369.087 539.117 373.504 535.84 378.114L537.47 379.273ZM559.714 354.397C563.865 350.686 568.224 347.204 572.773 343.97L571.614 342.34C567.004 345.617 562.587 349.146 558.381 352.907L559.714 354.397ZM586.915 335.066C591.772 332.376 596.795 329.95 601.965 327.806L601.199 325.958C595.959 328.131 590.868 330.591 585.946 333.317L586.915 335.066ZM617.734 322.288C623.05 320.759 628.487 319.518 634.028 318.583L633.695 316.611C628.079 317.559 622.569 318.816 617.181 320.366L617.734 322.288ZM650.64 316.731C653.407 316.578 656.194 316.5 659 316.5V314.5C656.158 314.5 653.333 314.579 650.53 314.734L650.64 316.731ZM659 316.5H666.95V314.5H659V316.5ZM682.85 316.5H698.75V314.5H682.85V316.5ZM714.65 316.5H730.55V314.5H714.65V316.5ZM746.45 316.5H762.35V314.5H746.45V316.5ZM778.25 316.5H794.15V314.5H778.25V316.5ZM810.05 316.5H825.95V314.5H810.05V316.5ZM841.85 316.5H857.75V314.5H841.85V316.5ZM873.65 316.5H889.55V314.5H873.65V316.5ZM905.45 316.5H921.35V314.5H905.45V316.5ZM937.25 316.5H953.15V314.5H937.25V316.5ZM969.05 316.5H977V314.5H969.05V316.5Z" fill="#0E0E0E"/>
<path d="M1063.18 239.948H1082.62C1084.69 239.948 1086.63 240.308 1088.46 241.028C1090.33 241.7 1091.96 242.66 1093.35 243.908C1094.79 245.108 1095.92 246.548 1096.74 248.228C1097.55 249.908 1097.96 251.732 1097.96 253.7C1097.96 256.34 1097.29 258.596 1095.94 260.468C1094.65 262.292 1092.99 263.66 1090.98 264.572V265.004C1093.57 265.916 1095.66 267.404 1097.24 269.468C1098.87 271.532 1099.69 274.028 1099.69 276.956C1099.69 279.164 1099.26 281.156 1098.39 282.932C1097.53 284.708 1096.35 286.244 1094.86 287.54C1093.38 288.788 1091.65 289.772 1089.68 290.492C1087.76 291.164 1085.7 291.5 1083.49 291.5H1063.18V239.948ZM1082.34 261.476C1083.54 261.476 1084.62 261.284 1085.58 260.9C1086.54 260.468 1087.33 259.94 1087.95 259.316C1088.62 258.644 1089.13 257.9 1089.46 257.084C1089.8 256.22 1089.97 255.356 1089.97 254.492C1089.97 253.628 1089.8 252.788 1089.46 251.972C1089.13 251.108 1088.65 250.364 1088.02 249.74C1087.4 249.068 1086.63 248.54 1085.72 248.156C1084.81 247.724 1083.78 247.508 1082.62 247.508H1071.32V261.476H1082.34ZM1083.49 283.94C1084.78 283.94 1085.94 283.724 1086.94 283.292C1087.95 282.86 1088.79 282.284 1089.46 281.564C1090.14 280.844 1090.64 280.028 1090.98 279.116C1091.36 278.204 1091.55 277.268 1091.55 276.308C1091.55 275.348 1091.36 274.436 1090.98 273.572C1090.64 272.66 1090.11 271.868 1089.39 271.196C1088.67 270.476 1087.78 269.9 1086.73 269.468C1085.72 269.036 1084.54 268.82 1083.2 268.82H1071.32V283.94H1083.49ZM1152.13 283.364C1149.68 286.244 1146.73 288.524 1143.27 290.204C1139.82 291.836 1135.93 292.652 1131.61 292.652C1127.77 292.652 1124.22 291.98 1120.95 290.636C1117.69 289.244 1114.83 287.348 1112.38 284.948C1109.98 282.5 1108.09 279.644 1106.7 276.38C1105.35 273.116 1104.68 269.564 1104.68 265.724C1104.68 261.932 1105.35 258.404 1106.7 255.14C1108.09 251.828 1109.98 248.972 1112.38 246.572C1114.83 244.124 1117.69 242.228 1120.95 240.884C1124.22 239.492 1127.77 238.796 1131.61 238.796C1135.59 238.796 1139.17 239.54 1142.34 241.028C1145.5 242.468 1148.29 244.532 1150.69 247.22L1144.93 252.836C1143.2 250.772 1141.26 249.212 1139.1 248.156C1136.98 247.1 1134.49 246.572 1131.61 246.572C1129.06 246.572 1126.64 247.028 1124.34 247.94C1122.08 248.804 1120.11 250.076 1118.43 251.756C1116.75 253.388 1115.41 255.404 1114.4 257.804C1113.44 260.156 1112.96 262.796 1112.96 265.724C1112.96 268.652 1113.44 271.316 1114.4 273.716C1115.41 276.068 1116.75 278.084 1118.43 279.764C1120.11 281.396 1122.08 282.668 1124.34 283.58C1126.64 284.444 1129.06 284.876 1131.61 284.876C1134.68 284.876 1137.42 284.252 1139.82 283.004C1142.22 281.708 1144.35 279.932 1146.22 277.676L1152.13 283.364ZM1204.16 283.364C1201.71 286.244 1198.76 288.524 1195.3 290.204C1191.85 291.836 1187.96 292.652 1183.64 292.652C1179.8 292.652 1176.25 291.98 1172.98 290.636C1169.72 289.244 1166.86 287.348 1164.41 284.948C1162.01 282.5 1160.12 279.644 1158.73 276.38C1157.38 273.116 1156.71 269.564 1156.71 265.724C1156.71 261.932 1157.38 258.404 1158.73 255.14C1160.12 251.828 1162.01 248.972 1164.41 246.572C1166.86 244.124 1169.72 242.228 1172.98 240.884C1176.25 239.492 1179.8 238.796 1183.64 238.796C1187.62 238.796 1191.2 239.54 1194.37 241.028C1197.53 242.468 1200.32 244.532 1202.72 247.22L1196.96 252.836C1195.23 250.772 1193.29 249.212 1191.13 248.156C1189.01 247.1 1186.52 246.572 1183.64 246.572C1181.09 246.572 1178.67 247.028 1176.37 247.94C1174.11 248.804 1172.14 250.076 1170.46 251.756C1168.78 253.388 1167.44 255.404 1166.43 257.804C1165.47 260.156 1164.99 262.796 1164.99 265.724C1164.99 268.652 1165.47 271.316 1166.43 273.716C1167.44 276.068 1168.78 278.084 1170.46 279.764C1172.14 281.396 1174.11 282.668 1176.37 283.58C1178.67 284.444 1181.09 284.876 1183.64 284.876C1186.71 284.876 1189.45 284.252 1191.85 283.004C1194.25 281.708 1196.38 279.932 1198.25 277.676L1204.16 283.364ZM1063.18 325.948H1079.74C1083.82 325.948 1087.47 326.596 1090.69 327.892C1093.95 329.14 1096.71 330.892 1098.97 333.148C1101.27 335.404 1103.02 338.116 1104.22 341.284C1105.47 344.452 1106.1 347.932 1106.1 351.724C1106.1 355.516 1105.47 358.996 1104.22 362.164C1103.02 365.332 1101.27 368.044 1098.97 370.3C1096.71 372.556 1093.95 374.332 1090.69 375.628C1087.47 376.876 1083.82 377.5 1079.74 377.5H1063.18V325.948ZM1079.6 369.724C1085.41 369.724 1089.9 368.14 1093.06 364.972C1096.23 361.804 1097.82 357.388 1097.82 351.724C1097.82 346.108 1096.23 341.716 1093.06 338.548C1089.9 335.332 1085.41 333.724 1079.6 333.724H1071.32V369.724H1079.6ZM1144.43 369.076C1142.94 371.812 1140.83 374.092 1138.09 375.916C1135.36 377.74 1132 378.652 1128.01 378.652C1125.37 378.652 1122.93 378.196 1120.67 377.284C1118.46 376.324 1116.54 375.004 1114.91 373.324C1113.28 371.644 1112.01 369.676 1111.09 367.42C1110.18 365.116 1109.73 362.596 1109.73 359.86C1109.73 357.316 1110.16 354.916 1111.02 352.66C1111.89 350.356 1113.09 348.364 1114.62 346.684C1116.21 344.956 1118.1 343.588 1120.31 342.58C1122.52 341.572 1124.97 341.068 1127.65 341.068C1130.39 341.068 1132.81 341.524 1134.93 342.436C1137.09 343.348 1138.91 344.62 1140.4 346.252C1141.89 347.884 1143.01 349.852 1143.78 352.156C1144.6 354.46 1145.01 356.98 1145.01 359.716C1145.01 359.956 1145.01 360.172 1145.01 360.364C1144.96 360.604 1144.93 360.82 1144.93 361.012C1144.89 361.204 1144.86 361.396 1144.86 361.588H1117.72C1117.86 363.268 1118.27 364.732 1118.94 365.98C1119.61 367.228 1120.43 368.26 1121.39 369.076C1122.4 369.892 1123.5 370.492 1124.7 370.876C1125.9 371.26 1127.08 371.452 1128.23 371.452C1130.53 371.452 1132.43 370.9 1133.92 369.796C1135.41 368.692 1136.63 367.324 1137.59 365.692L1144.43 369.076ZM1137.01 355.468C1136.92 354.748 1136.68 353.956 1136.29 353.092C1135.96 352.18 1135.41 351.364 1134.64 350.644C1133.92 349.876 1132.96 349.228 1131.76 348.7C1130.61 348.172 1129.19 347.908 1127.51 347.908C1125.21 347.908 1123.21 348.604 1121.53 349.996C1119.9 351.34 1118.8 353.164 1118.22 355.468H1137.01ZM1151.05 342.22H1158.61V346.972H1159.04C1160.14 345.244 1161.68 343.828 1163.65 342.724C1165.62 341.62 1167.7 341.068 1169.91 341.068C1172.55 341.068 1174.81 341.692 1176.68 342.94C1178.6 344.14 1179.99 345.724 1180.86 347.692C1182.06 345.82 1183.66 344.26 1185.68 343.012C1187.7 341.716 1190.12 341.068 1192.95 341.068C1195.11 341.068 1196.98 341.428 1198.57 342.148C1200.15 342.82 1201.45 343.78 1202.46 345.028C1203.51 346.276 1204.3 347.788 1204.83 349.564C1205.36 351.292 1205.62 353.236 1205.62 355.396V377.5H1197.63V356.764C1197.63 353.692 1197.03 351.556 1195.83 350.356C1194.68 349.108 1192.98 348.484 1190.72 348.484C1189.42 348.484 1188.25 348.772 1187.19 349.348C1186.18 349.924 1185.32 350.716 1184.6 351.724C1183.88 352.684 1183.33 353.812 1182.94 355.108C1182.56 356.404 1182.37 357.772 1182.37 359.212V377.5H1174.38V356.764C1174.38 353.692 1173.75 351.556 1172.5 350.356C1171.3 349.108 1169.55 348.484 1167.25 348.484C1166 348.484 1164.87 348.772 1163.86 349.348C1162.86 349.924 1161.99 350.716 1161.27 351.724C1160.55 352.684 1160 353.812 1159.62 355.108C1159.23 356.404 1159.04 357.772 1159.04 359.212V377.5H1151.05V342.22ZM1229.83 341.068C1232.52 341.068 1234.99 341.548 1237.25 342.508C1239.5 343.42 1241.45 344.716 1243.08 346.396C1244.71 348.076 1245.98 350.068 1246.89 352.372C1247.81 354.676 1248.26 357.172 1248.26 359.86C1248.26 362.548 1247.81 365.044 1246.89 367.348C1245.98 369.652 1244.71 371.644 1243.08 373.324C1241.45 375.004 1239.5 376.324 1237.25 377.284C1234.99 378.196 1232.52 378.652 1229.83 378.652C1227.14 378.652 1224.67 378.196 1222.41 377.284C1220.16 376.324 1218.21 375.004 1216.58 373.324C1214.95 371.644 1213.68 369.652 1212.77 367.348C1211.85 365.044 1211.4 362.548 1211.4 359.86C1211.4 357.172 1211.85 354.676 1212.77 352.372C1213.68 350.068 1214.95 348.076 1216.58 346.396C1218.21 344.716 1220.16 343.42 1222.41 342.508C1224.67 341.548 1227.14 341.068 1229.83 341.068ZM1229.83 371.236C1231.17 371.236 1232.47 370.972 1233.72 370.444C1234.97 369.916 1236.07 369.172 1237.03 368.212C1238.04 367.252 1238.83 366.076 1239.41 364.684C1239.98 363.244 1240.27 361.636 1240.27 359.86C1240.27 358.084 1239.98 356.5 1239.41 355.108C1238.83 353.668 1238.04 352.468 1237.03 351.508C1236.07 350.548 1234.97 349.804 1233.72 349.276C1232.47 348.748 1231.17 348.484 1229.83 348.484C1228.49 348.484 1227.19 348.748 1225.94 349.276C1224.69 349.804 1223.57 350.548 1222.56 351.508C1221.6 352.468 1220.83 353.668 1220.25 355.108C1219.68 356.5 1219.39 358.084 1219.39 359.86C1219.39 361.636 1219.68 363.244 1220.25 364.684C1220.83 366.076 1221.6 367.252 1222.56 368.212C1223.57 369.172 1224.69 369.916 1225.94 370.444C1227.19 370.972 1228.49 371.236 1229.83 371.236ZM1271.31 325.948H1287.87C1291.95 325.948 1295.6 326.596 1298.81 327.892C1302.08 329.14 1304.84 330.892 1307.09 333.148C1309.4 335.404 1311.15 338.116 1312.35 341.284C1313.6 344.452 1314.22 347.932 1314.22 351.724C1314.22 355.516 1313.6 358.996 1312.35 362.164C1311.15 365.332 1309.4 368.044 1307.09 370.3C1304.84 372.556 1302.08 374.332 1298.81 375.628C1295.6 376.876 1291.95 377.5 1287.87 377.5H1271.31V325.948ZM1287.73 369.724C1293.53 369.724 1298.02 368.14 1301.19 364.972C1304.36 361.804 1305.94 357.388 1305.94 351.724C1305.94 346.108 1304.36 341.716 1301.19 338.548C1298.02 335.332 1293.53 333.724 1287.73 333.724H1279.45V369.724H1287.73ZM1343.24 373.18H1342.81C1341.75 374.572 1340.39 375.844 1338.71 376.996C1337.03 378.1 1334.89 378.652 1332.3 378.652C1330.43 378.652 1328.67 378.34 1327.04 377.716C1325.41 377.14 1323.99 376.324 1322.79 375.268C1321.59 374.164 1320.63 372.892 1319.91 371.452C1319.24 369.964 1318.91 368.332 1318.91 366.556C1318.91 364.684 1319.27 363.004 1319.99 361.516C1320.75 360.028 1321.79 358.78 1323.08 357.772C1324.43 356.764 1326.01 355.996 1327.83 355.468C1329.66 354.892 1331.63 354.604 1333.74 354.604C1336.09 354.604 1338.06 354.844 1339.64 355.324C1341.23 355.756 1342.43 356.164 1343.24 356.548V355.18C1343.24 354.124 1343 353.14 1342.52 352.228C1342.09 351.316 1341.47 350.548 1340.65 349.924C1339.88 349.252 1338.99 348.748 1337.99 348.412C1336.98 348.028 1335.92 347.836 1334.82 347.836C1333.04 347.836 1331.43 348.196 1329.99 348.916C1328.6 349.588 1327.35 350.692 1326.25 352.228L1319.91 348.052C1321.59 345.748 1323.68 344.02 1326.18 342.868C1328.67 341.668 1331.51 341.068 1334.67 341.068C1339.91 341.068 1343.94 342.364 1346.77 344.956C1349.65 347.548 1351.09 351.244 1351.09 356.044V377.5H1343.24V373.18ZM1343.24 362.812C1342.19 362.188 1341.01 361.684 1339.71 361.3C1338.42 360.916 1336.93 360.724 1335.25 360.724C1332.75 360.724 1330.76 361.3 1329.27 362.452C1327.79 363.604 1327.04 364.996 1327.04 366.628C1327.04 367.492 1327.23 368.26 1327.62 368.932C1328 369.556 1328.48 370.108 1329.06 370.588C1329.68 371.068 1330.38 371.428 1331.15 371.668C1331.96 371.908 1332.78 372.028 1333.59 372.028C1334.89 372.028 1336.11 371.788 1337.27 371.308C1338.47 370.78 1339.5 370.108 1340.36 369.292C1341.23 368.428 1341.92 367.444 1342.45 366.34C1342.98 365.236 1343.24 364.06 1343.24 362.812ZM1368.85 375.484L1354.16 342.22H1363.09L1372.81 365.62H1373.17L1382.6 342.22H1391.46L1369.36 393.052H1360.86L1368.85 375.484Z" fill="white"/>
<path d="M1075.28 441.652V459.184C1075.28 461.152 1074.93 462.796 1074.24 464.116C1073.54 465.436 1072.57 466.42 1071.32 467.068C1070.07 467.716 1068.63 468.04 1067 468.04C1065.46 468.04 1064.1 467.74 1062.9 467.14C1061.7 466.516 1060.74 465.628 1060.02 464.476C1059.32 463.324 1058.91 461.932 1058.79 460.3H1060.56C1060.65 461.644 1060.99 462.772 1061.56 463.684C1062.14 464.596 1062.91 465.292 1063.87 465.772C1064.83 466.252 1065.87 466.492 1067 466.492C1068.22 466.492 1069.33 466.252 1070.31 465.772C1071.3 465.268 1072.08 464.5 1072.65 463.468C1073.23 462.412 1073.52 461.068 1073.52 459.436V441.652H1075.28ZM1093.27 460.012V448.636H1094.96V467.5H1093.37V463.792C1092.89 464.968 1092.09 465.94 1090.96 466.708C1089.86 467.476 1088.59 467.86 1087.15 467.86C1085.87 467.86 1084.76 467.62 1083.8 467.14C1082.84 466.66 1082.11 465.916 1081.6 464.908C1081.1 463.876 1080.85 462.568 1080.85 460.984V448.636H1082.5V460.588C1082.5 462.724 1082.97 464.236 1083.91 465.124C1084.87 466.012 1086.07 466.456 1087.51 466.456C1088.66 466.456 1089.67 466.18 1090.53 465.628C1091.39 465.052 1092.07 464.272 1092.55 463.288C1093.03 462.304 1093.27 461.212 1093.27 460.012ZM1102.4 456.268V467.5H1100.75V448.636H1102.33V452.488C1102.91 451.24 1103.76 450.232 1104.89 449.464C1106.04 448.672 1107.31 448.276 1108.7 448.276C1110.7 448.276 1112.27 448.888 1113.42 450.112C1114.6 451.312 1115.18 453.016 1115.18 455.224V467.5H1113.53V455.836C1113.53 453.868 1113.07 452.356 1112.16 451.3C1111.27 450.22 1109.99 449.68 1108.31 449.68C1107.2 449.68 1106.21 449.968 1105.32 450.544C1104.43 451.12 1103.72 451.912 1103.2 452.92C1102.67 453.904 1102.4 455.02 1102.4 456.268ZM1127.95 467.896C1126.25 467.896 1124.75 467.488 1123.45 466.672C1122.15 465.832 1121.15 464.656 1120.43 463.144C1119.71 461.632 1119.35 459.88 1119.35 457.888C1119.35 456.04 1119.71 454.396 1120.43 452.956C1121.17 451.516 1122.18 450.376 1123.45 449.536C1124.72 448.696 1126.16 448.276 1127.77 448.276C1129.09 448.276 1130.27 448.528 1131.3 449.032C1132.33 449.512 1133.21 450.208 1133.93 451.12C1134.67 452.008 1135.22 453.076 1135.58 454.324C1135.97 455.548 1136.12 456.928 1136.05 458.464H1120.21V457.168H1134.32C1134.2 454.792 1133.57 452.932 1132.41 451.588C1131.26 450.244 1129.71 449.572 1127.77 449.572C1126.45 449.572 1125.27 449.932 1124.24 450.652C1123.23 451.348 1122.44 452.32 1121.87 453.568C1121.29 454.792 1121 456.22 1121 457.852C1121 459.604 1121.28 461.14 1121.83 462.46C1122.38 463.756 1123.17 464.764 1124.21 465.484C1125.26 466.18 1126.51 466.528 1127.95 466.528C1129.7 466.528 1131.15 466.048 1132.31 465.088C1133.46 464.128 1134.19 462.808 1134.5 461.128H1136.12C1135.76 463.192 1134.84 464.836 1133.35 466.06C1131.89 467.284 1130.09 467.896 1127.95 467.896ZM1161.07 466.06V467.5H1147.21V466.564L1155.09 457.348C1156.1 456.172 1156.89 455.152 1157.47 454.288C1158.07 453.4 1158.5 452.584 1158.76 451.84C1159.03 451.096 1159.16 450.328 1159.16 449.536C1159.16 448.528 1158.93 447.628 1158.47 446.836C1158.02 446.044 1157.38 445.42 1156.57 444.964C1155.77 444.508 1154.86 444.28 1153.83 444.28C1152.75 444.28 1151.8 444.508 1150.99 444.964C1150.17 445.42 1149.52 446.068 1149.04 446.908C1148.59 447.724 1148.36 448.672 1148.36 449.752H1146.7C1146.7 448.408 1147 447.22 1147.6 446.188C1148.23 445.132 1149.07 444.304 1150.12 443.704C1151.2 443.104 1152.44 442.804 1153.83 442.804C1155.2 442.804 1156.41 443.092 1157.47 443.668C1158.52 444.244 1159.35 445.036 1159.95 446.044C1160.57 447.028 1160.89 448.156 1160.89 449.428C1160.89 450.268 1160.74 451.096 1160.45 451.912C1160.19 452.704 1159.72 453.592 1159.05 454.576C1158.4 455.536 1157.48 456.724 1156.28 458.14L1149.58 466.06H1161.07ZM1164.85 455.368C1164.85 451.336 1165.57 448.24 1167.01 446.08C1168.45 443.896 1170.51 442.804 1173.2 442.804C1175.89 442.804 1177.95 443.896 1179.39 446.08C1180.86 448.24 1181.59 451.336 1181.59 455.368C1181.59 459.424 1180.87 462.52 1179.43 464.656C1178.01 466.792 1175.94 467.86 1173.2 467.86C1170.47 467.86 1168.39 466.792 1166.97 464.656C1165.56 462.52 1164.85 459.424 1164.85 455.368ZM1166.58 455.368C1166.58 458.968 1167.13 461.704 1168.23 463.576C1169.36 465.448 1171.02 466.384 1173.2 466.384C1175.39 466.384 1177.04 465.46 1178.17 463.612C1179.3 461.74 1179.86 458.992 1179.86 455.368C1179.86 451.72 1179.3 448.96 1178.17 447.088C1177.04 445.216 1175.39 444.28 1173.2 444.28C1171.04 444.28 1169.4 445.216 1168.27 447.088C1167.14 448.96 1166.58 451.72 1166.58 455.368ZM1199.46 466.06V467.5H1185.6V466.564L1193.48 457.348C1194.49 456.172 1195.28 455.152 1195.86 454.288C1196.46 453.4 1196.89 452.584 1197.15 451.84C1197.42 451.096 1197.55 450.328 1197.55 449.536C1197.55 448.528 1197.32 447.628 1196.86 446.836C1196.41 446.044 1195.77 445.42 1194.96 444.964C1194.16 444.508 1193.25 444.28 1192.22 444.28C1191.14 444.28 1190.19 444.508 1189.38 444.964C1188.56 445.42 1187.91 446.068 1187.43 446.908C1186.98 447.724 1186.75 448.672 1186.75 449.752H1185.09C1185.09 448.408 1185.39 447.22 1185.99 446.188C1186.62 445.132 1187.46 444.304 1188.51 443.704C1189.59 443.104 1190.83 442.804 1192.22 442.804C1193.59 442.804 1194.8 443.092 1195.86 443.668C1196.91 444.244 1197.74 445.036 1198.34 446.044C1198.96 447.028 1199.28 448.156 1199.28 449.428C1199.28 450.268 1199.13 451.096 1198.84 451.912C1198.58 452.704 1198.11 453.592 1197.44 454.576C1196.79 455.536 1195.87 456.724 1194.67 458.14L1187.97 466.06H1199.46ZM1218.17 461.344H1214.97V467.5H1213.31V461.344H1201.4V460.372L1213.92 443.164H1214.97V459.904H1218.17V461.344ZM1203.45 459.904H1213.31V446.224L1203.45 459.904Z" fill="white"/>
<rect x="1058.5" y="532" width="75" height="43" rx="21.5" stroke="white"/>
<path d="M1097.27 543.709C1096.97 543.422 1096.5 543.432 1096.21 543.73C1095.92 544.029 1095.93 544.503 1096.23 544.791L1104.5 552.75H1085.75C1085.34 552.75 1085 553.086 1085 553.5C1085 553.914 1085.34 554.25 1085.75 554.25H1104.5L1096.23 562.209C1095.93 562.496 1095.92 562.97 1096.21 563.269C1096.5 563.568 1096.97 563.577 1097.27 563.29L1106.7 554.22C1107.11 553.827 1107.11 553.172 1106.7 552.779L1097.27 543.709Z" fill="white"/>
</g>
<defs>
<clipPath id="clip0_814_975">
<rect width="1512" height="814" fill="white"/>
</clipPath>
</defs>
</svg>
