<svg width="262" height="129" viewBox="0 0 262 129" fill="none" xmlns="http://www.w3.org/2000/svg">
<g clip-path="url(#clip0_609_1887)">
<path d="M61.7412 62.6372L44.9659 111.134L44.7656 111.716L35.1797 102.553L49.052 62.6448L61.7412 62.6372Z" fill="#E40021"/>
<path d="M63.8804 19.8521L70.31 37.8483L67.2105 46.973L54.457 47.0373L63.8804 19.8521Z" fill="#E40021"/>
<path d="M111.064 110.85L100.953 117.393L64.4727 18.1436L70.77 0L111.064 110.85Z" fill="#FFBC00"/>
<path d="M94.1886 121.819L88.1634 125.72L83.8467 128.525L51.5586 97.6733L55.8186 85.1655L94.1886 121.819Z" fill="black"/>
<path d="M101.329 60.683L119.53 48.8594L68.4854 48.8669L64.4258 60.683H101.329Z" fill="#FFBC00"/>
<path d="M0.496094 48.863L39.0022 85.6606L43.3 73.1868L30.2063 60.6677L62.3999 60.6753L66.4974 48.8555L0.496094 48.863Z" fill="#008A00"/>
<path d="M99.1372 118.61L88.9541 125.206L73.0859 81.3968L83.5185 74.627L99.1372 118.61Z" fill="black"/>
<path d="M100.931 77.4922L96.7617 66.0125L123.187 48.8555L145.046 48.8592L100.931 77.4922Z" fill="black"/>
<path d="M134.508 69.9022C135.434 70.7905 135.922 71.898 135.978 73.2587H133.075C132.913 72.5519 132.66 72.0794 132.312 71.8451C131.968 71.5918 131.386 71.4633 130.588 71.4633C129.628 71.4633 129.099 71.554 128.573 71.9887C128.067 72.4234 127.829 73.2965 127.829 74.7291C127.829 76.1617 128.063 77.0349 128.573 77.4696C129.099 77.9043 129.624 77.995 130.588 77.995C131.386 77.995 131.968 77.8665 132.312 77.6321C132.656 77.3789 132.909 76.9064 133.075 76.1995H135.978C135.925 77.5603 135.434 78.6867 134.508 79.575C133.582 80.4633 132.278 80.898 130.588 80.898C126.449 80.898 124.926 77.8136 124.926 74.7291C124.926 71.6447 126.449 68.5603 130.588 68.5603C132.274 68.5603 133.582 69.0139 134.508 69.9022Z" fill="black"/>
<path d="M145.306 80.898L144.762 78.9929H140.37L139.825 80.898H136.703L140.351 68.5603H144.777L148.425 80.898H145.302H145.306ZM141.186 76.0899H143.945L142.713 71.7884H142.422L141.19 76.0899H141.186Z" fill="black"/>
<path d="M161.377 68.5603H164.28V80.898H161.377V75.1827H161.086L158.384 80.0626H155.772L153.069 75.1827H152.778V80.898H149.875V68.5603H152.778L156.932 76.1995H157.223L161.377 68.5603Z" fill="black"/>
<path d="M174.589 71.4633H168.817V73.2776H173.501V76.1806H168.817V77.995H174.589V80.898H166.277V68.5603H174.589V71.4633Z" fill="black"/>
<path d="M182.936 75.9992H186.727V80.898H183.824V77.394H179.489V80.898H176.586V68.5603H181.194C184.913 68.5603 186.546 70.0307 186.546 72.4234C186.546 74.457 185.257 75.7081 182.936 75.7081V75.9992ZM179.489 74.4948H181.194C183.027 74.4948 183.643 74.2037 183.643 72.9715C183.643 72.3364 183.462 71.9358 183.118 71.7543C182.774 71.554 182.12 71.4633 181.194 71.4633H179.489V74.4948Z" fill="black"/>
<path d="M194.385 80.898C192.551 80.898 191.081 80.3159 189.992 79.1554C188.904 77.9761 188.359 76.5057 188.359 74.7291C188.359 72.9526 188.904 71.4822 189.992 70.3217C191.081 69.1424 192.551 68.5603 194.385 68.5603C196.218 68.5603 197.688 69.1424 198.777 70.3217C199.865 71.4822 200.41 72.9526 200.41 74.7291C200.41 76.5057 199.865 77.9761 198.777 79.1554C197.688 80.3159 196.218 80.898 194.385 80.898ZM194.385 77.995C196.471 77.995 197.507 76.9064 197.507 74.7291C197.507 72.5519 196.471 71.4633 194.385 71.4633C192.298 71.4633 191.262 72.5519 191.262 74.7291C191.262 76.9064 192.298 77.995 194.385 77.995Z" fill="black"/>
<path d="M207.705 80.898C205.872 80.898 204.401 80.3159 203.313 79.1554C202.224 77.9761 201.68 76.5057 201.68 74.7291C201.68 72.9526 202.224 71.4822 203.313 70.3217C204.401 69.1424 205.872 68.5603 207.705 68.5603C209.538 68.5603 211.009 69.1424 212.097 70.3217C213.186 71.4822 213.73 72.9526 213.73 74.7291C213.73 76.5057 213.186 77.9761 212.097 79.1554C211.009 80.3159 209.538 80.898 207.705 80.898ZM207.705 77.995C209.791 77.995 210.827 76.9064 210.827 74.7291C210.827 72.5519 209.791 71.4633 207.705 71.4633C205.618 71.4633 204.583 72.5519 204.583 74.7291C204.583 76.9064 205.618 77.995 207.705 77.995Z" fill="black"/>
<path d="M223.159 68.5603H226.062V80.898H223.159L218.37 74.0374H218.079V80.898H215.176V68.5603H218.079L222.868 75.4171H223.159V68.5603Z" fill="black"/>
<path d="M125.293 99.0415V86.7039H128.196V99.0415H125.293Z" fill="black"/>
<path d="M138.175 86.7039H141.078V99.0415H138.175L133.385 92.181H133.094V99.0415H130.191V86.7039H133.094L137.884 93.5606H138.175V86.7039Z" fill="black"/>
<path d="M152.291 86.7039V89.6068H149.044V99.0415H146.141V89.6068H142.895V86.7039H152.295H152.291Z" fill="black"/>
<path d="M162.23 89.6068H156.458V91.4212H161.141V94.3242H156.458V96.1385H162.23V99.0415H153.918V86.7039H162.23V89.6068Z" fill="black"/>
<path d="M170.577 94.1427H174.368V99.0415H171.465V95.5375H167.13V99.0415H164.227V86.7039H168.834C172.554 86.7039 174.187 88.1742 174.187 90.5669C174.187 92.6005 172.898 93.8517 170.577 93.8517V94.1427ZM167.13 92.6383H168.834C170.668 92.6383 171.284 92.3473 171.284 91.115C171.284 90.48 171.102 90.0793 170.758 89.8979C170.414 89.6976 169.76 89.6068 168.834 89.6068H167.13V92.6383Z" fill="black"/>
<path d="M184.167 86.7039H187.07V99.0415H184.167L179.378 92.181H179.087V99.0415H176.184V86.7039H179.087L183.876 93.5606H184.167V86.7039Z" fill="black"/>
<path d="M197.127 99.0415L196.582 97.1365H192.19L191.646 99.0415H188.523L192.171 86.7039H196.597L200.245 99.0415H197.123H197.127ZM193.006 94.2335H195.766L194.534 89.9319H194.242L193.01 94.2335H193.006Z" fill="black"/>
<path d="M209.1 86.7039V89.6068H205.853V99.0415H202.95V89.6068H199.703V86.7039H209.104H209.1Z" fill="black"/>
<path d="M210.734 99.0415V86.7039H213.637V99.0415H210.734Z" fill="black"/>
<path d="M221.291 99.0415C219.458 99.0415 217.987 98.4594 216.899 97.299C215.81 96.1196 215.266 94.6493 215.266 92.8727C215.266 91.0961 215.81 89.6257 216.899 88.4653C217.987 87.286 219.458 86.7039 221.291 86.7039C223.124 86.7039 224.594 87.286 225.683 88.4653C226.772 89.6257 227.316 91.0961 227.316 92.8727C227.316 94.6493 226.772 96.1196 225.683 97.299C224.594 98.4594 223.124 99.0415 221.291 99.0415ZM221.291 96.1385C223.377 96.1385 224.413 95.0499 224.413 92.8727C224.413 90.6955 223.377 89.6068 221.291 89.6068C219.204 89.6068 218.169 90.6955 218.169 92.8727C218.169 95.0499 219.204 96.1385 221.291 96.1385Z" fill="black"/>
<path d="M236.749 86.7039H239.652V99.0415H236.749L231.96 92.181H231.669V99.0415H228.766V86.7039H231.669L236.458 93.5606H236.749V86.7039Z" fill="black"/>
<path d="M249.701 99.0415L249.156 97.1365H244.764L244.22 99.0415H241.098L244.745 86.7039H249.172L252.819 99.0415H249.697H249.701ZM245.581 94.2335H248.34L247.108 89.9319H246.817L245.584 94.2335H245.581Z" fill="black"/>
<path d="M257.18 96.1385H261.497V99.0415H254.273V86.7039H257.176V96.1385H257.18Z" fill="black"/>
<path d="M134.51 104.848V107.751H131.263V117.185H128.36V107.751H125.113V104.848H134.514H134.51Z" fill="black"/>
<path d="M144.457 107.751H138.685V109.565H143.368V112.468H138.685V114.282H144.457V117.185H136.145V104.848H144.457V107.751Z" fill="black"/>
<path d="M155.121 106.19C156.047 107.078 156.535 108.185 156.592 109.546H153.689C153.526 108.839 153.273 108.367 152.925 108.132C152.581 107.879 151.999 107.751 151.201 107.751C150.241 107.751 149.712 107.841 149.187 108.276C148.68 108.711 148.442 109.584 148.442 111.016C148.442 112.449 148.676 113.322 149.187 113.757C149.712 114.192 150.238 114.282 151.201 114.282C151.999 114.282 152.581 114.154 152.925 113.919C153.269 113.666 153.522 113.194 153.689 112.487H156.592C156.539 113.848 156.047 114.974 155.121 115.862C154.195 116.751 152.891 117.185 151.201 117.185C147.066 117.185 145.539 114.101 145.539 111.016C145.539 107.932 147.062 104.848 151.201 104.848C152.887 104.848 154.195 105.301 155.121 106.19Z" fill="black"/>
<path d="M165.824 104.848H168.727V117.185H165.824V112.649H161.126V117.185H158.223V104.848H161.126V109.746H165.824V104.848Z" fill="black"/>
<path d="M177.984 112.502C178.801 113.065 179.746 113.5 180.816 113.81C181.904 114.12 182.883 114.282 183.756 114.282C185.48 114.282 186.043 114.154 186.043 113.519C186.043 113.228 185.915 113.027 185.661 112.921C185.408 112.793 184.826 112.63 183.9 112.43L182.702 112.158C181.107 111.795 179.942 111.341 179.236 110.816C178.529 110.291 178.166 109.508 178.166 108.51C178.166 106.042 179.999 104.844 183.102 104.844C183.847 104.844 184.698 104.953 185.643 105.154C186.603 105.354 187.366 105.588 187.963 105.879V108.82C187.094 108.495 186.168 108.238 185.204 108.042C184.244 107.841 183.461 107.751 182.864 107.751H182.721C182.157 107.751 181.957 107.751 181.579 107.822C181.216 107.875 181.073 108.042 181.073 108.314C181.073 108.586 181.273 108.767 181.564 108.896C181.727 108.968 182.127 109.058 182.399 109.13L183.598 109.383C184.195 109.512 184.648 109.637 184.996 109.727L186.175 110.052C186.61 110.181 186.939 110.325 187.173 110.453C187.665 110.688 188.281 111.088 188.515 111.542C188.75 111.976 188.95 112.577 188.95 113.318C188.95 114.607 188.459 115.567 187.498 116.221C186.538 116.856 185.302 117.181 183.76 117.181C182.834 117.181 181.802 117.038 180.623 116.728C179.462 116.418 178.589 116.021 177.992 115.567V112.502H177.984Z" fill="black"/>
<path d="M201.428 112.468C201.428 114.01 200.922 115.19 199.924 115.987C198.926 116.785 197.584 117.185 195.913 117.185C194.243 117.185 192.901 116.785 191.903 115.987C190.905 115.19 190.398 114.01 190.398 112.468V104.848H193.301V111.742C193.301 112.687 193.483 113.337 193.827 113.719C194.171 114.101 194.878 114.282 195.913 114.282C196.949 114.282 197.656 114.101 198 113.719C198.344 113.337 198.525 112.683 198.525 111.742V104.848H201.428V112.468Z" fill="black"/>
<path d="M214.924 104.848H217.827V117.185H214.924V111.47H214.633L211.93 116.35H209.319L206.616 111.47H206.325V117.185H203.422V104.848H206.325L210.479 112.487H210.77L214.924 104.848Z" fill="black"/>
<path d="M231.323 104.848H234.226V117.185H231.323V111.47H231.032L228.329 116.35H225.717L223.014 111.47H222.723V117.185H219.82V104.848H222.723L226.877 112.487H227.168L231.323 104.848Z" fill="black"/>
<path d="M236.227 117.185V104.848H239.13V117.185H236.227Z" fill="black"/>
<path d="M250.338 104.848V107.751H247.091V117.185H244.188V107.751H240.941V104.848H250.342H250.338Z" fill="black"/>
</g>
<defs>
<clipPath id="clip0_609_1887">
<rect width="261" height="128.525" fill="white" transform="translate(0.5)"/>
</clipPath>
</defs>
</svg>
