<?xml version="1.0" encoding="UTF-8"?>
<svg id="Layer_2" data-name="Layer 2" xmlns="http://www.w3.org/2000/svg" viewBox="0 0 265.18 53.12">
  <g id="Layer_1-2" data-name="Layer 1">
    <g>
      <g>
        <path d="M94.94,10.66c0,5.08-4.13,9.19-9.22,9.19h-9.39V1.47h9.39c5.09,0,9.22,4.11,9.22,9.19Zm-9.22,6.18c3.43,0,6.2-2.77,6.2-6.18s-2.78-6.18-6.2-6.18h-6.37v12.36h6.37Z" style="fill: #211814; fill-rule: evenodd;"/>
        <path d="M60.74,10.66c0,5.08,4.13,9.19,9.22,9.19h9.39V1.47h-9.39c-5.09,0-9.22,4.11-9.22,9.19Zm9.22,6.18c-3.43,0-6.2-2.77-6.2-6.18s2.78-6.18,6.2-6.18h6.37v12.36h-6.37Z" style="fill: #211814; fill-rule: evenodd;"/>
        <path d="M60.74,26.03c0,5.07,4.13,9.19,9.22,9.19h9.39V16.85h-9.39c-5.09,0-9.22,4.11-9.22,9.19Zm9.22,6.18c-3.43,0-6.2-2.77-6.2-6.18s2.78-6.18,6.2-6.18h6.37s0,12.36,0,12.36h-6.37Z" style="fill: #211814; fill-rule: evenodd;"/>
        <path d="M60.74,41.41c0,5.09,4.18,9.19,9.26,9.19s9.35-4.14,9.35-9.27v-9.11h-9.39c-5.09,0-9.22,4.11-9.22,9.19Zm9.26,6.18c-3.44,0-6.24-2.78-6.24-6.18s2.78-6.18,6.2-6.18h6.37v6.1c0,3.45-2.85,6.27-6.33,6.27Z" style="fill: #211814; fill-rule: evenodd;"/>
        <path d="M76.33,26.03c0,5.07,4.13,9.19,9.22,9.19h.17c5.09,0,9.22-4.11,9.22-9.19s-4.13-9.19-9.22-9.19h-.17c-5.09,0-9.22,4.11-9.22,9.19Zm9.22,6.18c-3.43,0-6.2-2.77-6.2-6.18s2.78-6.18,6.2-6.18h.17c3.43,0,6.2,2.77,6.2,6.18s-2.78,6.18-6.2,6.18h-.17Z" style="fill: #211814; fill-rule: evenodd;"/>
        <path d="M24.5,46.27l1.68,1.51c-.15,.42-.23,.86-.23,1.33,0,2.22,1.8,4.02,4.02,4.02s4.02-1.8,4.02-4.02c0-.43-.07-.84-.19-1.23l1.8-1.61,.08-.08c6.21-5.54,11.6-10.35,15.42-14.94,2.72-3.27,4.8-6.62,5.79-10.25,1.76-.43,3.06-2.01,3.06-3.9,0-1.75-1.12-3.24-2.68-3.79C55.9,5.62,49.21,0,41.07,0c-2.89,0-5.54,1.1-7.72,2.49-.6,.38-1.18,.8-1.74,1.23-.5-.22-1.05-.35-1.63-.35-.54,0-1.06,.11-1.54,.3-.54-.42-1.1-.82-1.69-1.19-2.18-1.39-4.82-2.49-7.72-2.49C10.91,0,4.23,5.6,2.84,13.25c-1.64,.5-2.84,2.03-2.84,3.84,0,1.95,1.38,3.57,3.22,3.94,1,3.61,3.07,6.95,5.78,10.21,3.81,4.59,9.21,9.41,15.42,14.94l.09,.08ZM6.18,20.48c2.14,7.32,9.71,14.09,20.32,23.55l1.66,1.49c.55-.28,1.16-.43,1.82-.43,.69,0,1.34,.17,1.91,.48l1.72-1.54c10.57-9.43,18.13-16.19,20.3-23.47-1.19-.7-1.98-1.99-1.98-3.46,0-1.62,.95-3.01,2.33-3.65-1.27-6.05-6.61-10.45-13.18-10.45-2.61,0-5.16,1.23-7.36,2.89,.19,.46,.29,.97,.29,1.5,0,2.22-1.8,4.02-4.02,4.02s-4.02-1.8-4.02-4.02c0-.56,.12-1.1,.32-1.58-2.17-1.62-4.68-2.81-7.25-2.81-6.59,0-11.94,4.43-13.19,10.51,1.3,.66,2.2,2.02,2.2,3.58,0,1.42-.74,2.67-1.86,3.39Zm-3.61-4.62h0c.35-.41,.87-.67,1.45-.67,.64,0,1.21,.32,1.55,.8h0c.22,.31,.35,.69,.35,1.1,0,1.05-.85,1.9-1.9,1.9s-1.9-.85-1.9-1.9c0-.47,.17-.9,.45-1.23ZM31.88,49.1c0-.07,0-.14-.01-.21-.03-.3-.14-.58-.3-.83-.33-.5-.88-.83-1.51-.86h-.01s-.04,0-.07,0c-1.05,0-1.9,.85-1.9,1.9,0,.09,0,.17,.02,.26,0,.05,.02,.1,.03,.15,.19,.86,.95,1.5,1.86,1.5,1.05,0,1.9-.85,1.9-1.9Zm24.06-30.11c-.55,0-1.05-.23-1.39-.61-.05-.05-.1-.11-.14-.17-.23-.32-.37-.7-.37-1.13,0-.49,.19-.94,.49-1.28,.35-.38,.85-.62,1.41-.62,.59,0,1.11,.27,1.46,.68,.05,.06,.1,.12,.14,.19,.19,.3,.3,.65,.3,1.03,0,1.05-.85,1.9-1.9,1.9ZM29.98,5.49c.66,0,1.23,.33,1.58,.84,.17,.25,.28,.54,.31,.86,0,.07,.01,.14,.01,.21,0,1.05-.85,1.9-1.9,1.9s-1.9-.85-1.9-1.9c0-.03,0-.06,0-.09,.05-1.01,.88-1.81,1.9-1.81Z" style="fill: #211814; fill-rule: evenodd;"/>
        <g>
          <path d="M44.59,24.1l-.02,.35-.16,.63-.08,.2-.48,.47-.29,.14h-.21s-1.35-.14-1.35-.14c-.38-.04-.73,.19-.84,.56l-.12,.41c-.03,.11-.04,.22-.03,.33l.09,.69-.2,.89-.05,.1-.07,.08-.08,.07-.68,.37-.65,.22-.31,.04c-.2,.03-.38,.14-.51,.29l-.25-.06s-.03,0-.04,0l-1.24-.23c-.09-.02-.18-.02-.27,0l-.24,.04s-.08,.02-.12,.03l-.28,.09c-.14,.05-.27,.13-.36,.25l-.11,.13s-.08,.11-.11,.17l-.08,.18s-.01,.03-.02,.04l-.65,1.59-.57,.94-.09,.03-.76-.06s-.06,0-.09,0h-.31s-.08,.02-.12,.02l-3.08,.57c-.3,.06-.54,.28-.62,.58l-.07,.27s-.1-.07-.16-.09l-.19-.08s-.07-.02-.11-.03l-.83-.22s-.06-.02-.09-.02l-.27-.04c-.1-.01-.2,0-.3,.02l-.18,.05c-.05,.01-.11,.03-.16,.06l-.14,.07s-.09,.05-.13,.08l-.73,.57-.13-.04s-.07-.02-.1-.03l-.83-.18-.62-.22c-.21-.07-.44-.05-.63,.05l-.64,.34-.73-.34s-.07-.03-.11-.04l-.97-.29-.33-.17-.1-.1-.08-.1-.1-.23c-.03-.07-.08-.14-.14-.21l-.1-.11c-.08-.08-.17-.15-.28-.19l-.18-.07c-.15-.06-.31-.08-.46-.05l-.24,.05-.27-.36s-.04-.06-.07-.08l-.19-.19c-.05-.05-.11-.1-.18-.14l-.13-.08,.12-.53c.05-.22,0-.45-.13-.64l-.08-.11,1.45-.91c.07-.05,.14-.11,.2-.18l.21-.26,.19,.03c.13,.02,.26,.01,.37-.03l.18-.06c.17-.06,.32-.17,.42-.33l.13-.2c.03-.05,.06-.11,.08-.17l.1-.3c.03-.09,.04-.18,.04-.27l-.02-.44,.07-.26s.02-.09,.03-.13l.09-.9c.01-.11,0-.21-.03-.31l-.85-2.73s-.03-.08-.05-.12l-.14-.29-.21-.67c-.02-.07-.05-.13-.09-.19l-.44-.68s-.01-.02-.02-.03l1.09-3.47,.07,.03s.08,.04,.12,.05l.34,.1c.18,.05,.36,.04,.53-.03l.41-.17c.07-.03,.14-.08,.2-.13l3.92-3.33,.12,.64c.02,.08,.04,.15,.08,.22l.18,.34c.05,.1,.12,.18,.21,.25l.37,.29c.08,.06,.17,.11,.26,.13l.48,.14c.08,.02,.16,.03,.24,.03l4.5-.07c.42,0,.77-.34,.78-.77v-.31s.03-.08,.03-.08l.15-.22c.06-.03,.12-.06,.17-.1l.07-.06c.18-.14,.28-.34,.3-.56l.09-1.13,.09,.07c.07,.06,.16,.1,.24,.13l.4,.13,1.16,.62s.06,.03,.09,.04l1.35,.51,.3,.2,.17,.41,.14,.73c.01,.06,.03,.12,.06,.17l.35,.77c.04,.08,.09,.16,.16,.23l.56,.56c.11,.11,.26,.19,.42,.22l1.44,.26,.3,.23,.19,.4,.04,.64-.03,.66s0,.06,0,.1l.06,.69s0,.07,.02,.1l.29,1.36s.02,.09,.04,.13l.34,.84c.04,.11,.11,.2,.19,.28l.29,.27c.12,.11,.27,.18,.43,.2l.47,.07c.06,0,.13,.01,.19,0l.31-.03v.07Z" style="fill: #fff;"/>
          <path d="M46.16,23.97l-.11-.9c-.05-.43-.44-.74-.87-.69l-.99,.11-.11-.02-.24-.59-.27-1.24-.05-.59,.03-.65s0-.06,0-.08l-.05-.84c0-.1-.03-.2-.08-.29l-.33-.71c-.05-.11-.13-.21-.22-.28l-.6-.47c-.1-.08-.22-.13-.35-.16l-1.39-.26-.28-.28-.25-.56-.14-.71s-.02-.09-.04-.14l-.29-.7c-.06-.14-.16-.27-.29-.36l-.57-.39s-.11-.06-.17-.08l-1.39-.53-1.18-.63s-.08-.04-.12-.05l-.28-.09-.06-.52c-.02-.14-.07-.28-.16-.4l-.32-.41c-.17-.21-.43-.33-.7-.3-.27,.02-.5,.18-.63,.43l-.25,.49s-.03,.07-.04,.11l-.22,.64s-.02,.05-.02,.08l-.15,.66s-.02,.07-.02,.11l-.07,.94h0c-.06,.05-.11,.1-.16,.16l-.22,.29s-.03,.04-.04,.07l-.14,.24c-.04,.07-.07,.13-.08,.21l-.03,.09-3.68,.05-.22-.07-.12-.09-.05-.09-.23-1.18c-.01-.07-.04-.14-.07-.2l-.14-.29c-.11-.22-.31-.37-.54-.42l-.24-.05c-.19-.04-.39-.01-.55,.09l-.41,.23s-.08,.05-.12,.08l-4.18,3.56-.04,.02-.28-.14c-.09-.04-.19-.07-.29-.08l-.42-.03c-.24-.02-.48,.08-.65,.26l-.33,.37c-.07,.08-.13,.18-.16,.29l-1.33,4.21c-.09,.3,0,.62,.23,.83l.18,.15,.32,.5,.19,.63s.03,.08,.05,.12l.14,.29,.79,2.52-.07,.67-.09,.31c-.02,.08-.03,.16-.03,.24v.21c-.05,0-.11,.01-.17,.03l-.37,.11c-.16,.04-.3,.14-.4,.26l-.33,.41-1.59,1c-.07,.05-.14,.11-.19,.17l-.23,.28c-.06,.07-.1,.15-.13,.24l-.08,.23c-.06,.19-.06,.39,.02,.57l.05,.12s.03,.06,.04,.09l.03,.04c.04,.07,.1,.14,.15,.19l.02,.02s0,0,0,0l-.11,.5c-.03,.12-.03,.25,0,.37l.06,.24c.03,.13,.1,.25,.19,.35l.15,.16c.07,.08,.17,.14,.27,.18l.15,.06,.04,.02,.07,.08,.41,.55c.1,.14,.25,.24,.42,.29l.4,.12c.12,.04,.25,.04,.38,.02h.02s.04,.08,.07,.11l.16,.21s.04,.04,.06,.07l.22,.22c.06,.06,.13,.11,.21,.15l.51,.26s.08,.04,.13,.05l.98,.3,1.04,.49c.23,.11,.49,.1,.71-.02l.68-.37,.34,.12s.06,.02,.09,.03l.83,.18,.49,.18c.25,.09,.53,.04,.75-.12l.99-.76,.78,.2,.11,.19c.03,.06,.07,.12,.11,.17l.13,.14c.1,.12,.24,.21,.39,.24l.17,.04c.07,.02,.13,.03,.2,.03,.18,0,.35-.06,.49-.17l.2-.16s.08-.07,.12-.11l.15-.18c.07-.09,.13-.19,.16-.3l.16-.58,2.53-.47h.21s.88,.07,.88,.07c.11,0,.22,0,.33-.04l.39-.14c.06-.02,.11-.04,.16-.08l.16-.1c.1-.06,.19-.15,.25-.26l.72-1.17s.04-.08,.06-.12l.65-1.59,1.08,.2,.74,.18c.31,.08,.64-.04,.83-.31l.1-.13h.05s.1-.03,.14-.04l.79-.27s.08-.03,.13-.06l.81-.44s.09-.06,.14-.09l.19-.17s.07-.07,.09-.1l.17-.21s.07-.09,.09-.14l.13-.26c.03-.06,.05-.12,.06-.18l.25-1.13c.02-.09,.02-.18,.01-.27l-.03-.26,.58,.06s.06,0,.09,0h.22s.06,0,.09-.01l.24-.03c.08,0,.15-.03,.22-.06l.33-.14s.06-.03,.08-.04l.22-.13c.06-.03,.11-.07,.16-.12l.67-.66c.08-.08,.14-.17,.18-.27l.16-.4s.02-.07,.03-.11l.18-.76s.02-.1,.02-.15l.02-.49s0-.09,0-.13Zm-1.59,.48l-.16,.63-.08,.2-.48,.47-.29,.14h-.21s-1.35-.14-1.35-.14c-.38-.04-.73,.19-.84,.56l-.12,.41c-.03,.11-.04,.22-.03,.33l.09,.69-.2,.89-.05,.1-.07,.08-.08,.07-.68,.37-.65,.22-.31,.04c-.2,.03-.38,.14-.51,.29l-.25-.06s-.03,0-.04,0l-1.24-.23c-.09-.02-.18-.02-.27,0l-.24,.04s-.08,.02-.12,.03l-.28,.09c-.14,.05-.27,.13-.36,.25l-.11,.13s-.08,.11-.11,.17l-.08,.18s-.01,.03-.02,.04l-.65,1.59-.57,.94-.09,.03-.76-.06s-.06,0-.09,0h-.31s-.08,.02-.12,.02l-3.08,.57c-.3,.06-.54,.28-.62,.58l-.07,.27s-.1-.07-.16-.09l-.19-.08s-.07-.02-.11-.03l-.83-.22s-.06-.02-.09-.02l-.27-.04c-.1-.01-.2,0-.3,.02l-.18,.05c-.05,.01-.11,.03-.16,.06l-.14,.07s-.09,.05-.13,.08l-.73,.57-.13-.04s-.07-.02-.1-.03l-.83-.18-.62-.22c-.21-.07-.44-.05-.63,.05l-.64,.34-.73-.34s-.07-.03-.11-.04l-.97-.29-.33-.17-.1-.1-.08-.1-.1-.23c-.03-.07-.08-.14-.14-.21l-.1-.11c-.08-.08-.17-.15-.28-.19l-.18-.07c-.15-.06-.31-.08-.46-.05l-.24,.05-.27-.36s-.04-.06-.07-.08l-.19-.19c-.05-.05-.11-.1-.18-.14l-.13-.08,.12-.53c.05-.22,0-.45-.13-.64l-.08-.11,1.45-.91c.07-.05,.14-.11,.2-.18l.21-.26,.19,.03c.13,.02,.26,.01,.37-.03l.18-.06c.17-.06,.32-.17,.42-.33l.13-.2c.03-.05,.06-.11,.08-.17l.1-.3c.03-.09,.04-.18,.04-.27l-.02-.44,.07-.26s.02-.09,.03-.13l.09-.9c.01-.11,0-.21-.03-.31l-.85-2.73s-.03-.08-.05-.12l-.14-.29-.21-.67c-.02-.07-.05-.13-.09-.19l-.44-.68s-.01-.02-.02-.03l1.09-3.47,.07,.03s.08,.04,.12,.05l.34,.1c.18,.05,.36,.04,.53-.03l.41-.17c.07-.03,.14-.08,.2-.13l3.92-3.33,.12,.64c.02,.08,.04,.15,.08,.22l.18,.34c.05,.1,.12,.18,.21,.25l.37,.29c.08,.06,.17,.11,.26,.13l.48,.14c.08,.02,.16,.03,.24,.03l4.5-.07c.42,0,.77-.34,.78-.77v-.31s.03-.08,.03-.08l.15-.22c.06-.03,.12-.06,.17-.1l.07-.06c.18-.14,.28-.34,.3-.56l.09-1.13,.09,.07c.07,.06,.16,.1,.24,.13l.4,.13,1.16,.62s.06,.03,.09,.04l1.35,.51,.3,.2,.17,.41,.14,.73c.01,.06,.03,.12,.06,.17l.35,.77c.04,.08,.09,.16,.16,.23l.56,.56c.11,.11,.26,.19,.42,.22l1.44,.26,.3,.23,.19,.4,.04,.64-.03,.66s0,.06,0,.1l.06,.69s0,.07,.02,.1l.29,1.36s.02,.09,.04,.13l.34,.84c.04,.11,.11,.2,.19,.28l.29,.27c.12,.11,.27,.18,.43,.2l.47,.07c.06,0,.13,.01,.19,0l.31-.03v.07s0,.35,0,.35Z" style="fill: #211814;"/>
        </g>
      </g>
      <g>
        <polygon points="119.56 11.94 125.03 11.94 125.03 10.57 119.56 10.57 119.56 6.66 126.57 6.66 126.57 5.28 118.09 5.28 118.09 17.4 119.56 17.4 119.56 11.94" style="fill: #211814;"/>
        <path d="M132.59,8.03c-.71,0-1.31,.14-1.81,.42-.5,.28-.87,.7-1.13,1.27l-.2-1.51h-1.19v9.18h1.47v-4.96c0-.69,.13-1.25,.39-1.7,.26-.45,.58-.78,.96-1,.39-.22,.77-.33,1.15-.33,.29,0,.52,.01,.68,.04,.16,.02,.31,.06,.44,.11l.26-1.34c-.13-.07-.3-.12-.49-.15-.19-.02-.36-.04-.52-.04Z" style="fill: #211814;"/>
        <rect x="135.75" y="8.22" width="1.47" height="9.18" style="fill: #211814;"/>
        <path d="M136.48,6.46c.33,0,.6-.1,.8-.3,.2-.2,.3-.47,.3-.8s-.1-.6-.3-.8c-.2-.2-.47-.3-.8-.3s-.6,.1-.8,.3c-.2,.2-.3,.47-.3,.8s.1,.6,.3,.8,.47,.3,.8,.3Z" style="fill: #211814;"/>
        <path d="M142.15,17.01c.68,.38,1.45,.57,2.32,.57,.6,0,1.14-.08,1.62-.25,.48-.17,.91-.4,1.27-.71,.36-.31,.66-.67,.89-1.08l-1.16-.68c-.26,.44-.6,.79-1.02,1.05-.42,.26-.97,.39-1.64,.39-.62,0-1.16-.14-1.61-.41-.45-.28-.79-.68-1.04-1.2-.2-.42-.31-.91-.35-1.45h6.92c.02-.13,.04-.29,.06-.46,.01-.17,.02-.36,.02-.57,0-.78-.16-1.49-.48-2.12-.32-.63-.78-1.13-1.39-1.5s-1.34-.55-2.19-.55-1.6,.19-2.26,.57c-.66,.38-1.18,.93-1.56,1.64s-.57,1.57-.57,2.56,.19,1.84,.57,2.56,.91,1.26,1.59,1.64Zm.64-7.28c.43-.28,.95-.41,1.55-.41,.78,0,1.42,.24,1.9,.72,.46,.45,.69,1.08,.72,1.89h-5.47c.06-.37,.15-.7,.29-1,.24-.52,.58-.92,1.01-1.19Z" style="fill: #211814;"/>
        <path d="M152.69,12.51c0-.78,.14-1.41,.43-1.87,.29-.47,.65-.8,1.09-1.01,.44-.21,.88-.31,1.32-.31,.64,0,1.17,.2,1.61,.6,.43,.4,.65,1.1,.65,2.12v5.36h1.47v-5.87c0-.8-.16-1.45-.49-1.96-.32-.51-.76-.9-1.29-1.15-.54-.25-1.14-.38-1.8-.38-.47,0-.92,.07-1.35,.2-.43,.13-.82,.35-1.15,.65-.23,.21-.42,.47-.59,.77l-.09-1.44h-1.29v9.18h1.47v-4.88Z" style="fill: #211814;"/>
        <path d="M164.08,17.01c.64,.38,1.33,.57,2.09,.57,.53,0,1.02-.1,1.5-.29,.47-.2,.87-.48,1.19-.85,.19-.22,.33-.47,.44-.75l.1,1.71h1.29V4h-1.47v5.7c-.21-.43-.52-.79-.93-1.08-.56-.39-1.21-.59-1.97-.59s-1.47,.19-2.13,.56c-.66,.37-1.19,.92-1.6,1.62-.4,.71-.61,1.57-.61,2.59s.19,1.84,.57,2.56,.89,1.26,1.52,1.64Zm.15-6.74c.51-.64,1.24-.95,2.17-.95,.56,0,1.06,.13,1.48,.4,.42,.27,.75,.65,.99,1.16,.24,.5,.36,1.1,.36,1.8,0,.73-.12,1.37-.36,1.92-.24,.54-.58,.96-1.01,1.26-.43,.29-.95,.44-1.53,.44-.91,0-1.61-.32-2.11-.95-.5-.64-.75-1.48-.75-2.53s.26-1.9,.77-2.53Z" style="fill: #211814;"/>
        <path d="M179.31,17.23c.55-.23,.98-.57,1.29-1,.31-.43,.46-.94,.46-1.51s-.17-1.04-.51-1.43c-.34-.39-.94-.67-1.8-.84l-2.29-.48c-.5-.1-.84-.26-1.03-.49-.18-.23-.28-.47-.28-.74s.08-.51,.25-.73c.17-.21,.4-.38,.72-.5,.31-.12,.69-.18,1.13-.18,.5,0,.99,.13,1.45,.38,.47,.25,.8,.65,1.01,1.18l1.23-.81c-.31-.65-.77-1.15-1.4-1.51-.62-.35-1.39-.53-2.29-.53-.72,0-1.35,.13-1.88,.38-.53,.25-.94,.58-1.23,1-.29,.42-.43,.88-.43,1.38,0,.64,.19,1.17,.58,1.6,.39,.43,1.02,.73,1.92,.92l2.2,.46c.47,.1,.78,.25,.95,.47,.17,.21,.25,.45,.25,.71,0,.4-.18,.73-.55,.98-.37,.25-.88,.38-1.52,.38-.73,0-1.36-.16-1.88-.48-.52-.32-.92-.76-1.18-1.32l-1.25,.9c.4,.7,.98,1.24,1.74,1.62s1.58,.57,2.47,.57c.72,0,1.36-.12,1.91-.35Z" style="fill: #211814;"/>
        <path d="M193.84,17.58c.87,0,1.64-.19,2.3-.57,.67-.38,1.19-.93,1.57-1.64,.38-.72,.57-1.57,.57-2.56s-.19-1.84-.57-2.56c-.38-.72-.9-1.26-1.57-1.64-.67-.38-1.44-.57-2.3-.57s-1.62,.19-2.29,.57-1.2,.93-1.58,1.64-.57,1.57-.57,2.56,.19,1.84,.57,2.56,.91,1.26,1.58,1.64,1.44,.57,2.29,.57Zm-2.97-4.77c0-.73,.12-1.36,.36-1.88,.24-.52,.58-.92,1.02-1.2,.44-.28,.97-.42,1.6-.42s1.16,.14,1.6,.42c.44,.28,.78,.68,1.02,1.2,.24,.52,.36,1.15,.36,1.88s-.12,1.35-.36,1.87-.58,.93-1.02,1.21c-.44,.28-.97,.42-1.6,.42s-1.16-.14-1.6-.42c-.44-.28-.78-.69-1.02-1.21s-.36-1.15-.36-1.87Z" style="fill: #211814;"/>
        <path d="M203.51,5.62c.29-.25,.7-.38,1.23-.38,.21,0,.4,.02,.57,.06,.17,.04,.33,.11,.48,.21l.39-1.19c-.16-.13-.38-.24-.66-.31-.28-.07-.58-.11-.9-.11-.5,0-.94,.07-1.32,.2-.38,.13-.69,.32-.95,.57-.25,.25-.44,.54-.56,.88-.12,.34-.18,.72-.18,1.12v1.54h-1.84v1.27h1.84v7.91h1.47v-7.91h3.07v-1.27h-3.07v-1.4c0-.55,.15-.95,.44-1.2Z" style="fill: #211814;"/>
        <polygon points="213.9 17.4 215.37 17.4 215.37 11.94 220.84 11.94 220.84 10.57 215.37 10.57 215.37 6.66 222.38 6.66 222.38 5.28 213.9 5.28 213.9 17.4" style="fill: #211814;"/>
        <rect x="224.82" y="8.22" width="1.47" height="9.18" style="fill: #211814;"/>
        <path d="M225.56,6.46c.33,0,.6-.1,.8-.3,.2-.2,.3-.47,.3-.8s-.1-.6-.3-.8c-.2-.2-.47-.3-.8-.3s-.6,.1-.8,.3c-.2,.2-.3,.47-.3,.8s.1,.6,.3,.8,.47,.3,.8,.3Z" style="fill: #211814;"/>
        <path d="M237.39,6.53h-.05c-.45,0-.87,.09-1.25,.28-.38,.19-.68,.46-.9,.82-.16,.25-.26,.54-.3,.86-.04-.02-.07-.04-.11-.06-.57-.26-1.22-.39-1.96-.39s-1.38,.13-1.95,.39c-.56,.26-1.01,.63-1.33,1.09-.32,.47-.49,1-.49,1.62,0,.91,.32,1.65,.97,2.23,.14,.12,.29,.23,.46,.33-.3,.11-.56,.27-.76,.46-.37,.36-.56,.79-.56,1.29s.14,.88,.43,1.15c.16,.15,.35,.27,.56,.37-.45,.1-.79,.29-1.02,.56-.32,.39-.49,.82-.49,1.31,0,.69,.36,1.27,1.07,1.76,.72,.49,1.8,.73,3.24,.73,.83,0,1.58-.12,2.25-.36,.67-.24,1.2-.58,1.6-1.02s.6-.96,.6-1.56c0-.66-.25-1.19-.73-1.59-.49-.4-1.17-.6-2.04-.6h-2.68c-.45,0-.8-.08-1.06-.25-.25-.17-.38-.42-.38-.76,0-.28,.13-.54,.38-.78,.15-.14,.36-.25,.63-.33,.39,.09,.82,.14,1.29,.14,.73,0,1.39-.13,1.96-.39,.57-.26,1.01-.63,1.33-1.1,.32-.47,.48-1.01,.48-1.61s-.16-1.15-.48-1.62c-.1-.14-.21-.28-.34-.4,.04-.41,.2-.73,.48-.93,.32-.24,.79-.36,1.39-.36h.13l-.33-1.3h-.05Zm-5.98,10.96h2.83c.69,0,1.16,.1,1.42,.29,.26,.2,.39,.46,.39,.79,0,.27-.11,.52-.33,.75-.22,.23-.56,.42-1.02,.57-.46,.15-1.04,.22-1.75,.22-.92,0-1.64-.13-2.16-.4-.52-.27-.78-.63-.78-1.08,0-.35,.13-.63,.4-.84,.27-.2,.6-.3,.99-.3Zm3.01-4.98c-.43,.36-.96,.53-1.6,.53s-1.17-.18-1.6-.53c-.43-.35-.64-.81-.64-1.38s.21-1.04,.64-1.39c.43-.35,.96-.52,1.6-.52s1.17,.17,1.6,.52c.43,.35,.64,.81,.64,1.39s-.21,1.02-.64,1.38Z" style="fill: #211814;"/>
        <path d="M251.82,8.4c-.53-.24-1.09-.37-1.68-.37-.38,0-.78,.06-1.2,.19-.42,.13-.81,.32-1.17,.59-.36,.26-.63,.6-.83,1.02-.31-.61-.75-1.06-1.32-1.36s-1.19-.44-1.84-.44c-.56,0-1.11,.13-1.64,.39-.53,.26-.96,.67-1.29,1.23l-.09-1.43h-1.29v9.18h1.47v-4.9c0-.76,.14-1.37,.42-1.84,.28-.46,.63-.8,1.06-1.02s.84-.32,1.24-.32c.61,0,1.13,.18,1.54,.55,.42,.37,.62,.97,.62,1.8v5.73h1.47v-5.03c0-.66,.13-1.22,.38-1.67,.25-.45,.58-.8,1-1.03,.42-.23,.86-.35,1.34-.35,.61,0,1.13,.18,1.54,.55,.42,.37,.62,.97,.62,1.8v5.73h1.47v-5.87c0-.81-.17-1.47-.51-1.98-.34-.51-.78-.89-1.31-1.14Z" style="fill: #211814;"/>
        <path d="M264.5,16.28c-.47,0-.7-.22-.7-.66v-4.44c0-.72-.16-1.31-.47-1.77-.31-.46-.74-.8-1.28-1.03-.54-.23-1.14-.34-1.8-.34-.98,0-1.8,.21-2.46,.63-.66,.42-1.11,.98-1.36,1.66l1.19,.73c.21-.61,.53-1.06,.97-1.33,.44-.28,.98-.41,1.62-.41,.67,0,1.19,.19,1.56,.56,.37,.37,.55,.9,.55,1.59v.35l-3.34,.66c-.82,.16-1.46,.46-1.92,.91-.46,.45-.69,1.01-.69,1.7,0,.55,.14,1.01,.41,1.39s.65,.65,1.11,.84c.47,.18,.97,.28,1.51,.28,.43,0,.86-.07,1.3-.21,.44-.14,.84-.36,1.19-.66,.17-.14,.32-.31,.44-.5,.04,.19,.1,.35,.18,.5,.16,.28,.38,.48,.66,.62,.28,.13,.6,.2,.95,.2,.39,0,.71-.06,.95-.18l.07-1.16c-.22,.06-.45,.09-.68,.09Zm-2.39-1.26c-.15,.29-.35,.53-.61,.72-.26,.19-.55,.33-.87,.42-.32,.09-.66,.14-1.02,.14-.55,0-.98-.12-1.28-.36-.3-.24-.45-.55-.45-.93s.15-.7,.44-.92,.74-.39,1.34-.51l2.66-.55v.97c0,.39-.07,.73-.22,1.02Z" style="fill: #211814;"/>
        <path d="M129.2,40.2v-.03c1.19-.19,2.08-.64,2.66-1.35,.58-.71,.87-1.56,.87-2.54,0-1.51-.51-2.66-1.53-3.46-1.02-.8-2.59-1.21-4.73-1.22h-8.44v17.36h8.84c2.1,0,3.68-.41,4.73-1.22,1.05-.82,1.58-1.97,1.58-3.46,0-1.05-.33-1.95-.99-2.7-.66-.75-1.65-1.21-2.98-1.38Zm-6.81-5.29h3.29c1.61,0,2.42,.63,2.42,1.89s-.81,1.89-2.42,1.89h-3.29v-3.79Zm5.55,10.36c-.4,.33-1.02,.5-1.84,.5h-3.71v-3.84h3.71c.82,0,1.44,.16,1.84,.49,.4,.32,.6,.79,.6,1.41s-.2,1.11-.6,1.45Z" style="fill: #211814;"/>
        <path d="M147.48,45.35v-4.81c0-1.09-.24-2-.72-2.75-.48-.75-1.17-1.31-2.08-1.68-.9-.38-1.99-.57-3.27-.57-1.91,0-3.39,.38-4.44,1.13-1.05,.75-1.7,1.76-1.95,3.02l3.79,.89c.16-.74,.44-1.25,.85-1.54,.41-.29,.91-.43,1.49-.43s1.04,.18,1.38,.54c.34,.36,.51,.85,.51,1.46v.38l-4.55,.94c-1.23,.25-2.13,.68-2.7,1.3-.57,.62-.85,1.41-.85,2.35,0,.79,.18,1.45,.54,1.99,.36,.53,.87,.94,1.54,1.22,.67,.28,1.45,.42,2.34,.42,.77,0,1.51-.12,2.22-.37,.71-.25,1.29-.62,1.74-1.13,.13-.15,.24-.31,.33-.48,.07,.23,.16,.44,.29,.62,.3,.45,.71,.78,1.24,1,.53,.22,1.13,.33,1.81,.33,.75,0,1.39-.12,1.92-.37l.26-2.55c-.19,.07-.45,.11-.76,.11-.61,0-.92-.34-.92-1.03Zm-4.63-.26c-.12,.28-.29,.51-.5,.7-.21,.18-.45,.32-.72,.41-.27,.09-.56,.13-.85,.13-.39,0-.72-.1-1-.29-.28-.19-.42-.48-.42-.87s.13-.71,.38-.91c.25-.2,.64-.36,1.17-.46l2.13-.44v.73c0,.39-.06,.72-.18,1Z" style="fill: #211814;"/>
        <path d="M170.36,36.06c-.67-.34-1.44-.51-2.31-.51-.61,0-1.21,.1-1.79,.29-.58,.19-1.09,.48-1.54,.87-.45,.39-.81,.87-1.09,1.45-.35-.86-.89-1.51-1.6-1.95-.72-.44-1.57-.66-2.55-.66s-1.88,.24-2.64,.71c-.76,.47-1.35,1.17-1.78,2.1l-.13-2.55h-4v13.15h4.47v-6.94c0-.72,.11-1.3,.32-1.75s.5-.78,.85-.99c.36-.21,.74-.32,1.14-.32,.53,0,.96,.17,1.29,.5,.33,.33,.5,.92,.5,1.76v7.73h4.47v-7.02c0-.67,.1-1.22,.29-1.66,.19-.44,.47-.77,.83-.99,.36-.22,.76-.33,1.2-.33,.54,0,.98,.17,1.3,.5,.32,.33,.49,.92,.49,1.76v7.73h4.47v-8.76c0-1.03-.2-1.9-.59-2.59-.39-.69-.92-1.21-1.59-1.55Z" style="fill: #211814;"/>
        <path d="M185.41,36.35c-.97-.53-2.15-.8-3.54-.8s-2.55,.27-3.59,.82c-1.04,.54-1.85,1.32-2.43,2.34-.58,1.02-.87,2.24-.87,3.68s.29,2.67,.87,3.68c.58,1.02,1.4,1.8,2.46,2.34,1.06,.54,2.32,.82,3.77,.82,.91,0,1.78-.13,2.62-.39,.83-.26,1.55-.65,2.16-1.17,.6-.52,1.03-1.15,1.28-1.91l-3.58-1.18c-.19,.47-.49,.84-.88,1.1s-.92,.39-1.59,.39c-.6,0-1.1-.12-1.53-.35-.42-.24-.75-.62-.97-1.16-.13-.3-.22-.64-.27-1.04h8.98c.03-.21,.06-.47,.08-.79,.02-.32,.03-.63,.03-.95,0-1.21-.25-2.28-.76-3.22-.51-.94-1.25-1.67-2.22-2.21Zm-4.97,2.72c.39-.26,.87-.39,1.43-.39,.79,0,1.37,.28,1.75,.84,.27,.41,.45,.94,.52,1.6h-4.8c.05-.3,.11-.57,.2-.82,.2-.56,.5-.97,.89-1.24Z" style="fill: #211814;"/>
        <path d="M201.9,36.07c-.68-.35-1.47-.53-2.38-.53-.84,0-1.6,.16-2.27,.49-.68,.32-1.24,.8-1.68,1.43-.21,.29-.38,.62-.53,.99l-.14-2.64h-4v13.15h4.47v-6.97c0-.74,.11-1.32,.32-1.76,.21-.44,.5-.76,.87-.96,.37-.2,.76-.3,1.18-.3,.54,0,.99,.18,1.34,.53,.35,.35,.53,.98,.53,1.89v7.57h4.47v-8.76c0-1.03-.19-1.89-.58-2.58-.39-.68-.92-1.2-1.59-1.55Z" style="fill: #211814;"/>
        <path d="M216.01,38.07c-.25-.54-.57-1.02-.99-1.43-.73-.73-1.69-1.09-2.88-1.09-1.09,0-2.05,.27-2.88,.82-.83,.54-1.48,1.32-1.95,2.34-.46,1.02-.7,2.26-.7,3.73s.22,2.64,.67,3.66c.45,1.02,1.08,1.79,1.89,2.33,.82,.53,1.77,.8,2.85,.8,.84,0,1.59-.18,2.25-.54,.66-.36,1.2-.86,1.63-1.51,.16-.23,.29-.48,.4-.75l.16,2.54h4V30.23h-4.47v7.84Zm-.29,6.23c-.19,.54-.47,.95-.83,1.22-.36,.27-.79,.41-1.3,.41-.77,0-1.38-.28-1.81-.85-.44-.57-.66-1.47-.66-2.7s.22-2.13,.67-2.7c.45-.57,1.06-.85,1.83-.85,.51,0,.94,.14,1.3,.41,.36,.27,.63,.67,.82,1.18,.18,.52,.28,1.14,.28,1.88,0,.79-.1,1.46-.29,2Z" style="fill: #211814;"/>
        <path d="M235.47,45.35v-4.81c0-1.09-.24-2-.72-2.75-.48-.75-1.17-1.31-2.08-1.68-.9-.38-1.99-.57-3.27-.57-1.91,0-3.39,.38-4.44,1.13-1.05,.75-1.7,1.76-1.95,3.02l3.79,.89c.16-.74,.44-1.25,.85-1.54,.41-.29,.91-.43,1.49-.43s1.04,.18,1.38,.54c.34,.36,.51,.85,.51,1.46v.38l-4.55,.94c-1.23,.25-2.13,.68-2.7,1.3-.57,.62-.85,1.41-.85,2.35,0,.79,.18,1.45,.54,1.99,.36,.53,.87,.94,1.54,1.22,.67,.28,1.45,.42,2.34,.42,.77,0,1.51-.12,2.22-.37,.71-.25,1.29-.62,1.74-1.13,.13-.15,.24-.31,.33-.48,.07,.23,.16,.44,.29,.62,.3,.45,.71,.78,1.24,1,.53,.22,1.13,.33,1.81,.33,.75,0,1.39-.12,1.92-.37l.26-2.55c-.19,.07-.45,.11-.76,.11-.61,0-.92-.34-.92-1.03Zm-4.63-.26c-.12,.28-.29,.51-.5,.7-.21,.18-.45,.32-.72,.41-.27,.09-.56,.13-.85,.13-.39,0-.72-.1-1-.29-.28-.19-.42-.48-.42-.87s.13-.71,.38-.91c.25-.2,.64-.36,1.17-.46l2.13-.44v.73c0,.39-.06,.72-.18,1Z" style="fill: #211814;"/>
      </g>
    </g>
  </g>
</svg>