<svg width="606" height="620" viewBox="0 0 606 620" fill="none" xmlns="http://www.w3.org/2000/svg">
<path d="M389.602 544.41C362.569 560.737 333.301 569.273 303.69 569.496C274.079 569.718 244.743 561.623 217.576 545.706" stroke="#092E20" stroke-width="3"/>
<path d="M217.628 74.2639C244.788 58.3619 274.114 50.2774 303.714 50.5047C333.315 50.7319 362.571 59.2663 389.595 75.5856" stroke="#092E20" stroke-width="3"/>
<path d="M71.4466 242H104.583V395.15C87.5866 398.374 75.104 399.662 61.5451 399.662C21.088 399.662 0 381.403 0 346.381C0 312.647 22.3785 290.736 57.02 290.736C62.4018 290.736 66.4876 291.164 71.4356 292.452L71.4466 242ZM71.4466 319.096C67.575 317.807 64.3459 317.379 60.2601 317.379C43.4775 317.379 33.7902 327.688 33.7902 345.739C33.7902 363.357 43.0437 373.024 60.0404 373.024C63.8583 373.017 67.6705 372.731 71.4466 372.169V319.096ZM157.303 293.105V369.806C157.303 396.235 155.365 408.902 149.615 419.868C144.233 430.396 137.132 437.059 122.503 444.362L91.7328 429.749C106.368 422.873 113.463 416.864 117.983 407.619C122.717 398.165 124.227 387.21 124.227 358.417V293.165L157.303 293.105ZM124.167 242.192H157.303V276.189H124.167V242.192ZM177.315 300.622C191.95 293.746 205.872 290.741 221.215 290.741C238.212 290.741 249.404 295.254 254.352 304.066C257.098 309.001 258.009 315.455 258.009 329.207V396.493C243.16 398.642 224.439 400.145 210.671 400.145C182.916 400.145 170.434 390.472 170.434 368.989C170.434 345.783 187.002 334.992 227.674 331.603V324.299C227.674 318.284 224.653 316.074 216.267 316.074C204.004 316.074 190.237 319.512 177.32 326.175V300.606L177.315 300.622ZM229.173 353.262C207.223 355.412 200.067 358.855 200.067 367.442C200.067 373.885 204.158 376.895 213.247 376.895C218.189 376.895 222.715 376.468 229.173 375.393V353.262ZM274.204 298.264C293.782 293.11 309.922 290.752 326.276 290.752C343.273 290.752 355.547 294.618 362.862 302.141C369.748 309.231 371.896 316.963 371.896 333.506V398.39H338.759V334.783C338.759 322.106 334.453 317.379 322.613 317.379C318.094 317.379 314.008 317.807 307.336 319.737V398.368H274.144L274.204 298.264ZM384.724 416.43C396.345 422.446 407.965 425.237 420.228 425.237C441.958 425.237 451.212 416.43 451.212 395.374V394.727C444.759 397.946 438.306 399.24 429.695 399.24C400.59 399.24 382.138 380.12 382.138 349.824C382.138 312.22 409.47 290.955 457.879 290.955C472.08 290.955 485.211 292.458 501.131 295.682L489.785 319.551C480.96 317.835 489.071 319.32 482.41 318.673V322.111L482.838 336.072L483.058 354.123C483.278 358.636 483.278 363.149 483.497 367.656V376.682C483.497 405.041 481.136 418.355 474.03 429.322C463.705 445.443 445.841 453.448 420.447 453.448C407.542 453.448 396.35 451.513 384.73 447V416.491L384.724 416.43ZM450.624 317.599H447.181C440.728 317.379 433.199 319.101 428.031 322.325C420.069 326.838 415.983 335.003 415.983 346.606C415.983 363.149 424.22 372.597 438.795 372.597C443.315 372.597 447.033 371.736 451.272 370.447V359.058C451.272 355.192 451.053 350.833 451.053 346.381L450.833 331.126L450.613 320.17V317.593L450.624 317.599ZM552.571 290.314C585.708 290.314 605.934 311.15 605.934 344.889C605.934 379.434 584.846 401.181 551.275 401.181C518.139 401.181 497.693 380.344 497.693 346.825C497.693 312.017 518.781 290.319 552.566 290.319L552.571 290.314ZM551.923 374.538C564.62 374.538 572.155 364.01 572.155 345.75C572.155 327.655 564.84 316.963 552.143 316.963C538.963 316.963 531.484 327.491 531.484 345.75C531.484 364.01 539.018 374.538 551.923 374.538Z" fill="#092E20"/>
<line x1="117" y1="500.948" x2="167" y2="500.948" stroke="#092E20" stroke-width="4"/>
<path d="M209.65 504.948C209.7 506.398 209.7 507.698 209.7 508.948C209.7 509.498 209.65 509.998 209.65 510.498C209.35 510.848 208.95 511.198 208.6 511.498L208.1 511.998L207.8 512.248L207.7 512.348L207.6 512.448C207.35 512.598 207.15 512.798 206.9 512.998C202.55 516.198 197 517.348 191.75 516.148C188.5 515.398 185.55 513.798 183.2 511.498C181.65 509.998 180.4 508.248 179.5 506.298C178.3 503.848 177.7 501.198 177.75 498.448C177.7 495.748 178.3 493.048 179.5 490.598C181.85 485.648 186.35 482.048 191.7 480.748C194.9 480.048 198.25 480.148 201.35 481.148C203.35 481.748 205.2 482.698 206.9 483.948L207.6 484.498L208.6 485.398C208.95 485.748 209.35 486.048 209.65 486.448C209.65 486.948 209.7 487.448 209.7 487.948C209.7 489.198 209.7 490.548 209.7 491.948H204.7C204.65 490.798 204.65 489.748 204.65 488.748V488.598C204.65 488.598 204.6 488.548 204.55 488.498L204.4 488.398L203.9 487.998C202.7 487.148 201.35 486.448 199.9 486.048C197.65 485.448 195.3 485.448 193.1 486.098C192.05 486.398 191.05 486.848 190.15 487.348C189.1 487.998 188.15 488.748 187.3 489.598C186.3 490.648 185.5 491.848 184.85 493.148C184.1 494.798 183.7 496.648 183.7 498.448C183.7 500.298 184.1 502.098 184.85 503.798C185.5 505.098 186.3 506.298 187.3 507.348C188.9 508.998 190.9 510.198 193.05 510.798C196.8 511.898 200.8 511.198 203.9 508.898C204.05 508.798 204.25 508.648 204.4 508.548L204.55 508.398C204.6 508.398 204.65 508.348 204.65 508.298V508.198C204.65 507.198 204.65 506.098 204.65 504.948H209.65ZM235.288 511.448H239.288V516.448H229.288V513.848C228.888 514.198 228.538 514.498 228.088 514.748C226.338 515.998 224.288 516.698 222.138 516.848C220.688 516.948 219.238 516.798 217.888 516.348C217.488 516.248 217.088 516.098 216.688 515.898C216.238 515.698 215.838 515.448 215.438 515.198C214.538 514.598 213.738 513.848 213.088 512.948C212.488 511.998 212.038 510.998 211.788 509.898C211.588 508.998 211.538 508.098 211.588 507.198C211.688 505.548 212.288 503.898 213.338 502.598C214.188 501.648 215.188 500.848 216.288 500.298C217.138 499.848 218.088 499.498 218.988 499.248C220.788 498.798 222.638 498.548 224.488 498.448C225.538 498.398 226.688 498.398 227.888 498.398H229.288C229.288 497.348 228.538 496.398 227.738 495.798C226.988 495.248 226.088 494.898 225.188 494.748C224.088 494.598 223.038 494.598 221.988 494.848C220.238 495.298 218.588 495.998 217.038 496.948L214.538 492.598C216.488 491.448 218.538 490.498 220.688 489.848C222.338 489.398 224.038 489.198 225.738 489.298C226.588 489.348 227.438 489.498 228.288 489.748C229.238 489.998 230.138 490.398 230.988 490.948C232.038 491.648 232.988 492.498 233.688 493.548C234.188 494.198 234.538 494.898 234.788 495.648C235.138 496.548 235.288 497.498 235.288 498.398V511.448ZM227.788 507.598C228.588 506.298 229.088 504.898 229.288 503.448H227.888C226.738 503.448 225.788 503.498 224.888 503.598C223.438 503.748 222.038 504.048 220.638 504.498C219.488 504.948 218.438 505.548 217.938 506.248C217.688 506.648 217.538 507.098 217.538 507.548C217.538 507.898 217.588 508.298 217.638 508.648C217.738 508.948 217.838 509.248 218.038 509.498C218.238 509.798 218.488 510.048 218.788 510.248C218.938 510.348 219.088 510.398 219.238 510.498C219.388 510.598 219.588 510.648 219.738 510.698C220.438 510.948 221.088 511.048 221.838 511.048C224.288 510.998 226.538 509.698 227.788 507.598ZM285.646 511.448H288.396V516.448H279.646V503.198C279.596 500.048 278.496 497.848 277.396 496.598C276.546 495.498 275.296 494.848 273.946 494.698C273.346 494.698 272.696 494.798 272.146 495.048C271.446 495.348 270.796 495.798 270.246 496.348C268.996 497.648 267.796 499.898 267.746 503.198V511.448H270.496V516.448H261.746V503.198C261.696 500.048 260.596 497.848 259.496 496.598C258.646 495.498 257.396 494.848 256.046 494.698C255.446 494.698 254.796 494.798 254.246 495.048C253.546 495.348 252.896 495.798 252.346 496.348C251.096 497.648 249.896 499.898 249.846 503.198V511.448H252.546V516.448H241.146V511.448H243.846V494.448H240.546V489.448H249.846V491.598C251.596 490.148 253.796 489.298 256.046 489.198C258.996 489.198 261.846 490.448 263.796 492.648C264.346 493.198 264.846 493.798 265.246 494.448C265.596 493.898 265.996 493.348 266.446 492.848C268.296 490.598 271.096 489.248 274.046 489.198C276.946 489.148 279.796 490.398 281.696 492.648C282.896 493.898 283.846 495.398 284.446 496.998C285.246 498.948 285.646 501.048 285.646 503.198V511.448ZM314.482 501.698C314.632 502.948 314.532 504.198 314.332 505.448H295.332C295.332 505.498 295.332 505.598 295.332 505.648C295.582 506.448 295.932 507.248 296.382 507.948C296.582 508.248 296.782 508.548 297.032 508.848C297.282 509.148 297.532 509.398 297.782 509.648C298.032 509.898 298.332 510.098 298.632 510.298C298.932 510.498 299.282 510.648 299.582 510.798C300.332 511.148 301.132 511.348 301.932 511.398C302.932 511.398 303.932 511.248 304.832 510.798C306.032 510.248 307.082 509.398 307.832 508.348L311.882 511.298C310.632 513.048 308.932 514.448 306.932 515.398C304.032 516.798 300.632 516.898 297.632 515.748C297.032 515.548 296.432 515.248 295.832 514.948C295.332 514.648 294.782 514.248 294.282 513.898C293.782 513.498 293.332 513.098 292.882 512.648C292.432 512.148 292.032 511.648 291.682 511.148C290.832 509.998 290.182 508.748 289.782 507.398C289.232 505.748 288.982 504.048 289.082 502.348C289.082 502.098 289.082 501.848 289.082 501.598C289.132 501.348 289.132 501.098 289.182 500.848C289.232 500.598 289.232 500.348 289.282 500.098L289.482 499.298C289.632 498.748 289.782 498.198 289.982 497.698C290.082 497.398 290.182 497.148 290.332 496.848C290.432 496.598 290.582 496.298 290.732 496.048C291.282 494.998 291.932 494.048 292.732 493.148C293.432 492.398 294.282 491.698 295.132 491.098C297.882 489.248 301.282 488.648 304.532 489.398C305.832 489.698 307.032 490.198 308.132 490.898C309.232 491.548 310.182 492.398 311.032 493.348C311.932 494.398 312.682 495.598 313.282 496.848C313.782 497.998 314.132 499.198 314.332 500.448C314.432 500.848 314.482 501.248 314.482 501.698ZM295.382 500.448H309.132C308.782 499.148 308.082 497.948 307.132 496.948C306.582 496.448 305.982 495.998 305.332 495.648C304.732 495.298 304.032 495.098 303.332 494.948C302.582 494.848 301.832 494.848 301.032 494.998C300.132 495.148 299.232 495.498 298.482 496.048C297.982 496.398 297.532 496.748 297.182 497.198C296.732 497.698 296.332 498.248 296.032 498.848C295.732 499.348 295.532 499.898 295.382 500.448ZM335.201 489.698V489.748L334.001 495.598C332.751 495.348 331.501 495.448 330.351 495.848C329.501 496.148 328.701 496.598 328.001 497.148C327.301 497.748 326.651 498.498 326.201 499.348C325.551 500.548 325.201 501.948 325.201 503.348V511.448H328.451V516.448H315.901V511.448H319.201V494.448H315.201V489.448H325.201V492.298C326.051 491.548 327.051 490.898 328.151 490.448C330.351 489.448 332.851 489.198 335.201 489.698ZM361.529 496.648C362.579 498.598 363.129 500.748 363.129 502.948C363.129 505.148 362.579 507.298 361.529 509.248C360.829 510.548 359.929 511.748 358.829 512.748C357.729 513.698 356.529 514.548 355.179 515.148C351.279 516.998 346.779 516.998 342.879 515.148C341.579 514.548 340.329 513.698 339.279 512.748C338.179 511.748 337.229 510.548 336.529 509.248C335.479 507.298 334.979 505.148 334.979 502.948C334.979 500.748 335.479 498.598 336.529 496.648C337.229 495.348 338.179 494.198 339.279 493.198C340.329 492.198 341.579 491.398 342.879 490.748C346.779 488.898 351.279 488.898 355.179 490.748C356.529 491.398 357.729 492.198 358.829 493.198C359.929 494.198 360.829 495.348 361.529 496.648ZM357.129 502.948C357.129 501.698 356.829 500.448 356.329 499.298C355.979 498.498 355.479 497.748 354.929 497.048C354.329 496.398 353.629 495.798 352.879 495.348C350.479 494.048 347.579 494.048 345.229 495.348C344.429 495.798 343.729 496.398 343.129 497.048C342.579 497.748 342.129 498.498 341.779 499.298C341.229 500.448 340.979 501.698 340.979 502.948C340.979 504.248 341.229 505.498 341.779 506.648C342.129 507.448 342.579 508.198 343.129 508.848C343.729 509.548 344.429 510.098 345.229 510.548C347.579 511.898 350.479 511.898 352.879 510.548C353.629 510.098 354.329 509.548 354.929 508.848C355.479 508.198 355.979 507.448 356.329 506.648C356.829 505.498 357.129 504.248 357.129 502.948ZM391.412 496.648C392.462 498.598 393.012 500.748 393.012 502.948C393.012 505.148 392.462 507.298 391.412 509.248C390.712 510.548 389.812 511.748 388.712 512.748C387.612 513.698 386.412 514.548 385.062 515.148C381.162 516.998 376.662 516.998 372.762 515.148C371.462 514.548 370.212 513.698 369.162 512.748C368.062 511.748 367.112 510.548 366.412 509.248C365.362 507.298 364.862 505.148 364.862 502.948C364.862 500.748 365.362 498.598 366.412 496.648C367.112 495.348 368.062 494.198 369.162 493.198C370.212 492.198 371.462 491.398 372.762 490.748C376.662 488.898 381.162 488.898 385.062 490.748C386.412 491.398 387.612 492.198 388.712 493.198C389.812 494.198 390.712 495.348 391.412 496.648ZM387.012 502.948C387.012 501.698 386.712 500.448 386.212 499.298C385.862 498.498 385.362 497.748 384.812 497.048C384.212 496.398 383.512 495.798 382.762 495.348C380.362 494.048 377.462 494.048 375.112 495.348C374.312 495.798 373.612 496.398 373.012 497.048C372.462 497.748 372.012 498.498 371.662 499.298C371.112 500.448 370.862 501.698 370.862 502.948C370.862 504.248 371.112 505.498 371.662 506.648C372.012 507.448 372.462 508.198 373.012 508.848C373.612 509.548 374.312 510.098 375.112 510.548C377.462 511.898 380.362 511.898 382.762 510.548C383.512 510.098 384.212 509.548 384.812 508.848C385.362 508.198 385.862 507.448 386.212 506.648C386.712 505.498 387.012 504.248 387.012 502.948ZM424.568 511.448H427.918V516.448H418.568V503.198C418.568 501.798 418.268 500.398 417.668 499.098C417.168 498.148 416.518 497.298 415.718 496.548C414.518 495.448 413.018 494.798 411.368 494.698C409.718 494.648 408.068 495.198 406.768 496.298C405.918 496.998 405.168 497.898 404.668 498.898C404.018 500.248 403.668 501.698 403.668 503.198V511.448H406.918V516.448H394.368V511.448H397.668V494.448H393.668V489.448H403.668V492.198C405.818 490.348 408.518 489.298 411.368 489.198C412.768 489.198 414.168 489.398 415.468 489.848C416.968 490.348 418.318 491.098 419.518 492.098C420.968 493.298 422.168 494.798 422.968 496.448C424.018 498.548 424.568 500.848 424.568 503.198V511.448Z" fill="#092E20"/>
<line x1="439" y1="500.948" x2="489" y2="500.948" stroke="#092E20" stroke-width="4"/>
<rect x="230.5" y="94.5" width="145" height="145" rx="72.5" stroke="#092E20" stroke-width="5"/>
<path fill-rule="evenodd" clip-rule="evenodd" d="M316.822 120.026V120H316.848H317.208H317.489H317.566H317.643H317.848H317.95L318.489 120.026H318.566H318.719H318.771H319.054H319.105H319.156H319.719H319.822H319.875L320.003 120.205L320.105 120.358L320.131 120.409L320.31 120.642L320.335 120.667L320.489 120.898L320.54 120.974L320.566 121L320.643 121.051V121.128L320.617 121.205L320.668 121.307L320.719 121.333L320.745 121.437L320.77 121.539H320.745L320.694 121.59V121.642V121.718L320.719 121.769L320.745 121.821V121.846L320.77 121.974L320.745 122.051H320.719L320.668 122.179L320.643 122.307V122.386L320.668 122.437L320.719 122.462H320.798L320.849 122.488L320.875 122.616L320.926 122.718H320.977L321.028 122.693L321.182 122.539L321.207 122.513L321.233 122.539V122.616L321.207 122.718V122.795L321.259 122.769H321.335L321.463 122.897L321.54 122.923L321.617 122.949L321.772 122.923L321.849 122.897H321.9L321.951 122.923L321.977 122.949L322.054 123.051L322.028 123.128L321.926 123.204L321.9 123.256V123.334L321.951 123.411L322.003 123.437H322.054L322.105 123.385L322.156 123.256L322.207 123.204H322.233L322.284 123.23L322.31 123.309L322.335 123.36L322.361 123.411V123.59L322.386 123.616L322.438 123.667H322.591H322.642L322.798 123.641H322.823L322.926 123.667L322.951 123.744V123.82L322.977 123.923L323.002 124.025L323.054 124.102L323.079 124.204L323.13 124.334L323.105 124.36V124.488L323.13 124.616L323.105 124.718L323.156 124.872L323.079 124.948L323.054 125.051L323.079 125.076L323.13 125.155H323.182L323.233 125.076L323.258 125.025H323.31L323.335 125.076V125.206L323.361 125.334L323.438 125.436L323.514 125.564L323.54 125.641L323.565 125.718V125.82L323.54 126.025L323.565 126.129L323.54 126.206L323.489 126.283V126.36L323.565 126.59L323.54 126.692L323.514 126.871L323.54 126.974V127.052L323.489 127.155V127.18L323.565 127.334L323.54 127.359V127.385L323.438 127.462L323.412 127.513L323.438 127.59H323.514L323.772 127.897H323.798L323.874 127.948L323.9 128.001L323.951 128.027L324.028 128.078H324.156L324.207 128.052L324.233 128.001L324.258 127.948L324.309 127.922L324.386 127.897V127.922H324.437L324.514 127.975L324.618 128.052V128.078L324.593 128.18V128.257L324.721 128.308L324.746 128.334L324.798 128.487L324.772 128.539L324.746 128.59V128.615L324.67 128.59L324.644 128.615V128.641V128.666L324.695 128.692L324.721 128.718L324.746 128.769L324.772 128.794H324.874L324.951 128.82L324.977 128.846L325.002 128.871V128.924L324.977 129.001L324.951 129.052L324.925 129.078H324.874L324.823 129.052H324.772L324.746 129.078L324.721 129.103L324.746 129.155L324.823 129.282V129.359V129.41L324.798 129.462L324.772 129.487L324.695 129.538L324.67 129.564L324.644 129.615V129.666L324.67 129.718L324.695 129.82L324.721 129.847V129.975L324.746 130.052L324.823 130.103L324.849 130.129H324.9L324.925 130.103V130.026V129.975H324.951L325.028 130.052L325.079 130.078V130.129V130.206V130.282L325.13 130.359L325.181 130.436L325.258 130.487L325.284 130.513L325.258 130.564L325.233 130.615L325.207 130.641L325.156 130.666L325.079 130.692H325.028L324.977 130.743L324.951 130.796L324.977 130.822L325.002 130.847L325.079 130.873L325.105 130.898L325.156 131.026L325.13 131.052L325.105 131.078L325.079 131.052L324.977 131.026H324.951H324.9L324.874 131.078L324.849 131.154V131.206V131.257V131.282L324.874 131.333H324.9L324.925 131.436L324.951 131.487L324.925 131.538L324.951 131.564L325.002 131.641L324.977 131.692L324.951 131.745L324.977 131.796L325.028 131.847L325.053 131.95V131.975L325.105 132.001L325.13 132.026V132.077V132.129L325.105 132.205L325.13 132.257L325.156 132.282L325.361 132.359L325.412 132.385L325.463 132.461V132.564V132.615L325.437 132.668L325.386 132.796V132.847L325.361 132.873L325.181 132.975L325.156 133.052L325.105 133.077V133.18L325.028 133.205L324.977 133.333L324.951 133.359L324.925 133.41V133.461L324.874 133.487V133.564L324.798 133.668L324.772 133.77L324.798 133.821L324.849 133.924L324.874 134.001V134.026L324.798 134.103L324.746 134.154L324.721 134.205V134.231V134.282L324.695 134.359L324.721 134.436V134.461L324.695 134.487L324.618 134.514L324.593 134.54L324.567 134.565L324.593 134.642V134.668L324.542 134.693L324.514 134.719V134.745L324.567 134.796V134.821V134.872L324.542 135L324.567 135.026V135.052L324.644 135.103V135.128V135.154L324.542 135.205L324.514 135.231L324.567 135.256L324.593 135.282V135.308L324.567 135.359L324.542 135.41V135.435L324.567 135.488L324.593 135.514L324.567 135.565L324.593 135.591L324.618 135.616V135.668L324.567 135.693L324.593 135.719V135.744L324.618 135.796L324.593 135.821L324.514 135.898V135.924V135.949L324.593 135.975L324.618 136.103V136.154L324.593 136.205L324.567 136.256V136.282L324.593 136.307L324.644 136.333L324.67 136.359V136.386L324.593 136.437L324.618 136.463L324.644 136.488L324.67 136.514L324.644 136.565L324.695 136.591L324.721 136.693V136.719V136.796V136.821V136.872L324.695 136.923L324.721 136.949V136.975V137.026V137.051V137.077L324.746 137.103V137.128L324.772 137.154L324.798 137.205L324.823 137.307L324.9 137.36L324.977 137.463L325.002 137.565V137.744L325.053 137.923L325.079 138.128L325.028 138.179L324.977 138.23V138.258L324.925 138.283L324.874 138.36L324.849 138.411V138.591L324.874 138.616L324.925 138.667L324.951 138.744V138.795L324.977 138.872L325.079 138.974L325.13 139.128L325.156 139.179L325.258 139.283L325.335 139.411L325.361 139.488L325.386 139.514L325.437 139.642L325.49 139.744L325.516 139.872L325.567 139.923L325.593 140.13L325.567 140.258L325.516 140.36L325.49 140.411V140.59V140.718V140.821L325.542 140.897L325.618 140.949L325.695 141L325.797 141.051L325.951 141.104H326.002L326.105 141.181L326.284 141.36L326.309 141.411L326.335 141.565L326.36 141.641L326.465 141.718L326.49 141.769L326.618 141.897V141.923V142.078V142.232L326.644 142.283L326.695 142.309L326.746 142.385L326.721 142.437V142.462L326.823 142.539L326.849 142.616L326.823 142.667L326.849 142.693L327.002 142.744L327.079 142.769L327.13 142.821L327.207 142.846L327.258 142.897L327.284 142.923L327.309 143.002L327.413 143.104L327.516 143.155L327.644 143.334L327.72 143.462L327.746 143.513H327.772L327.874 143.616L328.002 143.692L328.028 143.744L328.079 143.925L328.156 144.001L328.232 144.078L328.285 144.257H328.337L328.439 144.334L328.49 144.411L328.516 144.488H328.541L328.567 144.462H328.644H328.669L328.823 144.59L328.925 144.667L328.976 144.744H329.053L329.13 144.769L329.26 144.899L329.362 144.873L329.439 144.95L329.567 145.001H329.618L329.823 145.155L329.874 145.206L329.899 145.334L329.848 145.36L329.695 145.411L329.567 145.436L329.439 145.462H329.413L329.234 145.539L329.13 145.564L329.002 145.59L328.797 145.616H328.567L328.413 145.667L328.337 145.692L328.311 145.718L328.156 145.745H327.976L327.874 145.771L327.823 145.745L327.746 145.718L327.644 145.692L327.335 145.564L327.181 145.488H327.13L327.079 145.462L327.002 145.436H326.9H326.849L326.797 145.411L326.618 145.36L326.465 145.334L326.36 145.283L326.232 145.232L326.053 145.513L325.977 145.488L325.849 145.462L325.823 145.411L325.618 145.308L325.463 145.257H325.386L325.258 145.334L325.207 145.36L325.181 145.411V145.488L325.13 145.513H324.977L324.874 145.488H324.849L324.772 145.462L324.721 145.436L324.593 145.385L324.542 145.308L324.463 145.257L324.361 145.206H324.335H324.309H324.258H324.182H324.156L323.9 145.334L323.772 145.36H323.721L323.644 145.385L323.514 145.462L323.412 145.513L323.284 145.616L323.233 145.692H323.207L323.182 145.745L323.054 145.796L323.002 145.822L322.951 145.848H322.798L322.642 145.796L322.591 145.771L322.514 145.745L322.438 145.692L322.361 145.667L322.31 145.641L322.233 145.616H322.079H322.003H321.951H321.9L321.642 145.539L321.387 145.488L321.284 145.436L321.182 145.411L321.105 145.385L321.054 145.36H320.977L320.798 145.308L320.566 145.232L320.54 145.206L320.335 145.18L320.207 145.155L320.131 145.129H320.08L319.977 145.155L319.9 145.18H319.668L319.54 145.206L319.438 145.18H319.233L319.054 145.206H319.028L319.003 145.232H318.952H318.847L318.796 145.206L318.643 145.18H318.592L318.566 145.206H318.464H318.387L318.336 145.232H318.156H318.054H318.029L317.975 145.257L317.822 145.308L317.745 145.36L317.694 145.488L317.668 145.616V145.692L317.617 145.745L317.592 145.924L317.566 146.027L317.489 146.155L317.438 146.206L317.387 146.283L317.131 146.615L317.08 146.694L316.976 146.796V146.848L316.796 147.001L316.745 147.103L316.72 147.129L316.668 147.155L316.515 147.257L316.438 147.359L316.31 147.617V147.771L316.259 147.924L316.285 148.052V148.103L316.438 148.231L316.489 148.283L316.566 148.462L316.617 148.566L316.72 148.694H316.745L316.771 148.745L316.822 148.796L316.924 148.899L317.001 149.001L317.233 149.231L317.336 149.334L317.387 149.359L317.489 149.436L317.566 149.462H317.643L317.668 149.489L317.72 149.617V149.719L317.771 149.745L317.848 149.771L317.95 149.847L318.054 149.975L318.105 150.129L318.156 150.206L318.284 150.257L318.387 150.334L318.489 150.385L318.566 150.41H318.719L318.796 150.54L318.822 150.591L318.847 150.642L318.873 150.719L318.926 150.796L319.003 150.898L319.208 150.975L319.284 151.052L319.31 151.154L319.336 151.205L319.31 151.308V151.386L319.233 151.54L319.208 151.566V151.591L319.182 151.719L319.233 151.796L319.31 151.898L319.412 151.949L319.489 152.052H319.54V152.103L319.643 152.18L319.694 152.231V152.257L319.771 152.361L319.796 152.412H319.847L319.9 152.463L319.977 152.489L320.003 152.514L320.105 152.591L320.156 152.642V152.693L320.08 152.796V152.821L320.233 153.077L320.284 153.154H320.31L320.438 153.18L320.515 153.205L320.591 153.258L320.694 153.309L320.849 153.463L320.951 153.54L321.207 153.796L321.233 153.821L321.31 153.924L321.387 154H321.412L321.463 154.052L321.514 154.128L321.694 154.309L321.823 154.437L321.977 154.54L322.079 154.642L322.156 154.719L322.284 154.872L322.386 154.949L322.438 154.924L322.591 154.949H322.67H322.747L322.849 155.026H322.9L322.951 155L323.079 155.026L323.13 154.975H323.156V154.949H323.182L323.233 154.975L323.258 154.924L323.31 154.975L323.335 154.949H323.361L323.412 154.975H323.463L323.489 155L323.54 155.105V155.156V155.181L323.565 155.207L323.618 155.233L323.695 155.309L323.618 155.36L323.565 155.412L323.695 155.488H323.772L323.849 155.463L323.9 155.488L323.951 155.54L324.079 155.591H324.105L324.207 155.668V155.719L324.182 155.796L324.156 155.975L324.182 156.026L324.207 156.053H324.284H324.309H324.361L324.593 156.104H324.67L324.746 156.079H324.798H324.874L324.951 156.104H325.002L325.105 156.079H325.181L325.284 156.13L325.361 156.181L325.516 156.258L325.593 156.309L325.746 156.412L325.849 156.565L326.002 156.591L326.028 156.616V156.667V156.795L326.053 156.898L326.079 156.976L326.105 157.053V157.156L326.156 157.207L326.207 157.309V157.36L326.232 157.488L326.284 157.642L326.309 157.744L326.335 157.821L326.36 157.898L326.386 157.976L326.439 158.155L326.465 158.232L326.49 158.411L326.516 158.514L326.644 159.079L326.695 159.155L326.772 159.283L326.797 159.386L326.874 159.514L326.925 159.59L326.976 159.718L327.207 160.206L327.258 160.258L327.362 160.488L327.413 160.59L327.465 160.693L327.567 160.874V160.925L327.516 161.155V161.258L327.541 161.36L327.567 161.462L327.72 161.59L327.746 161.669L327.772 161.694V161.771L328.028 162.462L328.104 162.643L328.156 162.72L328.181 162.771L328.311 162.976L328.337 163.001L328.413 163.129L328.439 163.206L328.49 163.257L328.567 163.309L328.772 163.36L329.027 163.411L329.155 163.437L329.207 163.513V163.541L329.181 163.592L329.155 163.643V163.694L329.181 163.745L329.155 163.822L329.181 163.899V163.95V164.104L329.207 164.129L329.181 164.257L329.13 164.334L329.079 164.385V164.436L329.104 164.464V164.541L329.079 164.669L328.976 164.797L328.951 164.848L328.976 164.873L329.002 164.924V164.95L328.976 165.001H328.951L328.874 165.078L328.823 165.129L328.772 165.18L328.72 165.232L328.644 165.308L328.592 165.334L328.541 165.438L328.464 165.464L328.413 165.489L328.362 165.592L328.388 165.643L328.362 165.668H328.311L328.258 165.72V165.745V165.771L328.207 165.822L328.13 165.873H328.104L328.13 165.924L328.053 166.078L327.976 166.104L327.951 166.129L327.925 166.206V166.232L327.848 166.257L327.823 166.308V166.361V166.387L327.746 166.438L327.644 166.54L327.593 166.566L327.541 166.592L327.439 166.72L327.335 166.771L327.258 166.848L327.156 166.924L327.079 167.001L327.053 167.027H327.002L326.874 167.129L326.797 167.18L326.746 167.231L326.618 167.387L326.541 167.438L326.516 167.464L326.465 167.515L326.36 167.54L326.335 167.566V167.617L326.258 167.771L326.181 167.796L326.13 167.822V167.873V167.899L326.079 167.95L326.13 167.975H326.181L326.207 168.027H326.232L326.258 168.052L326.207 168.103L326.181 168.18L326.105 168.259L326.053 168.361L326.079 168.617L326.105 168.643L326.156 168.668L326.028 168.924L325.925 169.129V169.156V169.182V169.207L325.874 169.233L325.823 169.207L325.695 169.233L325.669 169.284L325.644 169.387V169.438L325.593 169.463L325.567 169.515L325.516 169.566V169.617V169.668V169.694L325.437 170.052L325.49 170.207V170.233L325.463 170.284L325.386 170.31L325.335 170.438L325.284 170.514L325.233 170.668L325.207 170.745L325.13 170.847L325.105 170.95L325.053 171.054V171.105V171.13L325.002 171.182L324.925 171.31L324.9 171.361L324.874 171.54L324.849 171.642L324.721 171.745L324.695 171.77L324.67 171.745L324.567 171.719H324.463H324.437L324.335 171.796H324.309H324.258L324.156 171.847H324.13H324.054L324.028 171.898L323.977 172.054L323.951 172.13H323.926L323.823 172.361L323.746 172.514V172.591L323.67 172.719L323.463 173.181L323.258 173.668L323.207 173.77L323.182 173.823L323.156 173.9L323.054 174.105L322.977 174.207V174.258L322.798 174.591L322.772 174.642V174.668L322.747 174.744V174.849L322.798 175.002V175.028L322.721 175.156L322.695 175.207L322.67 175.258L322.642 175.284L322.489 175.514L322.284 175.797L322.258 175.849L322.182 175.925L322.054 175.976L321.438 176.207L321.361 176.232H321.31L321.233 176.284L320.849 176.412L320.823 176.386L320.77 176.412L320.719 176.437L320.54 176.565L320.489 176.616L320.463 176.644L320.412 176.72L320.335 176.797L320.284 176.9L320.259 176.951L320.207 176.976L320.003 177.13L319.977 177.181L319.952 177.207L319.847 177.232L319.745 177.283H319.719H319.591V177.309L319.643 177.386L319.591 177.488V177.514L319.566 177.644V177.669V177.72L319.643 177.823L319.694 177.976L319.796 178.079L319.926 178.181L319.977 178.258L320.028 178.411L320.054 178.463L320.08 178.488L320.131 178.516V178.618L320.156 178.695L320.207 178.746L320.259 178.771L320.284 178.797L320.335 178.823H320.438L320.668 178.771L320.745 178.823L320.798 178.797L320.823 178.771L320.951 178.644H321.028L321.105 178.669L321.207 178.848V178.925V178.976V179.13L321.182 179.258L321.259 179.49V179.976V180.002V180.206V180.464L321.182 180.618L321.131 180.797V180.899L321.079 180.976L321.054 181.078V181.13L321.003 181.206V181.258L320.977 181.362L321.003 181.464L321.079 181.566L321.105 181.643L321.131 181.771L321.182 181.874L321.284 182.002V182.027L321.182 182.129V182.206L321.156 182.285L321.105 182.31L321.079 182.336L321.054 182.362L321.079 182.413V182.464L321.054 182.618V182.669L321.079 182.848L321.054 182.899L321.003 182.95H320.926L320.9 183.001H320.875H320.849L320.823 183.027L320.849 183.053V183.155L320.798 183.234L320.668 183.438L320.643 183.515V183.592L320.591 183.617V183.669L320.643 183.694L320.617 183.72L320.54 183.745L320.515 183.822H320.489L320.463 183.873L320.438 183.899L320.463 184.001L320.643 184.157L320.719 184.208H320.745L320.798 184.285L320.849 184.336H320.951L321.028 184.387H321.105L321.156 184.413L321.207 184.387H321.259L321.284 184.413L321.361 184.438H321.463L321.489 184.489L321.514 184.541L321.617 184.592L321.642 184.669V184.694L321.772 185.208L321.798 185.387V185.413L321.772 185.464L321.668 185.489V185.592V185.643L321.719 185.668V185.72V185.796L321.772 186.003L321.694 186.029V186.054L321.719 186.08V186.105H321.668V186.131L321.719 186.182L321.694 186.208L321.668 186.259V186.284L321.719 186.31L321.747 186.361L321.798 186.438L321.823 186.489L321.772 186.643L321.798 186.668L321.747 186.72V186.771V186.796L321.798 186.822L321.849 186.977L321.9 187.105V187.156L321.977 187.259V187.284L321.951 187.336L321.9 187.361L321.926 187.438V187.464L321.951 187.54L322.028 187.796L322.003 187.847L322.028 187.926L322.003 187.952L321.977 188.003V188.054L321.926 188.08L321.875 188.105L321.9 188.131L321.951 188.208L321.977 188.259L322.028 188.31V188.412V188.566L322.054 188.643V188.771L322.028 188.849L322.054 188.977V189.105V189.156L322.105 189.207L322.131 189.31L322.105 189.361L322.156 189.387H322.182L322.207 189.438L322.233 189.463L322.335 189.591L322.438 189.617L322.463 189.668L322.514 189.719V189.772L322.566 189.798L322.591 189.849L322.67 189.926L322.721 189.951L322.798 190.054L322.849 190.079L322.926 190.131L322.951 190.182H322.977H323.054V190.207H323.13L323.156 190.284L323.182 190.31H323.233L323.284 190.335L323.361 190.438L323.386 190.514L323.412 190.54L323.463 190.566H323.54L323.644 190.617L323.695 190.642L323.746 190.695H323.772L323.849 190.721L323.874 190.747V190.798L323.977 190.823L324.002 190.798H324.054H324.079L324.156 190.823L324.182 190.849L324.207 190.9L324.309 190.926H324.335H324.412L324.437 190.951V190.977L324.463 191.028L324.489 191.13V191.156V191.207L324.567 191.284V191.361V191.386L324.618 191.412L324.644 191.361H324.67L324.695 191.386L324.721 191.438V191.463L324.695 191.489L324.772 191.54L324.823 191.619L324.849 191.721L324.925 191.798L324.951 191.849H324.977H325.002L325.079 191.977V192.079V192.105L325.105 192.156L325.079 192.207L325.13 192.233V192.258V192.284L325.105 192.361L325.13 192.412L325.105 192.437V192.463L325.13 192.514L325.156 192.567L325.181 192.593V192.618L325.13 192.67V192.721L325.181 192.823V192.9V192.926H325.207L325.233 192.951L325.207 193.002L325.233 193.053L325.207 193.105L325.233 193.13L325.181 193.207V193.258L325.233 193.386L325.258 193.412L325.335 193.437L325.361 193.49H325.386L325.437 193.542V193.644L325.49 193.721L325.516 193.823H325.542L325.618 193.797H325.721L325.772 193.823V193.874L325.797 193.925L325.772 193.951L325.721 193.977H325.644L325.618 194.002H325.567L325.49 194.079L325.284 194.13L325.207 194.156H325.156L325.105 194.181L324.977 194.207L324.925 194.258H324.874H324.849L324.798 194.309L324.772 194.386H324.823H325.053L325.079 194.465L325.105 194.516L325.13 194.618L325.181 194.823L325.412 195.181L325.49 195.362L325.542 195.388V195.413L325.593 195.516L325.669 195.618L325.695 195.669L326.028 196.207L326.13 196.337V196.388L326.207 196.516L326.335 196.695L326.465 196.823V196.848L326.618 197.002L326.746 197.155H326.772L326.797 197.181L326.951 197.388L327.053 197.49L327.49 197.951L327.541 198.002L327.593 198.053L327.746 198.234L327.874 198.362L328.104 198.618H328.156L328.207 198.669L328.337 198.823L328.388 198.899L328.464 198.951L328.695 199.234L328.746 199.311L328.874 199.464L329.26 199.874L329.362 200.002L329.541 200.208V200.259L329.592 200.311L329.644 200.362L329.669 200.387L329.951 200.694L330.053 200.822H330.079L330.13 200.899L330.183 200.925L330.234 201.003L330.439 201.259L330.464 201.285L330.669 201.541L330.695 201.566L330.72 201.618L330.797 201.669L330.848 201.746L330.899 201.797L330.951 201.72L331.078 201.746L331.157 201.694L331.183 201.669H331.234H331.362L331.413 201.694V201.746H331.439H331.567L331.592 201.771L331.669 201.848L331.695 201.901V201.927L331.797 202.106L331.899 202.259L331.95 202.285L332.029 202.387L332.157 202.566L332.234 202.643L332.259 202.669L332.285 202.643L332.311 202.592L332.336 202.541H332.387L332.413 202.566L332.464 202.541H332.541L332.566 202.592L332.618 202.617V202.669L332.643 202.72H332.694L332.746 202.771H332.797V202.85V202.901L332.848 202.952L332.925 203.08L332.978 203.157V203.259L333.106 203.336V203.438L333.208 203.72V203.773L333.234 203.901V204.029L333.208 204.054L333.131 204.105L333.106 204.182L332.925 204.233V204.259V204.285V204.31L332.95 204.387V204.438L332.978 204.515V204.541L333.029 204.566V204.592L333.003 204.643L333.029 204.747L333.003 204.773L332.978 204.798L333.029 204.824V204.849L332.978 204.875L333.003 204.926L333.08 204.952H333.182L333.234 205.003L333.182 205.08L333.131 205.157L333.106 205.208L333.08 205.336L333.055 205.464V205.515L333.08 205.617L333.182 205.849V206.029L333.157 206.08V206.156L333.08 206.284L333.055 206.438V206.515L333.106 206.566L333.157 206.619L333.182 206.67V206.721V206.824L333.157 206.9L333.106 206.926L333.131 207.003L333.182 207.054V207.105L333.208 207.156L333.336 207.233L333.387 207.336L333.413 207.412V207.438L333.438 207.542L333.566 207.696L333.669 207.824L333.694 207.849L333.72 207.875V208.028L333.771 208.207L333.797 208.259L333.848 208.335L333.901 208.516V208.542V208.568L333.822 208.67L333.848 208.747L334.054 208.926V208.951L334.08 208.977L334.029 209.054H334.054L333.978 209.131L333.873 209.156L333.822 209.182L333.797 209.207L333.746 209.284L333.694 209.31H333.669L333.643 209.284L333.618 209.156L333.566 209.131H333.515L333.438 209.105L333.31 209.131H333.285L333.208 209.182L333.182 209.259V209.491L333.157 209.593V209.747V209.772L333.182 209.823L333.208 209.849L333.234 209.926V210.028V210.054L333.208 210.079L333.182 210.131L333.08 210.182L333.029 210.207V210.258L333.08 210.284L333.131 210.31L333.182 210.363V210.439L333.131 210.542L333.106 210.567L333.003 210.644L332.95 210.747V210.823L332.978 210.9L332.95 210.977V211.002L333.003 211.028L333.08 211.13L333.157 211.182V211.26L333.182 211.337L333.208 211.414V211.465L333.234 211.618V211.644L333.285 211.67L333.387 211.644H333.413L333.438 211.67V211.721L333.413 211.772V211.849L333.438 211.951L333.515 212.182L333.541 212.26L333.592 212.311L333.643 212.414L333.669 212.542L333.694 212.695L333.669 212.798L333.643 212.849V212.925V213.002L333.694 213.053L333.746 213.158V213.209L333.72 213.286L333.669 213.362L333.618 213.337L333.541 213.234H333.49H333.438L333.362 213.26L333.31 213.286H333.259L333.182 213.337L333.131 213.414L333.08 213.516L333.029 213.593H333.003H332.978L332.925 213.567H332.874L332.746 213.542L332.72 213.516L332.669 213.362L332.694 213.311L332.72 213.183L332.694 213.158L332.643 213.105V213.053L332.669 212.977L332.746 212.849L332.771 212.798L332.797 212.746L332.771 212.695L332.72 212.67H332.669L332.464 212.695H332.413H332.157L331.976 212.593H331.848H331.822L331.797 212.542L331.771 212.49V212.465H331.669L331.567 212.542H331.515L331.541 212.49L331.464 212.235L331.413 212.182H331.259L331.208 212.156L331.157 212.054L331.106 212.028L330.925 211.977L330.823 211.849L330.797 211.772L330.771 211.721L330.643 211.618L330.618 211.542L330.567 211.491L330.464 211.439H330.388L330.311 211.465H330.26L330.234 211.414L329.925 211.311L329.797 211.337L329.669 211.311L329.439 211.26L329.285 211.207L329.155 211.156H329.079L328.976 211.182H328.925L328.823 211.105L328.772 211.079H328.72L328.644 211.13H328.618L328.516 211.079L328.337 210.951H328.285L328.232 211.002L328.002 211.054L327.848 211.105L327.772 211.156L327.644 211.26L327.541 211.286H327.49L327.232 211.439L327.156 211.465L327.13 211.491L327.079 211.414L327.053 211.337V211.311V211.26L326.976 211.311H326.925H326.874L326.823 211.286L326.797 211.26L326.823 211.156V211.105L326.797 211.028L326.695 210.9L326.618 210.823H326.516L326.49 210.798L326.465 210.747L326.439 210.695H326.309L326.36 210.593V210.542L326.284 210.516L326.13 210.491L326.053 210.465H325.977H325.925L325.849 210.542L325.772 210.644L325.721 210.619L325.695 210.593L325.644 210.439H325.542V210.465L325.516 210.593V210.644L325.463 210.695H325.412L325.361 210.67H325.309L325.233 210.772V210.849L325.181 210.926H325.028H324.977H324.925V210.874V210.798V210.772L324.9 210.747H324.849L324.721 210.926L324.695 210.951H324.644L324.593 210.874V210.772L324.514 210.695L324.386 210.644L324.309 210.593L324.207 210.491L324.13 210.542L324.079 210.695L324.054 210.721L323.926 210.747H323.823L323.746 210.772H323.67L323.618 210.747L323.489 210.644L323.463 210.619V210.593L323.565 210.516L323.591 210.465L323.618 210.363V210.31V210.258L323.412 210.207L323.335 210.182V210.079V209.926L323.31 209.875H323.258L323.182 209.9V209.926L323.233 210.054V210.079L323.207 210.105L323.079 210.079L323.002 210.105L322.951 210.156V210.182L322.9 210.233L322.798 210.284H322.747L322.642 210.182L322.617 210.156L322.489 210.258H322.463L322.438 210.207H322.412L322.463 210.105L322.489 210.054L322.463 210.003L322.438 209.977H322.361L322.258 210.054L322.207 210.028L322.182 210.003L322.207 209.977H322.31V209.926V209.9L322.079 209.747H322.054L322.028 209.772V209.823L322.079 209.875L322.054 209.9H322.028L321.977 209.875H321.875L321.823 209.772L321.772 209.695H321.747H321.668L321.489 209.721L321.438 209.695L321.412 209.619L321.438 209.542L321.412 209.516L321.387 209.491H321.284L321.182 209.335L321.156 209.284L321.131 209.182L321.079 209.131H321.028L320.951 209.105L320.926 209.028H320.875L320.849 209.054L320.798 209.105L320.745 209.079L320.668 209.028L320.591 209.131L320.515 209.156L320.438 209.207H320.412L320.131 209.31L319.745 209.465H319.719L319.668 209.491H319.617L319.566 209.44L319.515 209.361L319.489 209.335L319.361 209.259L319.259 209.233V209.259L319.08 209.233L319.003 209.259L318.847 209.233L318.643 209.207H318.566H318.54H318.438L318.361 209.233H318.31L318.233 209.284L318.208 209.335L318.131 209.361L317.617 209.335L317.566 209.361H317.54L317.182 209.335L316.873 209.361H316.541H316.31H316.182H316.052H316.027H315.976H315.515H315.104L314.976 209.335L314.848 209.361H314.49L313.746 209.361L313.669 209.361L313.464 209.361L313.438 209.361H313.31L313.104 209.335L313.078 209.361L312.413 209.361H312.232H311.976H311.848H311.386L311.232 209.388L311.206 209.361H310.797H310.618H310.36L310.386 209.259L310.283 209.207V209.182L310.335 209.156L310.386 209.105L310.411 209.079L310.437 209.054V209.028L310.36 208.951L310.386 208.875L310.309 208.849L310.258 208.696H310.232L310.181 208.747H310.155V208.696H310.104L310.079 208.67V208.619L310.027 208.568L309.976 208.516H309.951L309.899 208.568L309.848 208.542L309.823 208.593L309.772 208.619H309.746H309.72L309.695 208.593L309.669 208.619H309.644H309.618L309.592 208.593V208.568H309.567L309.539 208.593H309.514L309.488 208.542L309.463 208.516V208.491H309.488L309.514 208.516H309.539V208.465L309.514 208.438H309.463L309.386 208.491V208.465L309.258 208.438L308.951 208.516L308.848 208.568L308.874 208.619L308.848 208.644L308.874 208.696L308.797 208.67V208.696H308.746L308.72 208.747L308.669 208.772L308.644 208.798V208.823L308.616 208.772L308.591 208.747L308.565 208.721H308.539L308.488 208.747L308.463 208.721L308.411 208.798H308.36L308.335 208.823L308.284 208.798L308.258 208.823L308.232 208.798L308.207 208.721H308.181V208.747H308.13L308.104 208.721H308.053H307.976H307.925H307.9H307.874H307.797L307.695 208.772L307.616 208.747L307.514 208.772L307.463 208.747L307.386 208.67L307.258 208.696H307.232V208.721L307.284 208.747L307.104 208.823H307.028L307.002 208.772L306.951 208.747H306.925L306.9 208.772V208.875H306.874H306.849H306.797H306.772L306.744 208.823H306.693L306.642 208.798H306.514L306.488 208.772V208.696L306.437 208.644V208.696L306.412 208.721L306.335 208.747L306.284 208.721H306.233V208.747V208.772L306.207 208.798L306.079 208.875L305.874 208.926H305.796H305.77L305.744 208.875H305.642L305.617 208.849L305.591 208.875H305.54L305.361 208.772L305.258 208.747L305.233 208.798H305.13L304.847 208.747L304.77 208.696L304.745 208.67H304.719H304.642H304.54L304.514 208.644V208.593V208.568L304.437 208.542L304.182 208.67H304.054L303.847 208.619H303.745L303.617 208.67H303.54L303.438 208.696L303.207 208.67L302.924 208.593L302.847 208.568L302.617 208.542L302.438 208.491H302.386H302.31H302.182H302.105L302.052 208.593L302.026 208.619V208.644L301.924 208.67L301.847 208.644H301.822L301.796 208.696H301.694L301.566 208.644L301.54 208.619L301.515 208.542L301.463 208.491L301.412 208.465L301.387 208.491L301.233 208.465L301.156 208.438H301.129H301.103L301.052 208.516H300.975H300.95L300.873 208.438L300.745 208.361L300.719 208.387L300.617 208.465H300.515L300.438 208.438L300.412 208.465H300.361L300.335 208.412H300.259H300.154H300.129L300.103 208.438H300.078H300.052L299.975 208.412L299.899 208.387L299.847 208.361L299.822 208.412V208.438H299.745L299.719 208.412H299.668H299.617L299.566 208.361L299.489 208.412L299.464 208.387L299.438 208.412H299.336L299.31 208.387H299.284L299.257 208.412L299.18 208.438H299.155L299.078 208.387H299.052L299.027 208.438H299.001L298.975 208.465L298.924 208.438L298.873 208.412H298.847L298.796 208.465L298.72 208.438H298.643H298.617L298.592 208.516H298.54H298.515V208.465H298.464L298.412 208.491L298.361 208.438L298.308 208.412H298.283L298.257 208.438V208.491L298.18 208.465H298.078L298.027 208.438H298.001L297.976 208.465H297.95L297.924 208.516L297.873 208.491H297.771L297.694 208.516H297.668V208.438L297.617 208.387L297.643 208.335V208.31H297.592L297.54 208.335H297.515L297.438 208.259L297.36 208.233L297.308 208.207L297.257 208.105H297.232L297.18 208.131L297.052 208.156H297.001L296.976 208.131L296.873 208.182L296.822 208.233H296.796L296.771 208.259L296.669 208.233L296.541 208.31L296.515 208.284L296.464 208.259L296.36 208.207H296.257L296.18 208.233L296.104 208.207L296.052 208.284L296.027 208.31H296.001L295.95 208.284L295.925 208.31H295.873L295.848 208.284L295.797 208.259L295.745 208.284L295.669 208.259L295.617 208.284L295.592 208.31L295.513 208.335L295.411 208.259H295.283H295.232L295.257 208.31L295.283 208.335L295.232 208.361H295.181L295.129 208.31L295.078 208.284V208.31L295.001 208.335L294.925 208.31L294.745 208.259L294.669 208.31H294.618L294.565 208.361L294.513 208.387V208.412L294.592 208.438V208.491H294.618V208.516L294.592 208.568V208.593H294.618V208.619L294.565 208.696L294.513 208.721L294.488 208.772L294.462 208.849L294.385 208.9L294.411 208.926L294.462 208.951L294.437 208.977V209.028V209.054L294.411 209.079L294.437 209.105L294.462 209.131L294.411 209.207L294.385 209.233L294.411 209.284L294.462 209.335H294.283H293.565H293.385L293.206 209.284L293.104 209.233H293.027L292.899 209.335H292.59L292.002 209.335L291.848 209.335H291.565H291.334L291.232 209.335H290.718H290.539H289.514H288.821H288.591H288.539H288.488H288.232H287.616H287.437H286.668H286.54H286.412H286.386L286.052 209.361L285.821 209.335H285.719H285.386H284.949L284.924 209.361H284.898L284.745 209.465L284.693 209.414L284.668 209.335H284.642H284.591H284.54H284.514L284.412 209.44L284.361 209.465L284.335 209.44L284.282 209.414H284.257H284.231L284.154 209.44H283.924L283.847 209.414L283.796 209.335L283.77 209.284L283.745 209.31L283.719 209.414L283.668 209.44L283.591 209.414L283.54 209.388L283.333 209.31H283.308L283.257 209.335L283.205 209.31L283.052 209.207L282.898 209.182H282.847L282.822 209.156L282.745 209.131H282.694L282.617 209.207L282.591 209.182L282.566 209.156L282.54 209.028L282.514 209.003L282.489 208.951H282.438L282.385 208.875H282.359L282.282 208.849L282.257 208.798L282.129 208.747H282.103L282.052 208.644L281.95 208.387V208.31L281.975 208.207V208.08L281.924 208.003L281.873 207.926L281.898 207.875V207.824L281.924 207.721V207.568L281.873 207.31V207.259L281.95 207.182V207.131V207.105L281.924 206.952L281.95 206.875L281.873 206.619L281.924 206.515L281.898 206.336L281.924 206.105L281.975 206.029L282.001 205.926L282.026 205.824V205.721L282.052 205.696L282.078 205.464V205.438L282.103 205.412L282.129 205.182L282.206 205.054L282.231 205.003L282.206 204.926V204.875L282.333 204.747L282.359 204.592L282.333 204.464L282.359 204.413L282.41 204.31L282.438 204.233L282.463 204.208L282.489 204.182L282.438 204.029L282.385 203.875L282.41 203.694L282.463 203.541H282.489H282.514V203.489L282.54 203.387L282.514 203.234L282.54 203.157V203.106L282.566 203.08V203.029L282.591 202.978L282.617 202.85L282.642 202.771L282.745 202.643L282.77 202.617L282.95 202.464L282.975 202.387L283.001 202.362L283.026 202.285L283.001 202.234L283.026 202.157L283.052 202.106L283.077 202.08L283.052 201.952L283.103 201.927H283.129V201.874L283.103 201.746L283.026 201.618L282.873 201.31L282.745 201.003L282.719 200.925V200.899L282.822 200.95L282.77 200.874L282.719 200.848L282.694 200.771L282.617 200.643L282.566 200.566L282.514 200.439L282.54 200.387L282.514 200.362L282.489 200.234L282.438 200.08L282.385 200.029L282.308 199.925L282.231 199.848L282.18 199.797L282.103 199.643L281.95 199.515V199.49L281.847 199.362L281.694 199.208L281.54 199.027L281.257 198.746H281.231L281.154 198.669L281.052 198.567H281.026L280.975 198.541L280.899 198.464L280.771 198.388L280.538 198.183H280.487L280.436 198.13L280.385 198.053L280.359 198.079L280.334 198.053L280.308 198.027V198.002L280.334 197.976L280.359 198.027L280.41 197.899L280.436 197.823L280.462 197.797L280.436 197.772L280.41 197.72H280.359V197.669V197.592L280.385 197.439H280.41V197.541L280.436 197.49L280.487 197.516H280.566V197.49V197.464H280.462V197.439L280.513 197.413L280.436 197.311V197.26L280.41 197.311V197.285L280.385 197.104L280.18 196.746L280.001 196.439L279.873 196.232L279.617 195.925V195.9H279.643H279.668L279.771 196.002V196.028L279.796 196.002L279.822 196.028L279.899 196.079L279.95 196.053V196.028L280.001 195.976L280.052 195.925V195.823V195.721L280.103 195.593L280.155 195.49H280.18L280.231 195.465H280.257L280.334 195.516L280.436 195.567V195.618L280.513 195.644L280.538 195.669V195.695V195.746L280.617 195.721L280.694 195.848L280.719 195.874L280.796 195.823V195.772L280.771 195.746L280.796 195.669V195.618L280.847 195.593L280.899 195.567L281.001 195.593L281.026 195.49L280.975 195.465L280.873 195.362V195.335V195.309L280.822 195.284L280.796 195.258L280.771 195.232L280.719 195.181L280.694 195.13L280.719 195.104L280.745 195.079L280.822 195.104L280.847 195.079L280.873 195.002L280.847 194.951L280.796 194.925L280.771 194.9H280.566L280.513 194.874L280.462 194.9H280.41H280.385H280.359L280.334 194.874L280.308 194.823L280.282 194.695V194.644H280.334V194.669L280.359 194.644V194.593L280.41 194.439L280.538 194.258H280.566L280.643 194.284L280.668 194.258V194.156V194.105L280.694 194.079H280.745L280.796 193.951L280.924 193.823L280.975 193.797V193.746L281.026 193.67V193.644L280.899 193.695H280.873L280.924 193.618H280.899H280.847V193.593L280.899 193.463L280.873 193.412L280.822 193.567L280.771 193.644V193.695V193.746L280.822 193.823V193.849L280.694 193.874L280.617 193.9H280.513V193.925V193.951L280.436 194.028L280.41 194.053L280.359 194.156L280.257 194.13L280.231 194.156L280.282 194.207H280.257L280.18 194.233L280.103 194.284L280.001 194.335H279.95L279.847 194.309L279.796 194.258L279.771 194.284L279.694 194.258L279.564 194.207V194.181L279.513 194.156L279.462 194.181L279.411 194.258L279.436 194.284L279.487 194.386V194.465L279.539 194.644L279.513 194.721L279.462 194.772L279.436 194.746H279.385L279.257 194.772H279.231L279.103 194.669V194.644L279.052 194.593L279.001 194.541L278.975 194.516L278.95 194.49H278.924H278.873L278.848 194.516L278.899 194.593V194.618L278.924 194.644L278.95 194.695L278.924 194.797V194.849L278.899 194.874H278.873L278.899 194.925H278.95L278.924 194.951L278.95 195.053L279.052 195.156L278.848 195.258L278.667 195.335L278.59 195.362H278.487L278.334 195.309L278.257 195.284L278.104 195.232L277.822 195.028L277.745 194.951L277.539 194.669L277.513 194.644V194.669H277.488L277.436 194.644H277.385H277.36L277.411 194.695L277.385 194.746L277.334 194.721L277.257 194.797V194.823V194.849V194.874H277.232L277.206 194.9H277.104V194.823L277.078 194.772H277.027H277.001H276.976L276.95 194.823V194.849H276.924V194.823L276.899 194.797V194.746V194.721V194.669L276.924 194.593V194.567L276.848 194.49L276.873 194.465L276.899 194.49L276.924 194.465V194.439L276.873 194.386L276.899 194.335V194.309L276.795 194.284H276.667H276.616H276.564L276.539 194.309H276.513H276.411L276.385 194.258H276.334H276.283L276.232 194.309H276.181L276.155 194.284V194.258L276.104 194.284L276.027 194.233L275.976 194.156L275.744 194.002L275.692 193.977L275.641 193.951L275.437 193.874L275.385 193.823H275.36L275.309 193.849L275.257 193.823V193.772L275.181 193.721L275.104 193.644L275.053 193.593H274.976V193.567L275.001 193.542L275.027 193.516L275.053 193.437L275.078 193.412L275.053 193.335L275.078 193.105L275.104 193.028L275.129 192.977L275.155 192.9V192.874L275.129 192.823V192.798V192.746L275.053 192.67L275.027 192.567L274.976 192.514L274.897 192.437L274.872 192.412L274.795 192.361L274.693 192.335L274.616 192.284H274.59L274.539 192.207L274.462 192.079L274.411 192.054L274.385 192.028V192.002L274.411 191.9L274.437 191.798L274.411 191.746L274.334 191.644L274.309 191.54L274.283 191.438L274.257 191.386L274.283 191.284L274.257 191.156L274.181 191.054V190.977L274.206 190.926L274.181 190.9V190.849V190.772L274.232 190.695L274.283 190.67H274.334V190.617L274.283 190.591L274.257 190.514V190.489H274.283L274.411 190.335L274.334 190.259H274.309L274.232 190.233L274.181 190.131L274.078 190.054L274.027 190.105H274.002L273.949 190.054L273.846 190.003L273.821 189.926V189.9H273.846V189.875H273.795L273.769 189.9V189.875L273.718 189.823H273.616L273.513 189.875V189.926L273.488 189.951L273.462 189.977L273.411 190.028H273.36L273.334 190.054L273.258 190.079L273.104 189.9L273.078 189.875L273.051 189.823L273 189.798H272.949L272.846 189.747L272.744 189.668L272.693 189.642L272.744 189.617V189.591L272.693 189.515L272.667 189.335V189.31L272.744 189.335L272.642 189.259L272.616 189.182L272.514 189.054L272.539 189.028L272.488 188.951V188.9L272.386 188.875V188.849V188.798H272.334L272.283 188.771L272.258 188.668L272.232 188.515L272.181 188.489L272.155 188.566V188.643V188.771V188.798L272.283 188.926L272.334 189.028L272.386 189.31V189.515V189.591L272.411 189.719V189.747L272.462 189.798L272.488 189.823V189.926H272.514L272.565 189.951H272.616L272.718 190.079V190.105L272.744 190.182L272.718 190.207H272.769L272.795 190.233V190.259L272.693 190.386L272.616 190.412L272.539 190.438H272.488L272.462 190.463L272.334 190.412H272.13L272.025 190.386L271.872 190.412L271.821 190.386L271.667 190.438H271.59L271.514 190.412L271.488 190.386L271.411 190.335H271.283L271.258 190.31H271.179H271.154L271.102 190.259L271.077 190.207L271.026 189.875L271 189.823V189.798H271.051H271.154L271.207 189.823V189.798H271.258V189.747V189.694V189.668V189.642L271.207 189.566L271.179 189.54L271.154 189.489L271.051 189.361L271.077 189.233L271.128 189.156L271.154 189.105L271.179 189.003V188.926L271.232 188.951H271.36L271.411 188.926L271.437 188.9V188.875L271.488 188.798V188.771L271.514 188.798L271.539 188.745L271.514 188.719H271.565H271.59V188.668L271.514 188.591L271.488 188.515L271.462 188.463L271.488 188.412V188.361H271.437L271.411 188.387L271.386 188.412H271.283L271.258 188.208L271.309 188.08L271.386 187.875L271.411 187.771H271.437L271.514 187.694L271.565 187.668L271.616 187.694L271.642 187.771L271.718 187.796H271.795L271.846 187.771L272 187.668L272.102 187.591V187.464L272.077 187.412L271.949 187.31L271.923 187.259L271.898 187.182L271.923 187.131L271.949 187.08L271.974 187.054L272.051 186.952L272.102 186.926L272.283 186.899L272.309 186.847L272.334 186.796L272.283 186.694V186.668V186.617H272.36L272.437 186.566L272.462 186.54L272.411 186.489L272.462 186.464L272.539 186.387V186.336L272.565 186.31H272.616L272.642 186.284H272.667L272.693 186.259L272.642 186.208H272.565L272.539 186.182V186.157L272.667 186.029L272.693 186.003H272.718V185.976L272.693 185.924L272.769 185.899L272.795 185.873L272.769 185.796L272.795 185.745L272.821 185.694L272.872 185.566L272.949 185.515L273 185.464L273.051 185.438V185.387V185.336L273.232 185.285L273.309 185.233L273.386 185.105L273.437 185.027V184.976L273.462 184.95L273.513 184.873L273.565 184.771L273.641 184.669V184.592L273.667 184.387L273.641 184.259V184.182V184.027L273.616 183.797L273.693 183.566L273.744 183.413L273.821 183.053L273.872 183.001L273.846 182.925V182.848L273.872 182.771V182.72L273.821 182.592L273.846 182.49L273.872 182.438L273.974 182.31L274.002 182.285L274.027 182.155L274.053 182.053L274.078 182.002L274.13 181.899L274.257 181.746L274.283 181.618L274.36 181.515L274.385 181.464V181.336L274.334 181.232L274.283 181.155L274.206 181.078L274.13 181.027L274.027 180.925L274.002 180.848L273.923 180.72L273.795 180.669L273.769 180.592L273.693 180.541L273.667 180.49V180.387L273.641 180.334L273.667 180.283L273.718 180.36H273.744L273.923 180.104L274.002 180.027V179.976L273.923 179.925L273.949 179.874V179.848L274.053 179.797L274.078 179.746V179.669V179.643L274.053 179.618L273.949 179.592L273.897 179.541L273.846 179.439L273.872 179.411L273.923 179.386L274.027 179.232L274.257 179.104L274.385 178.874L274.462 178.823L274.616 178.771L274.897 178.541L274.976 178.488L275.027 178.437L275.104 178.411L275.155 178.36L275.462 178.079L275.513 178.053L275.692 177.874L275.744 177.823L276.001 177.592H276.027L276.257 177.386L276.385 177.258L276.462 177.079L276.513 176.925L276.616 176.823L276.667 176.772L276.899 176.591L277.027 176.539H277.129L277.18 176.514L277.232 176.488H277.334L277.488 176.232L277.513 176.13L277.564 176.079L277.692 175.823L277.771 175.746H277.822L277.848 175.721V175.695L277.796 175.668L277.822 175.642H277.873L277.924 175.616L277.95 175.54L277.924 175.514L277.95 175.437L277.924 175.386V175.335L277.976 175.309V175.156L278.027 175.105H278.052L278.155 175.156L278.257 175.207H278.308L278.359 175.258L278.615 175.386L278.694 175.412L278.822 175.028V174.977V174.9V174.874L278.848 174.849L278.873 174.744L278.924 174.642V174.591L278.899 174.54L278.95 174.463L278.924 174.437L278.95 174.412L278.975 174.309L279.027 174.284L279.257 174.335L279.359 174.361H279.462L279.59 174.335L279.796 174.207L279.95 174.13V174.105L279.975 174.079L279.95 174.002V173.951V173.9V173.823L280.001 173.77L280.052 173.668V173.642H280.103L280.129 173.668H280.18L280.257 173.693L280.334 173.745L280.385 173.693H280.41H280.487V173.642L280.538 173.719L280.566 173.745L280.617 173.796V173.823L280.694 173.77H280.719L280.771 173.796L280.796 173.77H280.822L280.847 173.796H280.899L280.924 173.77H280.95V173.745L280.975 173.693L281.026 173.412V173.386L281.078 173.309L281.129 173.054L281.231 172.9V172.821L281.257 172.745L281.282 172.668V172.642H281.334L281.359 172.617V172.54L281.334 172.514L281.385 172.489L281.334 172.335L281.385 172.31L281.334 172.207L281.385 172.13V171.977L281.41 171.924L281.489 171.847L281.515 171.821L281.489 171.796L281.462 171.745L281.489 171.668L281.515 171.566L281.54 171.54L281.566 171.463L281.617 171.514H281.668V171.54H281.719H281.745H281.77V171.514H281.796L281.847 171.566H281.898H282.18L282.257 171.642H282.282L282.359 171.668L282.463 171.566L282.54 171.463L282.668 171.31L282.719 171.284L282.898 171.105L282.975 171.054V171.028L283.129 170.822L283.333 170.617L283.361 170.591H283.438L283.54 170.438L283.694 170.31L283.796 170.233L283.949 170.079H283.975L284.001 170.052L284.077 169.975L284.31 169.796L284.361 169.719L284.438 169.643L284.463 169.617L284.617 169.463H284.668L284.719 169.515V169.566V169.617H284.745H284.796V169.643L284.821 169.668L284.77 169.719L284.745 169.77L284.77 169.796V169.847L284.796 169.873H284.821V170.001L284.847 170.026L284.821 170.156V170.233L284.77 170.207V170.284L285.077 170.642L285.128 170.668L285.565 170.642L286.154 170.591L286.233 170.566H286.309H286.361H286.386L286.54 170.54H286.591L286.872 170.514H286.898L287.207 170.489L287.335 170.617H287.386L287.412 170.591V170.514L287.463 170.489L287.488 170.463L287.565 170.438L287.668 170.412L287.719 170.335L287.796 170.284V170.105L287.821 170.026L287.872 169.975V169.924L287.898 169.847V169.796L287.975 169.463L287.949 169.361L287.975 169.259V169.078H288V169.052L287.975 169.001L288 168.822V168.668L288.026 168.489L288.053 168.463L288.13 168.489L288.156 168.566L288.232 168.591L288.284 168.643V168.796L288.335 168.924V169.001L288.258 169.182L288.514 169.387H288.565L288.693 169.438H288.744L288.77 169.387L288.923 169.463L288.949 169.489V169.591L288.976 169.668H289.079L289.104 169.719L289.181 169.796L289.258 169.873H289.36H289.411L289.463 170.001L289.488 170.052L289.591 170.105L289.642 170.182L289.667 170.156V170.105L289.719 170.079H289.77H289.795L289.821 170.131H289.847L289.898 170.105H289.925L289.976 170.182L290.027 170.233H290.079L290.232 170.31L290.258 170.335L290.283 170.387L290.079 170.822L290.104 170.898L290.053 170.924V170.975L290.079 171.028L290.053 171.054V171.079L290.13 171.182V171.233L290.181 171.284L290.232 171.361H290.283L290.309 171.386H290.335L290.386 171.361L290.539 171.463L290.642 171.694L290.693 171.745V171.77H290.744V171.694H290.77H290.795L290.848 171.77V171.821L290.821 171.924L290.874 172.182L290.899 172.207L291.13 172.386V172.335H291.155L291.309 172.386L291.334 172.361V172.335H291.386V172.361H291.462H291.488H291.514L291.59 172.31L291.744 172.182L291.823 172.079H291.848H291.874L291.899 172.105L292.002 172.13H292.053L292.104 172.105H292.13L292.155 172.13L292.258 172.258L292.309 172.335L292.386 172.386V172.437L292.36 172.668V172.926V173.233L292.334 173.489L292.36 173.54L292.437 173.565H292.539H292.59H292.641L292.667 173.54L292.72 173.437L292.797 173.386L292.874 173.361L292.95 173.412L293.027 173.489L293.053 173.514V173.54L293.13 173.565H293.155L293.232 173.591H293.334L293.462 173.617L293.513 173.693L293.539 173.719L293.59 173.668H293.669L293.771 173.591H293.848L293.925 173.617L294.078 173.719L294.155 173.796H294.181L294.232 173.849L294.437 173.874V173.823V173.77L294.462 173.693L294.513 173.668H294.618H294.72L294.822 173.642H295.053L295.001 173.565L295.053 173.514L295.078 173.284L295.027 173.156L295.053 173.13L295.078 173.079H295.129H295.155L295.257 173.054L295.334 172.977L295.436 173.079L295.488 173.105L295.566 173.079L295.617 173.028L295.669 173.054L295.72 173.002L295.797 172.977L295.848 172.926L295.822 172.847L295.873 172.745L295.95 172.668V172.642L296.001 172.591H296.027L296.078 172.54V172.514V172.437L296.104 172.386L296.052 172.284L296.104 172.182V172.13L296.155 172.054L296.232 172.028L296.334 171.977H296.36V171.924V171.821L296.283 171.719L296.257 171.668L296.232 171.642L296.257 171.591L296.308 171.489L296.464 171.438L296.436 171.386V171.31L296.308 171.284V171.233L296.334 171.156L296.308 171.054L296.283 171.028L296.232 171.001H296.104V170.95L296.129 170.873L296.18 170.822L296.206 170.694L296.283 170.591L296.36 170.54L296.464 170.514L296.566 170.489L296.617 170.412L296.643 170.233L296.669 170.182V170.026L296.72 169.924L296.771 169.898L296.848 169.873H296.976V169.822L297.052 169.796L297.129 169.719L297.18 169.617L297.257 169.566L297.334 169.54L297.385 169.515V169.335L297.413 169.31H297.54L297.566 169.284L297.643 169.31H297.668H297.694L297.771 169.233H297.848L298.129 169.31L298.308 169.284L298.336 169.259L298.412 169.233L298.438 169.182L298.464 169.156L298.489 169.078L298.464 169.026V169.001L298.438 168.975L298.308 168.745L298.231 168.515L298.18 168.31L298.155 168.052V168.027L298.129 167.975L298.103 167.847V167.694L298.129 167.515L298.18 167.336L298.231 167.129L298.283 167.103V167.052L298.336 166.975L298.387 166.873L298.489 166.745L298.822 166.387L298.847 166.361L298.873 166.308L298.899 166.283L298.924 166.257L299.103 166.078L299.206 165.95L299.336 165.796L299.412 165.745L299.489 165.72L299.668 165.694L299.719 165.668L299.771 165.643H299.822L300.052 165.515L300.001 165.385L299.975 165.283L299.95 165.078L299.924 164.848L299.899 164.566L299.873 164.464L299.899 164.411L299.95 164.36L299.975 164.334L300.027 164.257V164.155V164.027L300.052 163.873L300.078 163.797L300.103 163.72L300.18 163.669L300.233 163.592V163.488L300.284 163.437V163.334L300.335 163.257L300.412 163.181L300.489 163.001L300.515 162.95L300.668 162.797L300.822 162.694L300.873 162.618L300.975 162.539L301.052 162.385L301.078 162.36L301.129 162.232L301.182 162.181L301.207 162.155L301.259 162.104L301.284 162.078L301.335 162.053L301.361 161.925L301.463 161.848L301.515 161.694L301.54 161.59L301.515 161.565H301.54L301.515 161.462L301.489 161.386V161.309V161.206V161.053L301.438 160.976L301.412 160.874L301.438 160.822L301.463 160.72L301.54 160.59L301.617 160.514L301.694 160.411L301.745 160.283L301.822 160.206H301.847V160.079L301.822 159.77L301.77 159.309L301.694 159.002L301.668 158.925L301.617 158.744L301.591 158.667L301.566 158.616V158.539L301.617 158.258L301.668 158.079L301.719 158.028L301.77 157.976H301.847H301.924L302.026 157.925L302.079 157.898L302.207 157.795L302.259 157.77H302.335L302.489 157.821H302.591L302.617 157.795L302.642 157.744L302.745 157.693H302.77H302.873H302.975L303.054 157.667L303.105 157.642L303.156 157.539L303.284 157.36L303.31 157.284L303.335 157.181V157.053H303.361L303.386 156.976L303.438 156.898L303.489 156.872L303.514 156.847L303.54 156.821L303.566 156.77V156.667V156.616V156.591L303.617 156.54L303.668 156.514L303.693 156.488L303.796 156.514L304.002 156.565L304.105 156.591L304.284 156.642L304.361 156.667L304.437 156.719H304.514L304.54 156.693L304.642 156.616L304.873 156.463L305.002 156.335H305.079L305.181 156.36H305.233L305.284 156.309L305.309 156.284L305.361 156.232L305.386 156.104L305.412 156.079L305.54 155.975L305.565 155.898V155.77V155.616L305.591 155.54L305.642 155.463L305.693 155.437L305.744 155.412H305.796L305.849 155.386H305.925L306.028 155.412L306.053 155.437L306.156 155.412L306.207 155.386L306.284 155.284L306.36 155.13V155.105L306.335 154.975L306.258 154.796L306.233 154.744L306.181 154.668V154.616L306.207 154.54L306.258 154.412L306.284 154.335V154.309L306.258 154.284L306.207 154.207V154.077L306.258 154H306.309L306.437 153.847L306.54 153.77L306.642 153.617L306.668 153.565L306.719 153.489L306.772 153.386L306.9 153.205L306.925 153.154V153.103V153.052L306.874 152.975L306.9 152.873L306.951 152.796L307.002 152.719V152.617L306.977 152.54L307.002 152.489L307.028 152.463V152.386L307.002 152.335V152.31L306.977 152.231L306.925 152.205V152.18V152.103L306.977 151.975L306.951 151.924L306.977 151.873L307.002 151.77L307.028 151.719H307.002L307.028 151.668V151.591L307.13 151.514V151.361V151.231L307.104 151.18V151.052L307.13 150.873L307.104 150.745L307.13 150.642V150.514L307.104 150.489L307.053 150.463H306.797L306.744 150.438V150.385V150.308L306.719 150.257L306.797 150.206V150.18H306.874L306.925 150.129L307.104 150.026L307.232 150.001L307.335 149.924L307.36 149.847L307.437 149.771L307.565 149.694L307.695 149.591L307.721 149.54H307.772L307.848 149.515H307.9H307.951L308.079 149.385L308.284 149.257L308.309 149.231H308.335H308.411L308.488 149.206H308.514H308.669L308.772 149.154L308.874 149.18H309.002V149.154H309.053H309.104L309.13 149.129L309.232 149.103L309.335 149.129L309.36 149.103H309.386L309.463 149.078L309.539 149.001L309.567 148.975L309.592 148.95L309.669 148.975L309.72 148.95L309.772 148.873L309.797 148.796L309.848 148.745V148.643L309.874 148.591L309.925 148.538L309.951 148.462L309.925 148.436L309.899 148.385V148.334V148.308L309.874 148.257L309.899 148.231L309.925 148.18V148.155L309.874 148.078L309.899 148.052V148.001L309.951 147.95L310.002 147.924L310.027 147.899L309.976 147.745L310.002 147.668L310.027 147.643L310.053 147.59V147.487L310.079 147.359V147.283L310.104 147.231L310.155 147.155L310.232 147.103L310.283 146.976L310.36 146.873L310.335 146.848V146.822L310.309 146.72L310.232 146.667L310.155 146.615L310.104 146.564H310.027L309.925 146.513L309.874 146.487L309.848 146.462L309.823 146.334L309.797 146.308L309.772 146.283L309.797 146.257L309.772 146.18V146.129V146.052L309.797 146.027L309.848 145.976L309.976 145.899L310.027 145.873L310.104 145.718L310.155 145.59L310.181 145.513V145.462V145.436L310.155 145.411L310.079 145.36L310.027 145.334L309.976 145.206L309.951 145.155V145.078L309.976 145.001L310.181 144.795L310.258 144.641L310.335 144.564L310.462 144.36L310.488 144.308H310.515L310.567 144.283L310.618 144.257H310.669L310.823 144.283L310.899 144.257L311.053 144.181L311.181 144.155H311.283L311.334 144.129L311.386 143.976L311.439 143.873L311.464 143.82L311.541 143.795L311.643 143.718L311.695 143.692L311.72 143.59V143.513V143.411L311.695 143.334L311.72 143.283L311.797 143.181L311.899 143.078L311.925 143.027L311.976 142.95L312.053 142.846L312.104 142.693V142.539L312.078 142.36V142.258L312.104 142.155L312.206 142.027V141.872L312.181 141.718V141.565L312.232 141.488V141.437L312.283 141.36L312.36 141.309L312.439 141.206L312.464 141.078L312.439 140.974L312.413 140.897L312.36 140.846L312.309 140.693V140.616V140.539L312.258 140.411V140.36V140.309L312.283 140.232L312.334 139.974L312.387 139.821H312.413L312.439 139.795L312.515 139.744L312.643 139.642L312.694 139.565H312.72L312.746 139.514L312.797 139.411L312.822 139.335L312.848 139.179L312.899 138.949L312.925 138.872L313.002 138.795L313.078 138.642V138.616L313.13 138.591V138.539L313.155 138.488L313.232 138.411H313.257L313.31 138.386L313.362 138.309L313.438 138.179L313.49 138.026L313.541 137.949L313.566 137.847V137.719V137.616L313.592 137.488L313.618 137.282H313.643L313.72 137.205L313.746 137.179V137.201L313.899 137.179L314.027 137.128L314.206 137H314.259L314.31 136.975L314.336 137L314.387 136.975L314.413 136.949L314.464 136.923V136.872V136.796L314.49 136.744H314.515L314.566 136.693L314.592 136.642V136.591L314.617 136.54L314.72 136.412L314.771 136.386L314.797 136.359L314.848 136.307H314.899L314.925 136.256L314.95 136.205L315.001 136.103L315.078 136.052L315.155 136.026V135.975L315.129 135.898V135.821L315.155 135.796L315.208 135.77L315.31 135.693L315.387 135.616V135.591L315.413 135.565V135.488L315.438 135.463L315.489 135.435V135.41V135.282L315.515 135.205L315.617 135.103L315.643 135.077L315.72 135L315.797 134.898L315.822 134.821L315.873 134.591L315.899 134.54L315.95 134.514L315.976 134.487L316.027 134.461L316.078 134.487L316.233 134.591H316.336L316.413 134.617L316.566 134.642L316.617 134.668L316.694 134.745L316.745 134.821L316.822 134.898L316.924 134.949L317.001 134.975H317.08H317.157L317.233 134.949L317.259 134.924L317.387 134.898L317.617 134.796L317.72 134.77L317.745 134.745L317.822 134.693L317.924 134.565L318.003 134.487L318.08 134.359L318.131 134.308L318.31 134.205L318.515 134.077L318.668 134.026L318.771 133.949L318.899 133.898L319.054 133.873L319.131 133.847L319.208 133.821L319.336 133.745L319.515 133.693L319.566 133.668H319.591L319.668 133.591L319.745 133.461L319.771 133.308L319.796 133.257H319.822L319.926 133.205L320.105 133.18H320.233L320.31 133.154L320.463 133.077L320.823 132.924L320.9 132.898L321.079 132.847L321.156 132.821L321.259 132.745L321.335 132.694L321.361 132.589L321.335 132.461L321.361 132.282L321.412 132.077L321.387 132.052V131.975L321.361 131.873V131.796L321.31 131.745L321.284 131.692L321.233 131.641L321.156 131.615L321.105 131.538L321.079 131.513L320.977 131.436L320.798 131.359L320.719 131.282L320.668 131.18L320.643 131.154V131.078L320.668 131.052L320.77 131.001L320.823 130.924L320.9 130.873L320.977 130.847L321.003 130.796L321.028 130.77L321.079 130.692L321.105 130.641L321.079 130.513V130.41L321.105 130.308L321.079 130.206V130.154V130.129L321.131 130.026H321.105L321.079 129.975V129.95V129.899L321.207 129.769L321.233 129.692L321.259 129.718L321.284 129.666L321.31 129.615H321.361L321.387 129.59V129.564L321.361 129.513L321.335 129.436V129.41L321.412 129.282L321.438 129.257L321.489 129.206L321.514 129.18L321.489 129.129L321.412 129.078V129.052V129.027L321.335 128.899L321.284 128.794L321.259 128.743L321.207 128.666V128.59L321.233 128.539V128.487L321.31 128.385L321.412 128.359L321.438 128.334V128.283L321.361 128.18V128.103V128.078L321.387 128.052L321.463 127.948L321.489 127.871V127.769L321.514 127.718L321.668 127.59L321.694 127.539L321.668 127.462L321.642 127.385L321.54 127.359L321.566 127.308L321.514 127.231L321.438 127.283L321.387 127.257V127.308H321.361V127.283L321.31 127.308L321.284 127.334V127.359H321.259H321.207L321.182 127.308H321.156L321.054 127.283V127.257L321.105 127.231L321.054 127.129L321.003 127.078V127.052V127.027L320.926 126.999H320.823L320.798 126.974L320.668 126.948L320.617 126.923L320.643 126.871L320.694 126.846V126.82L320.719 126.743H320.694L320.643 126.795L320.617 126.718L320.591 126.667L320.617 126.59V126.564L320.591 126.539L320.54 126.488H320.463L320.438 126.436H320.412H320.335L320.31 126.411L320.335 126.36V126.334L320.31 126.308V126.283H320.412V126.257L320.361 126.18L320.259 126.155L320.207 126.129L320.156 126.076L320.105 126.051V125.999V125.974L320.054 125.999L320.028 126.025L319.977 125.948L319.952 125.923H319.875L319.847 125.948L319.822 125.999H319.796L319.771 125.897L319.719 125.871H319.668H319.617L319.566 125.897L319.463 125.871H319.438L319.259 125.923H319.208L319.131 125.871H319.054L319.003 125.897L318.952 125.871L318.822 125.795L318.771 125.82L318.694 125.871L318.643 125.923H318.592V125.897L318.54 125.82H318.515L318.489 125.846L318.54 125.923L318.489 125.974L318.438 125.846L318.412 125.82H318.361H318.284L318.182 125.846H318.156L318.003 125.871L317.95 125.897L317.924 125.871L317.899 125.795L317.873 125.769L317.822 125.744L317.745 125.692L317.643 125.539H317.617L317.515 125.513V125.488L317.566 125.436L317.54 125.385V125.36H317.592H317.643V125.308L317.694 125.334L317.72 125.308L317.694 125.283V125.257L317.72 125.232L317.745 125.206L317.694 125.181H317.668V125.155L317.592 125.181L317.566 125.155V125.051L317.54 124.974L317.566 124.923L317.643 124.872L317.668 124.744L317.745 124.718L317.694 124.641L317.72 124.616L317.694 124.59L317.668 124.564L317.617 124.488L317.566 124.283V124.153L317.515 123.923V123.846L317.489 123.718L317.412 123.256L317.387 123.179V123.128L317.361 123.102V123L317.336 122.923L317.31 122.769L317.285 122.667L317.208 122.205L317.182 122.051L317.157 121.897L317.131 121.718V121.693L317.105 121.616L317.08 121.565V121.437L316.976 121V120.898V120.821L316.95 120.693L316.924 120.667L316.899 120.539L316.873 120.409V120.307L316.822 120.026ZM280.436 197.234L280.41 197.181L280.436 197.155V197.181V197.234Z" fill="#092E20"/>
</svg>
