<?xml version="1.0" encoding="UTF-8"?>
<svg id="Layer_2" data-name="Layer 2" xmlns="http://www.w3.org/2000/svg" viewBox="0 0 230.75 38.73">
  <g id="Layer_1-2" data-name="Layer 1">
    <g>
      <g>
        <path d="M58.39,1.17l-20.14,13.33c-3.29,2.18-3.29,7.01,0,9.19l20.14,13.33c4.65,3.08,10.85-.26,10.85-5.83V7c0-5.57-6.2-8.91-10.85-5.83Z" style="fill: #4d49f2;"/>
        <path d="M10.85,1.17L30.99,14.51c3.29,2.18,3.29,7.01,0,9.19l-20.14,13.33C6.2,40.1,0,36.77,0,31.2V7C0,1.43,6.2-1.9,10.85,1.17Z" style="fill: #ff3b4a;"/>
      </g>
      <g>
        <polygon points="107.25 23.8 92.8 0 88.43 0 88.43 38.19 94.71 38.19 94.71 13.73 105.07 30.77 109.44 30.77 119.8 13.73 119.8 38.19 126.07 38.19 126.07 0 121.71 0 107.25 23.8" style="fill: #727272;"/>
        <path d="M152.53,14.92c-.76-.87-1.65-1.6-2.7-2.18-1.55-.85-3.32-1.28-5.32-1.28-2.36,0-4.5,.61-6.41,1.83-1.91,1.22-3.42,2.86-4.53,4.91-1.11,2.06-1.66,4.37-1.66,6.96s.55,4.85,1.66,6.9c1.11,2.05,2.62,3.68,4.53,4.88,1.91,1.2,4.05,1.8,6.41,1.8,2,0,3.78-.43,5.35-1.28,1.04-.57,1.93-1.28,2.67-2.13v2.87h6V12h-6v2.92Zm-1.66,15.9c-1.36,1.49-3.16,2.24-5.37,2.24-1.45,0-2.74-.34-3.85-1.01-1.11-.67-1.98-1.61-2.62-2.81-.64-1.2-.95-2.58-.95-4.15s.32-2.95,.95-4.15c.64-1.2,1.51-2.14,2.62-2.81,1.11-.67,2.39-1.01,3.85-1.01s2.79,.34,3.9,1.01c1.11,.67,1.97,1.61,2.59,2.81,.62,1.2,.93,2.58,.93,4.15,0,2.33-.68,4.24-2.05,5.73Z" style="fill: #727272;"/>
        <polygon points="175.88 28.75 168.73 12 162.08 12 174.02 38.19 177.51 38.19 189.46 12 183.08 12 175.88 28.75" style="fill: #727272;"/>
        <path d="M196.06,0c-1.02,0-1.86,.35-2.54,1.04-.67,.69-1.01,1.55-1.01,2.56s.34,1.87,1.01,2.56c.67,.69,1.52,1.04,2.54,1.04s1.91-.35,2.56-1.04c.65-.69,.98-1.55,.98-2.56s-.33-1.87-.98-2.56C197.97,.35,197.11,0,196.06,0Z" style="fill: #727272;"/>
        <rect x="193.06" y="12" width="6" height="26.18" style="fill: #727272;"/>
        <path d="M224.75,12v2.92c-.76-.87-1.65-1.6-2.7-2.18-1.55-.85-3.32-1.28-5.32-1.28-2.36,0-4.5,.61-6.41,1.83-1.91,1.22-3.42,2.86-4.53,4.91-1.11,2.06-1.66,4.37-1.66,6.96s.55,4.85,1.66,6.9c1.11,2.05,2.62,3.68,4.53,4.88,1.91,1.2,4.05,1.8,6.41,1.8,2,0,3.78-.43,5.35-1.28,1.04-.57,1.93-1.28,2.67-2.13v2.87h6V12h-6Zm-1.66,18.82c-1.36,1.49-3.16,2.24-5.37,2.24-1.45,0-2.74-.34-3.85-1.01-1.11-.67-1.98-1.61-2.62-2.81-.64-1.2-.95-2.58-.95-4.15s.32-2.95,.95-4.15c.64-1.2,1.51-2.14,2.62-2.81,1.11-.67,2.39-1.01,3.85-1.01s2.79,.34,3.9,1.01c1.11,.67,1.97,1.61,2.59,2.81,.62,1.2,.93,2.58,.93,4.15,0,2.33-.68,4.24-2.05,5.73Z" style="fill: #727272;"/>
      </g>
    </g>
  </g>
</svg>