<?xml version="1.0" encoding="UTF-8"?>
<svg id="Layer_2" data-name="Layer 2" xmlns="http://www.w3.org/2000/svg" xmlns:xlink="http://www.w3.org/1999/xlink" viewBox="0 0 223.97 102.42">
  <defs>
    <filter id="drop-shadow-1" filterUnits="userSpaceOnUse">
      <feOffset dx="7" dy="7"/>
      <feGaussianBlur result="blur" stdDeviation="13"/>
      <feFlood flood-color="#000" flood-opacity=".3"/>
      <feComposite in2="blur" operator="in"/>
      <feComposite in="SourceGraphic"/>
    </filter>
  </defs>
  <g id="Layer_1-2" data-name="Layer 1">
    <g>
      <g>
        <g style="isolation: isolate;">
          <path d="M110.39,54.94s-.05,.08-.05,.09c-.03,.16-.06,.32-.09,.48-.74,3.85-2.3,7.36-4.46,10.62-2.75,4.16-6.22,7.65-10.09,10.76-6.49,5.21-13.69,9.22-21.35,12.43-.45,.19-.9,.39-1.35,.58h-.13c-.06-.04-.12-.08-.19-.11-7.19-2.86-13.95-6.51-20.19-11.09-3.99-2.93-7.63-6.22-10.69-10.14-2.64-3.38-4.68-7.07-5.79-11.24-.21-.78-.55-2.39-.55-2.39,0,0-.27-17.17-.27-17.51,0-8.87,0-17.73-.01-26.6,0-.63,.18-.99,.72-1.33,4.08-2.53,8.46-4.39,13.01-5.86,3.75-1.21,7.58-2.08,11.47-2.68,2.73-.42,5.47-.69,8.23-.83,.93-.05,1.85-.08,2.78-.12h3.11c.28,.02,.56,.05,.84,.05,3.83,.09,7.63,.46,11.41,1.11,5.54,.94,10.92,2.45,16.09,4.66,2.57,1.1,5.06,2.35,7.41,3.87,.31,.2,.44,.4,.44,.79-.01,8.95,0,17.9,0,26.85v.53l-.28,17.08Z" style="fill: #0078d4;"/>
          <path d="M72.92,83.87c-6.23-2.64-12-5.88-17.15-9.67-3.95-2.9-7.09-5.87-9.59-9.08-2.39-3.06-3.95-6.08-4.79-9.24-.09-.35-.25-1.04-.38-1.61-.08-4.99-.26-16.23-.26-16.9,0-3.09,0-6.19,0-9.28,0-4.92,0-9.98,0-15,2.9-1.6,6.15-2.97,9.87-4.17,3.34-1.08,6.9-1.91,10.6-2.47,2.54-.39,5.12-.65,7.66-.77,.56-.03,1.13-.05,1.69-.07,.31-.01,.62-.03,.93-.04h2.81c.24,.02,.54,.04,.89,.05,3.51,.08,7.08,.43,10.6,1.03,5.27,.89,10.26,2.34,14.84,4.29,1.63,.7,3.11,1.41,4.47,2.16,0,6.28,0,12.62,0,18.78v5.93s-.26,16.35-.26,16.35l-.05,.27c-.57,2.97-1.76,5.78-3.64,8.62-2.21,3.34-5.13,6.44-8.93,9.48-5.53,4.43-11.84,8.14-19.29,11.33Z" style="fill: #203a61; isolation: isolate;"/>
        </g>
        <g style="isolation: isolate;">
          <polygon points="78.49 69.56 76.42 69.56 72.92 66.06 69.41 69.56 67.35 69.56 72.92 64 78.49 69.56" style="fill: #50e6ff; isolation: isolate;"/>
          <polygon points="67.35 57.69 69.41 57.69 72.92 61.19 76.42 57.69 78.49 57.69 72.92 63.26 67.35 57.69" style="fill: #50e6ff; isolation: isolate;"/>
          <circle cx="72.9" cy="57.69" r="1.18" style="fill: #50e6ff;"/>
        </g>
        <path d="M113.43,38.37v17.2c-13.02-2.98-26.57-4.56-40.49-4.56h-.04c-13.92,0-27.48,1.58-40.49,4.57v-17.2c13.07-2.73,26.61-4.17,40.49-4.17h.04c13.88,0,27.42,1.43,40.49,4.16Z" style="fill: #203a61; filter: url(#drop-shadow-1); isolation: isolate;"/>
        <g>
          <path d="M39.94,47.58l-.11-.71c.07,.05,.16,.09,.25,.12,.09,.03,.19,.06,.3,.07s.21,.02,.31,.03c.1,0,.19,0,.28-.02,.29-.05,.5-.13,.62-.25,.13-.12,.17-.27,.14-.45-.02-.1-.05-.18-.11-.24-.06-.06-.14-.12-.23-.17-.09-.05-.2-.09-.33-.12-.12-.04-.25-.07-.4-.11-.15-.05-.3-.11-.43-.16-.13-.06-.25-.13-.36-.2-.1-.08-.19-.17-.26-.28-.07-.11-.12-.24-.14-.4-.03-.19-.01-.37,.05-.53,.06-.16,.16-.29,.29-.41,.13-.12,.28-.21,.46-.29,.18-.07,.36-.13,.55-.16,.43-.07,.76-.07,.97,0l.11,.68c-.26-.13-.58-.17-.95-.11-.1,.02-.2,.04-.3,.08s-.18,.08-.26,.14c-.07,.06-.13,.12-.17,.2-.04,.08-.05,.17-.03,.26,.01,.09,.05,.17,.1,.23,.05,.06,.12,.11,.2,.16,.08,.04,.18,.08,.3,.12,.12,.04,.25,.07,.4,.11,.16,.05,.3,.11,.45,.17s.27,.13,.38,.22c.11,.08,.21,.18,.28,.3,.08,.11,.13,.25,.15,.4,.03,.21,.02,.39-.04,.55-.06,.16-.16,.29-.28,.41-.13,.11-.28,.21-.46,.28-.18,.07-.37,.12-.58,.16-.07,.01-.16,.02-.26,.03s-.21,0-.32,0c-.11,0-.21-.01-.31-.03-.1-.01-.18-.03-.24-.06Z" style="fill: #fff;"/>
          <path d="M45.5,43.26l-1.19,.17,.51,3.56-.69,.1-.51-3.56-1.19,.17-.08-.58,3.07-.44,.08,.58Z" style="fill: #fff;"/>
          <path d="M49.59,44.66c.15,1.17-.33,1.82-1.44,1.96-1.06,.13-1.66-.36-1.8-1.48l-.32-2.54,.69-.09,.3,2.4c.1,.82,.47,1.18,1.1,1.1,.61-.08,.87-.51,.77-1.29l-.31-2.44,.69-.09,.31,2.47Z" style="fill: #fff;"/>
          <path d="M50.75,46.23l-.43-4.16,1.2-.12c1.54-.16,2.37,.44,2.51,1.79,.07,.64-.09,1.18-.48,1.62-.39,.43-.94,.69-1.65,.76l-1.15,.12Zm.32-3.65l.31,2.99,.55-.06c.49-.05,.85-.22,1.09-.52,.24-.3,.34-.69,.29-1.17-.1-.97-.66-1.41-1.66-1.3l-.58,.06Z" style="fill: #fff;"/>
          <path d="M57.34,45.61l-2.34,.2-.35-4.17,2.25-.19,.05,.59-1.56,.13,.1,1.18,1.43-.12,.05,.58-1.43,.12,.1,1.23,1.65-.14,.05,.58Z" style="fill: #fff;"/>
          <path d="M61.61,45.31l-.76,.05-2.2-2.94c-.06-.07-.1-.15-.14-.23h-.02c.02,.09,.04,.28,.06,.57l.18,2.74-.67,.04-.27-4.18,.81-.05,2.13,2.87c.09,.12,.15,.2,.17,.25h.01c-.03-.11-.05-.3-.07-.56l-.18-2.69,.67-.04,.27,4.18Z" style="fill: #fff;"/>
          <path d="M65.14,41.55l-1.2,.06,.16,3.59-.69,.03-.16-3.59-1.2,.06-.03-.59,3.09-.14,.03,.59Z" style="fill: #fff;"/>
          <path d="M70.97,45h-.76s-.4-1.04-.4-1.04l-1.65,.03-.34,1.07h-.76s1.49-4.2,1.49-4.2l.78-.02,1.64,4.16Zm-1.35-1.61l-.61-1.66c-.02-.05-.04-.14-.06-.26h-.01c-.02,.11-.03,.2-.05,.26l-.54,1.68,1.28-.02Z" style="fill: #fff;"/>
          <path d="M76.02,45.01h-.69s.01-2.71,.01-2.71c0-.22,.02-.49,.04-.81h-.01c-.04,.18-.08,.31-.12,.39l-1.26,3.12h-.48s-1.24-3.11-1.24-3.11c-.03-.09-.07-.23-.11-.42h-.01c.01,.17,.02,.44,.02,.82v2.7s-.65,0-.65,0l.02-4.19h.98s1.09,2.8,1.09,2.8c.08,.21,.14,.37,.16,.48h.01c.07-.22,.13-.38,.18-.49l1.13-2.77h.94s-.02,4.19-.02,4.19Z" style="fill: #fff;"/>
          <path d="M77.02,45.04l.11-4.19,1.33,.04c.4,.01,.72,.11,.95,.29,.23,.18,.34,.42,.34,.7,0,.24-.08,.44-.22,.61s-.33,.29-.57,.36h0c.29,.05,.51,.17,.68,.35,.17,.18,.25,.42,.24,.71,0,.36-.16,.64-.45,.86-.29,.21-.65,.32-1.08,.3l-1.34-.04Zm.74-1.86l-.04,1.33,.59,.02c.26,0,.46-.05,.6-.16,.14-.12,.22-.28,.22-.49,.01-.43-.28-.66-.88-.67h-.5Zm.05-1.76l-.03,1.19h.45c.24,.02,.43-.03,.57-.14,.14-.11,.21-.27,.22-.48,0-.36-.22-.54-.7-.56h-.5Z" style="fill: #fff;"/>
          <path d="M84.05,45.3l-.76-.03-.33-1.08-1.65-.07-.41,1.05-.76-.03,1.76-4.11,.78,.04,1.36,4.25Zm-1.25-1.69l-.5-1.69c-.01-.06-.03-.14-.04-.26h-.01c-.02,.11-.05,.2-.07,.26l-.65,1.64,1.28,.06Z" style="fill: #fff;"/>
          <path d="M84.43,45.16l.05-.71c.06,.06,.13,.12,.22,.17,.09,.05,.18,.1,.27,.14,.1,.04,.19,.07,.29,.09,.1,.02,.19,.04,.27,.04,.29,.02,.51-.02,.66-.1,.15-.09,.23-.22,.24-.41,0-.1-.01-.19-.05-.26-.04-.08-.11-.15-.19-.21-.08-.07-.18-.13-.29-.19-.11-.06-.23-.13-.36-.2-.14-.08-.26-.17-.38-.26-.12-.09-.22-.18-.3-.28-.08-.1-.15-.21-.19-.33-.04-.12-.06-.26-.05-.42,.01-.2,.07-.36,.17-.5,.1-.14,.22-.25,.37-.34s.32-.14,.51-.18c.19-.03,.38-.04,.57-.03,.44,.03,.75,.1,.95,.21l-.04,.68c-.23-.19-.53-.29-.9-.31-.1,0-.21,0-.31,0s-.2,.04-.28,.08c-.08,.04-.15,.09-.21,.16s-.09,.15-.09,.25c0,.09,0,.18,.04,.25,.03,.07,.09,.14,.16,.2,.07,.06,.16,.12,.26,.18,.1,.06,.23,.13,.36,.2,.14,.09,.27,.17,.4,.27s.23,.19,.32,.3c.09,.11,.16,.22,.21,.35,.05,.13,.07,.27,.06,.43-.01,.21-.07,.39-.16,.53-.09,.14-.22,.25-.37,.33-.15,.08-.32,.14-.51,.17s-.39,.04-.6,.02c-.07,0-.16-.02-.26-.03-.1-.02-.2-.04-.31-.07-.11-.03-.2-.06-.3-.09-.09-.04-.17-.07-.22-.11Z" style="fill: #fff;"/>
          <path d="M87.66,45.37l.06-.71c.06,.06,.13,.12,.22,.18s.17,.1,.27,.14c.1,.04,.19,.07,.29,.1,.1,.03,.19,.04,.27,.05,.29,.02,.51,0,.66-.09,.15-.09,.23-.22,.25-.4,0-.1,0-.19-.05-.26s-.1-.15-.18-.22c-.08-.07-.18-.13-.29-.2-.11-.06-.23-.13-.36-.2-.14-.09-.26-.17-.38-.26-.12-.09-.22-.18-.3-.28-.08-.1-.14-.21-.19-.34s-.06-.26-.04-.42c.02-.2,.07-.36,.17-.5s.23-.25,.38-.33c.15-.08,.32-.14,.51-.17,.19-.03,.38-.04,.57-.02,.44,.04,.75,.11,.94,.23l-.05,.68c-.22-.19-.52-.3-.89-.33-.1,0-.21,0-.31,0-.1,.01-.2,.04-.28,.07-.08,.04-.15,.09-.21,.16-.06,.07-.09,.15-.1,.25,0,.09,0,.18,.04,.25,.03,.07,.09,.14,.16,.2,.07,.06,.16,.12,.26,.19,.1,.06,.22,.13,.36,.2,.14,.09,.27,.18,.39,.27,.12,.09,.23,.2,.32,.3,.09,.11,.16,.23,.21,.35,.05,.13,.06,.27,.05,.43-.02,.21-.07,.39-.17,.53-.1,.14-.22,.25-.37,.33-.15,.08-.32,.13-.51,.16-.19,.03-.39,.03-.6,.01-.07,0-.16-.02-.26-.04-.1-.02-.2-.04-.31-.07-.1-.03-.2-.06-.3-.1-.09-.04-.17-.08-.22-.12Z" style="fill: #fff;"/>
          <path d="M94.49,46.16l-.76-.07-.27-1.1-1.64-.16-.46,1.02-.76-.07,1.97-4.01,.78,.08,1.14,4.32Zm-1.16-1.75l-.41-1.72c-.01-.06-.02-.14-.03-.27h-.01c-.03,.11-.06,.19-.08,.25l-.74,1.61,1.28,.13Z" style="fill: #fff;"/>
          <path d="M95.04,46.22l.5-4.16,1.2,.14c1.53,.18,2.22,.95,2.06,2.3-.08,.64-.35,1.13-.82,1.47-.47,.34-1.07,.46-1.78,.38l-1.15-.14Zm1.12-3.49l-.36,2.99,.55,.07c.49,.06,.88-.03,1.18-.26,.3-.23,.48-.6,.54-1.08,.12-.97-.33-1.52-1.34-1.64l-.58-.07Z" style="fill: #fff;"/>
          <path d="M100.97,47.05c-.6-.09-1.05-.35-1.35-.79s-.41-.97-.32-1.59c.1-.67,.35-1.17,.78-1.52s.95-.47,1.58-.38c.58,.08,1.02,.34,1.32,.78,.3,.44,.41,.97,.32,1.59-.1,.68-.35,1.19-.77,1.53-.42,.34-.93,.47-1.54,.38Zm.56-3.67c-.38-.05-.71,.04-.99,.29-.28,.25-.45,.61-.52,1.07-.07,.46,0,.85,.19,1.16,.19,.31,.47,.5,.85,.55,.4,.06,.73-.03,1-.27,.27-.24,.44-.59,.5-1.08,.07-.5,.01-.89-.17-1.2-.18-.3-.47-.48-.86-.54Z" style="fill: #fff;"/>
          <path d="M106.91,47.91l-.8-.13-.48-1.21c-.04-.11-.09-.21-.13-.29s-.09-.15-.14-.21c-.05-.06-.11-.1-.17-.13-.07-.03-.14-.06-.23-.07l-.28-.05-.27,1.68-.68-.11,.68-4.13,1.36,.22c.19,.03,.37,.08,.52,.16,.16,.07,.29,.17,.39,.28,.11,.11,.18,.24,.23,.4,.05,.15,.05,.32,.02,.5-.02,.15-.07,.28-.13,.39-.06,.11-.14,.21-.24,.3-.1,.08-.2,.15-.33,.2-.12,.05-.26,.08-.4,.09h0c.07,.07,.13,.12,.17,.18,.05,.06,.09,.12,.13,.18,.04,.06,.08,.13,.12,.21s.08,.16,.12,.26l.54,1.28Zm-1.92-3.99l-.22,1.34,.57,.09c.11,.02,.21,.02,.3,0,.09-.02,.18-.05,.25-.1,.08-.05,.14-.12,.19-.2,.05-.08,.09-.18,.1-.29,.03-.2,0-.36-.11-.49-.11-.13-.28-.22-.51-.26l-.58-.09Z" style="fill: #fff;"/>
        </g>
        <g style="isolation: isolate;">
          <path d="M61.4,20.75h-1.28v-3.45c0-.37,.02-.78,.05-1.23h-.03c-.07,.35-.13,.61-.18,.76l-1.35,3.92h-1.06l-1.38-3.88c-.04-.1-.1-.37-.18-.8h-.04c.03,.57,.05,1.07,.05,1.5v3.19h-1.17v-5.77h1.9l1.18,3.42c.09,.27,.16,.55,.21,.82h.02c.07-.32,.15-.6,.23-.83l1.18-3.41h1.85v5.77Z" style="fill: #fff;"/>
          <path d="M63.23,15.98c-.21,0-.39-.06-.53-.19s-.2-.28-.2-.47,.07-.35,.2-.47c.14-.12,.31-.18,.53-.18s.39,.06,.53,.18c.14,.12,.2,.28,.2,.47s-.07,.35-.2,.47-.31,.19-.53,.19Zm.63,4.77h-1.27v-4.12h1.27v4.12Z" style="fill: #fff;"/>
          <path d="M68.04,20.6c-.29,.17-.7,.25-1.24,.25-.63,0-1.14-.19-1.54-.57-.39-.38-.59-.88-.59-1.48,0-.7,.21-1.25,.63-1.65s.98-.61,1.68-.61c.49,0,.84,.06,1.05,.19v1.08c-.27-.2-.56-.3-.89-.3-.36,0-.65,.11-.87,.32-.21,.21-.32,.51-.32,.88s.1,.65,.31,.86,.48,.31,.84,.31c.32,0,.63-.1,.93-.3v1.02Z" style="fill: #fff;"/>
          <path d="M71.56,17.78c-.15-.08-.33-.12-.53-.12-.28,0-.49,.1-.65,.3-.16,.2-.23,.48-.23,.83v1.97h-1.27v-4.12h1.27v.76h.02c.2-.56,.56-.84,1.09-.84,.13,0,.24,.02,.31,.05v1.17Z" style="fill: #fff;"/>
          <path d="M74.08,20.85c-.69,0-1.23-.19-1.62-.58-.39-.38-.59-.91-.59-1.57s.2-1.21,.61-1.6c.41-.38,.96-.58,1.65-.58s1.22,.19,1.61,.58c.39,.38,.58,.89,.58,1.53,0,.68-.2,1.22-.6,1.62s-.95,.59-1.65,.59Zm.03-3.35c-.3,0-.53,.1-.7,.31-.17,.21-.25,.5-.25,.88,0,.79,.32,1.19,.96,1.19s.91-.41,.91-1.22c0-.77-.31-1.15-.92-1.15Z" style="fill: #fff;"/>
          <path d="M76.89,20.64v-1.03c.21,.13,.42,.22,.63,.28s.4,.09,.59,.09c.23,0,.4-.03,.53-.09s.2-.16,.2-.28c0-.08-.03-.15-.09-.2s-.13-.1-.23-.14-.19-.08-.3-.11-.22-.07-.32-.11c-.16-.06-.31-.13-.43-.2s-.23-.15-.31-.25-.15-.2-.19-.33c-.04-.12-.07-.27-.07-.44,0-.23,.05-.43,.15-.6s.23-.3,.4-.41,.36-.18,.58-.23c.22-.05,.44-.07,.67-.07,.18,0,.37,.01,.55,.04s.37,.07,.55,.12v.98c-.16-.09-.33-.16-.52-.21-.18-.05-.36-.07-.54-.07-.08,0-.16,0-.24,.02-.07,.01-.14,.04-.2,.06-.06,.03-.1,.06-.13,.11-.03,.04-.05,.09-.05,.15,0,.07,.02,.14,.07,.19,.05,.05,.11,.1,.19,.14,.08,.04,.16,.07,.26,.1,.1,.03,.19,.06,.28,.09,.17,.06,.32,.12,.46,.19s.25,.15,.35,.25,.17,.2,.23,.33,.08,.28,.08,.45c0,.24-.05,.45-.16,.63-.11,.17-.25,.31-.42,.42-.18,.11-.38,.19-.61,.24-.23,.05-.47,.07-.71,.07-.45,0-.87-.07-1.26-.21Z" style="fill: #fff;"/>
          <path d="M82.74,20.85c-.69,0-1.23-.19-1.62-.58-.39-.38-.59-.91-.59-1.57s.2-1.21,.61-1.6c.41-.38,.96-.58,1.65-.58s1.22,.19,1.61,.58c.39,.38,.58,.89,.58,1.53,0,.68-.2,1.22-.6,1.62s-.95,.59-1.65,.59Zm.03-3.35c-.3,0-.53,.1-.7,.31-.17,.21-.25,.5-.25,.88,0,.79,.32,1.19,.96,1.19s.91-.41,.91-1.22c0-.77-.31-1.15-.92-1.15Z" style="fill: #fff;"/>
          <path d="M88.37,15.63c-.16-.06-.32-.1-.47-.1-.41,0-.61,.22-.61,.66v.44h.94v.94h-.94v3.18h-1.27v-3.18h-.69v-.94h.69v-.51c0-.47,.15-.85,.46-1.13,.31-.29,.72-.43,1.25-.43,.26,0,.47,.03,.64,.08v.99Z" style="fill: #fff;"/>
          <path d="M91.49,20.7c-.19,.1-.47,.15-.85,.15-.9,0-1.34-.46-1.34-1.39v-1.89h-.67v-.94h.67v-.89l1.27-.36v1.25h.92v.94h-.92v1.66c0,.43,.17,.64,.51,.64,.13,0,.27-.04,.41-.12v.94Z" style="fill: #fff;"/>
        </g>
        <g style="isolation: isolate;">
          <path d="M66.72,29.19h-2.99v-5.77h.68v5.15h2.32v.61Z" style="fill: #fff;"/>
          <path d="M70.82,27.29h-2.91c.01,.46,.13,.81,.37,1.06,.24,.25,.56,.37,.97,.37,.46,0,.89-.15,1.28-.46v.62c-.36,.26-.84,.39-1.44,.39s-1.04-.19-1.37-.56c-.33-.37-.5-.9-.5-1.58,0-.64,.18-1.16,.54-1.57s.81-.61,1.35-.61,.96,.17,1.25,.52c.29,.35,.44,.83,.44,1.45v.35Zm-.68-.56c0-.38-.09-.68-.28-.89-.18-.21-.43-.32-.75-.32s-.58,.11-.79,.33-.35,.51-.4,.87h2.22Z" style="fill: #fff;"/>
          <path d="M74.77,29.19h-.66v-.64h-.02c-.29,.49-.71,.74-1.27,.74-.41,0-.73-.11-.96-.33-.23-.22-.35-.51-.35-.86,0-.77,.45-1.22,1.36-1.34l1.23-.17c0-.7-.28-1.05-.85-1.05-.5,0-.94,.17-1.34,.51v-.68c.4-.26,.87-.39,1.4-.39,.97,0,1.45,.51,1.45,1.54v2.68Zm-.66-2.08l-.99,.14c-.31,.04-.54,.12-.69,.23-.16,.11-.23,.3-.23,.58,0,.2,.07,.37,.22,.49,.14,.13,.33,.19,.57,.19,.33,0,.6-.11,.81-.34,.21-.23,.32-.52,.32-.87v-.41Z" style="fill: #fff;"/>
          <path d="M78.16,25.74c-.12-.09-.28-.13-.5-.13-.28,0-.52,.13-.71,.4s-.28,.63-.28,1.09v2.1h-.66v-4.12h.66v.85h.02c.09-.29,.24-.52,.43-.68,.19-.16,.41-.24,.65-.24,.17,0,.3,.02,.39,.06v.68Z" style="fill: #fff;"/>
          <path d="M82.29,29.19h-.66v-2.35c0-.87-.32-1.31-.96-1.31-.33,0-.6,.12-.82,.37-.22,.25-.32,.56-.32,.94v2.35h-.66v-4.12h.66v.68h.02c.31-.52,.76-.78,1.35-.78,.45,0,.79,.15,1.03,.44,.24,.29,.36,.71,.36,1.26v2.52Z" style="fill: #fff;"/>
        </g>
      </g>
      <g>
        <text transform="translate(135.41 44.61)" style="fill: #282828; font-family: SegoeUI-Semibold, &apos;Segoe UI&apos;; font-size: 33.69px; font-weight: 600;"><tspan x="0" y="0">MLSA</tspan></text>
        <text transform="translate(135.41 67.08)" style="fill: #282828; font-family: SegoeUI, &apos;Segoe UI&apos;; font-size: 16.65px;"><tspan x="0" y="0">Cameroon</tspan></text>
      </g>
    </g>
  </g>
</svg>