<svg width="1512" height="600" viewBox="0 0 1512 600" fill="none" xmlns="http://www.w3.org/2000/svg">
<path d="M-23 560H1186.5C1262.6 560 1324.3 498.305 1324.3 422.2V422.2C1324.3 346.095 1262.6 284.4 1186.5 284.4H1105.3C1037.81 284.4 983.1 229.689 983.1 162.2V162.2C983.1 94.7108 1037.81 40 1105.3 40H2099.9" stroke="#4C25EF" stroke-width="80"/>
<path d="M-56.5 560H1186.5C1262.6 560 1324.3 498.305 1324.3 422.2V422.2C1324.3 346.095 1262.6 284.4 1186.5 284.4H1105.3C1037.81 284.4 983.1 229.689 983.1 162.2V162.2C983.1 94.7108 1037.81 40 1105.3 40H2099.9" stroke="#F9BA04" stroke-width="2" stroke-dasharray="16 16"/>
</svg>
