<svg width="1512" height="501" viewBox="0 0 1512 501" fill="none" xmlns="http://www.w3.org/2000/svg">
<g clip-path="url(#clip0_609_2109)">
<path d="M619.57 134C620.94 133.97 621.73 134.03 621.73 134.03" stroke="#F9BA04" stroke-width="1.12" stroke-miterlimit="10"/>
<path d="M619.56 134C613.23 134.16 594.58 136.32 584.42 155.53C572.05 178.9 561.74 180.62 557.62 197.45C553.5 214.29 532.88 258.62 525.32 259.31C517.76 259.99 491.99 281.99 488.55 293.84C485.12 305.7 445.94 330.09 440.44 322.88C434.95 315.66 410.89 290.58 408.49 298.14C406.08 305.7 403.68 312.57 395.43 320.13C387.18 327.69 371.03 355.18 364.85 353.12C358.66 351.05 341.48 372.7 331.86 379.23C322.24 385.76 300.24 420.81 294.4 432.84C288.82 444.34 220.43 552.7 172.54 568.98H-61V484.47C-31.69 477.08 116.32 403.19 153.22 387.37C191.74 370.86 228.89 315.83 299.05 274.56C300.22 273.87 301.4 273.19 302.58 272.51C303.47 271.99 304.37 271.48 305.27 270.96C306.15 270.46 307.03 269.97 307.91 269.48C308.97 268.88 310.04 268.28 311.11 267.7C311.92 267.25 312.72 266.81 313.53 266.37C315.26 265.42 317 264.49 318.73 263.57C320.47 262.65 322.2 261.74 323.94 260.84C325.14 260.22 326.33 259.61 327.52 259C332.65 256.38 337.79 253.86 342.9 251.43C344.24 250.79 345.58 250.16 346.91 249.53C349.94 248.11 352.96 246.73 355.97 245.37C358.86 244.06 361.73 242.79 364.58 241.54H364.59C366.02 240.92 367.44 240.3 368.85 239.69H368.87C415.07 219.82 455.8 207.19 472.4 198.89C497.17 186.5 572.84 134.22 605.85 131.47C610.6 131.07 615.15 132.02 619.56 134Z" fill="#F9BA04"/>
<path d="M1141.1 12.02C1141.1 12.02 1141 12.07 1140.94 12.09C1140.94 12.09 1141.05 12.04 1141.1 12.02Z" fill="#F9BA04"/>
<path d="M1168 12.52C1167.6 12.28 1166.86 11.87 1165.81 11.42C1165.71 11.37 1165.6 11.33 1165.49 11.28C1164.82 11 1164.04 10.72 1163.16 10.45C1162.72 10.32 1162.25 10.19 1161.76 10.06C1161.49 10 1161.2 9.93 1160.91 9.87C1160.73 9.83 1160.55 9.79 1160.36 9.76C1159.53 9.59 1158.64 9.46 1157.69 9.37C1157.37 9.34 1157.05 9.31 1156.72 9.29C1156.55 9.29 1156.37 9.27 1156.2 9.26C1155.04 9.2 1153.8 9.2 1152.5 9.3C1152.33 9.3 1152.15 9.32 1151.98 9.34C1151.71 9.36 1151.43 9.38 1151.15 9.42C1150.9 9.44 1150.64 9.47 1150.38 9.51C1150.12 9.55 1149.86 9.59 1149.59 9.63C1149.19 9.68 1148.78 9.76 1148.37 9.84C1147.95 9.92 1147.54 10.01 1147.11 10.11C1146.9 10.15 1146.68 10.2 1146.47 10.26C1146.04 10.37 1145.62 10.48 1145.18 10.61C1144.74 10.73 1144.3 10.87 1143.85 11.01C1143.63 11.08 1143.4 11.16 1143.17 11.25C1142.94 11.32 1142.72 11.4 1142.49 11.49C1142.26 11.57 1142.03 11.66 1141.8 11.75C1141.57 11.83 1141.33 11.92 1141.1 12.02C1141.05 12.04 1140.99 12.06 1140.94 12.08C1138.64 13.03 1136.23 14.25 1133.73 15.8C1133.43 15.99 1133.13 16.18 1132.82 16.38C1132.36 16.67 1131.9 16.97 1131.45 17.29C1131.25 17.43 1131.04 17.56 1130.84 17.7C1130.41 18 1129.98 18.31 1129.56 18.63C1129.17 18.91 1128.78 19.21 1128.39 19.51C1127.98 19.83 1127.57 20.15 1127.15 20.49C1126.06 21.37 1124.95 22.32 1123.83 23.34C1123.52 23.62 1123.2 23.9 1122.89 24.2C1122.2 24.84 1121.51 25.51 1120.81 26.21L1120.24 26.78C1117.73 29.32 1115.16 32.21 1112.54 35.49C1112.16 35.97 1111.77 36.46 1111.38 36.97C1109.81 38.98 1108.23 41.13 1106.64 43.42C1084.58 82.4 1102.01 75.98 1038.72 142.02C975.441 208.06 952.051 191.55 937.601 217.23C923.151 242.91 935.081 273.83 905.731 289.1C876.381 304.37 874.541 296.36 867.211 299.9C859.871 303.45 851.611 321.18 843.361 336.62C835.101 352.06 836.941 357.56 810.341 370.4C783.741 383.24 758.061 407.09 749.801 425.44C741.551 443.78 725.001 481.42 714.471 465.35C715.631 462.51 716.771 459.64 717.891 456.79C718.501 455.25 719.091 453.71 719.681 452.19C720.341 450.49 720.991 448.8 721.631 447.14C721.901 446.45 722.161 445.77 722.431 445.1C723.711 441.82 724.951 438.67 726.151 435.75C726.501 434.92 726.841 434.1 727.171 433.3C727.791 431.87 728.391 430.5 728.981 429.21C729.161 428.81 729.351 428.4 729.541 428.01C730.271 426.46 730.991 425.04 731.691 423.77C731.871 423.44 732.051 423.13 732.231 422.82C732.401 422.52 732.581 422.23 732.761 421.95C732.801 421.88 732.831 421.82 732.881 421.76C733.191 421.27 733.491 420.81 733.801 420.39C735.911 417.48 736.611 412.7 736.461 406.76C736.451 406.38 736.441 405.99 736.421 405.6C736.401 404.98 736.371 404.35 736.321 403.71C736.301 403.3 736.271 402.88 736.231 402.46C736.211 402.04 736.171 401.62 736.131 401.19C736.081 400.58 736.021 399.95 735.951 399.32V399.29C735.891 398.7 735.821 398.1 735.751 397.5C735.671 396.8 735.581 396.09 735.491 395.37C735.321 394.03 735.131 392.67 734.921 391.29C734.461 388.17 733.931 384.94 733.371 381.64C733.221 380.71 733.061 379.77 732.891 378.82C732.871 378.66 732.841 378.49 732.811 378.33C732.531 376.69 732.251 375.05 731.971 373.4C731.711 371.86 731.461 370.33 731.211 368.79C731.191 368.67 731.171 368.56 731.151 368.45C730.881 366.8 730.631 365.15 730.381 363.51C730.261 362.7 730.141 361.88 730.021 361.07C729.911 360.25 729.801 359.45 729.691 358.64C729.671 358.46 729.641 358.28 729.621 358.1C729.531 357.39 729.441 356.68 729.351 355.98C729.351 355.98 729.351 355.977 729.351 355.97C729.271 355.27 729.191 354.57 729.121 353.89V353.86C729.041 353.16 728.971 352.46 728.911 351.77C728.841 351.09 728.781 350.41 728.731 349.74V349.72C728.681 349.2 728.651 348.7 728.611 348.19C728.601 348.03 728.591 347.86 728.581 347.7C728.561 347.39 728.551 347.08 728.531 346.77C728.521 346.66 728.521 346.55 728.511 346.44C728.491 346.04 728.481 345.64 728.461 345.25C728.441 344.66 728.421 344.08 728.411 343.51C728.391 342.55 728.381 341.59 728.411 340.66C728.411 340.25 728.431 339.85 728.441 339.45C728.451 339.07 728.471 338.7 728.491 338.33C728.491 338.25 728.501 338.18 728.501 338.12C728.501 338.06 728.511 338 728.511 337.95C728.531 337.66 728.541 337.37 728.571 337.09C728.571 337 728.571 336.92 728.591 336.83C728.591 336.77 728.601 336.7 728.601 336.62C728.821 333.12 729.831 311.72 722.821 304.84C722.651 304.67 722.481 304.52 722.301 304.37C718.661 301.35 717.341 300 716.931 297.53C716.381 294.39 717.311 289.43 716.801 276.85C716.691 274.11 716.611 271.76 716.561 269.71C716.191 254.9 717.201 255.86 716.801 243.37C716.721 241.03 716.421 238.81 715.971 236.74C713.631 233.65 711.311 230.52 709.011 227.35C708.411 226.52 707.811 225.69 707.211 224.85C710.631 225.57 714.231 225.71 717.981 225.34C720.841 225.07 723.791 224.5 726.831 223.68C757.431 215.45 796.851 182.03 839.741 164.49C857.821 157.09 888.801 140.24 924.081 120.02H924.091C1006.92 72.56 1113.49 6.56 1132.78 0.769998C1136.88 -0.450002 1141.5 -0.190002 1146.59 1.32C1153.02 3.24 1160.19 7.13 1168 12.52Z" fill="#F9BA04"/>
<path d="M1145.18 10.61C1144.74 10.74 1144.3 10.87 1143.85 11.02C1144.3 10.87 1144.74 10.73 1145.18 10.61Z" fill="#F9BA04"/>
<path d="M733.799 420.39C733.489 420.81 733.189 421.27 732.879 421.76C732.829 421.82 732.799 421.88 732.759 421.95C732.579 422.23 732.399 422.52 732.229 422.82C732.049 423.13 731.869 423.44 731.689 423.77C730.989 425.04 730.269 426.46 729.539 428.01C729.349 428.4 729.159 428.81 728.979 429.21C728.389 430.5 727.789 431.87 727.169 433.3C726.839 434.1 726.499 434.92 726.149 435.75C724.949 438.67 723.709 441.82 722.429 445.1C722.159 445.77 721.899 446.45 721.629 447.14C720.989 448.8 720.339 450.49 719.679 452.19C719.089 453.71 718.499 455.25 717.889 456.79C716.769 459.64 715.629 462.51 714.469 465.35C713.909 466.72 713.339 468.08 712.769 469.44C712.529 470 712.289 470.57 712.039 471.13C711.629 472.07 711.219 473.01 710.809 473.94C710.559 474.5 710.309 475.06 710.059 475.61C709.739 476.32 709.409 477.03 709.079 477.74C708.699 478.54 708.319 479.34 707.949 480.12C707.819 480.38 707.689 480.64 707.569 480.9C707.119 481.81 706.669 482.7 706.219 483.57C705.959 484.08 705.699 484.58 705.429 485.07C705.169 485.56 704.909 486.05 704.639 486.53C704.319 487.11 703.999 487.68 703.669 488.24C703.279 488.93 702.879 489.6 702.469 490.26C702.259 490.61 702.039 490.96 701.809 491.31C701.539 491.74 701.269 492.16 700.989 492.57C700.859 492.77 700.719 492.98 700.579 493.18C700.309 493.58 700.029 493.97 699.749 494.36C699.619 494.55 699.479 494.74 699.329 494.93C698.749 495.73 698.149 496.48 697.549 497.19C697.339 497.43 697.139 497.67 696.929 497.9C694.179 500.98 691.339 503.06 688.399 503.77C678.919 506.07 678.769 537.57 681.069 568.98H172.539C220.429 552.7 288.819 444.34 294.399 432.84C300.239 420.81 322.239 385.76 331.859 379.23C341.479 372.7 358.659 351.05 364.849 353.12C371.029 355.18 387.179 327.69 395.429 320.13C403.679 312.57 406.079 305.7 408.489 298.14C410.889 290.58 434.949 315.66 440.439 322.88C445.939 330.09 485.119 305.7 488.549 293.84C491.989 281.99 517.759 259.99 525.319 259.31C532.879 258.62 553.499 214.29 557.619 197.45C561.739 180.62 572.049 178.9 584.419 155.53C584.619 155.15 584.819 154.79 585.029 154.42C585.229 154.06 585.439 153.71 585.649 153.36C585.839 153.03 586.039 152.72 586.239 152.41C586.689 151.7 587.149 151.03 587.619 150.38C587.849 150.06 588.079 149.76 588.309 149.46C588.589 149.09 588.869 148.74 589.149 148.4C589.529 147.95 589.899 147.51 590.279 147.09C590.379 146.98 590.469 146.88 590.559 146.78C590.589 146.75 590.609 146.72 590.629 146.7C590.819 146.5 591.009 146.3 591.189 146.12C591.289 146.01 591.389 145.91 591.489 145.81C591.689 145.61 591.889 145.41 592.089 145.21C592.599 144.71 593.119 144.24 593.639 143.79C593.839 143.62 594.039 143.46 594.239 143.29C594.459 143.11 594.679 142.93 594.899 142.75C595.459 142.3 596.019 141.88 596.589 141.49C596.849 141.3 597.119 141.12 597.379 140.94C597.649 140.76 597.909 140.59 598.179 140.42C598.439 140.26 598.699 140.09 598.969 139.93C599.399 139.67 599.819 139.43 600.249 139.19C600.679 138.96 601.099 138.73 601.529 138.52C601.899 138.33 602.269 138.15 602.639 137.98C603.009 137.81 603.379 137.65 603.739 137.49C604.009 137.37 604.269 137.27 604.529 137.16C604.719 137.08 604.909 137.01 605.089 136.94C605.249 136.87 605.399 136.82 605.549 136.76C605.729 136.69 605.889 136.63 606.069 136.57C606.319 136.47 606.579 136.38 606.829 136.3C607.069 136.22 607.299 136.14 607.529 136.07C607.799 135.98 608.069 135.9 608.329 135.82C608.629 135.73 608.919 135.65 609.209 135.57C609.499 135.49 609.789 135.41 610.069 135.34C610.209 135.31 610.359 135.27 610.499 135.23C610.639 135.19 610.779 135.16 610.919 135.13C611.419 135.01 611.899 134.91 612.369 134.82C612.609 134.77 612.839 134.73 613.069 134.69C613.309 134.64 613.529 134.6 613.759 134.57C614.019 134.52 614.269 134.48 614.519 134.45C614.829 134.4 615.139 134.36 615.429 134.32C615.849 134.27 616.259 134.22 616.639 134.18C616.879 134.16 617.109 134.14 617.339 134.12C617.379 134.11 617.419 134.11 617.459 134.11C617.699 134.09 617.929 134.08 618.149 134.06C618.669 134.03 619.129 134.01 619.549 134H619.559C619.879 134.15 620.199 134.3 620.519 134.46C646.279 147.03 667.139 194.88 693.899 218.15C696.329 220.26 698.889 221.88 701.579 223.05C702.389 223.42 703.219 223.73 704.059 224.01C704.549 224.17 705.039 224.32 705.529 224.45C706.079 224.6 706.629 224.73 707.189 224.85C707.789 225.69 708.389 226.52 708.989 227.35C711.289 230.52 713.609 233.65 715.949 236.74C716.399 238.81 716.699 241.03 716.779 243.37C717.179 255.86 716.169 254.9 716.539 269.71C716.589 271.76 716.669 274.11 716.779 276.85C717.289 289.43 716.359 294.39 716.909 297.53C717.319 300 718.639 301.35 722.279 304.37C722.459 304.52 722.629 304.67 722.799 304.84C729.809 311.72 728.799 333.12 728.579 336.62C728.579 336.7 728.569 336.77 728.569 336.83C728.549 336.92 728.549 337 728.549 337.09C728.519 337.37 728.509 337.66 728.489 337.95C728.489 338 728.479 338.06 728.479 338.12C728.479 338.18 728.469 338.25 728.469 338.33C728.449 338.48 728.439 338.63 728.439 338.78C728.439 338.96 728.419 339.14 728.419 339.32C728.419 339.36 728.419 339.4 728.419 339.45C728.419 339.85 728.399 340.25 728.389 340.66C728.369 341.59 728.379 342.55 728.389 343.51C728.399 344.08 728.419 344.66 728.439 345.25C728.439 345.44 728.439 345.63 728.459 345.82C728.469 346.02 728.479 346.23 728.489 346.44C728.489 346.53 728.489 346.63 728.489 346.73C728.489 346.74 728.489 346.75 728.499 346.77C728.509 347.06 728.519 347.35 728.539 347.65C728.539 347.67 728.539 347.69 728.539 347.7C728.539 347.86 728.559 348.03 728.569 348.19C728.609 348.7 728.639 349.2 728.689 349.72V349.83C728.739 350.47 728.799 351.12 728.869 351.77C728.929 352.46 728.999 353.16 729.079 353.86V353.89C729.149 354.57 729.229 355.27 729.309 355.97C729.309 355.97 729.309 355.973 729.309 355.98C729.399 356.68 729.489 357.39 729.579 358.1C729.599 358.28 729.629 358.46 729.649 358.64C729.759 359.45 729.869 360.25 729.979 361.07C730.099 361.88 730.219 362.7 730.339 363.51C730.589 365.15 730.839 366.8 731.109 368.45C731.129 368.56 731.149 368.67 731.169 368.79C731.279 369.5 731.399 370.21 731.509 370.92C731.649 371.75 731.789 372.57 731.929 373.4C732.209 375.05 732.489 376.69 732.769 378.33C732.799 378.49 732.829 378.66 732.849 378.82C733.019 379.77 733.179 380.71 733.329 381.64C733.889 384.94 734.419 388.17 734.879 391.29C735.079 392.67 735.269 394.03 735.449 395.37C735.539 396.09 735.629 396.8 735.709 397.5C735.779 398.1 735.849 398.7 735.909 399.29V399.32C735.979 399.95 736.039 400.58 736.089 401.19C736.129 401.62 736.169 402.04 736.189 402.46C736.229 402.88 736.259 403.3 736.279 403.71C736.329 404.35 736.359 404.98 736.379 405.6C736.399 405.99 736.409 406.38 736.419 406.76C736.569 412.7 735.869 417.48 733.759 420.39H733.799Z" fill="#4C25EF"/>
<path d="M1141.1 12.02C1141.1 12.02 1141 12.07 1140.94 12.09C1140.94 12.09 1141.05 12.04 1141.1 12.02Z" fill="#4C25EF"/>
<path d="M1571.61 43.2V402.84C1514.5 372.98 1404.38 311.91 1383.18 274.56C1382.67 273.65 1382.15 272.74 1381.63 271.82C1365.81 243.42 1351.02 209.38 1330.83 176.15C1346.85 171.17 1363.11 162.94 1372.17 149.36C1394.19 116.34 1438.21 94.33 1457.47 90.2C1474.19 86.62 1529.51 66.45 1571.61 43.2Z" fill="#F9BA04"/>
<path d="M728.48 338.33C728.46 338.7 728.44 339.07 728.43 339.45C728.43 339.4 728.43 339.36 728.43 339.32C728.43 339.14 728.44 338.96 728.45 338.78C728.45 338.63 728.46 338.48 728.48 338.33Z" fill="#4C25EF"/>
<path d="M728.461 345.25C728.481 345.64 728.491 346.04 728.511 346.44C728.511 346.23 728.491 346.02 728.481 345.82C728.481 345.63 728.481 345.44 728.461 345.25Z" fill="#4C25EF"/>
<path d="M728.52 346.73C728.52 346.63 728.52 346.53 728.52 346.44C728.52 346.55 728.519 346.66 728.539 346.77C728.559 347.08 728.57 347.39 728.59 347.7C728.59 347.69 728.59 347.67 728.59 347.65C728.58 347.34 728.559 347.03 728.539 346.73H728.52Z" fill="#4C25EF"/>
<path d="M729.12 353.86C728.96 352.5 728.84 351.16 728.73 349.83V349.74C728.78 350.41 728.84 351.09 728.91 351.77C728.97 352.46 729.04 353.16 729.12 353.86Z" fill="#4C25EF"/>
<path d="M731.551 370.92C731.441 370.21 731.321 369.5 731.211 368.79C731.461 370.33 731.711 371.86 731.971 373.4C731.831 372.57 731.691 371.75 731.551 370.92Z" fill="#4C25EF"/>
<path d="M1571.61 402.84V568.98H681.07C678.77 537.57 678.92 506.07 688.4 503.77C691.34 503.06 694.18 500.98 696.93 497.9C697.14 497.67 697.34 497.43 697.55 497.19C698.15 496.48 698.75 495.73 699.33 494.93C699.48 494.74 699.62 494.55 699.75 494.36C700.03 493.97 700.31 493.58 700.58 493.18C700.72 492.98 700.86 492.77 700.99 492.57C701.27 492.16 701.54 491.74 701.81 491.31C702.04 490.96 702.26 490.61 702.47 490.26C702.88 489.6 703.28 488.93 703.67 488.24C704 487.68 704.32 487.11 704.64 486.53C704.91 486.05 705.17 485.56 705.43 485.07C705.7 484.58 705.96 484.08 706.22 483.57C706.67 482.7 707.12 481.81 707.57 480.9C707.69 480.64 707.82 480.38 707.95 480.12C708.33 479.34 708.71 478.54 709.08 477.74C709.41 477.03 709.74 476.32 710.06 475.61C710.31 475.06 710.56 474.5 710.81 473.94C711.22 473.01 711.63 472.07 712.04 471.13C712.29 470.57 712.53 470 712.77 469.44C713.34 468.08 713.91 466.72 714.47 465.35C725 481.42 741.55 443.78 749.8 425.44C758.06 407.09 783.74 383.24 810.34 370.4C836.94 357.56 835.1 352.06 843.36 336.62C851.61 321.18 859.87 303.45 867.21 299.9C874.54 296.36 876.38 304.37 905.73 289.1C935.08 273.83 923.15 242.91 937.6 217.23C952.05 191.55 975.44 208.06 1038.72 142.02C1102.01 75.98 1084.58 82.4 1106.64 43.42C1108.23 41.13 1109.81 38.98 1111.38 36.97C1111.77 36.46 1112.16 35.97 1112.54 35.49C1115.16 32.21 1117.73 29.32 1120.24 26.78L1120.81 26.21C1121.51 25.51 1122.2 24.84 1122.89 24.2C1123.2 23.9 1123.52 23.62 1123.83 23.34C1124.95 22.32 1126.06 21.37 1127.15 20.49C1127.57 20.15 1127.98 19.83 1128.39 19.51C1128.78 19.21 1129.17 18.91 1129.56 18.63C1129.98 18.31 1130.41 18 1130.84 17.7C1131.04 17.56 1131.25 17.43 1131.45 17.29C1131.9 16.97 1132.36 16.67 1132.82 16.38C1133.13 16.18 1133.43 15.99 1133.73 15.8C1136.23 14.25 1138.64 13.03 1140.94 12.09C1141 12.07 1141.05 12.05 1141.1 12.02C1141.33 11.92 1141.57 11.83 1141.8 11.75C1142.03 11.66 1142.26 11.57 1142.49 11.49C1142.72 11.4 1142.94 11.32 1143.17 11.25C1143.4 11.17 1143.62 11.09 1143.85 11.02C1144.3 10.87 1144.74 10.74 1145.18 10.61C1145.62 10.48 1146.04 10.37 1146.47 10.26C1146.68 10.2 1146.9 10.15 1147.11 10.11C1147.54 10.01 1147.95 9.92 1148.37 9.84C1148.78 9.76 1149.19 9.68 1149.59 9.63C1149.86 9.59 1150.12 9.55 1150.38 9.51C1150.64 9.47 1150.9 9.44 1151.15 9.42C1151.43 9.38 1151.71 9.36 1151.98 9.34C1152.15 9.32 1152.33 9.31 1152.5 9.3C1153.8 9.2 1155.04 9.2 1156.2 9.26C1156.37 9.26 1156.55 9.28 1156.72 9.29C1157.05 9.31 1157.37 9.34 1157.69 9.37C1158.64 9.46 1159.53 9.59 1160.36 9.76C1160.55 9.79 1160.73 9.83 1160.91 9.87C1161.2 9.93 1161.49 10 1161.76 10.06C1162.25 10.19 1162.72 10.32 1163.16 10.45C1164.04 10.72 1164.82 11 1165.49 11.28C1165.6 11.33 1165.71 11.37 1165.81 11.42C1166.86 11.87 1167.6 12.28 1168 12.52C1168.04 12.54 1168.07 12.56 1168.11 12.59C1168.14 12.61 1168.17 12.63 1168.2 12.65C1168.29 12.71 1168.33 12.74 1168.33 12.74C1195.84 31.76 1231.29 68.97 1270.36 102.58C1295.89 124.55 1315.01 150.1 1330.83 176.15C1331.49 177.24 1332.15 178.33 1332.8 179.42C1333.39 180.41 1333.97 181.4 1334.55 182.39C1336.48 185.68 1338.36 188.98 1340.2 192.27C1340.95 193.61 1341.7 194.96 1342.43 196.3C1342.88 197.12 1343.33 197.94 1343.77 198.76C1344.21 199.55 1344.63 200.34 1345.06 201.13C1346.36 203.54 1347.64 205.95 1348.9 208.35C1349.46 209.42 1350.01 210.48 1350.57 211.55C1351.68 213.68 1352.77 215.8 1353.85 217.91C1354.94 220.03 1356.01 222.13 1357.07 224.23C1363.52 236.94 1369.61 249.3 1375.73 260.92C1377.21 263.7 1378.68 266.45 1380.15 269.14C1380.65 270.04 1381.14 270.93 1381.63 271.82C1382.15 272.74 1382.67 273.65 1383.18 274.56C1404.38 311.91 1514.5 372.98 1571.61 402.84Z" fill="#4C25EF"/>
<path d="M733.8 420.39C733.49 420.81 733.19 421.27 732.88 421.76C732.83 421.82 732.8 421.88 732.76 421.95C732.58 422.23 732.4 422.52 732.23 422.82C732.05 423.13 731.87 423.44 731.69 423.77C730.99 425.04 730.27 426.46 729.54 428.01C729.35 428.4 729.16 428.81 728.98 429.21C728.39 430.5 727.79 431.87 727.17 433.3C726.84 434.1 726.5 434.92 726.15 435.75C724.95 438.67 723.71 441.82 722.43 445.1C722.16 445.77 721.9 446.45 721.63 447.14C720.99 448.8 720.34 450.49 719.68 452.19C719.09 453.71 718.5 455.25 717.89 456.79C716.77 459.64 715.63 462.51 714.47 465.35C711.56 452.32 708.84 436.14 707.18 431.96C704.18 424.36 688.39 410.3 689.52 392.81C690.64 375.33 653.42 347.96 661.7 337.7C669.97 327.44 653.42 306.16 648.16 298.62C642.9 291.08 627.11 257.9 624.49 241.94C621.85 225.97 644.78 223.69 645.16 211.14C645.54 198.61 635.01 188.08 628.52 161.23C622.03 134.37 608.34 137.02 608.34 137.02C612.88 135.64 617.06 134.88 620.53 134.46C646.29 147.03 667.15 194.88 693.91 218.15C696.34 220.26 698.9 221.88 701.59 223.05C702.4 223.42 703.23 223.73 704.07 224.01C704.56 224.17 705.05 224.32 705.54 224.45C706.09 224.6 706.64 224.73 707.2 224.85C707.8 225.69 708.4 226.52 709 227.35C711.3 230.52 713.62 233.65 715.96 236.74C716.41 238.81 716.71 241.03 716.79 243.37C717.19 255.86 716.18 254.9 716.55 269.71C716.6 271.76 716.68 274.11 716.79 276.85C717.3 289.43 716.37 294.39 716.92 297.53C717.33 300 718.65 301.35 722.29 304.37C722.47 304.52 722.64 304.67 722.81 304.84C729.82 311.72 728.81 333.12 728.59 336.62C728.59 336.7 728.58 336.77 728.58 336.83C728.56 336.92 728.56 337 728.56 337.09C728.53 337.37 728.52 337.66 728.5 337.95C728.5 338 728.49 338.06 728.49 338.12C728.49 338.18 728.48 338.25 728.48 338.33C728.46 338.7 728.44 339.07 728.43 339.45C728.43 339.85 728.41 340.25 728.4 340.66C728.38 341.59 728.39 342.55 728.4 343.51C728.41 344.08 728.43 344.66 728.45 345.25C728.47 345.64 728.48 346.04 728.5 346.44C728.5 346.55 728.5 346.66 728.52 346.77C728.54 347.08 728.55 347.39 728.57 347.7C728.58 347.86 728.59 348.03 728.6 348.19C728.64 348.7 728.67 349.2 728.72 349.72V349.74C728.77 350.41 728.83 351.09 728.9 351.77C728.96 352.46 729.03 353.16 729.11 353.86V353.89C729.18 354.57 729.26 355.27 729.34 355.97C729.34 355.97 729.34 355.973 729.34 355.98C729.43 356.68 729.52 357.39 729.61 358.1C729.63 358.28 729.66 358.46 729.68 358.64C729.79 359.45 729.9 360.25 730.01 361.07C730.13 361.88 730.25 362.7 730.37 363.51C730.62 365.15 730.87 366.8 731.14 368.45C731.16 368.56 731.18 368.67 731.2 368.79C731.45 370.33 731.7 371.86 731.96 373.4C732.24 375.05 732.52 376.69 732.8 378.33C732.83 378.49 732.86 378.66 732.88 378.82C733.05 379.77 733.21 380.71 733.36 381.64C733.92 384.94 734.45 388.17 734.91 391.29C735.12 392.67 735.31 394.03 735.48 395.37C735.57 396.09 735.66 396.8 735.74 397.5C735.81 398.1 735.88 398.7 735.94 399.29V399.32C736.01 399.95 736.07 400.58 736.12 401.19C736.16 401.62 736.2 402.04 736.22 402.46C736.26 402.88 736.29 403.3 736.31 403.71C736.36 404.35 736.39 404.98 736.41 405.6C736.43 405.99 736.44 406.38 736.45 406.76C736.6 412.7 735.9 417.48 733.79 420.39H733.8Z" fill="#3300BE"/>
<path d="M1571.61 51.5V402.84C1514.5 372.98 1404.38 311.91 1383.18 274.56C1382.67 273.65 1382.15 272.74 1381.63 271.82C1389.17 250.59 1412.85 232.11 1414.31 210.35C1416.14 182.84 1417.44 154.34 1431.28 186.96C1437.7 202.1 1454.68 208.06 1465.68 179.63C1476.69 151.19 1471.65 159.65 1489.99 134.23C1508.34 108.81 1501.45 154.4 1528.05 124.14C1537.57 113.31 1565.28 63.94 1571.61 51.51V51.5Z" fill="#4C25EF"/>
<path d="M1571.61 402.84V568.98H1412C1406.73 551.34 1397.45 520.51 1395.51 515.32C1392.76 507.98 1402.85 494.22 1401.01 470.8C1399.18 447.37 1382.67 428.19 1375.33 409.84C1368 391.5 1370.75 385.99 1357.91 392.42C1345.07 398.84 1325.8 381.41 1321.22 350.18C1316.63 318.95 1308.38 325.46 1300.12 332.8C1291.87 340.13 1265.27 347.36 1262.52 344.56C1259.77 341.76 1235.68 262.76 1243.94 242.91C1252.19 223.06 1203.82 202.56 1205.65 183.29C1207.49 164.03 1210.24 165.87 1210.24 158.53C1210.24 151.19 1188.22 134.68 1186.39 118.17C1184.56 101.66 1198.31 89.74 1196.48 75.06C1194.65 60.39 1140.94 12.09 1140.94 12.09C1140.94 12.09 1141.05 12.04 1141.1 12.02C1141.33 11.92 1141.57 11.83 1141.8 11.75C1142.03 11.66 1142.26 11.57 1142.49 11.49C1142.72 11.4 1142.94 11.32 1143.17 11.25C1143.4 11.17 1143.62 11.09 1143.85 11.02C1144.3 10.87 1144.74 10.73 1145.18 10.61C1145.62 10.48 1146.04 10.37 1146.47 10.26C1146.68 10.2 1146.9 10.15 1147.11 10.11C1147.54 10.01 1147.95 9.92 1148.37 9.84C1148.78 9.76 1149.19 9.68 1149.59 9.63C1149.86 9.59 1150.12 9.55 1150.38 9.51C1150.64 9.47 1150.9 9.44 1151.15 9.42C1151.43 9.38 1151.71 9.36 1151.98 9.34C1152.15 9.32 1152.33 9.31 1152.5 9.3C1153.8 9.2 1155.04 9.2 1156.2 9.26C1156.37 9.26 1156.55 9.28 1156.72 9.29C1157.05 9.31 1157.37 9.34 1157.69 9.37C1158.64 9.46 1159.53 9.59 1160.36 9.76C1160.55 9.79 1160.73 9.83 1160.91 9.87C1161.2 9.93 1161.49 10 1161.76 10.06C1162.25 10.19 1162.72 10.32 1163.16 10.45C1164.04 10.72 1164.82 11 1165.49 11.28C1165.6 11.33 1165.71 11.37 1165.81 11.42C1166.86 11.87 1167.6 12.28 1168 12.52C1168.04 12.54 1168.07 12.56 1168.11 12.59C1168.14 12.61 1168.17 12.63 1168.2 12.65C1168.29 12.71 1168.33 12.74 1168.33 12.74C1195.84 31.76 1231.29 68.97 1270.36 102.58C1295.89 124.55 1315.01 150.1 1330.83 176.15C1331.49 177.24 1332.15 178.33 1332.8 179.42C1333.39 180.41 1333.97 181.4 1334.55 182.39C1336.48 185.68 1338.36 188.98 1340.2 192.27C1340.95 193.61 1341.7 194.96 1342.43 196.3C1342.88 197.12 1343.33 197.94 1343.77 198.76C1344.21 199.55 1344.63 200.34 1345.06 201.13C1346.36 203.54 1347.64 205.95 1348.9 208.35C1349.46 209.42 1350.01 210.48 1350.57 211.55C1351.68 213.68 1352.77 215.8 1353.85 217.91C1354.94 220.03 1356.01 222.13 1357.07 224.23C1363.52 236.94 1369.61 249.3 1375.73 260.92C1377.21 263.7 1378.68 266.45 1380.15 269.14C1380.65 270.04 1381.14 270.93 1381.63 271.82C1382.15 272.74 1382.67 273.65 1383.18 274.56C1404.38 311.91 1514.5 372.98 1571.61 402.84Z" fill="#3300BE"/>
</g>
<defs>
<clipPath id="clip0_609_2109">
<rect width="1632.61" height="571.19" fill="white" transform="translate(-61)"/>
</clipPath>
</defs>
</svg>
