<svg width="196" height="109" viewBox="0 0 196 109" fill="none" xmlns="http://www.w3.org/2000/svg">
<path d="M1.26953 0.5H11.4872C12.6044 0.5 13.6519 0.677586 14.6263 1.02928C15.6008 1.38097 16.4464 1.86846 17.1633 2.48828C17.8803 3.10809 18.4475 3.83236 18.8617 4.6611C19.2758 5.48984 19.4811 6.37778 19.4811 7.32491C19.4811 8.71426 19.147 9.8738 18.4788 10.8105C17.8106 11.7472 16.9754 12.461 15.9801 12.945V13.2375C17.3165 13.725 18.3953 14.4841 19.2097 15.5183C20.024 16.5525 20.4312 17.8374 20.4312 19.3695C20.4312 20.4907 20.205 21.4936 19.756 22.3815C19.3071 23.2694 18.6911 24.032 17.9116 24.6623C17.132 25.296 16.2272 25.7835 15.1936 26.1213C14.16 26.4625 13.0463 26.6331 11.8561 26.6331H1.27301V0.5H1.26953ZM11.1218 11.1622C12.2633 11.1622 13.1473 10.8523 13.7667 10.2325C14.3862 9.61264 14.6959 8.87444 14.6959 8.02481C14.6959 7.17518 14.3931 6.44394 13.7841 5.83457C13.1751 5.2252 12.3364 4.92226 11.2645 4.92226H6.19045V11.1657H11.1183L11.1218 11.1622ZM11.6682 22.1168C12.9106 22.1168 13.8572 21.8069 14.515 21.1871C15.1727 20.5673 15.4998 19.7699 15.4998 18.7949C15.4998 17.8199 15.1657 17.0121 14.4976 16.3679C13.8294 15.7237 12.8375 15.3999 11.522 15.3999H6.19393V22.1168H11.6682Z" fill="white"/>
<path d="M34.6659 24.7457H34.3735C33.8132 25.4282 33.1381 26.0132 32.3481 26.4972C31.5581 26.9847 30.5419 27.2284 29.2995 27.2284C28.3738 27.2284 27.5037 27.0752 26.6894 26.7723C25.875 26.4693 25.1616 26.048 24.5561 25.5117C23.947 24.9755 23.4737 24.3313 23.1327 23.5757C22.7916 22.8201 22.6211 21.9948 22.6211 21.093C22.6211 20.1911 22.8021 19.3345 23.1675 18.5928C23.5329 17.8511 24.0445 17.2104 24.6987 16.6742C25.3565 16.1379 26.1291 15.7305 27.0165 15.452C27.904 15.1734 28.8714 15.0306 29.919 15.0306C31.0883 15.0306 32.0488 15.1212 32.8005 15.3057C33.5557 15.4868 34.1752 15.6783 34.6624 15.8733V15.3266C34.6624 14.376 34.2865 13.5925 33.5313 12.9727C32.7762 12.3529 31.84 12.043 30.7229 12.043C29.0698 12.043 27.6708 12.7359 26.5258 14.1253L23.0596 11.7505C24.9563 9.36526 27.549 8.1709 30.8342 8.1709C33.6079 8.1709 35.7238 8.82205 37.1855 10.1244C38.6437 11.4267 39.3745 13.3557 39.3745 15.9116V26.6469H34.6659V24.7492V24.7457ZM34.6659 19.3763C34.1056 19.1082 33.5279 18.8958 32.9328 18.7356C32.3377 18.5789 31.6869 18.4988 30.9804 18.4988C29.8354 18.4988 28.955 18.7495 28.3355 19.2474C27.716 19.7454 27.4063 20.3617 27.4063 21.093C27.4063 21.8242 27.7056 22.4057 28.3007 22.8444C28.8958 23.2832 29.5849 23.5026 30.3609 23.5026C30.9943 23.5026 31.5755 23.3877 32.1114 23.1544C32.6474 22.9245 33.1033 22.6181 33.4791 22.242C33.855 21.866 34.1473 21.4272 34.3561 20.9293C34.5615 20.4314 34.6659 19.9125 34.6659 19.3763Z" fill="white"/>
<path d="M43.1758 8.75394H47.6652V11.0904H47.9575C48.5178 10.2129 49.2765 9.50955 50.237 8.97331C51.1975 8.43707 52.2624 8.16895 53.4318 8.16895C54.7925 8.16895 55.9375 8.48582 56.8632 9.11956C57.7889 9.7533 58.4432 10.5333 58.8329 11.456C59.3932 10.5542 60.1832 9.78116 61.2064 9.13697C62.2296 8.49278 63.4685 8.16895 64.9302 8.16895C66.0264 8.16895 66.973 8.34653 67.7769 8.69823C68.5808 9.04992 69.242 9.54437 69.7675 10.1781C70.2896 10.8119 70.6863 11.571 70.9543 12.4589C71.2222 13.3468 71.3545 14.3148 71.3545 15.363V26.6449H66.5728V16.237C66.5728 13.803 65.574 12.5842 63.5799 12.5842C62.9465 12.5842 62.3862 12.7235 61.9024 13.0056C61.4152 13.2841 61.008 13.6637 60.6809 14.1373C60.3538 14.6108 60.0962 15.1784 59.9153 15.8365C59.7343 16.4946 59.6403 17.2015 59.6403 17.9536V26.6449H54.8586V16.237C54.8586 13.803 53.8111 12.5842 51.7195 12.5842C51.1105 12.5842 50.5746 12.7235 50.1152 13.0056C49.6523 13.2841 49.2626 13.6637 48.9459 14.1373C48.6292 14.6108 48.3856 15.1784 48.215 15.8365C48.0445 16.4946 47.961 17.2015 47.961 17.9536V26.6449H43.1793V8.75394H43.1758Z" fill="white"/>
<path d="M92.2201 22.3361C91.3918 23.7951 90.2782 24.979 88.8826 25.8774C87.4836 26.7792 85.7749 27.2284 83.7564 27.2284C82.3922 27.2284 81.1359 26.9916 79.9804 26.5181C78.825 26.0445 77.8228 25.3794 76.9701 24.5263C76.1175 23.6732 75.4563 22.6703 74.9795 21.5143C74.5062 20.3582 74.2695 19.0873 74.2695 17.6979C74.2695 16.4095 74.4992 15.1838 74.9621 14.0278C75.4249 12.8717 76.0688 11.8619 76.897 10.9984C77.7253 10.1348 78.7032 9.44535 79.8343 8.93696C80.9653 8.42509 82.2112 8.1709 83.5754 8.1709C85.0092 8.1709 86.2865 8.40768 87.4071 8.88125C88.5242 9.35481 89.4638 10.0129 90.2155 10.8521C90.9707 11.6913 91.5415 12.6837 91.9313 13.8293C92.321 14.9749 92.5159 16.2145 92.5159 17.5551V17.9939C92.4916 18.1401 92.4811 18.2725 92.4811 18.3943C92.4567 18.5162 92.4463 18.6485 92.4463 18.7948H78.9816C79.0791 19.526 79.2775 20.1528 79.5837 20.6751C79.8865 21.1974 80.2658 21.6362 80.7148 21.9879C81.1637 22.3395 81.6579 22.5972 82.1938 22.7539C82.7298 22.9141 83.2761 22.9907 83.8364 22.9907C84.9327 22.9907 85.8375 22.74 86.5544 22.242C87.2713 21.7441 87.8386 21.1173 88.2527 20.3617L92.2305 22.3326L92.2201 22.3361ZM87.8769 15.3997C87.8525 15.0829 87.7481 14.7312 87.5672 14.3412C87.3862 13.9512 87.1182 13.5856 86.7632 13.2443C86.4117 12.9031 85.9732 12.6245 85.4477 12.4051C84.9257 12.1858 84.2993 12.0778 83.5685 12.0778C82.5453 12.0778 81.6474 12.3703 80.8679 12.9553C80.0883 13.5403 79.5419 14.3551 79.2253 15.4032H87.8734L87.8769 15.3997Z" fill="white"/>
<path d="M100.056 11.0879H100.348C100.908 10.1861 101.66 9.47571 102.61 8.95339C103.56 8.43108 104.643 8.16992 105.857 8.16992C106.974 8.16992 107.963 8.35099 108.812 8.71661C109.664 9.08223 110.364 9.59758 110.91 10.2696C111.457 10.9382 111.871 11.7426 112.153 12.6792C112.431 13.6159 112.574 14.6571 112.574 15.8027V26.6459H107.792V16.3842C107.792 15.0958 107.507 14.1382 106.936 13.5184C106.365 12.8986 105.53 12.5887 104.437 12.5887C103.78 12.5887 103.202 12.728 102.704 13.01C102.207 13.2886 101.778 13.6682 101.427 14.1417C101.075 14.6153 100.808 15.1759 100.623 15.8201C100.442 16.4643 100.348 17.1537 100.348 17.8815V26.6459H95.5664V8.75491H100.056V11.0914V11.0879Z" fill="white"/>
<path d="M129.846 24.488H129.553C129.115 25.2436 128.433 25.8878 127.51 26.4241C126.585 26.9603 125.443 27.2284 124.079 27.2284C122.934 27.2284 121.848 26.9917 120.811 26.5181C119.778 26.0445 118.866 25.3864 118.076 24.5472C117.286 23.708 116.659 22.7017 116.196 21.5352C115.734 20.3652 115.504 19.0873 115.504 17.7014C115.504 16.3156 115.734 15.0376 116.196 13.8676C116.659 12.6977 117.286 11.6948 118.076 10.8556C118.866 10.0164 119.778 9.35833 120.811 8.88476C121.845 8.41119 122.934 8.17441 124.079 8.17441C125.44 8.17441 126.585 8.44253 127.51 8.97878C128.436 9.51502 129.115 10.1592 129.553 10.9148H129.846L129.553 8.35896V0.506836H134.335V26.6504H129.846V24.495V24.488ZM125.064 22.8097C125.697 22.8097 126.299 22.6948 126.87 22.4615C127.441 22.2316 127.945 21.8939 128.384 21.4586C128.822 21.0233 129.174 20.4836 129.442 19.8534C129.71 19.2196 129.842 18.5023 129.842 17.6979C129.842 16.8936 129.706 16.1763 129.442 15.5425C129.174 14.9088 128.822 14.3725 128.384 13.9373C127.945 13.502 127.441 13.1643 126.87 12.9344C126.299 12.7046 125.697 12.5862 125.064 12.5862C124.43 12.5862 123.828 12.7081 123.258 12.9518C122.687 13.1956 122.182 13.5368 121.744 13.9756C121.305 14.4143 120.954 14.9506 120.686 15.5808C120.418 16.2146 120.286 16.9214 120.286 17.6979C120.286 18.4745 120.418 19.1848 120.686 19.8151C120.954 20.4488 121.305 20.985 121.744 21.4203C122.182 21.859 122.687 22.2003 123.258 22.444C123.828 22.6878 124.43 22.8097 125.064 22.8097Z" fill="white"/>
<path d="M149.267 24.7457H148.975C148.415 25.4282 147.74 26.0132 146.95 26.4972C146.16 26.9847 145.143 27.2284 143.901 27.2284C142.975 27.2284 142.105 27.0752 141.291 26.7723C140.477 26.4693 139.763 26.048 139.158 25.5117C138.549 24.9755 138.075 24.3313 137.734 23.5757C137.393 22.8201 137.223 21.9948 137.223 21.093C137.223 20.1911 137.404 19.3345 137.769 18.5928C138.134 17.8511 138.646 17.2104 139.3 16.6742C139.958 16.1379 140.731 15.7305 141.618 15.452C142.506 15.1734 143.473 15.0306 144.521 15.0306C145.69 15.0306 146.65 15.1212 147.406 15.3057C148.161 15.4868 148.78 15.6783 149.267 15.8733V15.3266C149.267 14.376 148.892 13.5925 148.136 12.9727C147.381 12.3529 146.445 12.043 145.328 12.043C143.671 12.043 142.276 12.7359 141.131 14.1253L137.665 11.7505C139.561 9.36526 142.154 8.1709 145.439 8.1709C148.213 8.1709 150.329 8.82205 151.791 10.1244C153.249 11.4267 153.98 13.3557 153.98 15.9116V26.6469H149.271V24.7492L149.267 24.7457ZM149.267 19.3763C148.707 19.1082 148.129 18.8958 147.534 18.7356C146.939 18.5789 146.288 18.4988 145.582 18.4988C144.437 18.4988 143.557 18.7495 142.937 19.2474C142.318 19.7454 142.008 20.3617 142.008 21.093C142.008 21.8242 142.304 22.4057 142.902 22.8444C143.497 23.2832 144.186 23.5026 144.962 23.5026C145.596 23.5026 146.177 23.3877 146.713 23.1544C147.249 22.9245 147.705 22.6181 148.081 22.242C148.457 21.866 148.749 21.4272 148.958 20.9293C149.163 20.4314 149.267 19.9125 149.267 19.3763Z" fill="white"/>
<path d="M24.1209 59.33C22.8297 60.8865 21.3124 62.0739 19.5584 62.8887C17.8079 63.7035 15.8486 64.1109 13.6839 64.1109C11.7385 64.1109 9.93232 63.7592 8.26534 63.0524C6.59835 62.3455 5.15757 61.3844 3.93952 60.1692C2.72147 58.9539 1.76095 57.5089 1.05796 55.8409C0.351495 54.173 0 52.3797 0 50.4541C0 48.5285 0.351495 46.7353 1.05796 45.0673C1.76443 43.3994 2.72495 41.9578 3.93952 40.7391C5.15409 39.5204 6.59835 38.5593 8.26534 37.8559C9.93232 37.1491 11.7385 36.7974 13.6839 36.7974C15.7755 36.7974 17.62 37.163 19.2139 37.8942C20.8078 38.6255 22.2242 39.684 23.4666 41.0699L20.0004 44.4301C19.2208 43.5317 18.3264 42.8109 17.3172 42.2747C16.3079 41.7385 15.1108 41.4703 13.7222 41.4703C12.5041 41.4703 11.3627 41.6827 10.2908 42.1076C9.2189 42.5324 8.2897 43.1348 7.49971 43.9148C6.70971 44.6948 6.08329 45.6384 5.62043 46.7457C5.15757 47.853 4.92788 49.0892 4.92788 50.4507C4.92788 51.8122 5.15757 53.0483 5.62043 54.1556C6.08329 55.2629 6.70971 56.2066 7.49971 56.9865C8.2897 57.7665 9.2189 58.3689 10.2908 58.7938C11.3627 59.2186 12.5041 59.4345 13.7222 59.4345C15.1804 59.4345 16.4785 59.135 17.6095 58.5396C18.7406 57.9441 19.7428 57.098 20.6198 56.0011L24.1243 59.323L24.1209 59.33Z" fill="white"/>
<path d="M35.2252 45.0532C36.6103 45.0532 37.884 45.29 39.0394 45.7636C40.1948 46.2371 41.1936 46.8953 42.0323 47.7344C42.871 48.5736 43.5288 49.5799 44.0021 50.7465C44.4754 51.9164 44.712 53.1944 44.712 54.5802C44.712 55.9661 44.4754 57.244 44.0021 58.414C43.5288 59.584 42.871 60.5869 42.0323 61.426C41.1936 62.2652 40.1948 62.9233 39.0394 63.3969C37.884 63.8705 36.6137 64.1073 35.2252 64.1073C33.8366 64.1073 32.5663 63.8705 31.4109 63.3969C30.2555 62.9233 29.2567 62.2652 28.418 61.426C27.5793 60.5869 26.9215 59.5805 26.4482 58.414C25.9749 57.2475 25.7383 55.9661 25.7383 54.5802C25.7383 53.1944 25.9749 51.913 26.4482 50.7465C26.9215 49.5765 27.5793 48.5736 28.418 47.7344C29.2567 46.8953 30.2555 46.2371 31.4109 45.7636C32.5663 45.29 33.8366 45.0532 35.2252 45.0532ZM35.2252 59.6954C35.8342 59.6954 36.4223 59.5805 36.9965 59.3472C37.5673 59.1174 38.0719 58.7796 38.5104 58.3444C38.9489 57.9056 39.2934 57.3694 39.551 56.7391C39.805 56.1054 39.9338 55.3881 39.9338 54.5837C39.9338 53.7794 39.805 53.062 39.551 52.4283C39.2969 51.7946 38.9489 51.2583 38.5104 50.8231C38.0719 50.3843 37.5673 50.05 36.9965 49.8202C36.4258 49.5904 35.8342 49.472 35.2252 49.472C34.6161 49.472 33.9967 49.5869 33.4364 49.8202C32.8761 50.05 32.3784 50.3878 31.9399 50.8231C31.5014 51.2618 31.1569 51.798 30.8993 52.4283C30.6453 53.062 30.5165 53.7794 30.5165 54.5837C30.5165 55.3881 30.6453 56.1054 30.8993 56.7391C31.1534 57.3729 31.5014 57.9091 31.9399 58.3444C32.3784 58.7796 32.8761 59.1174 33.4364 59.3472C33.9967 59.5805 34.5918 59.6954 35.2252 59.6954Z" fill="white"/>
<path d="M47.4062 45.6382H51.8956V47.9747H52.188C52.7483 47.0972 53.5069 46.3938 54.4675 45.8576C55.428 45.3213 56.4929 45.0532 57.6622 45.0532C59.023 45.0532 60.1679 45.3701 61.0937 46.0038C62.0194 46.6376 62.6736 47.4141 63.0634 48.3403C63.6237 47.4385 64.4137 46.6654 65.4369 46.0212C66.46 45.3771 67.699 45.0532 69.1606 45.0532C70.2569 45.0532 71.2035 45.2308 72.0074 45.5825C72.8113 45.9342 73.4725 46.4287 73.998 47.0624C74.52 47.6961 74.9168 48.4552 75.1847 49.3432C75.4527 50.2311 75.585 51.1991 75.585 52.2472V63.5292H70.8033V53.1212C70.8033 50.6873 69.8044 49.4685 67.8103 49.4685C67.1769 49.4685 66.6166 49.6078 66.1329 49.8899C65.6457 50.1684 65.2385 50.548 64.9114 51.0215C64.5842 51.4951 64.3267 52.0627 64.1457 52.7208C63.9648 53.3789 63.8708 54.0858 63.8708 54.8379V63.5292H59.0891V53.1212C59.0891 50.6873 58.0416 49.4685 55.95 49.4685C55.341 49.4685 54.805 49.6078 54.3457 49.8899C53.8828 50.1684 53.493 50.548 53.1763 51.0215C52.8596 51.4951 52.616 52.0627 52.4455 52.7208C52.275 53.3789 52.1914 54.0858 52.1914 54.8379V63.5292H47.4097V45.6382H47.4062Z" fill="white"/>
<path d="M79.5156 45.6382H84.005V47.9747H84.2973C84.8576 47.0972 85.6163 46.3938 86.5768 45.8576C87.5374 45.3213 88.6023 45.0532 89.7716 45.0532C91.1323 45.0532 92.2773 45.3701 93.203 46.0038C94.1287 46.6376 94.783 47.4141 95.1728 48.3403C95.7331 47.4385 96.5231 46.6654 97.5462 46.0212C98.5694 45.3771 99.8083 45.0532 101.27 45.0532C102.366 45.0532 103.313 45.2308 104.117 45.5825C104.921 45.9342 105.582 46.4287 106.107 47.0624C106.629 47.6961 107.026 48.4552 107.294 49.3432C107.562 50.2311 107.694 51.1991 107.694 52.2472V63.5292H102.913V53.1212C102.913 50.6873 101.914 49.4685 99.9197 49.4685C99.2863 49.4685 98.726 49.6078 98.2423 49.8899C97.7551 50.1684 97.3479 50.548 97.0207 51.0215C96.6936 51.4951 96.4361 52.0627 96.2551 52.7208C96.0741 53.3789 95.9802 54.0858 95.9802 54.8379V63.5292H91.1985V53.1212C91.1985 50.6873 90.1509 49.4685 88.0594 49.4685C87.4503 49.4685 86.9144 49.6078 86.455 49.8899C85.9922 50.1684 85.6024 50.548 85.2857 51.0215C84.969 51.4951 84.7254 52.0627 84.5549 52.7208C84.3843 53.3789 84.3008 54.0858 84.3008 54.8379V63.5292H79.5191V45.6382H79.5156Z" fill="white"/>
<path d="M124.007 61.1923H123.714C123.154 62.0941 122.399 62.8045 121.452 63.3268C120.506 63.8491 119.42 64.1103 118.205 64.1103C115.943 64.1103 114.259 63.4173 113.152 62.028C112.046 60.6421 111.492 58.7896 111.492 56.4775V45.6343H116.274V55.896C116.274 57.1879 116.559 58.142 117.13 58.7618C117.701 59.3816 118.536 59.6915 119.629 59.6915C120.287 59.6915 120.864 59.5522 121.362 59.2702C121.86 58.9916 122.288 58.612 122.639 58.1385C122.991 57.6649 123.259 57.1043 123.443 56.4601C123.624 55.8159 123.718 55.1265 123.718 54.3987V45.6343H128.5V63.5253H124.01V61.1888L124.007 61.1923Z" fill="white"/>
<path d="M137.083 47.9747H137.375C137.936 47.0728 138.687 46.3625 139.638 45.8402C140.588 45.3179 141.67 45.0532 142.885 45.0532C144.002 45.0532 144.99 45.2343 145.839 45.5999C146.692 45.9655 147.391 46.4844 147.938 47.1529C148.484 47.8215 148.898 48.6259 149.18 49.5625C149.459 50.4992 149.601 51.5404 149.601 52.686V63.5292H144.819V53.2675C144.819 51.9791 144.534 51.0215 143.963 50.4017C143.393 49.7819 142.557 49.472 141.465 49.472C140.807 49.472 140.229 49.6113 139.732 49.8933C139.234 50.1719 138.806 50.5515 138.454 51.025C138.103 51.4986 137.835 52.0592 137.65 52.7034C137.469 53.3476 137.375 54.037 137.375 54.7648V63.5292H132.594V45.6382H137.083V47.9747Z" fill="white"/>
<path d="M156.199 43.2277C155.785 43.2277 155.391 43.1476 155.012 42.991C154.636 42.8343 154.306 42.6149 154.027 42.3328C153.749 42.0543 153.53 41.7304 153.369 41.3648C153.209 40.9992 153.133 40.5988 153.133 40.16C153.133 39.7213 153.213 39.3208 153.369 38.9552C153.526 38.5896 153.745 38.2692 154.027 37.9872C154.309 37.7051 154.636 37.4892 155.012 37.3291C155.388 37.1724 155.785 37.0923 156.199 37.0923C157.051 37.0923 157.779 37.3917 158.388 37.9872C158.997 38.5826 159.3 39.3069 159.3 40.16C159.3 41.0131 158.997 41.7374 158.388 42.3328C157.779 42.9283 157.048 43.2277 156.199 43.2277ZM153.825 63.5283V45.6373H158.607V63.5283H153.825Z" fill="white"/>
<path d="M164.78 49.7309H161.641V45.6395H164.78V40.1621H169.561V45.6395H173.939V49.7309H169.561V56.8797C169.561 57.308 169.603 57.7014 169.69 58.0636C169.774 58.4292 169.941 58.7356 170.184 58.9863C170.525 59.3868 171.013 59.5887 171.643 59.5887C172.057 59.5887 172.384 59.5469 172.627 59.4599C172.871 59.3763 173.101 59.2579 173.32 59.1117L174.67 63.3111C174.11 63.5792 173.508 63.7812 172.864 63.9135C172.22 64.0458 171.507 64.1155 170.731 64.1155C169.829 64.1155 169.022 63.9727 168.305 63.6872C167.588 63.4016 166.986 63.0116 166.499 62.5137C165.354 61.3959 164.783 59.8046 164.783 57.7432V49.7309H164.78Z" fill="white"/>
<path d="M183.228 62.6557L175.711 45.6387H181.147L185.671 56.4819H185.925L190.268 45.6387H195.596L184.394 71.4166H179.247L183.225 62.6522L183.228 62.6557Z" fill="white"/>
<path d="M24.117 96.2148C22.8258 97.7713 21.3085 98.9587 19.5545 99.7735C17.804 100.588 15.8447 100.996 13.68 100.996C11.7346 100.996 9.92842 100.644 8.26143 99.9371C6.59444 99.2303 5.15366 98.2692 3.93561 97.054C2.71756 95.8387 1.75705 94.3936 1.05406 92.7257C0.347588 91.0578 -0.00390625 89.2645 -0.00390625 87.3389C-0.00390625 85.4133 0.347588 83.62 1.05406 81.9521C1.76053 80.2842 2.72104 78.8426 3.93561 77.6239C5.15018 76.4051 6.59444 75.4441 8.26143 74.7407C9.92842 74.0338 11.7346 73.6821 13.68 73.6821C15.7716 73.6821 17.6161 74.0477 19.21 74.779C20.8039 75.5102 22.2203 76.5688 23.4627 77.9547L19.9965 81.3149C19.2169 80.4165 18.3225 79.6957 17.3133 79.1595C16.304 78.6232 15.1069 78.3551 13.7183 78.3551C12.5002 78.3551 11.3588 78.5675 10.2869 78.9923C9.21499 79.4171 8.28579 80.0195 7.4958 80.7995C6.70581 81.5795 6.07938 82.5232 5.61652 83.6305C5.15366 84.7378 4.92398 85.9739 4.92398 87.3354C4.92398 88.6969 5.15366 89.9331 5.61652 91.0404C6.07938 92.1477 6.70581 93.0913 7.4958 93.8713C8.28579 94.6513 9.21499 95.2537 10.2869 95.6785C11.3588 96.1033 12.5002 96.3192 13.7183 96.3192C15.1765 96.3192 16.4746 96.0198 17.6056 95.4243C18.7367 94.8289 19.7389 93.9827 20.6159 92.8859L24.1204 96.2078L24.117 96.2148Z" fill="#F9BA04"/>
<path d="M27.1124 74.2711H31.8941V81.6114L31.6018 84.8602H31.8941C32.4057 84.0071 33.14 83.3072 34.1006 82.7605C35.0611 82.2138 36.1364 81.9387 37.3301 81.9387C39.6409 81.9387 41.3497 82.6212 42.4564 83.9827C43.5631 85.3477 44.1164 87.2071 44.1164 89.568V100.411H39.3347V90.1495C39.3347 88.9064 39.0424 87.9662 38.4577 87.3185C37.873 86.6743 37.0587 86.3505 36.0111 86.3505C35.3534 86.3505 34.7687 86.4898 34.2606 86.7719C33.7491 87.0504 33.3175 87.4369 32.966 87.9209C32.6145 88.4084 32.3466 88.9725 32.1621 89.6202C31.9811 90.2644 31.8872 90.9538 31.8872 91.6816V100.408H27.1055V74.2642L27.1124 74.2711Z" fill="#F9BA04"/>
<path d="M58.9002 98.5176H58.6079C58.0476 99.2001 57.3725 99.7851 56.5825 100.269C55.7925 100.757 54.7763 101 53.5339 101C52.6081 101 51.7381 100.847 50.9238 100.544C50.1094 100.241 49.396 99.8199 48.7904 99.2837C48.1814 98.7475 47.7081 98.1033 47.3671 97.3477C47.026 96.592 46.8555 95.7668 46.8555 94.8649C46.8555 93.9631 47.0364 93.1065 47.4019 92.3648C47.7673 91.6231 48.2788 90.9824 48.9331 90.4461C49.5909 89.9099 50.3635 89.5025 51.2509 89.2239C52.1383 88.9454 53.1058 88.8026 54.1533 88.8026C55.3227 88.8026 56.2832 88.8931 57.0349 89.0777C57.7901 89.2588 58.4095 89.4503 58.8968 89.6453V89.0986C58.8968 88.148 58.5209 87.3645 57.7657 86.7447C57.0105 86.1249 56.0744 85.815 54.9572 85.815C53.3042 85.815 51.9052 86.5079 50.7602 87.8972L47.294 85.5225C49.1906 83.1372 51.7834 81.9429 55.0686 81.9429C57.8423 81.9429 59.9582 82.594 61.4199 83.8963C62.878 85.1986 63.6089 87.1277 63.6089 89.6836V100.419H58.9002V98.5211V98.5176ZM58.9002 93.1483C58.3399 92.8801 57.7622 92.6677 57.1671 92.511C56.572 92.3543 55.9212 92.2742 55.2148 92.2742C54.0698 92.2742 53.1893 92.525 52.5699 93.0229C51.9504 93.5208 51.6407 94.1372 51.6407 94.8684C51.6407 95.5996 51.94 96.1812 52.5351 96.6199C53.1302 97.0586 53.8192 97.278 54.5953 97.278C55.2287 97.278 55.8099 97.1631 56.3458 96.9298C56.8818 96.7 57.3377 96.3936 57.7135 96.0175C58.0894 95.6414 58.3817 95.2027 58.5905 94.7047C58.7958 94.2068 58.9002 93.688 58.9002 93.1517V93.1483Z" fill="#F9BA04"/>
<path d="M67.4062 100.416V74.2725H72.188V100.416H67.4062Z" fill="#F9BA04"/>
<path d="M76.2695 100.416V74.2725H81.0512V100.416H76.2695Z" fill="#F9BA04"/>
<path d="M101.888 96.108C101.06 97.567 99.9461 98.7509 98.5506 99.6493C97.1516 100.551 95.4428 101 93.4244 101C92.0601 101 90.8038 100.764 89.6484 100.29C88.493 99.8165 87.4907 99.1514 86.6381 98.2983C85.7854 97.4452 85.1242 96.4423 84.6474 95.2863C84.1741 94.1302 83.9375 92.8592 83.9375 91.4699C83.9375 90.178 84.1672 88.9558 84.63 87.7997C85.0929 86.6437 85.7367 85.6339 86.565 84.7703C87.3933 83.9068 88.3712 83.2173 89.5022 82.7089C90.6333 82.1971 91.8792 81.9429 93.2434 81.9429C94.6772 81.9429 95.9544 82.1796 97.075 82.6532C98.1922 83.1268 99.1318 83.7849 99.8835 84.6241C100.639 85.4633 101.209 86.4557 101.599 87.6013C101.989 88.7469 102.184 89.9865 102.184 91.3271V91.7659C102.16 91.9121 102.149 92.0444 102.149 92.1663C102.125 92.2882 102.114 92.4205 102.114 92.5667H88.6496C88.747 93.298 88.9454 93.9248 89.2517 94.4471C89.5544 94.9694 89.9338 95.4081 90.3827 95.7598C90.8317 96.1115 91.3258 96.3692 91.8618 96.5259C92.3977 96.6861 92.9441 96.7627 93.5044 96.7627C94.6007 96.7627 95.5055 96.5119 96.2224 96.014C96.9393 95.5161 97.5066 94.8893 97.9207 94.1337L101.899 96.1045L101.888 96.108ZM97.5448 89.1717C97.5205 88.8548 97.4161 88.5031 97.2351 88.1131C97.0542 87.7231 96.7862 87.3575 96.4312 87.0163C96.0797 86.675 95.6412 86.3965 95.1157 86.1771C94.5937 85.9577 93.9673 85.8498 93.2364 85.8498C92.2133 85.8498 91.3154 86.1423 90.5358 86.7273C89.7563 87.3123 89.2099 88.1271 88.8932 89.1752H97.5414L97.5448 89.1717Z" fill="#F9BA04"/>
<path d="M109.732 84.8609H110.024C110.584 83.9591 111.336 83.2487 112.286 82.7264C113.236 82.2041 114.318 81.9395 115.533 81.9395C116.65 81.9395 117.638 82.1205 118.488 82.4861C119.34 82.8518 120.04 83.3706 120.586 84.0392C121.133 84.7077 121.547 85.5121 121.829 86.4488C122.107 87.3854 122.25 88.4266 122.25 89.5722V100.415H117.468V90.1537C117.468 88.8653 117.183 87.9078 116.612 87.2879C116.041 86.6681 115.206 86.3582 114.113 86.3582C113.455 86.3582 112.878 86.4975 112.38 86.7796C111.882 87.0581 111.454 87.4377 111.103 87.9112C110.751 88.3848 110.483 88.9454 110.299 89.5896C110.118 90.2338 110.024 90.9233 110.024 91.651V100.415H105.242V82.5244H109.732V84.8609Z" fill="#F9BA04"/>
<path d="M134.256 108.887C132.99 108.887 131.865 108.724 130.881 108.393C129.896 108.066 129.036 107.637 128.309 107.115C127.578 106.593 126.969 106.015 126.485 105.381C125.998 104.747 125.646 104.113 125.427 103.483L129.99 101.659C130.331 102.609 130.891 103.344 131.667 103.866C132.447 104.389 133.31 104.65 134.26 104.65C135.767 104.65 136.96 104.159 137.837 103.18C138.714 102.202 139.153 100.851 139.153 99.1375V97.8944H138.861C138.3 98.6744 137.566 99.2873 136.654 99.7399C135.742 100.189 134.663 100.415 133.425 100.415C132.353 100.415 131.312 100.2 130.303 99.7643C129.294 99.329 128.399 98.7092 127.62 97.9014C126.84 97.0935 126.207 96.122 125.723 94.9903C125.236 93.8587 124.992 92.5912 124.992 91.1949C124.992 89.7985 125.236 88.5241 125.723 87.382C126.21 86.2364 126.84 85.2614 127.62 84.4535C128.399 83.6457 129.294 83.0259 130.303 82.5906C131.312 82.1553 132.353 81.9395 133.425 81.9395C134.667 81.9395 135.742 82.1658 136.654 82.615C137.566 83.0642 138.304 83.6805 138.861 84.4605H139.153V82.5244H143.715V99.1375C143.715 100.645 143.482 102.003 143.023 103.208C142.56 104.413 141.916 105.437 141.088 106.276C140.26 107.115 139.268 107.759 138.112 108.212C136.957 108.661 135.673 108.887 134.263 108.887H134.256ZM134.437 96.1081C135.022 96.1081 135.6 96.0002 136.17 95.7843C136.741 95.5684 137.246 95.2515 137.684 94.8337C138.123 94.4158 138.474 93.9005 138.742 93.2911C139.01 92.6817 139.142 91.9818 139.142 91.1949C139.142 90.4079 139.007 89.701 138.742 89.0812C138.474 88.4579 138.123 87.9391 137.684 87.5213C137.246 87.1034 136.741 86.7865 136.17 86.5706C135.6 86.3547 135.022 86.2468 134.437 86.2468C133.853 86.2468 133.282 86.3547 132.722 86.5706C132.161 86.7865 131.664 87.1069 131.225 87.5387C130.787 87.9704 130.435 88.4893 130.167 89.0986C129.899 89.708 129.767 90.4079 129.767 91.1949C129.767 91.9818 129.899 92.6817 130.167 93.2911C130.435 93.9005 130.787 94.4158 131.225 94.8337C131.664 95.2515 132.161 95.5684 132.722 95.7843C133.282 96.0002 133.853 96.1081 134.437 96.1081Z" fill="#F9BA04"/>
<path d="M164.548 96.108C163.72 97.567 162.606 98.7509 161.211 99.6493C159.812 100.551 158.103 101 156.085 101C154.72 101 153.464 100.764 152.309 100.29C151.153 99.8165 150.147 99.1514 149.298 98.2983C148.446 97.4452 147.784 96.4423 147.308 95.2863C146.834 94.1302 146.598 92.8592 146.598 91.4699C146.598 90.178 146.827 88.9558 147.29 87.7997C147.753 86.6437 148.397 85.6339 149.225 84.7703C150.053 83.9068 151.031 83.2173 152.162 82.7089C153.293 82.1971 154.539 81.9429 155.904 81.9429C157.337 81.9429 158.615 82.1796 159.735 82.6532C160.852 83.1268 161.792 83.7849 162.547 84.6241C163.302 85.4633 163.873 86.4557 164.263 87.6013C164.653 88.7469 164.848 89.9865 164.848 91.3271V91.7659C164.823 91.9121 164.813 92.0444 164.813 92.1663C164.788 92.2882 164.778 92.4205 164.778 92.5667H151.313C151.411 93.298 151.609 93.9248 151.915 94.4471C152.218 94.9694 152.597 95.4081 153.046 95.7598C153.495 96.1115 153.989 96.3692 154.525 96.5259C155.061 96.6861 155.608 96.7627 156.168 96.7627C157.264 96.7627 158.169 96.5119 158.886 96.014C159.603 95.5161 160.17 94.8893 160.584 94.1337L164.562 96.1045L164.548 96.108ZM160.205 89.1717C160.181 88.8548 160.076 88.5031 159.895 88.1131C159.714 87.7231 159.446 87.3575 159.091 87.0163C158.74 86.675 158.301 86.3965 157.779 86.1771C157.257 85.9577 156.631 85.8498 155.9 85.8498C154.877 85.8498 153.979 86.1423 153.199 86.7273C152.42 87.3123 151.874 88.1271 151.557 89.1752H160.205V89.1717Z" fill="#F9BA04"/>
</svg>
