<svg width="137" height="76" viewBox="0 0 137 76" fill="none" xmlns="http://www.w3.org/2000/svg">
<path d="M0.890625 0H8.04301C8.825 0 9.55827 0.12431 10.2404 0.370494C10.9225 0.616678 11.5145 0.957924 12.0163 1.39179C12.5181 1.82566 12.9152 2.33266 13.2051 2.91277C13.495 3.49289 13.6387 4.11444 13.6387 4.77743C13.6387 5.74998 13.4049 6.56166 12.9371 7.21734C12.4694 7.87302 11.8847 8.3727 11.188 8.71151V8.91625C12.1235 9.2575 12.8787 9.78887 13.4487 10.5128C14.0188 11.2367 14.3038 12.1361 14.3038 13.2086C14.3038 13.9935 14.1454 14.6955 13.8312 15.317C13.5169 15.9386 13.0857 16.4724 12.5401 16.9136C11.9944 17.3572 11.361 17.6984 10.6375 17.9349C9.91394 18.1738 9.13439 18.2932 8.30124 18.2932H0.893062V0H0.890625ZM7.78722 7.46352C8.58627 7.46352 9.20503 7.24659 9.63866 6.81272C10.0723 6.37885 10.2891 5.86211 10.2891 5.26737C10.2891 4.67262 10.0772 4.16076 9.65084 3.7342C9.22452 3.30764 8.63742 3.09558 7.8871 3.09558H4.33527V7.46596H7.78479L7.78722 7.46352ZM8.16969 15.1318C9.03938 15.1318 9.702 14.9149 10.1624 14.481C10.6228 14.0471 10.8518 13.4889 10.8518 12.8065C10.8518 12.124 10.618 11.5585 10.1502 11.1075C9.68251 10.6566 8.98822 10.4299 8.06737 10.4299H4.33771V15.1318H8.16969Z" fill="#0E0E0E"/>
<path d="M24.2673 16.9719H24.0626C23.6704 17.4496 23.1978 17.8591 22.6448 18.1979C22.0918 18.5392 21.3805 18.7098 20.5108 18.7098C19.8628 18.7098 19.2538 18.6025 18.6837 18.3905C18.1137 18.1784 17.6143 17.8835 17.1904 17.5081C16.7641 17.1328 16.4328 16.6818 16.194 16.1529C15.9553 15.624 15.8359 15.0463 15.8359 14.415C15.8359 13.7837 15.9626 13.1841 16.2184 12.6649C16.4742 12.1457 16.8323 11.6972 17.2903 11.3218C17.7507 10.9465 18.2915 10.6613 18.9127 10.4663C19.5339 10.2713 20.2112 10.1713 20.9444 10.1713C21.763 10.1713 22.4353 10.2347 22.9615 10.3639C23.4902 10.4907 23.9238 10.6247 24.2648 10.7612V10.3785C24.2648 9.7131 24.0017 9.16467 23.4731 8.7308C22.9445 8.29694 22.2892 8.08 21.5072 8.08C20.35 8.08 19.3707 8.56506 18.5692 9.53761L16.1429 7.87525C17.4706 6.20559 19.2855 5.36954 21.5851 5.36954C23.5267 5.36954 25.0079 5.82534 26.031 6.73696C27.0517 7.64857 27.5633 8.99893 27.5633 10.788V18.3027H24.2673V16.9743V16.9719ZM24.2673 13.2133C23.8751 13.0256 23.4707 12.8769 23.0541 12.7648C22.6375 12.6551 22.182 12.5991 21.6875 12.5991C20.886 12.5991 20.2696 12.7746 19.836 13.1231C19.4024 13.4717 19.1856 13.9031 19.1856 14.415C19.1856 14.9268 19.3951 15.3339 19.8117 15.641C20.2282 15.9481 20.7106 16.1017 21.2538 16.1017C21.6972 16.1017 22.104 16.0213 22.4792 15.858C22.8543 15.6971 23.1735 15.4826 23.4366 15.2193C23.6997 14.9561 23.9043 14.649 24.0505 14.3004C24.1942 13.9519 24.2673 13.5887 24.2673 13.2133Z" fill="#0E0E0E"/>
<path d="M30.2227 5.7779H33.3652V7.41344H33.5699C33.9621 6.7992 34.4931 6.30683 35.1655 5.93146C35.8379 5.55609 36.5833 5.36841 37.4018 5.36841C38.3544 5.36841 39.1558 5.59022 39.8038 6.03384C40.4518 6.47746 40.9098 7.02345 41.1827 7.66938C41.5749 7.03807 42.1279 6.49696 42.8441 6.04603C43.5603 5.59509 44.4276 5.36841 45.4507 5.36841C46.2181 5.36841 46.8807 5.49272 47.4434 5.7389C48.0062 5.98509 48.469 6.33121 48.8369 6.77483C49.2023 7.21845 49.48 7.74981 49.6676 8.37137C49.8552 8.99292 49.9478 9.67054 49.9478 10.4042V18.3016H46.6006V11.016C46.6006 9.31223 45.9014 8.45912 44.5055 8.45912C44.0621 8.45912 43.6699 8.55662 43.3313 8.75405C42.9903 8.94905 42.7052 9.21473 42.4762 9.54623C42.2472 9.87772 42.067 10.275 41.9403 10.7357C41.8136 11.1964 41.7478 11.6912 41.7478 12.2177V18.3016H38.4006V11.016C38.4006 9.31223 37.6674 8.45912 36.2033 8.45912C35.777 8.45912 35.4018 8.55662 35.0802 8.75405C34.7562 8.94905 34.4834 9.21473 34.2617 9.54623C34.04 9.87772 33.8695 10.275 33.7501 10.7357C33.6308 11.1964 33.5723 11.6912 33.5723 12.2177V18.3016H30.2251V5.7779H30.2227Z" fill="#0E0E0E"/>
<path d="M64.5537 15.2852C63.9739 16.3065 63.1943 17.1352 62.2175 17.7641C61.2381 18.3954 60.042 18.7098 58.6291 18.7098C57.6741 18.7098 56.7947 18.544 55.9859 18.2126C55.1771 17.8811 54.4755 17.4155 53.8787 16.8183C53.2819 16.2211 52.819 15.5192 52.4852 14.7099C52.1539 13.9007 51.9883 13.011 51.9883 12.0384C51.9883 11.1366 52.1491 10.2786 52.4731 9.46936C52.7971 8.66012 53.2477 7.95325 53.8275 7.34876C54.4073 6.74427 55.0919 6.26165 55.8836 5.90578C56.6753 5.54747 57.5475 5.36954 58.5024 5.36954C59.5061 5.36954 60.4001 5.53529 61.1846 5.86678C61.9665 6.19828 62.6243 6.65896 63.1505 7.24639C63.6791 7.83382 64.0786 8.52849 64.3515 9.33042C64.6243 10.1323 64.7607 11.0001 64.7607 11.9385V12.2456C64.7437 12.348 64.7364 12.4406 64.7364 12.5259C64.7193 12.6113 64.712 12.7039 64.712 12.8063H55.2868C55.355 13.3181 55.4938 13.7569 55.7082 14.1225C55.9201 14.4881 56.1857 14.7952 56.4999 15.0414C56.8142 15.2876 57.1601 15.468 57.5353 15.5777C57.9104 15.6898 58.2929 15.7434 58.6851 15.7434C59.4525 15.7434 60.0859 15.5679 60.5877 15.2193C61.0895 14.8708 61.4866 14.432 61.7765 13.9031L64.561 15.2827L64.5537 15.2852ZM61.5134 10.4297C61.4964 10.2079 61.4233 9.96173 61.2966 9.68873C61.1699 9.41573 60.9824 9.1598 60.7339 8.92093C60.4878 8.68205 60.1809 8.48706 59.813 8.3335C59.4476 8.17994 59.0091 8.10438 58.4975 8.10438C57.7813 8.10438 57.1528 8.30912 56.6071 8.71862C56.0614 9.12811 55.679 9.69848 55.4573 10.4322H61.511L61.5134 10.4297Z" fill="#0E0E0E"/>
<path d="M70.041 7.41146H70.2456C70.6378 6.78015 71.164 6.28291 71.8291 5.91729C72.4942 5.55167 73.2518 5.36886 74.102 5.36886C74.884 5.36886 75.5758 5.49561 76.1702 5.75154C76.7671 6.00747 77.2567 6.36822 77.6392 6.83865C78.0217 7.30664 78.3116 7.8697 78.5089 8.52538C78.7038 9.18106 78.8037 9.90986 78.8037 10.7118V18.3021H75.4565V11.1188C75.4565 10.217 75.2567 9.54668 74.8572 9.11281C74.4577 8.67894 73.873 8.462 73.1081 8.462C72.6476 8.462 72.2432 8.5595 71.8949 8.75694C71.5465 8.95194 71.2469 9.21762 71.0008 9.54911C70.7548 9.88061 70.5672 10.273 70.4381 10.724C70.3114 11.1749 70.2456 11.6575 70.2456 12.167V18.3021H66.8984V5.77835H70.041V7.41389V7.41146Z" fill="#0E0E0E"/>
<path d="M90.8907 16.7915H90.6861C90.3791 17.3204 89.9017 17.7714 89.2561 18.1467C88.6081 18.5221 87.8091 18.7098 86.8541 18.7098C86.0526 18.7098 85.2926 18.5441 84.5666 18.2126C83.8431 17.8811 83.2048 17.4204 82.6518 16.833C82.0988 16.2455 81.6603 15.5411 81.3363 14.7245C81.0123 13.9056 80.8516 13.011 80.8516 12.0409C80.8516 11.0708 81.0123 10.1762 81.3363 9.35724C81.6603 8.53825 82.0988 7.83626 82.6518 7.24883C83.2048 6.6614 83.8431 6.20072 84.5666 5.86922C85.2901 5.53773 86.0526 5.37198 86.8541 5.37198C87.8066 5.37198 88.6081 5.55966 89.2561 5.93503C89.9041 6.3104 90.3791 6.76134 90.6861 7.29027H90.8907L90.6861 5.50117V0.00467682H94.0333V18.3052H90.8907V16.7964V16.7915ZM87.5435 15.6167C87.9869 15.6167 88.4083 15.5362 88.8079 15.3729C89.2074 15.212 89.5606 14.9756 89.8676 14.6709C90.1745 14.3662 90.4206 13.9884 90.6081 13.5472C90.7957 13.1036 90.8883 12.6015 90.8883 12.0385C90.8883 11.4754 90.7933 10.9733 90.6081 10.5297C90.4206 10.086 90.1745 9.71067 89.8676 9.40599C89.5606 9.1013 89.2074 8.86487 88.8079 8.704C88.4083 8.54313 87.9869 8.46025 87.5435 8.46025C87.1002 8.46025 86.6787 8.54556 86.2792 8.71619C85.8797 8.88681 85.5264 9.12568 85.2195 9.4328C84.9125 9.73992 84.6665 10.1153 84.4789 10.5565C84.2913 11.0001 84.1988 11.4949 84.1988 12.0385C84.1988 12.582 84.2913 13.0793 84.4789 13.5204C84.6665 13.9641 84.9125 14.3394 85.2195 14.6441C85.5264 14.9512 85.8797 15.1901 86.2792 15.3607C86.6787 15.5313 87.1002 15.6167 87.5435 15.6167Z" fill="#0E0E0E"/>
<path d="M104.486 16.9719H104.281C103.889 17.4496 103.417 17.8591 102.864 18.1979C102.311 18.5392 101.599 18.7098 100.73 18.7098C100.082 18.7098 99.4725 18.6025 98.9025 18.3905C98.3324 18.1784 97.833 17.8835 97.4092 17.5081C96.9828 17.1328 96.6515 16.6818 96.4128 16.1529C96.1741 15.624 96.0547 15.0463 96.0547 14.415C96.0547 13.7837 96.1814 13.1841 96.4372 12.6649C96.6929 12.1457 97.0511 11.6972 97.509 11.3218C97.9695 10.9465 98.5103 10.6613 99.1315 10.4663C99.7527 10.2713 100.43 10.1713 101.163 10.1713C101.982 10.1713 102.654 10.2347 103.183 10.3639C103.711 10.4907 104.145 10.6247 104.486 10.7612V10.3785C104.486 9.7131 104.223 9.16467 103.694 8.7308C103.166 8.29694 102.51 8.08 101.728 8.08C100.569 8.08 99.5919 8.56506 98.7904 9.53761L96.3641 7.87525C97.6917 6.20559 99.5066 5.36954 101.806 5.36954C103.748 5.36954 105.229 5.82534 106.252 6.73696C107.273 7.64857 107.785 8.99893 107.785 10.788V18.3027H104.488V16.9743L104.486 16.9719ZM104.486 13.2133C104.094 13.0256 103.689 12.8769 103.273 12.7648C102.856 12.6551 102.401 12.5991 101.906 12.5991C101.105 12.5991 100.488 12.7746 100.055 13.1231C99.6211 13.4717 99.4043 13.9031 99.4043 14.415C99.4043 14.9268 99.6114 15.3339 100.03 15.641C100.447 15.9481 100.929 16.1017 101.473 16.1017C101.916 16.1017 102.323 16.0213 102.698 15.858C103.073 15.6971 103.392 15.4826 103.655 15.2193C103.918 14.9561 104.123 14.649 104.269 14.3004C104.413 13.9519 104.486 13.5887 104.486 13.2133Z" fill="#0E0E0E"/>
<path d="M16.8846 41.1809C15.9808 42.2704 14.9187 43.1016 13.6909 43.672C12.4655 44.2423 11.094 44.5275 9.57874 44.5275C8.21696 44.5275 6.95263 44.2813 5.78574 43.7865C4.61884 43.2917 3.6103 42.619 2.75766 41.7683C1.90503 40.9176 1.23267 39.9061 0.740574 38.7385C0.246046 37.571 0 36.3157 0 34.9678C0 33.6199 0.246046 32.3646 0.740574 31.197C1.2351 30.0295 1.90747 29.0204 2.75766 28.1672C3.60786 27.3141 4.61884 26.6414 5.78574 26.149C6.95263 25.6542 8.21696 25.408 9.57874 25.408C11.0428 25.408 12.334 25.664 13.4497 26.1758C14.5654 26.6877 15.5569 27.4287 16.4266 28.3988L14.0003 30.751C13.4546 30.1221 12.8285 29.6175 12.122 29.2422C11.4156 28.8668 10.5775 28.6791 9.60554 28.6791C8.75291 28.6791 7.95386 28.8278 7.20355 29.1252C6.45323 29.4225 5.80279 29.8442 5.24979 30.3902C4.6968 30.9362 4.2583 31.5968 3.9343 32.3719C3.6103 33.147 3.44952 34.0123 3.44952 34.9653C3.44952 35.9184 3.6103 36.7837 3.9343 37.5588C4.2583 38.3339 4.6968 38.9945 5.24979 39.5405C5.80279 40.0865 6.45323 40.5081 7.20355 40.8055C7.95386 41.1029 8.75291 41.254 9.60554 41.254C10.6263 41.254 11.5349 41.0444 12.3267 40.6276C13.1184 40.2108 13.82 39.6185 14.4339 38.8507L16.887 41.176L16.8846 41.1809Z" fill="#0E0E0E"/>
<path d="M24.6564 31.1874C25.626 31.1874 26.5176 31.3531 27.3264 31.6846C28.1352 32.0161 28.8343 32.4768 29.4214 33.0642C30.0085 33.6517 30.469 34.3561 30.8003 35.1726C31.1316 35.9916 31.2972 36.8862 31.2972 37.8563C31.2972 38.8264 31.1316 39.721 30.8003 40.54C30.469 41.3589 30.0085 42.0609 29.4214 42.6484C28.8343 43.2358 28.1352 43.6965 27.3264 44.028C26.5176 44.3595 25.6284 44.5252 24.6564 44.5252C23.6844 44.5252 22.7953 44.3595 21.9865 44.028C21.1777 43.6965 20.4785 43.2358 19.8914 42.6484C19.3043 42.0609 18.8439 41.3565 18.5126 40.54C18.1813 39.7234 18.0156 38.8264 18.0156 37.8563C18.0156 36.8862 18.1813 35.9892 18.5126 35.1726C18.8439 34.3537 19.3043 33.6517 19.8914 33.0642C20.4785 32.4768 21.1777 32.0161 21.9865 31.6846C22.7953 31.3531 23.6844 31.1874 24.6564 31.1874ZM24.6564 41.4369C25.0828 41.4369 25.4945 41.3565 25.8964 41.1932C26.2959 41.0323 26.6492 40.7959 26.9561 40.4912C27.2631 40.1841 27.5042 39.8087 27.6845 39.3675C27.8623 38.9239 27.9525 38.4218 27.9525 37.8587C27.9525 37.2957 27.8623 36.7936 27.6845 36.3499C27.5067 35.9063 27.2631 35.531 26.9561 35.2263C26.6492 34.9191 26.2959 34.6852 25.8964 34.5243C25.4969 34.3634 25.0828 34.2805 24.6564 34.2805C24.2301 34.2805 23.7965 34.361 23.4043 34.5243C23.0121 34.6852 22.6637 34.9216 22.3568 35.2263C22.0498 35.5334 21.8086 35.9088 21.6284 36.3499C21.4505 36.7936 21.3604 37.2957 21.3604 37.8587C21.3604 38.4218 21.4505 38.9239 21.6284 39.3675C21.8062 39.8111 22.0498 40.1865 22.3568 40.4912C22.6637 40.7959 23.0121 41.0323 23.4043 41.1932C23.7965 41.3565 24.2131 41.4369 24.6564 41.4369Z" fill="#0E0E0E"/>
<path d="M33.1836 31.5969H36.3262V33.2324H36.5308C36.923 32.6182 37.4541 32.1258 38.1264 31.7504C38.7988 31.3751 39.5443 31.1874 40.3628 31.1874C41.3153 31.1874 42.1168 31.4092 42.7648 31.8528C43.4128 32.2964 43.8708 32.84 44.1436 33.4884C44.5358 32.8571 45.0888 32.3159 45.805 31.865C46.5212 31.4141 47.3885 31.1874 48.4117 31.1874C49.179 31.1874 49.8416 31.3117 50.4044 31.5579C50.9671 31.8041 51.43 32.1502 51.7978 32.5938C52.1632 33.0374 52.441 33.5688 52.6285 34.1903C52.8161 34.8119 52.9087 35.4895 52.9087 36.2232V44.1206H49.5615V36.835C49.5615 35.1312 48.8623 34.2781 47.4664 34.2781C47.0231 34.2781 46.6309 34.3756 46.2922 34.573C45.9512 34.768 45.6662 35.0337 45.4372 35.3652C45.2082 35.6967 45.0279 36.094 44.9012 36.5547C44.7746 37.0154 44.7088 37.5102 44.7088 38.0367V44.1206H41.3616V36.835C41.3616 35.1312 40.6283 34.2781 39.1642 34.2781C38.7379 34.2781 38.3627 34.3756 38.0412 34.573C37.7172 34.768 37.4443 35.0337 37.2226 35.3652C37.001 35.6967 36.8304 36.094 36.7111 36.5547C36.5917 37.0154 36.5332 37.5102 36.5332 38.0367V44.1206H33.186V31.5969H33.1836Z" fill="#0E0E0E"/>
<path d="M55.6602 31.5969H58.8027V33.2324H59.0074C59.3996 32.6182 59.9306 32.1258 60.603 31.7504C61.2754 31.3751 62.0208 31.1874 62.8393 31.1874C63.7919 31.1874 64.5933 31.4092 65.2413 31.8528C65.8893 32.2964 66.3473 32.84 66.6202 33.4884C67.0124 32.8571 67.5654 32.3159 68.2816 31.865C68.9978 31.4141 69.8651 31.1874 70.8882 31.1874C71.6556 31.1874 72.3182 31.3117 72.8809 31.5579C73.4437 31.8041 73.9065 32.1502 74.2744 32.5938C74.6398 33.0374 74.9175 33.5688 75.1051 34.1903C75.2927 34.8119 75.3853 35.4895 75.3853 36.2232V44.1206H72.0381V36.835C72.0381 35.1312 71.3389 34.2781 69.943 34.2781C69.4996 34.2781 69.1074 34.3756 68.7688 34.573C68.4278 34.768 68.1427 35.0337 67.9137 35.3652C67.6847 35.6967 67.5045 36.094 67.3778 36.5547C67.2511 37.0154 67.1853 37.5102 67.1853 38.0367V44.1206H63.8381V36.835C63.8381 35.1312 63.1049 34.2781 61.6408 34.2781C61.2145 34.2781 60.8393 34.3756 60.5177 34.573C60.1937 34.768 59.9209 35.0337 59.6992 35.3652C59.4775 35.6967 59.307 36.094 59.1876 36.5547C59.0683 37.0154 59.0098 37.5102 59.0098 38.0367V44.1206H55.6626V31.5969H55.6602Z" fill="#0E0E0E"/>
<path d="M86.8032 42.4845H86.5986C86.2063 43.1158 85.6777 43.613 85.0151 43.9786C84.3525 44.3443 83.5924 44.5271 82.7422 44.5271C81.1587 44.5271 79.9797 44.042 79.205 43.0695C78.4303 42.0994 78.043 40.8026 78.043 39.1841V31.5939H81.3902V38.7771C81.3902 39.6814 81.5899 40.3493 81.9895 40.7831C82.389 41.217 82.9736 41.4339 83.7386 41.4339C84.199 41.4339 84.6034 41.3364 84.9518 41.139C85.3001 40.944 85.5998 40.6783 85.8458 40.3468C86.0919 40.0153 86.2794 39.6229 86.4085 39.172C86.5352 38.721 86.601 38.2384 86.601 37.729V31.5939H89.9482V44.1176H86.8056V42.482L86.8032 42.4845Z" fill="#0E0E0E"/>
<path d="M95.959 33.2324H96.1636C96.5558 32.6011 97.082 32.1039 97.7471 31.7383C98.4121 31.3726 99.1698 31.1874 100.02 31.1874C100.802 31.1874 101.494 31.3141 102.088 31.5701C102.685 31.826 103.175 32.1892 103.557 32.6572C103.94 33.1252 104.23 33.6882 104.427 34.3439C104.622 34.9996 104.722 35.7284 104.722 36.5303V44.1206H101.374V36.9374C101.374 36.0355 101.175 35.3652 100.775 34.9313C100.376 34.4975 99.791 34.2805 99.026 34.2805C98.5656 34.2805 98.1612 34.378 97.8128 34.5755C97.4645 34.7705 97.1648 35.0361 96.9188 35.3676C96.6728 35.6991 96.4852 36.0916 96.3561 36.5425C96.2294 36.9934 96.1636 37.4761 96.1636 37.9855V44.1206H92.8164V31.5969H95.959V33.2324Z" fill="#0E0E0E"/>
<path d="M109.338 29.9094C109.048 29.9094 108.772 29.8534 108.507 29.7437C108.244 29.634 108.012 29.4804 107.817 29.283C107.623 29.088 107.469 28.8613 107.357 28.6054C107.245 28.3494 107.191 28.0691 107.191 27.762C107.191 27.4549 107.247 27.1746 107.357 26.9186C107.467 26.6627 107.62 26.4385 107.817 26.241C108.015 26.0436 108.244 25.8925 108.507 25.7804C108.77 25.6707 109.048 25.6146 109.338 25.6146C109.934 25.6146 110.444 25.8242 110.87 26.241C111.296 26.6578 111.508 27.1648 111.508 27.762C111.508 28.3592 111.296 28.8662 110.87 29.283C110.444 29.6998 109.932 29.9094 109.338 29.9094ZM107.676 44.1198V31.5961H111.023V44.1198H107.676Z" fill="#0E0E0E"/>
<path d="M115.346 34.4616H113.148V31.5976H115.346V27.7634H118.693V31.5976H121.758V34.4616H118.693V39.4657C118.693 39.7655 118.722 40.041 118.783 40.2945C118.842 40.5504 118.959 40.7649 119.129 40.9404C119.368 41.2207 119.709 41.3621 120.15 41.3621C120.44 41.3621 120.669 41.3328 120.839 41.2719C121.01 41.2134 121.171 41.1305 121.324 41.0281L122.269 43.9677C121.877 44.1554 121.456 44.2968 121.005 44.3894C120.554 44.482 120.055 44.5308 119.512 44.5308C118.881 44.5308 118.315 44.4308 117.814 44.231C117.312 44.0311 116.89 43.7581 116.549 43.4095C115.748 42.6271 115.348 41.5132 115.348 40.0702V34.4616H115.346Z" fill="#0E0E0E"/>
<path d="M128.258 43.509L122.996 31.5971H126.801L129.968 39.1874H130.146L133.186 31.5971H136.916L129.074 49.6417H125.471L128.256 43.5065L128.258 43.509Z" fill="#0E0E0E"/>
<path d="M16.8807 67.0003C15.9769 68.0898 14.9148 68.921 13.687 69.4914C12.4616 70.0617 11.0901 70.3469 9.57484 70.3469C8.21306 70.3469 6.94872 70.1007 5.78183 69.6059C4.61494 69.1111 3.60639 68.4384 2.75376 67.5877C1.90112 66.737 1.22876 65.7255 0.736668 64.5579C0.24214 63.3904 -0.00390625 62.1351 -0.00390625 60.7872C-0.00390625 59.4393 0.24214 58.184 0.736668 57.0164C1.2312 55.8489 1.90356 54.8398 2.75376 53.9866C3.60396 53.1335 4.61494 52.4608 5.78183 51.9684C6.94872 51.4736 8.21306 51.2274 9.57484 51.2274C11.0389 51.2274 12.3301 51.4834 13.4458 51.9952C14.5615 52.5071 15.553 53.2481 16.4227 54.2182L13.9964 56.5704C13.4507 55.9415 12.8246 55.4369 12.1181 55.0616C11.4117 54.6862 10.5736 54.4985 9.60163 54.4985C8.749 54.4985 7.94996 54.6472 7.19964 54.9446C6.44932 55.2419 5.79888 55.6636 5.24589 56.2096C4.69289 56.7556 4.2544 57.4162 3.93039 58.1913C3.60639 58.9664 3.44561 59.8317 3.44561 60.7847C3.44561 61.7378 3.60639 62.6031 3.93039 63.3782C4.2544 64.1533 4.69289 64.8139 5.24589 65.3599C5.79888 65.9059 6.44932 66.3275 7.19964 66.6249C7.94996 66.9223 8.749 67.0734 9.60163 67.0734C10.6224 67.0734 11.531 66.8638 12.3228 66.447C13.1145 66.0302 13.8161 65.4379 14.43 64.6701L16.8831 66.9954L16.8807 67.0003Z" fill="#0E0E0E"/>
<path d="M18.9775 51.6398H22.3247V56.778L22.1201 59.0521H22.3247C22.6828 58.455 23.1969 57.965 23.8692 57.5823C24.5416 57.1997 25.2943 57.0071 26.1299 57.0071C27.7475 57.0071 28.9436 57.4848 29.7183 58.4379C30.493 59.3934 30.8803 60.695 30.8803 62.3476V69.9379H27.5331V62.7547C27.5331 61.8845 27.3285 61.2264 26.9192 60.773C26.5099 60.3221 25.9399 60.0954 25.2066 60.0954C24.7462 60.0954 24.3369 60.1929 23.9813 60.3903C23.6232 60.5853 23.3211 60.8559 23.075 61.1947C22.829 61.5359 22.6414 61.9308 22.5123 62.3842C22.3856 62.8351 22.3199 63.3177 22.3199 63.8271V69.9354H18.9727V51.6349L18.9775 51.6398Z" fill="#0E0E0E"/>
<path d="M41.2282 68.6122H41.0236C40.6314 69.09 40.1588 69.4995 39.6058 69.8383C39.0528 70.1795 38.3414 70.3502 37.4718 70.3502C36.8237 70.3502 36.2147 70.2429 35.6447 70.0308C35.0746 69.8188 34.5752 69.5239 34.1513 69.1485C33.725 68.7731 33.3937 68.3222 33.155 67.7933C32.9162 67.2643 32.7969 66.6866 32.7969 66.0553C32.7969 65.424 32.9236 64.8244 33.1793 64.3052C33.4351 63.7861 33.7932 63.3376 34.2512 62.9622C34.7117 62.5868 35.2525 62.3016 35.8737 62.1066C36.4949 61.9116 37.1721 61.8117 37.9054 61.8117C38.7239 61.8117 39.3963 61.8751 39.9225 62.0043C40.4511 62.131 40.8847 62.2651 41.2258 62.4016V62.0189C41.2258 61.3535 40.9627 60.805 40.4341 60.3712C39.9054 59.9373 39.2501 59.7204 38.4681 59.7204C37.311 59.7204 36.3317 60.2054 35.5302 61.178L33.1038 59.5156C34.4315 57.846 36.2464 57.0099 38.5461 57.0099C40.4876 57.0099 41.9688 57.4657 42.992 58.3773C44.0127 59.2889 44.5243 60.6393 44.5243 62.4284V69.9431H41.2282V68.6147V68.6122ZM41.2282 64.8537C40.836 64.666 40.4316 64.5173 40.015 64.4076C39.5985 64.2979 39.1429 64.2419 38.6484 64.2419C37.8469 64.2419 37.2306 64.4174 36.797 64.7659C36.3633 65.1145 36.1465 65.5459 36.1465 66.0578C36.1465 66.5696 36.356 66.9767 36.7726 67.2838C37.1892 67.5909 37.6715 67.7445 38.2148 67.7445C38.6581 67.7445 39.065 67.6641 39.4401 67.5008C39.8153 67.3399 40.1344 67.1254 40.3975 66.8621C40.6606 66.5989 40.8652 66.2918 41.0114 65.9432C41.1551 65.5947 41.2282 65.2315 41.2282 64.8561V64.8537Z" fill="#0E0E0E"/>
<path d="M47.1836 69.9411V51.6406H50.5308V69.9411H47.1836Z" fill="#0E0E0E"/>
<path d="M53.3867 69.9411V51.6406H56.7339V69.9411H53.3867Z" fill="#0E0E0E"/>
<path d="M71.3193 66.9255C70.7395 67.9468 69.96 68.7755 68.9831 69.4044C68.0038 70.0357 66.8076 70.3501 65.3947 70.3501C64.4398 70.3501 63.5603 70.1844 62.7515 69.8529C61.9428 69.5214 61.2412 69.0559 60.6443 68.4587C60.0475 67.8615 59.5846 67.1595 59.2509 66.3503C58.9196 65.541 58.7539 64.6514 58.7539 63.6788C58.7539 62.7745 58.9147 61.9189 59.2387 61.1097C59.5627 60.3005 60.0134 59.5936 60.5932 58.9891C61.173 58.3846 61.8575 57.902 62.6492 57.5461C63.441 57.1878 64.3131 57.0099 65.268 57.0099C66.2717 57.0099 67.1658 57.1756 67.9502 57.5071C68.7322 57.8386 69.3899 58.2993 69.9161 58.8867C70.4447 59.4742 70.8443 60.1689 71.1171 60.9708C71.39 61.7727 71.5264 62.6404 71.5264 63.5789V63.886C71.5093 63.9884 71.502 64.081 71.502 64.1663C71.485 64.2516 71.4776 64.3442 71.4776 64.4466H62.0524C62.1206 64.9585 62.2595 65.3972 62.4738 65.7628C62.6858 66.1285 62.9513 66.4356 63.2656 66.6818C63.5798 66.9279 63.9257 67.1083 64.3009 67.218C64.6761 67.3301 65.0585 67.3838 65.4507 67.3838C66.2181 67.3838 66.8515 67.2083 67.3533 66.8597C67.8552 66.5111 68.2523 66.0724 68.5422 65.5435L71.3266 66.9231L71.3193 66.9255ZM68.279 62.0701C68.262 61.8483 68.1889 61.6021 68.0622 61.3291C67.9356 61.0561 67.748 60.8002 67.4995 60.5613C67.2535 60.3224 66.9465 60.1274 66.5787 59.9738C66.2132 59.8203 65.7747 59.7447 65.2632 59.7447C64.547 59.7447 63.9184 59.9495 63.3727 60.359C62.8271 60.7685 62.4446 61.3388 62.2229 62.0725H68.2766L68.279 62.0701Z" fill="#0E0E0E"/>
<path d="M76.8105 59.0527H77.0152C77.4074 58.4214 77.9336 57.9242 78.5986 57.5586C79.2637 57.1929 80.0213 57.0077 80.8715 57.0077C81.6535 57.0077 82.3454 57.1344 82.9398 57.3904C83.5366 57.6463 84.0263 58.0095 84.4087 58.4775C84.7912 58.9455 85.0811 59.5085 85.2784 60.1642C85.4733 60.8199 85.5732 61.5487 85.5732 62.3506V69.9409H82.226V62.7577C82.226 61.8558 82.0262 61.1855 81.6267 60.7516C81.2272 60.3178 80.6425 60.1008 79.8776 60.1008C79.4172 60.1008 79.0128 60.1983 78.6644 60.3958C78.316 60.5908 78.0164 60.8564 77.7704 61.1879C77.5243 61.5194 77.3367 61.9119 77.2076 62.3628C77.0809 62.8137 77.0152 63.2964 77.0152 63.8058V69.9409H73.668V57.4172H76.8105V59.0527Z" fill="#0E0E0E"/>
<path d="M93.9771 75.8712C93.0903 75.8712 92.3035 75.7567 91.6141 75.5251C90.9246 75.296 90.3229 74.9962 89.8138 74.6306C89.3022 74.265 88.8759 73.8603 88.5373 73.4167C88.1962 72.9731 87.9502 72.5295 87.7967 72.0883L90.9904 70.8111C91.2292 71.4765 91.6214 71.9908 92.1646 72.3564C92.7103 72.722 93.3145 72.9049 93.9795 72.9049C95.0343 72.9049 95.8699 72.5612 96.4838 71.8762C97.0977 71.1913 97.4047 70.2456 97.4047 69.0463V68.1762H97.2C96.8078 68.7222 96.2938 69.1512 95.6556 69.468C95.0173 69.7825 94.2621 69.9409 93.3949 69.9409C92.6445 69.9409 91.9161 69.7898 91.2097 69.4851C90.5032 69.1804 89.8771 68.7465 89.3314 68.181C88.7858 67.6155 88.3424 66.9355 88.0038 66.1433C87.6627 65.3511 87.4922 64.4639 87.4922 63.4865C87.4922 62.5091 87.6627 61.6169 88.0038 60.8175C88.3448 60.0155 88.7858 59.333 89.3314 58.7675C89.8771 58.202 90.5032 57.7682 91.2097 57.4635C91.9161 57.1588 92.6445 57.0077 93.3949 57.0077C94.2645 57.0077 95.0173 57.1661 95.6556 57.4806C96.2938 57.795 96.8103 58.2264 97.2 58.7724H97.4047V57.4172H100.598V69.0463C100.598 70.1018 100.435 71.0524 100.114 71.8957C99.7896 72.7391 99.3389 73.4557 98.7591 74.0431C98.1794 74.6306 97.4851 75.0815 96.6763 75.3984C95.8675 75.7128 94.9686 75.8712 93.982 75.8712H93.9771ZM94.1038 66.9257C94.513 66.9257 94.9174 66.8502 95.3169 66.6991C95.7165 66.5479 96.0697 66.3261 96.3766 66.0336C96.6836 65.7411 96.9296 65.3804 97.1172 64.9538C97.3048 64.5273 97.3974 64.0373 97.3974 63.4865C97.3974 62.9356 97.3024 62.4408 97.1172 62.0069C96.9296 61.5706 96.6836 61.2074 96.3766 60.9149C96.0697 60.6225 95.7165 60.4006 95.3169 60.2495C94.9174 60.0984 94.513 60.0228 94.1038 60.0228C93.6945 60.0228 93.295 60.0984 92.9028 60.2495C92.5106 60.4006 92.1622 60.6249 91.8552 60.9271C91.5483 61.2294 91.3022 61.5926 91.1147 62.0191C90.9271 62.4457 90.8345 62.9356 90.8345 63.4865C90.8345 64.0373 90.9271 64.5273 91.1147 64.9538C91.3022 65.3804 91.5483 65.7411 91.8552 66.0336C92.1622 66.3261 92.5106 66.5479 92.9028 66.6991C93.295 66.8502 93.6945 66.9257 94.1038 66.9257Z" fill="#0E0E0E"/>
<path d="M115.183 66.9255C114.603 67.9468 113.823 68.7756 112.846 69.4044C111.867 70.0357 110.671 70.3502 109.258 70.3502C108.303 70.3502 107.424 70.1844 106.615 69.8529C105.806 69.5214 105.102 69.0559 104.508 68.4587C103.911 67.8615 103.448 67.1595 103.114 66.3503C102.783 65.541 102.617 64.6514 102.617 63.6788C102.617 62.7745 102.778 61.919 103.102 61.1097C103.426 60.3005 103.877 59.5936 104.456 58.9891C105.036 58.3846 105.721 57.902 106.513 57.5461C107.304 57.1878 108.176 57.0099 109.131 57.0099C110.135 57.0099 111.029 57.1756 111.813 57.5071C112.595 57.8386 113.253 58.2993 113.782 58.8867C114.31 59.4742 114.71 60.1689 114.983 60.9708C115.256 61.7727 115.392 62.6404 115.392 63.5789V63.886C115.375 63.9884 115.368 64.081 115.368 64.1663C115.351 64.2516 115.343 64.3442 115.343 64.4466H105.918C105.986 64.9585 106.125 65.3972 106.34 65.7628C106.551 66.1285 106.817 66.4356 107.131 66.6818C107.446 66.928 107.791 67.1083 108.167 67.218C108.542 67.3301 108.924 67.3838 109.316 67.3838C110.084 67.3838 110.717 67.2083 111.219 66.8597C111.721 66.5111 112.118 66.0724 112.408 65.5435L115.192 66.9231L115.183 66.9255ZM112.142 62.0701C112.125 61.8483 112.052 61.6021 111.926 61.3291C111.799 61.0561 111.611 60.8002 111.363 60.5613C111.117 60.3224 110.81 60.1274 110.444 59.9739C110.079 59.8203 109.64 59.7447 109.129 59.7447C108.413 59.7447 107.784 59.9495 107.238 60.359C106.693 60.7685 106.31 61.3388 106.089 62.0725H112.142V62.0701Z" fill="#0E0E0E"/>
</svg>
