<svg width="196" height="109" viewBox="0 0 196 109" fill="none" xmlns="http://www.w3.org/2000/svg">
<path d="M1.26953 0H11.4872C12.6044 0 13.6519 0.177586 14.6263 0.529277C15.6008 0.880969 16.4464 1.36846 17.1633 1.98828C17.8803 2.60809 18.4475 3.33236 18.8617 4.1611C19.2758 4.98984 19.4811 5.87778 19.4811 6.82491C19.4811 8.21426 19.147 9.3738 18.4788 10.3105C17.8106 11.2472 16.9754 11.961 15.9801 12.445V12.7375C17.3165 13.225 18.3953 13.9841 19.2097 15.0183C20.024 16.0525 20.4312 17.3374 20.4312 18.8695C20.4312 19.9907 20.205 20.9936 19.756 21.8815C19.3071 22.7694 18.6911 23.532 17.9116 24.1623C17.132 24.796 16.2272 25.2835 15.1936 25.6213C14.16 25.9625 13.0463 26.1331 11.8561 26.1331H1.27301V0H1.26953ZM11.1218 10.6622C12.2633 10.6622 13.1473 10.3523 13.7667 9.73246C14.3862 9.11264 14.6959 8.37444 14.6959 7.52481C14.6959 6.67518 14.3931 5.94394 13.7841 5.33457C13.1751 4.7252 12.3364 4.42226 11.2645 4.42226H6.19045V10.6657H11.1183L11.1218 10.6622ZM11.6682 21.6168C12.9106 21.6168 13.8572 21.3069 14.515 20.6871C15.1727 20.0673 15.4998 19.2699 15.4998 18.2949C15.4998 17.3199 15.1657 16.5121 14.4976 15.8679C13.8294 15.2237 12.8375 14.8999 11.522 14.8999H6.19393V21.6168H11.6682Z" fill="white"/>
<path d="M34.6659 24.2457H34.3735C33.8132 24.9282 33.1381 25.5132 32.3481 25.9972C31.5581 26.4847 30.5419 26.7284 29.2995 26.7284C28.3738 26.7284 27.5037 26.5752 26.6894 26.2723C25.875 25.9693 25.1616 25.548 24.5561 25.0117C23.947 24.4755 23.4737 23.8313 23.1327 23.0757C22.7916 22.3201 22.6211 21.4948 22.6211 20.593C22.6211 19.6911 22.8021 18.8345 23.1675 18.0928C23.5329 17.3511 24.0445 16.7104 24.6987 16.1742C25.3565 15.6379 26.1291 15.2305 27.0165 14.952C27.904 14.6734 28.8714 14.5306 29.919 14.5306C31.0883 14.5306 32.0488 14.6212 32.8005 14.8057C33.5557 14.9868 34.1752 15.1783 34.6624 15.3733V14.8266C34.6624 13.876 34.2865 13.0925 33.5313 12.4727C32.7762 11.8529 31.84 11.543 30.7229 11.543C29.0698 11.543 27.6708 12.2359 26.5258 13.6253L23.0596 11.2505C24.9563 8.86526 27.549 7.6709 30.8342 7.6709C33.6079 7.6709 35.7238 8.32205 37.1855 9.62435C38.6437 10.9267 39.3745 12.8557 39.3745 15.4116V26.1469H34.6659V24.2492V24.2457ZM34.6659 18.8763C34.1056 18.6082 33.5279 18.3958 32.9328 18.2356C32.3377 18.0789 31.6869 17.9988 30.9804 17.9988C29.8354 17.9988 28.955 18.2495 28.3355 18.7474C27.716 19.2454 27.4063 19.8617 27.4063 20.593C27.4063 21.3242 27.7056 21.9057 28.3007 22.3444C28.8958 22.7832 29.5849 23.0026 30.3609 23.0026C30.9943 23.0026 31.5755 22.8877 32.1114 22.6544C32.6474 22.4245 33.1033 22.1181 33.4791 21.742C33.855 21.366 34.1473 20.9272 34.3561 20.4293C34.5615 19.9314 34.6659 19.4125 34.6659 18.8763Z" fill="white"/>
<path d="M43.1758 8.25394H47.6652V10.5904H47.9575C48.5178 9.71294 49.2765 9.00955 50.237 8.47331C51.1975 7.93707 52.2624 7.66895 53.4318 7.66895C54.7925 7.66895 55.9375 7.98582 56.8632 8.61956C57.7889 9.2533 58.4432 10.0333 58.8329 10.956C59.3932 10.0542 60.1832 9.28116 61.2064 8.63697C62.2296 7.99278 63.4685 7.66895 64.9302 7.66895C66.0264 7.66895 66.973 7.84653 67.7769 8.19823C68.5808 8.54992 69.242 9.04437 69.7675 9.67812C70.2896 10.3119 70.6863 11.071 70.9543 11.9589C71.2222 12.8468 71.3545 13.8148 71.3545 14.863V26.1449H66.5728V15.737C66.5728 13.303 65.574 12.0842 63.5799 12.0842C62.9465 12.0842 62.3862 12.2235 61.9024 12.5056C61.4152 12.7841 61.008 13.1637 60.6809 13.6373C60.3538 14.1108 60.0962 14.6784 59.9153 15.3365C59.7343 15.9946 59.6403 16.7015 59.6403 17.4536V26.1449H54.8586V15.737C54.8586 13.303 53.8111 12.0842 51.7195 12.0842C51.1105 12.0842 50.5746 12.2235 50.1152 12.5056C49.6523 12.7841 49.2626 13.1637 48.9459 13.6373C48.6292 14.1108 48.3856 14.6784 48.215 15.3365C48.0445 15.9946 47.961 16.7015 47.961 17.4536V26.1449H43.1793V8.25394H43.1758Z" fill="white"/>
<path d="M92.2201 21.8361C91.3918 23.2951 90.2782 24.479 88.8826 25.3774C87.4836 26.2792 85.7749 26.7284 83.7564 26.7284C82.3922 26.7284 81.1359 26.4916 79.9804 26.0181C78.825 25.5445 77.8228 24.8794 76.9701 24.0263C76.1175 23.1732 75.4563 22.1703 74.9795 21.0143C74.5062 19.8582 74.2695 18.5873 74.2695 17.1979C74.2695 15.9095 74.4992 14.6838 74.9621 13.5278C75.4249 12.3717 76.0688 11.3619 76.897 10.4984C77.7253 9.6348 78.7032 8.94535 79.8343 8.43696C80.9653 7.92509 82.2112 7.6709 83.5754 7.6709C85.0092 7.6709 86.2865 7.90768 87.4071 8.38125C88.5242 8.85481 89.4638 9.51293 90.2155 10.3521C90.9707 11.1913 91.5415 12.1837 91.9313 13.3293C92.321 14.4749 92.5159 15.7145 92.5159 17.0551V17.4939C92.4916 17.6401 92.4811 17.7725 92.4811 17.8943C92.4567 18.0162 92.4463 18.1485 92.4463 18.2948H78.9816C79.0791 19.026 79.2775 19.6528 79.5837 20.1751C79.8865 20.6974 80.2658 21.1362 80.7148 21.4879C81.1637 21.8395 81.6579 22.0972 82.1938 22.2539C82.7298 22.4141 83.2761 22.4907 83.8364 22.4907C84.9327 22.4907 85.8375 22.24 86.5544 21.742C87.2713 21.2441 87.8386 20.6173 88.2527 19.8617L92.2305 21.8326L92.2201 21.8361ZM87.8769 14.8997C87.8525 14.5829 87.7481 14.2312 87.5672 13.8412C87.3862 13.4512 87.1182 13.0856 86.7632 12.7443C86.4117 12.4031 85.9732 12.1245 85.4477 11.9051C84.9257 11.6858 84.2993 11.5778 83.5685 11.5778C82.5453 11.5778 81.6474 11.8703 80.8679 12.4553C80.0883 13.0403 79.5419 13.8551 79.2253 14.9032H87.8734L87.8769 14.8997Z" fill="white"/>
<path d="M100.056 10.5879H100.348C100.908 9.68606 101.66 8.97571 102.61 8.45339C103.56 7.93108 104.643 7.66992 105.857 7.66992C106.974 7.66992 107.963 7.85099 108.812 8.21661C109.664 8.58223 110.364 9.09758 110.91 9.76963C111.457 10.4382 111.871 11.2426 112.153 12.1792C112.431 13.1159 112.574 14.1571 112.574 15.3027V26.1459H107.792V15.8842C107.792 14.5958 107.507 13.6382 106.936 13.0184C106.365 12.3986 105.53 12.0887 104.437 12.0887C103.78 12.0887 103.202 12.228 102.704 12.51C102.207 12.7886 101.778 13.1682 101.427 13.6417C101.075 14.1153 100.808 14.6759 100.623 15.3201C100.442 15.9643 100.348 16.6537 100.348 17.3815V26.1459H95.5664V8.25491H100.056V10.5914V10.5879Z" fill="white"/>
<path d="M129.846 23.988H129.553C129.115 24.7436 128.433 25.3878 127.51 25.9241C126.585 26.4603 125.443 26.7284 124.079 26.7284C122.934 26.7284 121.848 26.4917 120.811 26.0181C119.778 25.5445 118.866 24.8864 118.076 24.0472C117.286 23.208 116.659 22.2017 116.196 21.0352C115.734 19.8652 115.504 18.5873 115.504 17.2014C115.504 15.8156 115.734 14.5376 116.196 13.3676C116.659 12.1977 117.286 11.1948 118.076 10.3556C118.866 9.51644 119.778 8.85833 120.811 8.38476C121.845 7.91119 122.934 7.67441 124.079 7.67441C125.44 7.67441 126.585 7.94253 127.51 8.47878C128.436 9.01502 129.115 9.65921 129.553 10.4148H129.846L129.553 7.85896V0.00683594H134.335V26.1504H129.846V23.995V23.988ZM125.064 22.3097C125.697 22.3097 126.299 22.1948 126.87 21.9615C127.441 21.7316 127.945 21.3939 128.384 20.9586C128.822 20.5233 129.174 19.9836 129.442 19.3534C129.71 18.7196 129.842 18.0023 129.842 17.1979C129.842 16.3936 129.706 15.6763 129.442 15.0425C129.174 14.4088 128.822 13.8725 128.384 13.4373C127.945 13.002 127.441 12.6643 126.87 12.4344C126.299 12.2046 125.697 12.0862 125.064 12.0862C124.43 12.0862 123.828 12.2081 123.258 12.4518C122.687 12.6956 122.182 13.0368 121.744 13.4756C121.305 13.9143 120.954 14.4506 120.686 15.0808C120.418 15.7146 120.286 16.4214 120.286 17.1979C120.286 17.9745 120.418 18.6848 120.686 19.3151C120.954 19.9488 121.305 20.485 121.744 20.9203C122.182 21.359 122.687 21.7003 123.258 21.944C123.828 22.1878 124.43 22.3097 125.064 22.3097Z" fill="white"/>
<path d="M149.267 24.2457H148.975C148.415 24.9282 147.74 25.5132 146.95 25.9972C146.16 26.4847 145.143 26.7284 143.901 26.7284C142.975 26.7284 142.105 26.5752 141.291 26.2723C140.477 25.9693 139.763 25.548 139.158 25.0117C138.549 24.4755 138.075 23.8313 137.734 23.0757C137.393 22.3201 137.223 21.4948 137.223 20.593C137.223 19.6911 137.404 18.8345 137.769 18.0928C138.134 17.3511 138.646 16.7104 139.3 16.1742C139.958 15.6379 140.731 15.2305 141.618 14.952C142.506 14.6734 143.473 14.5306 144.521 14.5306C145.69 14.5306 146.65 14.6212 147.406 14.8057C148.161 14.9868 148.78 15.1783 149.267 15.3733V14.8266C149.267 13.876 148.892 13.0925 148.136 12.4727C147.381 11.8529 146.445 11.543 145.328 11.543C143.671 11.543 142.276 12.2359 141.131 13.6253L137.665 11.2505C139.561 8.86526 142.154 7.6709 145.439 7.6709C148.213 7.6709 150.329 8.32205 151.791 9.62435C153.249 10.9267 153.98 12.8557 153.98 15.4116V26.1469H149.271V24.2492L149.267 24.2457ZM149.267 18.8763C148.707 18.6082 148.129 18.3958 147.534 18.2356C146.939 18.0789 146.288 17.9988 145.582 17.9988C144.437 17.9988 143.557 18.2495 142.937 18.7474C142.318 19.2454 142.008 19.8617 142.008 20.593C142.008 21.3242 142.304 21.9057 142.902 22.3444C143.497 22.7832 144.186 23.0026 144.962 23.0026C145.596 23.0026 146.177 22.8877 146.713 22.6544C147.249 22.4245 147.705 22.1181 148.081 21.742C148.457 21.366 148.749 20.9272 148.958 20.4293C149.163 19.9314 149.267 19.4125 149.267 18.8763Z" fill="white"/>
<path d="M24.1209 58.8295C22.8297 60.386 21.3124 61.5734 19.5584 62.3882C17.8079 63.203 15.8486 63.6104 13.6839 63.6104C11.7385 63.6104 9.93232 63.2587 8.26534 62.5519C6.59835 61.845 5.15757 60.8839 3.93952 59.6687C2.72147 58.4534 1.76095 57.0084 1.05796 55.3404C0.351495 53.6725 0 51.8793 0 49.9537C0 48.0281 0.351495 46.2348 1.05796 44.5669C1.76443 42.8989 2.72495 41.4573 3.93952 40.2386C5.15409 39.0199 6.59835 38.0588 8.26534 37.3554C9.93232 36.6486 11.7385 36.2969 13.6839 36.2969C15.7755 36.2969 17.62 36.6625 19.2139 37.3937C20.8078 38.125 22.2242 39.1835 23.4666 40.5694L20.0004 43.9296C19.2208 43.0312 18.3264 42.3105 17.3172 41.7742C16.3079 41.238 15.1108 40.9698 13.7222 40.9698C12.5041 40.9698 11.3627 41.1823 10.2908 41.6071C9.2189 42.0319 8.2897 42.6343 7.49971 43.4143C6.70971 44.1943 6.08329 45.1379 5.62043 46.2452C5.15757 47.3525 4.92788 48.5887 4.92788 49.9502C4.92788 51.3117 5.15757 52.5478 5.62043 53.6551C6.08329 54.7624 6.70971 55.7061 7.49971 56.4861C8.2897 57.2661 9.2189 57.8685 10.2908 58.2933C11.3627 58.7181 12.5041 58.934 13.7222 58.934C15.1804 58.934 16.4785 58.6345 17.6095 58.0391C18.7406 57.4436 19.7428 56.5975 20.6198 55.5006L24.1243 58.8225L24.1209 58.8295Z" fill="white"/>
<path d="M35.2252 44.5537C36.6103 44.5537 37.884 44.7905 39.0394 45.2641C40.1948 45.7376 41.1936 46.3957 42.0323 47.2349C42.871 48.0741 43.5288 49.0804 44.0021 50.2469C44.4754 51.4169 44.712 52.6949 44.712 54.0807C44.712 55.4666 44.4754 56.7445 44.0021 57.9145C43.5288 59.0845 42.871 60.0873 42.0323 60.9265C41.1936 61.7657 40.1948 62.4238 39.0394 62.8974C37.884 63.371 36.6137 63.6077 35.2252 63.6077C33.8366 63.6077 32.5663 63.371 31.4109 62.8974C30.2555 62.4238 29.2567 61.7657 28.418 60.9265C27.5793 60.0873 26.9215 59.081 26.4482 57.9145C25.9749 56.748 25.7383 55.4666 25.7383 54.0807C25.7383 52.6949 25.9749 51.4134 26.4482 50.2469C26.9215 49.077 27.5793 48.0741 28.418 47.2349C29.2567 46.3957 30.2555 45.7376 31.4109 45.2641C32.5663 44.7905 33.8366 44.5537 35.2252 44.5537ZM35.2252 59.1959C35.8342 59.1959 36.4223 59.081 36.9965 58.8477C37.5673 58.6179 38.0719 58.2801 38.5104 57.8449C38.9489 57.4061 39.2934 56.8699 39.551 56.2396C39.805 55.6059 39.9338 54.8886 39.9338 54.0842C39.9338 53.2798 39.805 52.5625 39.551 51.9288C39.2969 51.2951 38.9489 50.7588 38.5104 50.3235C38.0719 49.8848 37.5673 49.5505 36.9965 49.3207C36.4258 49.0909 35.8342 48.9725 35.2252 48.9725C34.6161 48.9725 33.9967 49.0874 33.4364 49.3207C32.8761 49.5505 32.3784 49.8883 31.9399 50.3235C31.5014 50.7623 31.1569 51.2985 30.8993 51.9288C30.6453 52.5625 30.5165 53.2798 30.5165 54.0842C30.5165 54.8886 30.6453 55.6059 30.8993 56.2396C31.1534 56.8734 31.5014 57.4096 31.9399 57.8449C32.3784 58.2801 32.8761 58.6179 33.4364 58.8477C33.9967 59.081 34.5918 59.1959 35.2252 59.1959Z" fill="white"/>
<path d="M47.4062 45.1387H51.8956V47.4752H52.188C52.7483 46.5977 53.5069 45.8943 54.4675 45.3581C55.428 44.8218 56.4929 44.5537 57.6622 44.5537C59.023 44.5537 60.1679 44.8706 61.0937 45.5043C62.0194 46.1381 62.6736 46.9146 63.0634 47.8408C63.6237 46.9389 64.4137 46.1659 65.4369 45.5217C66.46 44.8775 67.699 44.5537 69.1606 44.5537C70.2569 44.5537 71.2035 44.7313 72.0074 45.083C72.8113 45.4347 73.4725 45.9291 73.998 46.5629C74.52 47.1966 74.9168 47.9557 75.1847 48.8437C75.4527 49.7316 75.585 50.6996 75.585 51.7477V63.0297H70.8033V52.6217C70.8033 50.1877 69.8044 48.969 67.8103 48.969C67.1769 48.969 66.6166 49.1083 66.1329 49.3903C65.6457 49.6689 65.2385 50.0485 64.9114 50.522C64.5842 50.9956 64.3267 51.5632 64.1457 52.2213C63.9648 52.8794 63.8708 53.5863 63.8708 54.3384V63.0297H59.0891V52.6217C59.0891 50.1877 58.0416 48.969 55.95 48.969C55.341 48.969 54.805 49.1083 54.3457 49.3903C53.8828 49.6689 53.493 50.0485 53.1763 50.522C52.8596 50.9956 52.616 51.5632 52.4455 52.2213C52.275 52.8794 52.1914 53.5863 52.1914 54.3384V63.0297H47.4097V45.1387H47.4062Z" fill="white"/>
<path d="M79.5156 45.1387H84.005V47.4752H84.2973C84.8576 46.5977 85.6163 45.8943 86.5768 45.3581C87.5374 44.8218 88.6023 44.5537 89.7716 44.5537C91.1323 44.5537 92.2773 44.8706 93.203 45.5043C94.1287 46.1381 94.783 46.9146 95.1728 47.8408C95.7331 46.9389 96.5231 46.1659 97.5462 45.5217C98.5694 44.8775 99.8083 44.5537 101.27 44.5537C102.366 44.5537 103.313 44.7313 104.117 45.083C104.921 45.4347 105.582 45.9291 106.107 46.5629C106.629 47.1966 107.026 47.9557 107.294 48.8437C107.562 49.7316 107.694 50.6996 107.694 51.7477V63.0297H102.913V52.6217C102.913 50.1877 101.914 48.969 99.9197 48.969C99.2863 48.969 98.726 49.1083 98.2423 49.3903C97.7551 49.6689 97.3479 50.0485 97.0207 50.522C96.6936 50.9956 96.4361 51.5632 96.2551 52.2213C96.0741 52.8794 95.9802 53.5863 95.9802 54.3384V63.0297H91.1985V52.6217C91.1985 50.1877 90.1509 48.969 88.0594 48.969C87.4503 48.969 86.9144 49.1083 86.455 49.3903C85.9922 49.6689 85.6024 50.0485 85.2857 50.522C84.969 50.9956 84.7254 51.5632 84.5549 52.2213C84.3843 52.8794 84.3008 53.5863 84.3008 54.3384V63.0297H79.5191V45.1387H79.5156Z" fill="white"/>
<path d="M124.007 60.6918H123.714C123.154 61.5937 122.399 62.304 121.452 62.8263C120.506 63.3486 119.42 63.6098 118.205 63.6098C115.943 63.6098 114.259 62.9169 113.152 61.5275C112.046 60.1416 111.492 58.2891 111.492 55.977V45.1338H116.274V55.3955C116.274 56.6874 116.559 57.6415 117.13 58.2613C117.701 58.8811 118.536 59.191 119.629 59.191C120.287 59.191 120.864 59.0517 121.362 58.7697C121.86 58.4911 122.288 58.1116 122.639 57.638C122.991 57.1644 123.259 56.6038 123.443 55.9596C123.624 55.3154 123.718 54.626 123.718 53.8982V45.1338H128.5V63.0248H124.01V60.6883L124.007 60.6918Z" fill="white"/>
<path d="M137.083 47.4752H137.375C137.936 46.5733 138.687 45.863 139.638 45.3407C140.588 44.8184 141.67 44.5537 142.885 44.5537C144.002 44.5537 144.99 44.7348 145.839 45.1004C146.692 45.466 147.391 45.9849 147.938 46.6534C148.484 47.322 148.898 48.1263 149.18 49.063C149.459 49.9997 149.601 51.0409 149.601 52.1865V63.0297H144.819V52.768C144.819 51.4796 144.534 50.522 143.963 49.9022C143.393 49.2824 142.557 48.9725 141.465 48.9725C140.807 48.9725 140.229 49.1118 139.732 49.3938C139.234 49.6724 138.806 50.0519 138.454 50.5255C138.103 50.9991 137.835 51.5597 137.65 52.2039C137.469 52.8481 137.375 53.5375 137.375 54.2653V63.0297H132.594V45.1387H137.083V47.4752Z" fill="white"/>
<path d="M156.199 42.7273C155.785 42.7273 155.391 42.6472 155.012 42.4905C154.636 42.3338 154.306 42.1144 154.027 41.8324C153.749 41.5538 153.53 41.2299 153.369 40.8643C153.209 40.4987 153.133 40.0983 153.133 39.6595C153.133 39.2208 153.213 38.8203 153.369 38.4547C153.526 38.0891 153.745 37.7687 154.027 37.4867C154.309 37.2046 154.636 36.9888 155.012 36.8286C155.388 36.6719 155.785 36.5918 156.199 36.5918C157.051 36.5918 157.779 36.8913 158.388 37.4867C158.997 38.0821 159.3 38.8064 159.3 39.6595C159.3 40.5126 158.997 41.2369 158.388 41.8324C157.779 42.4278 157.048 42.7273 156.199 42.7273ZM153.825 63.0279V45.1369H158.607V63.0279H153.825Z" fill="white"/>
<path d="M164.78 49.2309H161.641V45.1395H164.78V39.6621H169.561V45.1395H173.939V49.2309H169.561V56.3797C169.561 56.808 169.603 57.2014 169.69 57.5636C169.774 57.9292 169.941 58.2356 170.184 58.4863C170.525 58.8868 171.013 59.0887 171.643 59.0887C172.057 59.0887 172.384 59.0469 172.627 58.9599C172.871 58.8763 173.101 58.7579 173.32 58.6117L174.67 62.8111C174.11 63.0792 173.508 63.2812 172.864 63.4135C172.22 63.5458 171.507 63.6155 170.731 63.6155C169.829 63.6155 169.022 63.4727 168.305 63.1872C167.588 62.9016 166.986 62.5116 166.499 62.0137C165.354 60.8959 164.783 59.3046 164.783 57.2432V49.2309H164.78Z" fill="white"/>
<path d="M183.228 62.1557L175.711 45.1387H181.147L185.671 55.9819H185.925L190.268 45.1387H195.596L184.394 70.9166H179.247L183.225 62.1522L183.228 62.1557Z" fill="white"/>
<path d="M24.117 95.7153C22.8258 97.2718 21.3085 98.4591 19.5545 99.274C17.804 100.089 15.8447 100.496 13.68 100.496C11.7346 100.496 9.92842 100.144 8.26143 99.4376C6.59444 98.7308 5.15366 97.7697 3.93561 96.5544C2.71756 95.3392 1.75705 93.8941 1.05406 92.2262C0.347588 90.5583 -0.00390625 88.765 -0.00390625 86.8394C-0.00390625 84.9138 0.347588 83.1205 1.05406 81.4526C1.76053 79.7847 2.72104 78.3431 3.93561 77.1243C5.15018 75.9056 6.59444 74.9445 8.26143 74.2412C9.92842 73.5343 11.7346 73.1826 13.68 73.1826C15.7716 73.1826 17.6161 73.5482 19.21 74.2795C20.8039 75.0107 22.2203 76.0693 23.4627 77.4551L19.9965 80.8154C19.2169 79.917 18.3225 79.1962 17.3133 78.6599C16.304 78.1237 15.1069 77.8556 13.7183 77.8556C12.5002 77.8556 11.3588 78.068 10.2869 78.4928C9.21499 78.9176 8.28579 79.52 7.4958 80.3C6.70581 81.08 6.07938 82.0237 5.61652 83.131C5.15366 84.2383 4.92398 85.4744 4.92398 86.8359C4.92398 88.1974 5.15366 89.4335 5.61652 90.5409C6.07938 91.6482 6.70581 92.5918 7.4958 93.3718C8.28579 94.1518 9.21499 94.7542 10.2869 95.179C11.3588 95.6038 12.5002 95.8197 13.7183 95.8197C15.1765 95.8197 16.4746 95.5203 17.6056 94.9248C18.7367 94.3294 19.7389 93.4832 20.6159 92.3864L24.1204 95.7083L24.117 95.7153Z" fill="white"/>
<path d="M27.1124 73.7716H31.8941V81.1119L31.6018 84.3607H31.8941C32.4057 83.5075 33.14 82.8076 34.1006 82.261C35.0611 81.7143 36.1364 81.4392 37.3301 81.4392C39.6409 81.4392 41.3497 82.1217 42.4564 83.4832C43.5631 84.8482 44.1164 86.7076 44.1164 89.0685V99.9117H39.3347V89.65C39.3347 88.4069 39.0424 87.4667 38.4577 86.819C37.873 86.1748 37.0587 85.851 36.0111 85.851C35.3534 85.851 34.7687 85.9903 34.2606 86.2723C33.7491 86.5509 33.3175 86.9374 32.966 87.4214C32.6145 87.9089 32.3466 88.473 32.1621 89.1207C31.9811 89.7649 31.8872 90.4543 31.8872 91.1821V99.9082H27.1055V73.7646L27.1124 73.7716Z" fill="white"/>
<path d="M58.9002 98.0181H58.6079C58.0476 98.7006 57.3725 99.2856 56.5825 99.7696C55.7925 100.257 54.7763 100.501 53.5339 100.501C52.6081 100.501 51.7381 100.348 50.9238 100.045C50.1094 99.7418 49.396 99.3204 48.7904 98.7842C48.1814 98.2479 47.7081 97.6038 47.3671 96.8481C47.026 96.0925 46.8555 95.2673 46.8555 94.3654C46.8555 93.4635 47.0364 92.607 47.4019 91.8653C47.7673 91.1236 48.2788 90.4829 48.9331 89.9466C49.5909 89.4104 50.3635 89.003 51.2509 88.7244C52.1383 88.4458 53.1058 88.3031 54.1533 88.3031C55.3227 88.3031 56.2832 88.3936 57.0349 88.5782C57.7901 88.7592 58.4095 88.9508 58.8968 89.1458V88.5991C58.8968 87.6484 58.5209 86.865 57.7657 86.2452C57.0105 85.6253 56.0744 85.3154 54.9572 85.3154C53.3042 85.3154 51.9052 86.0084 50.7602 87.3977L47.294 85.023C49.1906 82.6377 51.7834 81.4434 55.0686 81.4434C57.8423 81.4434 59.9582 82.0945 61.4199 83.3968C62.878 84.6991 63.6089 86.6282 63.6089 89.1841V99.9194H58.9002V98.0216V98.0181ZM58.9002 92.6487C58.3399 92.3806 57.7622 92.1682 57.1671 92.0115C56.572 91.8548 55.9212 91.7747 55.2148 91.7747C54.0698 91.7747 53.1893 92.0254 52.5699 92.5234C51.9504 93.0213 51.6407 93.6377 51.6407 94.3689C51.6407 95.1001 51.94 95.6816 52.5351 96.1204C53.1302 96.5591 53.8192 96.7785 54.5953 96.7785C55.2287 96.7785 55.8099 96.6636 56.3458 96.4303C56.8818 96.2005 57.3377 95.8941 57.7135 95.518C58.0894 95.1419 58.3817 94.7032 58.5905 94.2052C58.7958 93.7073 58.9002 93.1885 58.9002 92.6522V92.6487Z" fill="white"/>
<path d="M67.4062 99.916V73.7725H72.188V99.916H67.4062Z" fill="white"/>
<path d="M76.2695 99.916V73.7725H81.0512V99.916H76.2695Z" fill="white"/>
<path d="M101.888 95.6085C101.06 97.0675 99.9461 98.2514 98.5506 99.1498C97.1516 100.052 95.4428 100.501 93.4244 100.501C92.0601 100.501 90.8038 100.264 89.6484 99.7905C88.493 99.3169 87.4907 98.6519 86.6381 97.7988C85.7854 96.9456 85.1242 95.9428 84.6474 94.7867C84.1741 93.6307 83.9375 92.3597 83.9375 90.9704C83.9375 89.6785 84.1672 88.4563 84.63 87.3002C85.0929 86.1442 85.7367 85.1344 86.565 84.2708C87.3933 83.4073 88.3712 82.7178 89.5022 82.2094C90.6333 81.6975 91.8792 81.4434 93.2434 81.4434C94.6772 81.4434 95.9544 81.6801 97.075 82.1537C98.1922 82.6273 99.1318 83.2854 99.8835 84.1246C100.639 84.9638 101.209 85.9562 101.599 87.1018C101.989 88.2474 102.184 89.487 102.184 90.8276V91.2663C102.16 91.4126 102.149 91.5449 102.149 91.6668C102.125 91.7887 102.114 91.921 102.114 92.0672H88.6496C88.747 92.7985 88.9454 93.4252 89.2517 93.9476C89.5544 94.4699 89.9338 94.9086 90.3827 95.2603C90.8317 95.612 91.3258 95.8697 91.8618 96.0264C92.3977 96.1865 92.9441 96.2632 93.5044 96.2632C94.6007 96.2632 95.5055 96.0124 96.2224 95.5145C96.9393 95.0166 97.5066 94.3898 97.9207 93.6342L101.899 95.605L101.888 95.6085ZM97.5448 88.6722C97.5205 88.3553 97.4161 88.0036 97.2351 87.6136C97.0542 87.2236 96.7862 86.858 96.4312 86.5168C96.0797 86.1755 95.6412 85.897 95.1157 85.6776C94.5937 85.4582 93.9673 85.3503 93.2364 85.3503C92.2133 85.3503 91.3154 85.6428 90.5358 86.2278C89.7563 86.8127 89.2099 87.6276 88.8932 88.6757H97.5414L97.5448 88.6722Z" fill="white"/>
<path d="M109.732 84.3619H110.024C110.584 83.46 111.336 82.7497 112.286 82.2274C113.236 81.7051 114.318 81.4404 115.533 81.4404C116.65 81.4404 117.638 81.6215 118.488 81.9871C119.34 82.3527 120.04 82.8716 120.586 83.5401C121.133 84.2087 121.547 85.0131 121.829 85.9497C122.107 86.8864 122.25 87.9276 122.25 89.0732V99.9164H117.468V89.6547C117.468 88.3663 117.183 87.4087 116.612 86.7889C116.041 86.1691 115.206 85.8592 114.113 85.8592C113.455 85.8592 112.878 85.9985 112.38 86.2805C111.882 86.5591 111.454 86.9387 111.103 87.4122C110.751 87.8858 110.483 88.4464 110.299 89.0906C110.118 89.7348 110.024 90.4242 110.024 91.152V99.9164H105.242V82.0254H109.732V84.3619Z" fill="white"/>
<path d="M134.256 108.388C132.99 108.388 131.865 108.225 130.881 107.894C129.896 107.567 129.036 107.138 128.309 106.616C127.578 106.094 126.969 105.516 126.485 104.882C125.998 104.248 125.646 103.614 125.427 102.984L129.99 101.16C130.331 102.11 130.891 102.845 131.667 103.367C132.447 103.889 133.31 104.151 134.26 104.151C135.767 104.151 136.96 103.66 137.837 102.681C138.714 101.703 139.153 100.352 139.153 98.6385V97.3954H138.861C138.3 98.1754 137.566 98.7882 136.654 99.2409C135.742 99.6901 134.663 99.9164 133.425 99.9164C132.353 99.9164 131.312 99.7005 130.303 99.2653C129.294 98.83 128.399 98.2102 127.62 97.4024C126.84 96.5945 126.207 95.623 125.723 94.4913C125.236 93.3596 124.992 92.0922 124.992 90.6958C124.992 89.2995 125.236 88.0251 125.723 86.8829C126.21 85.7373 126.84 84.7623 127.62 83.9545C128.399 83.1467 129.294 82.5268 130.303 82.0916C131.312 81.6563 132.353 81.4404 133.425 81.4404C134.667 81.4404 135.742 81.6668 136.654 82.116C137.566 82.5651 138.304 83.1815 138.861 83.9615H139.153V82.0254H143.715V98.6385C143.715 100.146 143.482 101.504 143.023 102.709C142.56 103.914 141.916 104.938 141.088 105.777C140.26 106.616 139.268 107.26 138.112 107.713C136.957 108.162 135.673 108.388 134.263 108.388H134.256ZM134.437 95.6091C135.022 95.6091 135.6 95.5011 136.17 95.2852C136.741 95.0694 137.246 94.7525 137.684 94.3346C138.123 93.9168 138.474 93.4014 138.742 92.7921C139.01 92.1827 139.142 91.4828 139.142 90.6958C139.142 89.9089 139.007 89.202 138.742 88.5822C138.474 87.9589 138.123 87.4401 137.684 87.0222C137.246 86.6044 136.741 86.2875 136.17 86.0716C135.6 85.8557 135.022 85.7478 134.437 85.7478C133.853 85.7478 133.282 85.8557 132.722 86.0716C132.161 86.2875 131.664 86.6079 131.225 87.0396C130.787 87.4714 130.435 87.9903 130.167 88.5996C129.899 89.209 129.767 89.9089 129.767 90.6958C129.767 91.4828 129.899 92.1827 130.167 92.7921C130.435 93.4014 130.787 93.9168 131.225 94.3346C131.664 94.7525 132.161 95.0694 132.722 95.2852C133.282 95.5011 133.853 95.6091 134.437 95.6091Z" fill="white"/>
<path d="M164.548 95.6085C163.72 97.0675 162.606 98.2514 161.211 99.1498C159.812 100.052 158.103 100.501 156.085 100.501C154.72 100.501 153.464 100.264 152.309 99.7905C151.153 99.3169 150.147 98.6519 149.298 97.7988C148.446 96.9456 147.784 95.9428 147.308 94.7867C146.834 93.6307 146.598 92.3597 146.598 90.9704C146.598 89.6785 146.827 88.4563 147.29 87.3002C147.753 86.1442 148.397 85.1344 149.225 84.2708C150.053 83.4073 151.031 82.7178 152.162 82.2094C153.293 81.6975 154.539 81.4434 155.904 81.4434C157.337 81.4434 158.615 81.6801 159.735 82.1537C160.852 82.6273 161.792 83.2854 162.547 84.1246C163.302 84.9638 163.873 85.9562 164.263 87.1018C164.653 88.2474 164.848 89.487 164.848 90.8276V91.2663C164.823 91.4126 164.813 91.5449 164.813 91.6668C164.788 91.7887 164.778 91.921 164.778 92.0672H151.313C151.411 92.7985 151.609 93.4252 151.915 93.9476C152.218 94.4699 152.597 94.9086 153.046 95.2603C153.495 95.612 153.989 95.8697 154.525 96.0264C155.061 96.1865 155.608 96.2632 156.168 96.2632C157.264 96.2632 158.169 96.0124 158.886 95.5145C159.603 95.0166 160.17 94.3898 160.584 93.6342L164.562 95.605L164.548 95.6085ZM160.205 88.6722C160.181 88.3553 160.076 88.0036 159.895 87.6136C159.714 87.2236 159.446 86.858 159.091 86.5168C158.74 86.1755 158.301 85.897 157.779 85.6776C157.257 85.4582 156.631 85.3503 155.9 85.3503C154.877 85.3503 153.979 85.6428 153.199 86.2278C152.42 86.8127 151.874 87.6276 151.557 88.6757H160.205V88.6722Z" fill="white"/>
</svg>
