<svg width="531" height="142" viewBox="0 0 531 142" fill="none" xmlns="http://www.w3.org/2000/svg">
<path d="M1.26953 22.5H11.4872C12.6044 22.5 13.6519 22.6776 14.6263 23.0293C15.6008 23.381 16.4464 23.8685 17.1633 24.4883C17.8803 25.1081 18.4475 25.8324 18.8617 26.6611C19.2758 27.4898 19.4811 28.3778 19.4811 29.3249C19.4811 30.7143 19.147 31.8738 18.4788 32.8105C17.8106 33.7472 16.9754 34.461 15.9801 34.945V35.2375C17.3165 35.725 18.3953 36.4841 19.2097 37.5183C20.024 38.5525 20.4312 39.8374 20.4312 41.3695C20.4312 42.4907 20.205 43.4936 19.756 44.3815C19.3071 45.2694 18.6911 46.032 17.9116 46.6623C17.132 47.296 16.2272 47.7835 15.1936 48.1213C14.16 48.4625 13.0463 48.6331 11.8561 48.6331H1.27301V22.5H1.26953ZM11.1218 33.1622C12.2633 33.1622 13.1473 32.8523 13.7667 32.2325C14.3862 31.6126 14.6959 30.8744 14.6959 30.0248C14.6959 29.1752 14.3931 28.4439 13.7841 27.8346C13.1751 27.2252 12.3364 26.9223 11.2645 26.9223H6.19045V33.1657H11.1183L11.1218 33.1622ZM11.6682 44.1168C12.9106 44.1168 13.8572 43.8069 14.515 43.1871C15.1727 42.5673 15.4998 41.7699 15.4998 40.7949C15.4998 39.8199 15.1657 39.0121 14.4976 38.3679C13.8294 37.7237 12.8375 37.3999 11.522 37.3999H6.19393V44.1168H11.6682Z" fill="white"/>
<path d="M34.6659 46.7455H34.3735C33.8132 47.428 33.1381 48.013 32.3481 48.497C31.5581 48.9845 30.5419 49.2283 29.2995 49.2283C28.3738 49.2283 27.5037 49.0751 26.6894 48.7721C25.875 48.4692 25.1616 48.0478 24.5561 47.5116C23.947 46.9754 23.4737 46.3312 23.1327 45.5756C22.7916 44.8199 22.6211 43.9947 22.6211 43.0928C22.6211 42.191 22.8021 41.3344 23.1675 40.5927C23.5329 39.851 24.0445 39.2103 24.6987 38.674C25.3565 38.1378 26.1291 37.7304 27.0165 37.4518C27.904 37.1733 28.8714 37.0305 29.919 37.0305C31.0883 37.0305 32.0488 37.121 32.8005 37.3056C33.5557 37.4866 34.1752 37.6782 34.6624 37.8732V37.3265C34.6624 36.3759 34.2865 35.5924 33.5313 34.9726C32.7762 34.3528 31.84 34.0429 30.7229 34.0429C29.0698 34.0429 27.6708 34.7358 26.5258 36.1251L23.0596 33.7504C24.9563 31.3651 27.549 30.1708 30.8342 30.1708C33.6079 30.1708 35.7238 30.8219 37.1855 32.1242C38.6437 33.4265 39.3745 35.3556 39.3745 37.9115V48.6468H34.6659V46.749V46.7455ZM34.6659 41.3761C34.1056 41.108 33.5279 40.8956 32.9328 40.7354C32.3377 40.5787 31.6869 40.4987 30.9804 40.4987C29.8354 40.4987 28.955 40.7494 28.3355 41.2473C27.716 41.7452 27.4063 42.3616 27.4063 43.0928C27.4063 43.8241 27.7056 44.4056 28.3007 44.8443C28.8958 45.2831 29.5849 45.5024 30.3609 45.5024C30.9943 45.5024 31.5755 45.3875 32.1114 45.1542C32.6474 44.9244 33.1033 44.618 33.4791 44.2419C33.855 43.8658 34.1473 43.4271 34.3561 42.9292C34.5615 42.4312 34.6659 41.9124 34.6659 41.3761Z" fill="white"/>
<path d="M43.1758 30.7542H47.6652V33.0906H47.9575C48.5178 32.2132 49.2765 31.5098 50.237 30.9735C51.1975 30.4373 52.2624 30.1692 53.4318 30.1692C54.7925 30.1692 55.9375 30.486 56.8632 31.1198C57.7889 31.7535 58.4432 32.5335 58.8329 33.4563C59.3932 32.5544 60.1832 31.7814 61.2064 31.1372C62.2296 30.493 63.4685 30.1692 64.9302 30.1692C66.0264 30.1692 66.973 30.3467 67.7769 30.6984C68.5808 31.0501 69.242 31.5446 69.7675 32.1783C70.2896 32.8121 70.6863 33.5712 70.9543 34.4591C71.2222 35.347 71.3545 36.3151 71.3545 37.3632V48.6452H66.5728V38.2372C66.5728 35.8032 65.574 34.5845 63.5799 34.5845C62.9465 34.5845 62.3862 34.7237 61.9024 35.0058C61.4152 35.2844 61.008 35.6639 60.6809 36.1375C60.3538 36.611 60.0962 37.1786 59.9153 37.8367C59.7343 38.4948 59.6403 39.2017 59.6403 39.9538V48.6452H54.8586V38.2372C54.8586 35.8032 53.8111 34.5845 51.7195 34.5845C51.1105 34.5845 50.5746 34.7237 50.1152 35.0058C49.6523 35.2844 49.2626 35.6639 48.9459 36.1375C48.6292 36.611 48.3856 37.1786 48.215 37.8367C48.0445 38.4948 47.961 39.2017 47.961 39.9538V48.6452H43.1793V30.7542H43.1758Z" fill="white"/>
<path d="M92.2201 44.3359C91.3918 45.7949 90.2782 46.9788 88.8826 47.8772C87.4836 48.7791 85.7749 49.2283 83.7564 49.2283C82.3922 49.2283 81.1359 48.9915 79.9804 48.5179C78.825 48.0444 77.8228 47.3793 76.9701 46.5262C76.1175 45.6731 75.4563 44.6702 74.9795 43.5142C74.5062 42.3581 74.2695 41.0871 74.2695 39.6978C74.2695 38.4094 74.4992 37.1837 74.9621 36.0276C75.4249 34.8716 76.0688 33.8618 76.897 32.9982C77.7253 32.1347 78.7032 31.4452 79.8343 30.9368C80.9653 30.425 82.2112 30.1708 83.5754 30.1708C85.0092 30.1708 86.2865 30.4075 87.4071 30.8811C88.5242 31.3547 89.4638 32.0128 90.2155 32.852C90.9707 33.6912 91.5415 34.6836 91.9313 35.8292C92.321 36.9748 92.5159 38.2144 92.5159 39.555V39.9938C92.4916 40.14 92.4811 40.2723 92.4811 40.3942C92.4567 40.5161 92.4463 40.6484 92.4463 40.7946H78.9816C79.0791 41.5259 79.2775 42.1527 79.5837 42.675C79.8865 43.1973 80.2658 43.636 80.7148 43.9877C81.1637 44.3394 81.6579 44.5971 82.1938 44.7538C82.7298 44.914 83.2761 44.9906 83.8364 44.9906C84.9327 44.9906 85.8375 44.7399 86.5544 44.2419C87.2713 43.744 87.8386 43.1172 88.2527 42.3616L92.2305 44.3324L92.2201 44.3359ZM87.8769 37.3996C87.8525 37.0827 87.7481 36.731 87.5672 36.341C87.3862 35.951 87.1182 35.5854 86.7632 35.2442C86.4117 34.9029 85.9732 34.6244 85.4477 34.405C84.9257 34.1856 84.2993 34.0777 83.5685 34.0777C82.5453 34.0777 81.6474 34.3702 80.8679 34.9552C80.0883 35.5402 79.5419 36.355 79.2253 37.4031H87.8734L87.8769 37.3996Z" fill="white"/>
<path d="M100.056 33.0878H100.348C100.908 32.1859 101.66 31.4756 102.61 30.9533C103.56 30.431 104.643 30.1698 105.857 30.1698C106.974 30.1698 107.963 30.3509 108.812 30.7165C109.664 31.0821 110.364 31.5975 110.91 32.2695C111.457 32.9381 111.871 33.7424 112.153 34.6791C112.431 35.6158 112.574 36.6569 112.574 37.8026V48.6458H107.792V38.3841C107.792 37.0957 107.507 36.1381 106.936 35.5183C106.365 34.8985 105.53 34.5886 104.437 34.5886C103.78 34.5886 103.202 34.7279 102.704 35.0099C102.207 35.2885 101.778 35.668 101.427 36.1416C101.075 36.6152 100.808 37.1758 100.623 37.82C100.442 38.4642 100.348 39.1536 100.348 39.8814V48.6458H95.5664V30.7548H100.056V33.0913V33.0878Z" fill="white"/>
<path d="M129.846 46.4879H129.553C129.115 47.2435 128.433 47.8877 127.51 48.4239C126.585 48.9602 125.443 49.2283 124.079 49.2283C122.934 49.2283 121.848 48.9915 120.811 48.5179C119.778 48.0444 118.866 47.3863 118.076 46.5471C117.286 45.7079 116.659 44.7016 116.196 43.5351C115.734 42.3651 115.504 41.0871 115.504 39.7013C115.504 38.3154 115.734 37.0375 116.196 35.8675C116.659 34.6975 117.286 33.6947 118.076 32.8555C118.866 32.0163 119.778 31.3582 120.811 30.8846C121.845 30.411 122.934 30.1743 124.079 30.1743C125.44 30.1743 126.585 30.4424 127.51 30.9786C128.436 31.5149 129.115 32.1591 129.553 32.9147H129.846L129.553 30.3588V22.5067H134.335V48.6503H129.846V46.4948V46.4879ZM125.064 44.8095C125.697 44.8095 126.299 44.6946 126.87 44.4613C127.441 44.2315 127.945 43.8937 128.384 43.4585C128.822 43.0232 129.174 42.4835 129.442 41.8532C129.71 41.2195 129.842 40.5022 129.842 39.6978C129.842 38.8934 129.706 38.1761 129.442 37.5424C129.174 36.9086 128.822 36.3724 128.384 35.9371C127.945 35.5019 127.441 35.1641 126.87 34.9343C126.299 34.7045 125.697 34.5861 125.064 34.5861C124.43 34.5861 123.828 34.7079 123.258 34.9517C122.687 35.1954 122.182 35.5367 121.744 35.9754C121.305 36.4142 120.954 36.9504 120.686 37.5807C120.418 38.2144 120.286 38.9213 120.286 39.6978C120.286 40.4743 120.418 41.1846 120.686 41.8149C120.954 42.4486 121.305 42.9849 121.744 43.4202C122.182 43.8589 122.687 44.2001 123.258 44.4439C123.828 44.6876 124.43 44.8095 125.064 44.8095Z" fill="white"/>
<path d="M149.267 46.7455H148.975C148.415 47.428 147.74 48.013 146.95 48.497C146.16 48.9845 145.143 49.2283 143.901 49.2283C142.975 49.2283 142.105 49.0751 141.291 48.7721C140.477 48.4692 139.763 48.0478 139.158 47.5116C138.549 46.9754 138.075 46.3312 137.734 45.5756C137.393 44.8199 137.223 43.9947 137.223 43.0928C137.223 42.191 137.404 41.3344 137.769 40.5927C138.134 39.851 138.646 39.2103 139.3 38.674C139.958 38.1378 140.731 37.7304 141.618 37.4518C142.506 37.1733 143.473 37.0305 144.521 37.0305C145.69 37.0305 146.65 37.121 147.406 37.3056C148.161 37.4866 148.78 37.6782 149.267 37.8732V37.3265C149.267 36.3759 148.892 35.5924 148.136 34.9726C147.381 34.3528 146.445 34.0429 145.328 34.0429C143.671 34.0429 142.276 34.7358 141.131 36.1251L137.665 33.7504C139.561 31.3651 142.154 30.1708 145.439 30.1708C148.213 30.1708 150.329 30.8219 151.791 32.1242C153.249 33.4265 153.98 35.3556 153.98 37.9115V48.6468H149.271V46.749L149.267 46.7455ZM149.267 41.3761C148.707 41.108 148.129 40.8956 147.534 40.7354C146.939 40.5787 146.288 40.4987 145.582 40.4987C144.437 40.4987 143.557 40.7494 142.937 41.2473C142.318 41.7452 142.008 42.3616 142.008 43.0928C142.008 43.8241 142.304 44.4056 142.902 44.8443C143.497 45.2831 144.186 45.5024 144.962 45.5024C145.596 45.5024 146.177 45.3875 146.713 45.1542C147.249 44.9244 147.705 44.618 148.081 44.2419C148.457 43.8658 148.749 43.4271 148.958 42.9292C149.163 42.4312 149.267 41.9124 149.267 41.3761Z" fill="white"/>
<path d="M24.1209 81.3298C22.8297 82.8863 21.3124 84.0737 19.5584 84.8885C17.8079 85.7033 15.8486 86.1107 13.6839 86.1107C11.7385 86.1107 9.93232 85.759 8.26534 85.0522C6.59835 84.3453 5.15757 83.3843 3.93952 82.169C2.72147 80.9538 1.76095 79.5087 1.05796 77.8408C0.351495 76.1728 0 74.3796 0 72.454C0 70.5284 0.351495 68.7351 1.05796 67.0672C1.76443 65.3992 2.72495 63.9576 3.93952 62.7389C5.15409 61.5202 6.59835 60.5591 8.26534 59.8557C9.93232 59.1489 11.7385 58.7972 13.6839 58.7972C15.7755 58.7972 17.62 59.1628 19.2139 59.894C20.8078 60.6253 22.2242 61.6838 23.4666 63.0697L20.0004 66.4299C19.2208 65.5316 18.3264 64.8108 17.3172 64.2745C16.3079 63.7383 15.1108 63.4702 13.7222 63.4702C12.5041 63.4702 11.3627 63.6826 10.2908 64.1074C9.2189 64.5322 8.2897 65.1346 7.49971 65.9146C6.70971 66.6946 6.08329 67.6382 5.62043 68.7455C5.15757 69.8528 4.92788 71.089 4.92788 72.4505C4.92788 73.812 5.15757 75.0481 5.62043 76.1554C6.08329 77.2627 6.70971 78.2064 7.49971 78.9864C8.2897 79.7664 9.2189 80.3688 10.2908 80.7936C11.3627 81.2184 12.5041 81.4343 13.7222 81.4343C15.1804 81.4343 16.4785 81.1348 17.6095 80.5394C18.7406 79.9439 19.7428 79.0978 20.6198 78.0009L24.1243 81.3229L24.1209 81.3298Z" fill="white"/>
<path d="M35.2252 67.0534C36.6103 67.0534 37.884 67.2902 39.0394 67.7638C40.1948 68.2373 41.1936 68.8954 42.0323 69.7346C42.871 70.5738 43.5288 71.5801 44.0021 72.7466C44.4754 73.9166 44.712 75.1945 44.712 76.5804C44.712 77.9663 44.4754 79.2442 44.0021 80.4142C43.5288 81.5842 42.871 82.587 42.0323 83.4262C41.1936 84.2654 40.1948 84.9235 39.0394 85.3971C37.884 85.8707 36.6137 86.1074 35.2252 86.1074C33.8366 86.1074 32.5663 85.8707 31.4109 85.3971C30.2555 84.9235 29.2567 84.2654 28.418 83.4262C27.5793 82.587 26.9215 81.5807 26.4482 80.4142C25.9749 79.2477 25.7383 77.9663 25.7383 76.5804C25.7383 75.1945 25.9749 73.9131 26.4482 72.7466C26.9215 71.5767 27.5793 70.5738 28.418 69.7346C29.2567 68.8954 30.2555 68.2373 31.4109 67.7638C32.5663 67.2902 33.8366 67.0534 35.2252 67.0534ZM35.2252 81.6956C35.8342 81.6956 36.4223 81.5807 36.9965 81.3474C37.5673 81.1176 38.0719 80.7798 38.5104 80.3446C38.9489 79.9058 39.2934 79.3696 39.551 78.7393C39.805 78.1056 39.9338 77.3883 39.9338 76.5839C39.9338 75.7795 39.805 75.0622 39.551 74.4285C39.2969 73.7947 38.9489 73.2585 38.5104 72.8232C38.0719 72.3845 37.5673 72.0502 36.9965 71.8204C36.4258 71.5906 35.8342 71.4722 35.2252 71.4722C34.6161 71.4722 33.9967 71.5871 33.4364 71.8204C32.8761 72.0502 32.3784 72.388 31.9399 72.8232C31.5014 73.262 31.1569 73.7982 30.8993 74.4285C30.6453 75.0622 30.5165 75.7795 30.5165 76.5839C30.5165 77.3883 30.6453 78.1056 30.8993 78.7393C31.1534 79.3731 31.5014 79.9093 31.9399 80.3446C32.3784 80.7798 32.8761 81.1176 33.4364 81.3474C33.9967 81.5807 34.5918 81.6956 35.2252 81.6956Z" fill="white"/>
<path d="M47.4062 67.6384H51.8956V69.9749H52.188C52.7483 69.0974 53.5069 68.394 54.4675 67.8578C55.428 67.3215 56.4929 67.0534 57.6622 67.0534C59.023 67.0534 60.1679 67.3703 61.0937 68.004C62.0194 68.6378 62.6736 69.4143 63.0634 70.3405C63.6237 69.4386 64.4137 68.6656 65.4369 68.0214C66.46 67.3772 67.699 67.0534 69.1606 67.0534C70.2569 67.0534 71.2035 67.231 72.0074 67.5827C72.8113 67.9344 73.4725 68.4288 73.998 69.0626C74.52 69.6963 74.9168 70.4554 75.1847 71.3433C75.4527 72.2313 75.585 73.1993 75.585 74.2474V85.5294H70.8033V75.1214C70.8033 72.6874 69.8044 71.4687 67.8103 71.4687C67.1769 71.4687 66.6166 71.608 66.1329 71.89C65.6457 72.1686 65.2385 72.5482 64.9114 73.0217C64.5842 73.4953 64.3267 74.0629 64.1457 74.721C63.9648 75.3791 63.8708 76.086 63.8708 76.8381V85.5294H59.0891V75.1214C59.0891 72.6874 58.0416 71.4687 55.95 71.4687C55.341 71.4687 54.805 71.608 54.3457 71.89C53.8828 72.1686 53.493 72.5482 53.1763 73.0217C52.8596 73.4953 52.616 74.0629 52.4455 74.721C52.275 75.3791 52.1914 76.086 52.1914 76.8381V85.5294H47.4097V67.6384H47.4062Z" fill="white"/>
<path d="M79.5156 67.6384H84.005V69.9749H84.2973C84.8576 69.0974 85.6163 68.394 86.5768 67.8578C87.5374 67.3215 88.6023 67.0534 89.7716 67.0534C91.1323 67.0534 92.2773 67.3703 93.203 68.004C94.1287 68.6378 94.783 69.4143 95.1728 70.3405C95.7331 69.4386 96.5231 68.6656 97.5462 68.0214C98.5694 67.3772 99.8083 67.0534 101.27 67.0534C102.366 67.0534 103.313 67.231 104.117 67.5827C104.921 67.9344 105.582 68.4288 106.107 69.0626C106.629 69.6963 107.026 70.4554 107.294 71.3433C107.562 72.2313 107.694 73.1993 107.694 74.2474V85.5294H102.913V75.1214C102.913 72.6874 101.914 71.4687 99.9197 71.4687C99.2863 71.4687 98.726 71.608 98.2423 71.89C97.7551 72.1686 97.3479 72.5482 97.0207 73.0217C96.6936 73.4953 96.4361 74.0629 96.2551 74.721C96.0741 75.3791 95.9802 76.086 95.9802 76.8381V85.5294H91.1985V75.1214C91.1985 72.6874 90.1509 71.4687 88.0594 71.4687C87.4503 71.4687 86.9144 71.608 86.455 71.89C85.9922 72.1686 85.6024 72.5482 85.2857 73.0217C84.969 73.4953 84.7254 74.0629 84.5549 74.721C84.3843 75.3791 84.3008 76.086 84.3008 76.8381V85.5294H79.5191V67.6384H79.5156Z" fill="white"/>
<path d="M124.007 83.1921H123.714C123.154 84.094 122.399 84.8043 121.452 85.3266C120.506 85.8489 119.42 86.1101 118.205 86.1101C115.943 86.1101 114.259 85.4172 113.152 84.0278C112.046 82.6419 111.492 80.7895 111.492 78.4773V67.6341H116.274V77.8958C116.274 79.1877 116.559 80.1418 117.13 80.7616C117.701 81.3814 118.536 81.6913 119.629 81.6913C120.287 81.6913 120.864 81.552 121.362 81.27C121.86 80.9914 122.288 80.6119 122.639 80.1383C122.991 79.6647 123.259 79.1041 123.443 78.4599C123.624 77.8157 123.718 77.1263 123.718 76.3985V67.6341H128.5V85.5251H124.01V83.1886L124.007 83.1921Z" fill="white"/>
<path d="M137.083 69.9749H137.375C137.936 69.073 138.687 68.3627 139.638 67.8404C140.588 67.318 141.67 67.0534 142.885 67.0534C144.002 67.0534 144.99 67.2345 145.839 67.6001C146.692 67.9657 147.391 68.4845 147.938 69.1531C148.484 69.8217 148.898 70.626 149.18 71.5627C149.459 72.4994 149.601 73.5405 149.601 74.6862V85.5294H144.819V75.2677C144.819 73.9793 144.534 73.0217 143.963 72.4019C143.393 71.7821 142.557 71.4722 141.465 71.4722C140.807 71.4722 140.229 71.6115 139.732 71.8935C139.234 72.1721 138.806 72.5516 138.454 73.0252C138.103 73.4988 137.835 74.0594 137.65 74.7036C137.469 75.3478 137.375 76.0372 137.375 76.765V85.5294H132.594V67.6384H137.083V69.9749Z" fill="white"/>
<path d="M156.199 65.2277C155.785 65.2277 155.391 65.1476 155.012 64.991C154.636 64.8343 154.306 64.6149 154.027 64.3328C153.749 64.0543 153.53 63.7304 153.369 63.3648C153.209 62.9992 153.133 62.5988 153.133 62.16C153.133 61.7213 153.213 61.3208 153.369 60.9552C153.526 60.5896 153.745 60.2692 154.027 59.9872C154.309 59.7051 154.636 59.4892 155.012 59.3291C155.388 59.1724 155.785 59.0923 156.199 59.0923C157.051 59.0923 157.779 59.3917 158.388 59.9872C158.997 60.5826 159.3 61.3069 159.3 62.16C159.3 63.0131 158.997 63.7374 158.388 64.3328C157.779 64.9283 157.048 65.2277 156.199 65.2277ZM153.825 85.5283V67.6373H158.607V85.5283H153.825Z" fill="white"/>
<path d="M164.78 71.7309H161.641V67.6394H164.78V62.162H169.561V67.6394H173.939V71.7309H169.561V78.8796C169.561 79.3079 169.603 79.7014 169.69 80.0635C169.774 80.4291 169.941 80.7356 170.184 80.9863C170.525 81.3867 171.013 81.5887 171.643 81.5887C172.057 81.5887 172.384 81.5469 172.627 81.4598C172.871 81.3763 173.101 81.2579 173.32 81.1116L174.67 85.311C174.11 85.5792 173.508 85.7811 172.864 85.9134C172.22 86.0457 171.507 86.1154 170.731 86.1154C169.829 86.1154 169.022 85.9726 168.305 85.6871C167.588 85.4016 166.986 85.0116 166.499 84.5136C165.354 83.3959 164.783 81.8046 164.783 79.7432V71.7309H164.78Z" fill="white"/>
<path d="M183.228 84.6557L175.711 67.6387H181.147L185.671 78.4819H185.925L190.268 67.6387H195.596L184.394 93.4166H179.247L183.225 84.6522L183.228 84.6557Z" fill="white"/>
<path d="M24.117 118.215C22.8258 119.771 21.3085 120.959 19.5545 121.773C17.804 122.588 15.8447 122.996 13.68 122.996C11.7346 122.996 9.92842 122.644 8.26143 121.937C6.59444 121.23 5.15366 120.269 3.93561 119.054C2.71756 117.839 1.75705 116.394 1.05406 114.726C0.347588 113.058 -0.00390625 111.264 -0.00390625 109.339C-0.00390625 107.413 0.347588 105.62 1.05406 103.952C1.76053 102.284 2.72104 100.842 3.93561 99.6238C5.15018 98.405 6.59444 97.444 8.26143 96.7406C9.92842 96.0337 11.7346 95.682 13.68 95.682C15.7716 95.682 17.6161 96.0477 19.21 96.7789C20.8039 97.5101 22.2203 98.5687 23.4627 99.9546L19.9965 103.315C19.2169 102.416 18.3225 101.696 17.3133 101.159C16.304 100.623 15.1069 100.355 13.7183 100.355C12.5002 100.355 11.3588 100.567 10.2869 100.992C9.21499 101.417 8.28579 102.019 7.4958 102.799C6.70581 103.579 6.07938 104.523 5.61652 105.63C5.15366 106.738 4.92398 107.974 4.92398 109.335C4.92398 110.697 5.15366 111.933 5.61652 113.04C6.07938 114.148 6.70581 115.091 7.4958 115.871C8.28579 116.651 9.21499 117.254 10.2869 117.678C11.3588 118.103 12.5002 118.319 13.7183 118.319C15.1765 118.319 16.4746 118.02 17.6056 117.424C18.7367 116.829 19.7389 115.983 20.6159 114.886L24.1204 118.208L24.117 118.215Z" fill="#F9BA04"/>
<path d="M27.1124 96.2711H31.8941V103.611L31.6018 106.86H31.8941C32.4057 106.007 33.14 105.307 34.1006 104.76C35.0611 104.214 36.1364 103.939 37.3301 103.939C39.6409 103.939 41.3497 104.621 42.4564 105.983C43.5631 107.348 44.1164 109.207 44.1164 111.568V122.411H39.3347V112.149C39.3347 110.906 39.0424 109.966 38.4577 109.319C37.873 108.674 37.0587 108.351 36.0111 108.351C35.3534 108.351 34.7687 108.49 34.2606 108.772C33.7491 109.05 33.3175 109.437 32.966 109.921C32.6145 110.408 32.3466 110.973 32.1621 111.62C31.9811 112.264 31.8872 112.954 31.8872 113.682V122.408H27.1055V96.2642L27.1124 96.2711Z" fill="#F9BA04"/>
<path d="M58.9002 120.517H58.6079C58.0476 121.2 57.3725 121.785 56.5825 122.269C55.7925 122.756 54.7763 123 53.5339 123C52.6081 123 51.7381 122.847 50.9238 122.544C50.1094 122.241 49.396 121.82 48.7904 121.284C48.1814 120.747 47.7081 120.103 47.3671 119.347C47.026 118.592 46.8555 117.767 46.8555 116.865C46.8555 115.963 47.0364 115.106 47.4019 114.365C47.7673 113.623 48.2788 112.982 48.9331 112.446C49.5909 111.91 50.3635 111.502 51.2509 111.224C52.1383 110.945 53.1058 110.802 54.1533 110.802C55.3227 110.802 56.2832 110.893 57.0349 111.078C57.7901 111.259 58.4095 111.45 58.8968 111.645V111.098C58.8968 110.148 58.5209 109.364 57.7657 108.745C57.0105 108.125 56.0744 107.815 54.9572 107.815C53.3042 107.815 51.9052 108.508 50.7602 109.897L47.294 107.522C49.1906 105.137 51.7834 103.943 55.0686 103.943C57.8423 103.943 59.9582 104.594 61.4199 105.896C62.878 107.198 63.6089 109.128 63.6089 111.683V122.419H58.9002V120.521V120.517ZM58.9002 115.148C58.3399 114.88 57.7622 114.668 57.1671 114.511C56.572 114.354 55.9212 114.274 55.2148 114.274C54.0698 114.274 53.1893 114.525 52.5699 115.023C51.9504 115.521 51.6407 116.137 51.6407 116.868C51.6407 117.599 51.94 118.181 52.5351 118.62C53.1302 119.058 53.8192 119.278 54.5953 119.278C55.2287 119.278 55.8099 119.163 56.3458 118.93C56.8818 118.7 57.3377 118.393 57.7135 118.017C58.0894 117.641 58.3817 117.203 58.5905 116.705C58.7958 116.207 58.9002 115.688 58.9002 115.152V115.148Z" fill="#F9BA04"/>
<path d="M67.4062 122.416V96.2722H72.188V122.416H67.4062Z" fill="#F9BA04"/>
<path d="M76.2695 122.416V96.2723H81.0512V122.416H76.2695Z" fill="#F9BA04"/>
<path d="M101.888 118.108C101.06 119.567 99.9461 120.751 98.5506 121.649C97.1516 122.551 95.4428 123 93.4244 123C92.0601 123 90.8038 122.763 89.6484 122.29C88.493 121.816 87.4907 121.151 86.6381 120.298C85.7854 119.445 85.1242 118.442 84.6474 117.286C84.1741 116.13 83.9375 114.859 83.9375 113.47C83.9375 112.178 84.1672 110.956 84.63 109.8C85.0929 108.644 85.7367 107.634 86.565 106.77C87.3933 105.907 88.3712 105.217 89.5022 104.709C90.6333 104.197 91.8792 103.943 93.2434 103.943C94.6772 103.943 95.9544 104.179 97.075 104.653C98.1922 105.127 99.1318 105.785 99.8835 106.624C100.639 107.463 101.209 108.455 101.599 109.601C101.989 110.747 102.184 111.986 102.184 113.327V113.766C102.16 113.912 102.149 114.044 102.149 114.166C102.125 114.288 102.114 114.42 102.114 114.567H88.6496C88.747 115.298 88.9454 115.925 89.2517 116.447C89.5544 116.969 89.9338 117.408 90.3827 117.76C90.8317 118.111 91.3258 118.369 91.8618 118.526C92.3977 118.686 92.9441 118.762 93.5044 118.762C94.6007 118.762 95.5055 118.512 96.2224 118.014C96.9393 117.516 97.5066 116.889 97.9207 116.134L101.899 118.104L101.888 118.108ZM97.5448 111.172C97.5205 110.855 97.4161 110.503 97.2351 110.113C97.0542 109.723 96.7862 109.357 96.4312 109.016C96.0797 108.675 95.6412 108.396 95.1157 108.177C94.5937 107.958 93.9673 107.85 93.2364 107.85C92.2133 107.85 91.3154 108.142 90.5358 108.727C89.7563 109.312 89.2099 110.127 88.8932 111.175H97.5414L97.5448 111.172Z" fill="#F9BA04"/>
<path d="M109.732 106.861H110.024C110.584 105.959 111.336 105.249 112.286 104.727C113.236 104.204 114.318 103.94 115.533 103.94C116.65 103.94 117.638 104.121 118.488 104.486C119.34 104.852 120.04 105.371 120.586 106.039C121.133 106.708 121.547 107.512 121.829 108.449C122.107 109.386 122.25 110.427 122.25 111.572V122.416H117.468V112.154C117.468 110.865 117.183 109.908 116.612 109.288C116.041 108.668 115.206 108.358 114.113 108.358C113.455 108.358 112.878 108.498 112.38 108.78C111.882 109.058 111.454 109.438 111.103 109.911C110.751 110.385 110.483 110.946 110.299 111.59C110.118 112.234 110.024 112.923 110.024 113.651V122.416H105.242V104.525H109.732V106.861Z" fill="#F9BA04"/>
<path d="M134.256 130.887C132.99 130.887 131.865 130.724 130.881 130.393C129.896 130.066 129.036 129.637 128.309 129.115C127.578 128.593 126.969 128.015 126.485 127.381C125.998 126.747 125.646 126.114 125.427 125.483L129.99 123.659C130.331 124.609 130.891 125.344 131.667 125.866C132.447 126.389 133.31 126.65 134.26 126.65C135.767 126.65 136.96 126.159 137.837 125.18C138.714 124.202 139.153 122.851 139.153 121.138V119.895H138.861C138.3 120.674 137.566 121.287 136.654 121.74C135.742 122.189 134.663 122.416 133.425 122.416C132.353 122.416 131.312 122.2 130.303 121.764C129.294 121.329 128.399 120.709 127.62 119.901C126.84 119.094 126.207 118.122 125.723 116.99C125.236 115.859 124.992 114.591 124.992 113.195C124.992 111.799 125.236 110.524 125.723 109.382C126.21 108.236 126.84 107.261 127.62 106.454C128.399 105.646 129.294 105.026 130.303 104.591C131.312 104.155 132.353 103.94 133.425 103.94C134.667 103.94 135.742 104.166 136.654 104.615C137.566 105.064 138.304 105.681 138.861 106.461H139.153V104.525H143.715V121.138C143.715 122.645 143.482 124.003 143.023 125.208C142.56 126.413 141.916 127.437 141.088 128.276C140.26 129.115 139.268 129.759 138.112 130.212C136.957 130.661 135.673 130.887 134.263 130.887H134.256ZM134.437 118.108C135.022 118.108 135.6 118 136.17 117.784C136.741 117.568 137.246 117.252 137.684 116.834C138.123 116.416 138.474 115.901 138.742 115.291C139.01 114.682 139.142 113.982 139.142 113.195C139.142 112.408 139.007 111.701 138.742 111.081C138.474 110.458 138.123 109.939 137.684 109.521C137.246 109.103 136.741 108.787 136.17 108.571C135.6 108.355 135.022 108.247 134.437 108.247C133.853 108.247 133.282 108.355 132.722 108.571C132.161 108.787 131.664 109.107 131.225 109.539C130.787 109.971 130.435 110.489 130.167 111.099C129.899 111.708 129.767 112.408 129.767 113.195C129.767 113.982 129.899 114.682 130.167 115.291C130.435 115.901 130.787 116.416 131.225 116.834C131.664 117.252 132.161 117.568 132.722 117.784C133.282 118 133.853 118.108 134.437 118.108Z" fill="#F9BA04"/>
<path d="M164.548 118.108C163.72 119.567 162.606 120.751 161.211 121.649C159.812 122.551 158.103 123 156.085 123C154.72 123 153.464 122.763 152.309 122.29C151.153 121.816 150.147 121.151 149.298 120.298C148.446 119.445 147.784 118.442 147.308 117.286C146.834 116.13 146.598 114.859 146.598 113.47C146.598 112.178 146.827 110.956 147.29 109.8C147.753 108.644 148.397 107.634 149.225 106.77C150.053 105.907 151.031 105.217 152.162 104.709C153.293 104.197 154.539 103.943 155.904 103.943C157.337 103.943 158.615 104.179 159.735 104.653C160.852 105.127 161.792 105.785 162.547 106.624C163.302 107.463 163.873 108.455 164.263 109.601C164.653 110.747 164.848 111.986 164.848 113.327V113.766C164.823 113.912 164.813 114.044 164.813 114.166C164.788 114.288 164.778 114.42 164.778 114.567H151.313C151.411 115.298 151.609 115.925 151.915 116.447C152.218 116.969 152.597 117.408 153.046 117.76C153.495 118.111 153.989 118.369 154.525 118.526C155.061 118.686 155.608 118.763 156.168 118.763C157.264 118.763 158.169 118.512 158.886 118.014C159.603 117.516 160.17 116.889 160.584 116.134L164.562 118.104L164.548 118.108ZM160.205 111.172C160.181 110.855 160.076 110.503 159.895 110.113C159.714 109.723 159.446 109.357 159.091 109.016C158.74 108.675 158.301 108.396 157.779 108.177C157.257 107.958 156.631 107.85 155.9 107.85C154.877 107.85 153.979 108.142 153.199 108.727C152.42 109.312 151.874 110.127 151.557 111.175H160.205V111.172Z" fill="#F9BA04"/>
<line x1="234.098" y1="3" x2="234.098" y2="142" stroke="white" stroke-width="3"/>
<g clip-path="url(#clip0_609_2162)">
<path d="M330.839 62.8746L314.064 111.371L313.863 111.953L304.277 102.791L318.15 62.8822L330.839 62.8746Z" fill="#E40021"/>
<path d="M332.978 20.0897L339.408 38.0859L336.308 47.2106L323.555 47.2749L332.978 20.0897Z" fill="#E40021"/>
<path d="M380.162 111.088L370.05 117.631L333.57 18.3811L339.868 0.237503L380.162 111.088Z" fill="#FFBC00"/>
<path d="M363.286 122.057L357.261 125.958L352.944 128.762L320.656 97.9108L324.916 85.403L363.286 122.057Z" fill="white"/>
<path d="M370.427 60.9204L388.627 49.0968L337.583 49.1044L333.523 60.9204H370.427Z" fill="#FFBC00"/>
<path d="M269.594 49.1006L308.1 85.8982L312.398 73.4244L299.304 60.9053L331.498 60.9129L335.595 49.093L269.594 49.1006Z" fill="#008A00"/>
<path d="M368.235 118.848L358.052 125.444L342.184 81.6344L352.616 74.8645L368.235 118.848Z" fill="white"/>
<path d="M370.029 77.7297L365.859 66.2501L392.285 49.093L414.144 49.0968L370.029 77.7297Z" fill="white"/>
<path d="M403.606 70.1396C404.532 71.0279 405.019 72.1354 405.076 73.4962H402.173C402.01 72.7894 401.757 72.3169 401.409 72.0825C401.065 71.8293 400.483 71.7008 399.686 71.7008C398.726 71.7008 398.196 71.7915 397.671 72.2262C397.165 72.6609 396.926 73.534 396.926 74.9666C396.926 76.3992 397.161 77.2724 397.671 77.7071C398.196 78.1417 398.722 78.2325 399.686 78.2325C400.483 78.2325 401.065 78.104 401.409 77.8696C401.753 77.6163 402.007 77.1438 402.173 76.437H405.076C405.023 77.7978 404.532 78.9242 403.606 79.8125C402.679 80.7008 401.375 81.1355 399.686 81.1355C395.547 81.1355 394.023 78.051 394.023 74.9666C394.023 71.8822 395.547 68.7978 399.686 68.7978C401.372 68.7978 402.679 69.2514 403.606 70.1396Z" fill="white"/>
<path d="M414.404 81.1355L413.86 79.2304H409.467L408.923 81.1355H405.801L409.448 68.7978H413.875L417.522 81.1355H414.4H414.404ZM410.284 76.3274H413.043L411.811 72.0258H411.52L410.288 76.3274H410.284Z" fill="white"/>
<path d="M430.475 68.7978H433.378V81.1355H430.475V75.4202H430.184L427.481 80.3001H424.869L422.167 75.4202H421.876V81.1355H418.973V68.7978H421.876L426.03 76.437H426.321L430.475 68.7978Z" fill="white"/>
<path d="M443.687 71.7008H437.915V73.5151H442.598V76.4181H437.915V78.2325H443.687V81.1355H435.375V68.7978H443.687V71.7008Z" fill="white"/>
<path d="M452.034 76.2366H455.825V81.1354H452.922V77.6314H448.587V81.1354H445.684V68.7978H450.291C454.011 68.7978 455.644 70.2682 455.644 72.6608C455.644 74.6944 454.355 75.9456 452.034 75.9456V76.2366ZM448.587 74.7322H450.291C452.125 74.7322 452.741 74.4412 452.741 73.2089C452.741 72.5739 452.559 72.1732 452.215 71.9918C451.871 71.7915 451.217 71.7007 450.291 71.7007H448.587V74.7322Z" fill="white"/>
<path d="M463.482 81.1354C461.649 81.1354 460.179 80.5533 459.09 79.3929C458.001 78.2136 457.457 76.7432 457.457 74.9666C457.457 73.19 458.001 71.7196 459.09 70.5592C460.179 69.3799 461.649 68.7978 463.482 68.7978C465.315 68.7978 466.786 69.3799 467.875 70.5592C468.963 71.7196 469.507 73.19 469.507 74.9666C469.507 76.7432 468.963 78.2136 467.875 79.3929C466.786 80.5533 465.315 81.1354 463.482 81.1354ZM463.482 78.2324C465.569 78.2324 466.604 77.1438 466.604 74.9666C466.604 72.7894 465.569 71.7007 463.482 71.7007C461.396 71.7007 460.36 72.7894 460.36 74.9666C460.36 77.1438 461.396 78.2324 463.482 78.2324Z" fill="white"/>
<path d="M476.803 81.1354C474.969 81.1354 473.499 80.5533 472.41 79.3929C471.322 78.2136 470.777 76.7432 470.777 74.9666C470.777 73.19 471.322 71.7196 472.41 70.5592C473.499 69.3799 474.969 68.7978 476.803 68.7978C478.636 68.7978 480.106 69.3799 481.195 70.5592C482.283 71.7196 482.828 73.19 482.828 74.9666C482.828 76.7432 482.283 78.2136 481.195 79.3929C480.106 80.5533 478.636 81.1354 476.803 81.1354ZM476.803 78.2324C478.889 78.2324 479.925 77.1438 479.925 74.9666C479.925 72.7894 478.889 71.7007 476.803 71.7007C474.716 71.7007 473.68 72.7894 473.68 74.9666C473.68 77.1438 474.716 78.2324 476.803 78.2324Z" fill="white"/>
<path d="M492.257 68.7978H495.16V81.1355H492.257L487.467 74.2749H487.176V81.1355H484.273V68.7978H487.176L491.966 75.6546H492.257V68.7978Z" fill="white"/>
<path d="M394.391 99.2791V86.9414H397.294V99.2791H394.391Z" fill="white"/>
<path d="M407.272 86.9414H410.175V99.2791H407.272L402.483 92.4185H402.192V99.2791H399.289V86.9414H402.192L406.981 93.7982H407.272V86.9414Z" fill="white"/>
<path d="M421.389 86.9414V89.8444H418.142V99.2791H415.239V89.8444H411.992V86.9414H421.393H421.389Z" fill="white"/>
<path d="M431.328 89.8444H425.556V91.6588H430.239V94.5617H425.556V96.3761H431.328V99.2791H423.016V86.9414H431.328V89.8444Z" fill="white"/>
<path d="M439.674 94.3803H443.466V99.2791H440.563V95.7751H436.227V99.2791H433.324V86.9414H437.932C441.651 86.9414 443.284 88.4118 443.284 90.8045C443.284 92.8381 441.995 94.0892 439.674 94.0892V94.3803ZM436.227 92.8759H437.932C439.765 92.8759 440.381 92.5848 440.381 91.3526C440.381 90.7176 440.2 90.3169 439.856 90.1354C439.512 89.9351 438.858 89.8444 437.932 89.8444H436.227V92.8759Z" fill="white"/>
<path d="M453.264 86.9414H456.167V99.2791H453.264L448.475 92.4185H448.184V99.2791H445.281V86.9414H448.184L452.973 93.7982H453.264V86.9414Z" fill="white"/>
<path d="M466.224 99.2791L465.68 97.374H461.288L460.743 99.2791H457.621L461.269 86.9414H465.695L469.343 99.2791H466.22H466.224ZM462.104 94.471H464.863L463.631 90.1695H463.34L462.108 94.471H462.104Z" fill="white"/>
<path d="M478.198 86.9414V89.8444H474.951V99.2791H472.048V89.8444H468.801V86.9414H478.201H478.198Z" fill="white"/>
<path d="M479.832 99.2791V86.9414H482.735V99.2791H479.832Z" fill="white"/>
<path d="M490.388 99.2791C488.555 99.2791 487.085 98.697 485.996 97.5365C484.908 96.3572 484.363 94.8868 484.363 93.1102C484.363 91.3337 484.908 89.8633 485.996 88.7028C487.085 87.5235 488.555 86.9414 490.388 86.9414C492.222 86.9414 493.692 87.5235 494.781 88.7028C495.869 89.8633 496.414 91.3337 496.414 93.1102C496.414 94.8868 495.869 96.3572 494.781 97.5365C493.692 98.697 492.222 99.2791 490.388 99.2791ZM490.388 96.3761C492.475 96.3761 493.511 95.2875 493.511 93.1102C493.511 90.933 492.475 89.8444 490.388 89.8444C488.302 89.8444 487.266 90.933 487.266 93.1102C487.266 95.2875 488.302 96.3761 490.388 96.3761Z" fill="white"/>
<path d="M505.846 86.9414H508.749V99.2791H505.846L501.057 92.4185H500.766V99.2791H497.863V86.9414H500.766L505.555 93.7982H505.846V86.9414Z" fill="white"/>
<path d="M518.798 99.2791L518.254 97.374H513.862L513.318 99.2791H510.195L513.843 86.9414H518.269L521.917 99.2791H518.795H518.798ZM514.678 94.471H517.438L516.205 90.1695H515.914L514.682 94.471H514.678Z" fill="white"/>
<path d="M526.278 96.3761H530.595V99.2791H523.371V86.9414H526.274V96.3761H526.278Z" fill="white"/>
<path d="M403.608 105.085V107.988H400.361V117.423H397.458V107.988H394.211V105.085H403.612H403.608Z" fill="white"/>
<path d="M413.554 107.988H407.782V109.802H412.466V112.705H407.782V114.52H413.554V117.423H405.242V105.085H413.554V107.988Z" fill="white"/>
<path d="M424.219 106.427C425.145 107.315 425.633 108.423 425.689 109.783H422.786C422.624 109.077 422.37 108.604 422.023 108.37C421.679 108.117 421.097 107.988 420.299 107.988C419.339 107.988 418.81 108.079 418.284 108.513C417.778 108.948 417.54 109.821 417.54 111.254C417.54 112.686 417.774 113.56 418.284 113.994C418.81 114.429 419.335 114.52 420.299 114.52C421.097 114.52 421.679 114.391 422.023 114.157C422.367 113.904 422.62 113.431 422.786 112.724H425.689C425.636 114.085 425.145 115.211 424.219 116.1C423.293 116.988 421.989 117.423 420.299 117.423C416.164 117.423 414.637 114.338 414.637 111.254C414.637 108.169 416.16 105.085 420.299 105.085C421.985 105.085 423.293 105.539 424.219 106.427Z" fill="white"/>
<path d="M434.922 105.085H437.825V117.423H434.922V112.887H430.223V117.423H427.32V105.085H430.223V109.984H434.922V105.085Z" fill="white"/>
<path d="M447.082 112.739C447.898 113.303 448.843 113.737 449.913 114.047C451.002 114.357 451.981 114.52 452.854 114.52C454.578 114.52 455.141 114.391 455.141 113.756C455.141 113.465 455.012 113.265 454.759 113.159C454.506 113.03 453.924 112.868 452.998 112.668L451.799 112.395C450.204 112.033 449.04 111.579 448.333 111.054C447.626 110.528 447.263 109.746 447.263 108.748C447.263 106.28 449.097 105.081 452.2 105.081C452.945 105.081 453.795 105.191 454.74 105.391C455.7 105.592 456.464 105.826 457.061 106.117V109.058C456.192 108.733 455.266 108.476 454.302 108.279C453.342 108.079 452.559 107.988 451.962 107.988H451.818C451.255 107.988 451.055 107.988 450.677 108.06C450.314 108.113 450.17 108.279 450.17 108.551C450.17 108.823 450.371 109.005 450.662 109.133C450.824 109.205 451.225 109.296 451.497 109.368L452.695 109.621C453.292 109.749 453.746 109.874 454.094 109.965L455.273 110.29C455.708 110.419 456.037 110.562 456.271 110.691C456.762 110.925 457.379 111.326 457.613 111.779C457.847 112.214 458.048 112.815 458.048 113.556C458.048 114.845 457.556 115.805 456.596 116.459C455.636 117.094 454.4 117.419 452.858 117.419C451.932 117.419 450.9 117.275 449.72 116.965C448.56 116.655 447.687 116.259 447.09 115.805V112.739H447.082Z" fill="white"/>
<path d="M470.526 112.705C470.526 114.248 470.019 115.427 469.022 116.224C468.024 117.022 466.682 117.423 465.011 117.423C463.34 117.423 461.998 117.022 461 116.224C460.003 115.427 459.496 114.248 459.496 112.705V105.085H462.399V111.98C462.399 112.925 462.581 113.575 462.924 113.957C463.268 114.338 463.975 114.52 465.011 114.52C466.047 114.52 466.754 114.338 467.098 113.957C467.441 113.575 467.623 112.921 467.623 111.98V105.085H470.526V112.705Z" fill="white"/>
<path d="M484.022 105.085H486.925V117.423H484.022V111.707H483.731L481.028 116.587H478.416L475.714 111.707H475.423V117.423H472.52V105.085H475.423L479.577 112.724H479.868L484.022 105.085Z" fill="white"/>
<path d="M500.42 105.085H503.323V117.423H500.42V111.707H500.129L497.427 116.587H494.815L492.112 111.707H491.821V117.423H488.918V105.085H491.821L495.975 112.724H496.266L500.42 105.085Z" fill="white"/>
<path d="M505.324 117.423V105.085H508.227V117.423H505.324Z" fill="white"/>
<path d="M519.436 105.085V107.988H516.189V117.423H513.286V107.988H510.039V105.085H519.44H519.436Z" fill="white"/>
</g>
<defs>
<clipPath id="clip0_609_2162">
<rect width="261" height="128.525" fill="white" transform="translate(269.598 0.237503)"/>
</clipPath>
</defs>
</svg>
